<svg xmlns="http://www.w3.org/2000/svg" width="460.803" height="514.244" viewBox="0 0 460.803 514.244"><g transform="translate(4.055 4.261)"><g transform="translate(0.02 0.002)"><path d="M1081.469,393c-8.883-11.889-14.789-24.074-20.087-36.585-5.862-13.839-9.949-28.233-13.265-42.858-.76-3.344-1.106-6.779-1.864-10.124a6.882,6.882,0,0,1,1.864-6.41c5.284-6.154,10.51-12.354,15.763-18.535,2.625-3.09,5.209-6.217,7.9-9.249,1.437-1.617,2.606-1.661,3.842.041a30.019,30.019,0,0,0,8.295,8.129,18.918,18.918,0,0,0,3.705,1.953c3.449,1.193,5.1.084,5.344-3.483a12.634,12.634,0,0,0-1.179-6.374,37.565,37.565,0,0,0-4.072-7.347,38.236,38.236,0,0,1-3.011-4.73,3.461,3.461,0,0,1,.386-3.949c1.685-2.379,3.49-2.264,4.964.364.455.814.77,1.706,1.177,2.548a26.635,26.635,0,0,0,7.942,9.676c1.384,1.051,2.907,1.919,4.754,1.087,1.984-.9,2.563-2.678,2.6-4.621a28.47,28.47,0,0,0-2.075-10.5c-1.351-3.652-2.862-7.244-4.275-10.877a16.37,16.37,0,0,1-.978-3.1,1.417,1.417,0,0,1,1.087-1.791,1.349,1.349,0,0,1,1.5.849c1.594,3.433,4.117,6.241,6.244,9.312a19.4,19.4,0,0,0,7.468,6.224,9.122,9.122,0,0,0,2.654.829,2.086,2.086,0,0,0,2.288-1.244,7.358,7.358,0,0,0,.528-4.563c-.624-4.551-2.512-8.668-4.443-12.757-1.2-2.534-2.593-4.97-3.9-7.456-.217-.412-.388-.851-.608-1.263a4.67,4.67,0,0,1,.745-5.928c4.32-4.92,8.423-10.033,12.569-15.1a27.276,27.276,0,0,1,4.122-3.782,18.712,18.712,0,0,1,8.461-3.772,50.8,50.8,0,0,1,23.609.981,140.039,140.039,0,0,1,14.676,4.787,44.927,44.927,0,0,1,12.429,7.331,17.072,17.072,0,0,1,5.737,10.416,22.49,22.49,0,0,1-1.962,14.119c-1.746,3.659-3.621,7.265-5.188,11a91.7,91.7,0,0,0-3.38,9.713,19.912,19.912,0,0,0,1.215,13.726c1.812,4.226,5.458,6.371,9.941,6.745a28.279,28.279,0,0,0,9.3-.68c4.233-1.065,8.5-2.008,12.743-3.035a30.726,30.726,0,0,1,8.359-.829,7.092,7.092,0,0,1,5.366,2.452,6.64,6.64,0,0,1,1.255,6.164,70.79,70.79,0,0,1-5.68,16.305,106.613,106.613,0,0,1-8.341,14.08,114.15,114.15,0,0,0-7.043,11.588,25.845,25.845,0,0,1-1.673,2.806,1.91,1.91,0,0,1-2.478.692c-.849-.381-1.629-.906-2.444-1.365-16.889-9.505-34.433-9.951-52.43-3.732a78.981,78.981,0,0,0-26.44,15.6,96.764,96.764,0,0,0-21.577,26.83,117.2,117.2,0,0,0-9.387,22.4,101.03,101.03,0,0,0-2.464,11.9c-.261,1.538-.48,3.086-.81,4.607a1.247,1.247,0,0,1-2.189.562,28.493,28.493,0,0,1-2.791-3.136C1084.4,397.143,1082.607,394.583,1081.469,393Z" transform="translate(-780.165 -196.667)" fill="#a05d57"/><path d="M717.733,794a1.5,1.5,0,0,1-.844,2.572c-2,.287-4.023.485-6.043.6a97.086,97.086,0,0,0-19.326,3.372,144.981,144.981,0,0,0-26.342,9.56c-4.91,2.372-9.674,4.99-14.412,7.7a144.912,144.912,0,0,0-12.465,8.234,128.991,128.991,0,0,0-18.934,17.307c-.424.456-.788.967-1.186,1.446a4.6,4.6,0,0,1-5.8,1.48c-4.8-1.861-9.633-3.628-14.511-5.26a223.166,223.166,0,0,0-38.572-9.382c-1.235-.179-2.473-.364-3.689-.639-2.13-.484-2.456-1.454-1.12-3.324.541-.757,1.2-1.437,1.8-2.151q31.993-37.872,63.981-75.755,20.507-24.313,40.953-48.675a56.774,56.774,0,0,1,4.12-4.445,1.556,1.556,0,0,1,2.6.793q.9,3.388,1.59,6.829a183.878,183.878,0,0,0,17.654,50.107,134.554,134.554,0,0,0,11.425,18.718A158.287,158.287,0,0,0,714.128,790.5C715.352,791.7,716.588,792.891,717.733,794Z" transform="translate(-461.179 -520.295)" fill="#a05d57"/><path d="M405.651,1348.109c-2.751,1.982-6.312,4.79-10.111,7.229a48.56,48.56,0,0,1-31.612,7.791,13.583,13.583,0,0,1-3.2-.66c-7.992-2.818-14.295-7.793-17.888-15.507a59.025,59.025,0,0,1-4.1-39.239c.492-2.112,1.405-4.125,2.1-6.19a24.563,24.563,0,0,0,.763-2.69,1.688,1.688,0,0,0-.712-1.635,1.427,1.427,0,0,0-1.742-.087,19.508,19.508,0,0,0-2.588,1.982c-8.849,8.435-19.362,10.886-31.082,8.34a15.847,15.847,0,0,1-10.775-7.6,38.239,38.239,0,0,1-3.4-8.178c-.8-2.636-.08-4.787,1.726-6.867,5.619-6.473,11.116-13.053,16.646-19.6q11.462-13.577,22.907-27.169c2.942-3.485,3.119-3.485,6.54-.419a151.207,151.207,0,0,0,26.214,18.714c10.979,6.253,22.222,12.022,34.129,16.344,2.7.981,4.584,2.375,5.412,5.236a25.33,25.33,0,0,0,4.262,7.75c2.948,4.025,5.761,8.157,8.85,12.072a152.612,152.612,0,0,0,16.426,17.216c1.143,1.061,2.294,2.117,3.362,3.247,1.1,1.16,1.083,2.1-.073,3.23-2.009,1.953-4.011,3.922-6.139,5.742C423.4,1334.132,415.817,1341.812,405.651,1348.109Z" transform="translate(-290.975 -869.585)" fill="#a05d57"/></g><g transform="translate(20.918 0.033)"><path d="M1279.96,197.617a10.5,10.5,0,0,1,2.078-.7,13.418,13.418,0,0,1,3.259-.1c1.311.145,3.09-.277,3.611,1.377.424,1.348-1.027,2.131-1.8,3.054-4.615,5.482-8.885,11.221-13.065,17.043a162.144,162.144,0,0,0-16.149,28.356c-.128.285-.224.584-.364.861-.342.682-.6,1.606-1.459,1.637-1.022.036-1.056-1.007-1.193-1.714a26.534,26.534,0,0,0-1.622-5.834,5.853,5.853,0,0,1,.47-5.347,173.623,173.623,0,0,1,24.608-36.766C1278.847,198.9,1279.351,198.314,1279.96,197.617Z" transform="translate(-934.995 -196.758)" fill="#c9816b"/><path d="M653.808,881.165c-7.862,6.528-18.466,10.98-29.544,14.379a64.616,64.616,0,0,1-32.317,1.861,83.5,83.5,0,0,1-14.688-4.623c-1.781-.724-2-1.693-.823-3.25a22.242,22.242,0,0,1,1.85-2.107c1.4-1.444,1.873-1.637,3.665-.67,11.177,6.024,22.841,5.347,34.576,2.382a90.845,90.845,0,0,0,23.636-9.845,103.6,103.6,0,0,0,12.438-8.244c13.549-10.792,25.045-23.349,32.4-39.259,3.557-7.7,5.939-15.736,6.068-24.313a6.452,6.452,0,0,1,.234-1.369c.029-.125.194-.308.293-.308.273.007.683.007.791.174a12.465,12.465,0,0,1,1.108,2.044,34.118,34.118,0,0,0,2.1,5.187c1.823,2.91,1.68,5.872.983,8.991a65.8,65.8,0,0,1-4.77,14.146,117.318,117.318,0,0,1-24.77,34.262A132.3,132.3,0,0,1,653.808,881.165Z" transform="translate(-496.338 -591.328)" fill="#c9816b"/><path d="M1338.779,336.287a58.449,58.449,0,0,1-8.254-24.675c-1.977-20.447,3.66-38.789,15.076-55.6a122.561,122.561,0,0,1,14.632-17.556,45.047,45.047,0,0,1,7.281-5.831c1.943-1.278,2.781-1.157,4.589.371a14.848,14.848,0,0,1,1.336,1.306,1.915,1.915,0,0,1,.058,2.9,11.882,11.882,0,0,1-1.982,1.952c-9.585,7.292-16.845,16.583-22.775,26.924a80.056,80.056,0,0,0-8.119,21.322,63.8,63.8,0,0,0-.839,26.379A47.935,47.935,0,0,0,1345,328.7c1.808,3.279,3.452,6.615,6.249,9.218a1.24,1.24,0,0,1-.482,1.948,32.187,32.187,0,0,1-7.348,1.237,2.31,2.31,0,0,1-1.958-1.094C1340.712,339.013,1340,337.989,1338.779,336.287Z" transform="translate(-985.099 -219.428)" fill="#c9816b"/><path d="M681.275,832.87c-12.319,8.509-25.852,11.091-40.484,8.27a14.473,14.473,0,0,1-2.247-.617c-1.888-.689-2.187-1.552-1.086-3.112.537-.762,1.167-1.461,1.725-2.211,1.316-1.774,2.8-2.283,5.175-1.895,7.29,1.193,14.641,1.275,21.656-1.487a39.914,39.914,0,0,0,22.138-20.374,66.367,66.367,0,0,0,6.624-25.14,138.844,138.844,0,0,0,.17-14.008c-.06-1.386-.341-2.912.715-4.031,1.358-1.437,2.208-4.2,4.234-3.961,2.409.282,1.937,3.194,2.291,5.043,2.643,13.767,1.919,27.3-3.286,40.428C695.351,818.733,688.894,827.532,681.275,832.87Z" transform="translate(-535.93 -564.437)" fill="#c9816b"/><path d="M496.308,1410.982c-14.894-22.66-17.022-46.247-4.961-70.8a67.083,67.083,0,0,1,12.212-17c2.33-2.411,3.035-2.517,6.1-.969a13.566,13.566,0,0,1,1.6.957,1.157,1.157,0,0,1,.345,1.642,30.675,30.675,0,0,1-2.582,3.307,62.589,62.589,0,0,0-14.3,26.976,66.658,66.658,0,0,0-1.345,24.126,71.019,71.019,0,0,0,8.289,25.615,72.682,72.682,0,0,0,4.484,6.55c.794,1.152,1.595,2.3,2.348,3.481a1.13,1.13,0,0,1-.325,1.639,8.311,8.311,0,0,1-4.912,1.2c-1.237-.056-1.769-1.154-2.607-1.815A23.386,23.386,0,0,1,496.308,1410.982Z" transform="translate(-436.631 -925.222)" fill="#c9816b"/><path d="M1226.247,444.034a10.957,10.957,0,0,1-.855.906,1.94,1.94,0,0,1-3.137-.622c-1.258-2.324-2.494-4.667-3.586-7.07a92.485,92.485,0,0,1-8.163-37.651,109.355,109.355,0,0,1,4.313-31.822c1.041-3.587,2.213-7.14,3.394-10.684,1-2.987,1.126-3.018,3.891-2.114.147.048.282.142.432.178,1.478.347,2.956.687,4.433,1.029.2,1.94-.776,3.613-1.333,5.354a128.638,128.638,0,0,0-5.128,21.327,97.386,97.386,0,0,0,2.649,41.19,66.247,66.247,0,0,0,5.262,12.969c1.725,3.2,1.627,3.433-1.015,5.969C1226.955,443.424,1226.479,443.827,1226.247,444.034Z" transform="translate(-907.591 -298.925)" fill="#c9816b"/><path d="M1095.806,419.379c.986-.8,1.945-.564,2.316.588,1.142,3.558,2.353,7.107,3.257,10.727,3.616,14.5,4.277,29.24,3.421,44.1a222.139,222.139,0,0,1-3.476,28.269c-.716,3.821-1.728,7.586-2.642,11.368a.994.994,0,0,1-.632.6.91.91,0,0,1-.788-.3,44.8,44.8,0,0,1-4.479-9.717,5.829,5.829,0,0,1,.361-2.738,165.351,165.351,0,0,0,3.79-36.2,135.755,135.755,0,0,0-4.727-35.118c-1.842-6.959-1.6-5.366,2.722-10.742A8.325,8.325,0,0,1,1095.806,419.379Z" transform="translate(-830.25 -340.679)" fill="#c9816b"/><path d="M379.434,1259.068c2.647-1.9,3.9-1.914,6.3-.333,4.189,2.77,4.287,3.426.7,6.844a108.728,108.728,0,0,0-16.128,19.26,71.9,71.9,0,0,0-9.865,25.022c-.73,3.5-1.521,6.983-2.218,10.488a2.567,2.567,0,0,1-2.548,2.264c-5.667.516-5.537.216-5.243-4.648.57-9.4,3.141-18.363,6.718-27.051a96.785,96.785,0,0,1,13.159-22.482C373.1,1264.836,376.624,1262.019,379.434,1259.068Z" transform="translate(-350.321 -884.025)" fill="#c9816b"/><path d="M592.606,1445.791a45.615,45.615,0,0,1-5.6-25.644,48.546,48.546,0,0,1,12.175-29.684c.308-.352.615-.706.941-1.041,1.419-1.451,2.281-1.726,3.163-1.027,1.643,1.3,2.3,3.032,1.569,4.469a17.887,17.887,0,0,1-1.553,2.328c-7.45,10.225-9.98,21.662-8.2,34.083a71.825,71.825,0,0,0,1.953,8.174c.44,1.654,1.081,3.254,1.566,4.9.894,3.037.623,3.717-2.008,5.419-1.643,1.061-2.523.889-3.433-.7C592.95,1446.66,592.795,1446.216,592.606,1445.791Z" transform="translate(-503.58 -968.527)" fill="#c9816b"/><path d="M1444.2,435.066c-3.7-6.118-6.615-12.1-6.272-19.106a38.346,38.346,0,0,1,.67-5.069.877.877,0,0,1,1.4-.639c1.514,1.078,2.931,2.295,4.421,3.411a3.2,3.2,0,0,1,1.143,2.449c.535,5.1,2.854,9.6,5.554,13.712a41.558,41.558,0,0,0,10.423,10.553,29.078,29.078,0,0,0,7.618,4.448,13.439,13.439,0,0,1,2.874,1.516,1.236,1.236,0,0,1,.4,1.646,5.159,5.159,0,0,1-.419.832c-2.56,3.645-2.44,4.722-7.376,2.247-7.01-3.515-13.485-7.719-18.393-14.008A17.985,17.985,0,0,0,1444.2,435.066Z" transform="translate(-1054.915 -334.953)" fill="#c9816b"/><path d="M953.869,935.567c2.28,3,2.338,3.479.492,6.133-1.861,2.676-3.835,5.274-5.725,7.929a7.621,7.621,0,0,1-4.968,3.163c-2.283.446-4.547.986-6.826,1.449a1.043,1.043,0,0,1-.853-.2.941.941,0,0,1-.063-.829,9.215,9.215,0,0,1,.9-1.62q5.693-8.233,11.413-16.445a17.22,17.22,0,0,1,1.406-1.851,1.354,1.354,0,0,1,2.056-.1C952.6,934.044,953.374,935.02,953.869,935.567Z" transform="translate(-729.665 -673.586)" fill="#c9816b"/></g><g transform="translate(0 75.196)" opacity="0.5"><path d="M406.517,1415.813c-3.67,2.641-7.232,5.455-11.032,7.892a48.763,48.763,0,0,1-31.624,7.8,17.188,17.188,0,0,1-5.82-1.675c-7.119-3.411-12.683-8.378-15.833-15.816a59.925,59.925,0,0,1-3.581-37.513c.551-2.418,1.578-4.724,2.332-7.1a12.7,12.7,0,0,0,.574-2.712c.071-.831-1.268-1.676-2.038-1.381a9.28,9.28,0,0,0-3.013,2.172c-8.841,8.468-19.375,10.852-31.093,8.309a15.772,15.772,0,0,1-10.748-7.641,34.905,34.905,0,0,1-3.479-8.645,5.882,5.882,0,0,1,1.272-5.669c3.251-3.785,6.447-7.617,9.721-11.381,1.614-1.853,2.445-1.776,4.1.176.4.477.745,1,1.127,1.495,4.521,5.827,10.407,7.714,17.432,5.745,5.853-1.641,11.595-3.656,17.679-4.394a31.352,31.352,0,0,1,11.61.515c4.763,1.205,8.42,3.754,10.59,8.356a39.853,39.853,0,0,1,3.457,10.621c.9,5.539,1.642,11.1,2.988,16.57a36.85,36.85,0,0,0,3.938,9.46c3.15,5.505,11.59,8.075,17.3,5.356a11.847,11.847,0,0,0,4.839-4.922,23.587,23.587,0,0,0,3.515-12.9,65.279,65.279,0,0,0-2.253-14.753,72.1,72.1,0,0,1-2.631-14.7,18.094,18.094,0,0,1,.909-6.9c.265-.771.873-1.471,1.727-1.269,2.274.538,4.7,1.042,5.609,3.631,2.854,8.136,8.6,14.432,13.59,21.17,4.825,6.516,10.76,12.084,16.7,17.6,1.142,1.058,2.292,2.114,3.362,3.247,1.091,1.155,1.069,2.107-.09,3.233q-3.014,2.929-6.134,5.749c-4.032,3.661-7.981,7.425-12.173,10.893-4.081,3.378-8.422,6.439-12.651,9.64C406.636,1415.975,406.576,1415.894,406.517,1415.813Z" transform="translate(-290.918 -1013.135)" fill="#a05d57"/><path d="M1124.253,529.552a104.771,104.771,0,0,1-8.572-13.441,10.284,10.284,0,0,1-1.347-7.6c1.817-8.054,3.611-16.072,7.171-23.641a90.4,90.4,0,0,1,15.332-23.332c13.364-14.425,29.757-22.857,49.393-24.774a217.613,217.613,0,0,1,25.234-.53,58.283,58.283,0,0,0,20.244-3.008,38.259,38.259,0,0,0,8.774-4.315,19.746,19.746,0,0,0,8.751-12.231c.506-2.148,1.47-3.2,3.6-3.616,2.9-.559,5.756-1.374,8.63-2.085a30.05,30.05,0,0,1,7.9-.769c4.209.1,7.916,3.3,6.76,8.519a72.155,72.155,0,0,1-5.665,16.3,105.052,105.052,0,0,1-8.317,14.075,98.082,98.082,0,0,0-7.241,12c-2.3,4.537-3.2,3.773-6.354,1.95a57.54,57.54,0,0,0-19.67-7.15,65.891,65.891,0,0,0-32.254,3.069,79.861,79.861,0,0,0-27.259,15.978c-14.454,12.788-24.327,28.633-30.163,47.028a100.351,100.351,0,0,0-3.18,14.6c-.219,1.381-.462,2.765-.771,4.129a1.188,1.188,0,0,1-1.882.574,26.391,26.391,0,0,1-2.847-3.073C1128.546,535.6,1126.672,532.912,1124.253,529.552Z" transform="translate(-824.214 -410.2)" fill="#a05d57"/><path d="M719.449,939.814a71.817,71.817,0,0,1,16.2-9.008c4.925-1.955,9.83-3.968,14.8-5.8,8.434-3.125,15.867-7.907,22.887-13.427,3.758-2.955,6.357-6.86,8.632-10.939,3.352-6.007,3.039-6.014,7.148-.227a154.72,154.72,0,0,0,17.807,20.35c1.251,1.234,3.811,2.165,3.167,4.214-.656,2.092-3.177,1.335-4.947,1.468-16.7,1.251-32.433,6-47.544,13.01-5.085,2.36-9.962,5.1-14.829,7.9-4.345,2.5-8.406,5.342-12.455,8.234-7,5-13.067,11.045-18.916,17.313-.531.569-.979,1.215-1.509,1.786a4.107,4.107,0,0,1-5.041,1.205c-2.441-1.029-4.97-1.844-7.421-2.852a2.245,2.245,0,0,1-1.5-3,27.9,27.9,0,0,1,2.808-6.913,71.407,71.407,0,0,1,11.474-15.286A64.211,64.211,0,0,1,719.449,939.814Z" transform="translate(-553.227 -724.991)" fill="#a05d57"/></g><g transform="translate(30.987 11.232)"><path d="M581.884,465.415a34.5,34.5,0,0,1,12.429-6.352,18.81,18.81,0,0,1,6.024-.622,8.9,8.9,0,0,1,6.889,3.447,15.787,15.787,0,0,1,3.353,7.032c1.464,8.437,3.163,16.848,5.193,25.164A220.364,220.364,0,0,0,626.8,527.365c4.782,11.359,9.989,22.513,17.3,32.543a31.768,31.768,0,0,1,1.6,2.847,13.536,13.536,0,0,0,1.953,3.163c4.315,4.089,7.214,9.4,11.71,13.335,3.756,3.293,7.323,6.805,11.74,9.228,1.106.605,2.266,1.75,3.749.7-.2-1.495-1.637-1.793-2.577-2.5-3.119-2.348-6.113-4.833-9.073-7.374a5.115,5.115,0,0,1-1.958-4.9,103.351,103.351,0,0,1,10.751-36.622A95.4,95.4,0,0,1,693.467,509.7a104.465,104.465,0,0,1,8.722-7.022c10.939-7.707,23.011-12.586,36.4-13.48,16.758-1.123,31.289,4.124,43.188,16.245,11.47,11.684,16.913,26.025,18.239,42.012,1.548,18.682-2.574,36.26-11.354,52.78a86.138,86.138,0,0,1-14.054,19.771,9.9,9.9,0,0,0-2.888,7.089c-.27,7.948-.559,15.891-1.119,23.831a321.75,321.75,0,0,1-4.546,35.248,278.948,278.948,0,0,1-9.58,37.6A252.249,252.249,0,0,1,741.829,759.2a230.816,230.816,0,0,1-21.286,34.648,201.979,201.979,0,0,1-20.307,23.211,134.815,134.815,0,0,1-16.616,14.333c-2.285,1.6-4,3.908-6.381,5.461-16.51,10.748-33.613,20.174-52.606,26.017a199.11,199.11,0,0,1-51.026,8.83,205.29,205.29,0,0,1-30.37-1.053c-6.213-.68-12.368-1.634-18.514-2.669a25.667,25.667,0,0,1-14.082-6.834c-4.6-4.481-5.762-11.168-2.336-16.657,2.227-3.57,4.933-6.808,9.068-8.464a53.8,53.8,0,0,0,5.035-2.457,7,7,0,0,0,1.847-1.359,1.083,1.083,0,0,0-.087-1.654,6.941,6.941,0,0,0-2.066-1.032,40.131,40.131,0,0,1-11.163-5.814,163.52,163.52,0,0,1-30.259-27.047c-3.5-3.995-6.822-8.1-9.962-12.371a52.247,52.247,0,0,1-6.829-11.682,9.45,9.45,0,0,0-5.571-5.294c-4.017-1.716-8.061-3.37-12.064-5.115a200.958,200.958,0,0,1-40.368-23.436,116.772,116.772,0,0,1-17.367-16.286,42.414,42.414,0,0,1-8.684-15.384c-2.171-6.875-.69-14.806,6.344-19.972,5.725-4.206,12.215-6.164,18.989-7.444a62,62,0,0,1,10.22-1.13c7.942-.16,15.877-.347,23.806.819,14.07,2.071,27.994,4.74,41.552,9.074a273.5,273.5,0,0,1,30.51,11.881,238.191,238.191,0,0,1,26.261,14.336c1.04.646,1.99,1.557,3.315,1.6a1.094,1.094,0,0,0,.748-.463,1.126,1.126,0,0,0,.163-.854c-.292-.976-1.167-1.434-1.954-1.914-4.79-2.927-9.5-5.995-14.422-8.678-5.062-2.758-10.334-5.135-15.516-7.673a21.374,21.374,0,0,1-2.1-1.01,2.2,2.2,0,0,1-.73-3.235,10.547,10.547,0,0,1,1.415-1.852c3.709-3.782,7.228-7.767,11.574-10.869,2.289-1.632,4-3.9,6.335-5.52a180.645,180.645,0,0,1,32.969-18.441,133.9,133.9,0,0,1,34.15-9.49,99.915,99.915,0,0,1,14-.916,11.89,11.89,0,0,1,6.993,2.165A102.009,102.009,0,0,0,639.816,660.4c11.332,3.838,22.918,6.007,34.934,5.38.921-.048,1.9.13,2.7-.487a1.087,1.087,0,0,0,.36-.805c-.012-.25-.253-.655-.453-.7a14.412,14.412,0,0,0-2.748-.364,105.314,105.314,0,0,1-16.317-1.145,100.281,100.281,0,0,1-38.656-14.649,118.779,118.779,0,0,1-21.746-18.33c-7.222-7.661-13.157-16.281-18.641-25.145a137.975,137.975,0,0,1-12.736-27.548c-4.043-11.66-7.477-23.5-9.227-35.744-1.433-10.035-2.638-20.094-3.118-30.241a27.741,27.741,0,0,1,2.638-13.15c4.661-10.161,10.639-19.422,18.885-27.071C577.636,468.612,579.815,467.071,581.884,465.415Z" transform="translate(-378.912 -377.468)" fill="#a27dfa"/><path d="M1143.808,242.613a7.322,7.322,0,0,0-2.415,5.318c-.079,1.075.125,2.17.152,3.259.067,2.825-1.118,3.742-3.686,2.512a7.009,7.009,0,0,0-7.09.535,6.082,6.082,0,0,0-3.262,6.66c.251,1.535.7,3.035.978,4.568a5.088,5.088,0,0,1-2.721,5.424,1.536,1.536,0,0,1-1.738-.294c-.812-.726-1.511-1.589-2.37-2.247-2.355-1.8-4.107-1.709-6.7.224a6.1,6.1,0,0,1-1.118.8,1.162,1.162,0,0,1-1.6-.506,6.577,6.577,0,0,1-.658-2.218c-1.02-11.744,1.62-22.2,10.323-30.761a25.954,25.954,0,0,1,8.116-5.315c8.408-3.623,16.462-2.037,24.2,2.235a6.249,6.249,0,0,1,1.075.894,1.745,1.745,0,0,1,.314,2.509c-1.223,1.613-2.568,3.132-3.886,4.669a2.292,2.292,0,0,1-2.579.559A5.776,5.776,0,0,0,1143.808,242.613Z" transform="translate(-853.444 -228.559)" fill="#a27dfa"/></g><path d="M1317.649,696.356c-9.531,7.217-20.379,10.544-32.229,10.886a53.361,53.361,0,0,1-16.619-2.375,65.541,65.541,0,0,1-30.327-18.568,39.84,39.84,0,0,1-7.246-10.848c-1.89-4.276-3.96-8.478-4.975-13.082-4.13-18.718-.306-35.638,11.915-50.408a37.222,37.222,0,0,1,17.443-12.043c7.468-2.4,14.545-1.2,21.17,2.562a26.357,26.357,0,0,1,10.65,11.5c2.16,4.356,4.088,8.738,4.541,13.653.14,1.519.907,1.892,2.2,1.029a35.705,35.705,0,0,1,14.859-5.279,28.46,28.46,0,0,1,14.743,1.166c7.594,2.912,12.911,8.112,15.486,15.792a40.189,40.189,0,0,1,1.515,18.029,53.5,53.5,0,0,1-5.414,17.819,55.327,55.327,0,0,1-14.676,17.974C1319.712,694.943,1318.663,695.628,1317.649,696.356Z" transform="translate(-895.842 -457.111)" fill="#fff"/><g transform="translate(330.717 143.947)"><path d="M1264.512,614.38c3.756,4.607,6.326,9.98,9.426,15a28.24,28.24,0,0,1,4.093,11.339c1.041,8.331-3.317,14.683-11.416,16.712a21.047,21.047,0,0,1-8.8.135,40.57,40.57,0,0,1-14.62-5.935,79.434,79.434,0,0,1-11.751-9.182,3.777,3.777,0,0,1-1.181-4.168,50.85,50.85,0,0,1,15.24-25.673,37.324,37.324,0,0,1,9.078-6.371c2.68-1.256,3.162-1.189,5.019,1.328C1261.258,609.817,1262.871,612.107,1264.512,614.38Z" transform="translate(-1230.068 -605.435)" fill="#cbb7fc"/><path d="M1418.038,748.089c-6.571-9.047-3.621-19.955,6.1-24.183a42.178,42.178,0,0,1,12.2-3.126c7.9-.885,15.828-1.528,23.749-2.223,2.035-.178,2.541.2,2.96,2.109a40.449,40.449,0,0,1,1.1,9.281,52.773,52.773,0,0,1-9.647,30.282,4.217,4.217,0,0,1-4.787,1.9c-5.361-1.01-10.8-1.613-15.972-3.522a39.715,39.715,0,0,1-14.218-8.789A19.106,19.106,0,0,1,1418.038,748.089Z" transform="translate(-1349.562 -678.696)" fill="#cbb7fc"/></g><path d="M887.179,1267.657c4.879-4.065,12.717-4.812,18.76,1.237a11.9,11.9,0,0,1,2.324,3.456c2.753,5.826,2.56,11.783.872,17.8-.5,1.8-1.225,3.532-1.815,5.3a1,1,0,0,0,.7,1.442c1.058.255,2.138.429,3.216.6a29.635,29.635,0,0,1,16.438,8.246,11.669,11.669,0,0,1,3.635,11.439,9.741,9.741,0,0,1-3.611,5.8c-4.009,3.221-8.746,3.98-13.632,4.026a88.187,88.187,0,0,1-21.723-2.955,119.268,119.268,0,0,1-18.107-6.224,60.108,60.108,0,0,1-5.826-2.955,4.042,4.042,0,0,1-2.054-4.349,44.862,44.862,0,0,1,2.025-8.633c3.278-10.45,7.286-20.569,13.98-29.4A18.315,18.315,0,0,1,887.179,1267.657Z" transform="translate(-663.695 -888.454)" fill="#e383d4"/><path d="M1029.583,1243.9c2.994-1.909,6.149-3.491,9.643-1.7s4.129,5.3,4.055,8.82a60.418,60.418,0,0,1-.9,6.945c-.251,1.791.046,2.247,1.931,2.2a22.675,22.675,0,0,1,6.033.589,12.051,12.051,0,0,1,7.567,5.1c3.028,4.659,1.56,10.047-3.36,12.653a21.541,21.541,0,0,1-6.622,2.177,46.108,46.108,0,0,1-23.467-2.266c-.877-.313-1.678-.839-2.558-1.147-3.72-1.292-4.905-4.05-4.455-7.7a44.434,44.434,0,0,1,10.414-24.1A17.964,17.964,0,0,1,1029.583,1243.9Z" transform="translate(-761.544 -873.511)" fill="#d901aa"/><g transform="translate(30.98 11.266)" opacity="0.5"><path d="M912.28,1130.644c-16.12,10.819-32.967,20.078-51.577,26.006a197.323,197.323,0,0,1-52.347,9.324,209.691,209.691,0,0,1-30.366-1.021c-6.371-.678-12.682-1.642-18.974-2.739a26.24,26.24,0,0,1-13.694-6.61c-5.164-4.783-6.55-13.4-.193-20.032a4.194,4.194,0,0,1,2.9-1.326,18.131,18.131,0,0,1,7.388.771,48.569,48.569,0,0,1,9.3,4.4c9.511,6,19.995,7.636,30.963,7.106a105.585,105.585,0,0,0,28.473-5.074,52.152,52.152,0,0,0,23.807-15.874c5.351-6.3,9.963-13.2,15.657-19.212,4.821-5.1,9.541-10.347,15.556-14.068a111.952,111.952,0,0,1,17.52-8.8,158.479,158.479,0,0,0,16.662-7.4c3.837-2.058,7.892-3.8,11.318-6.528,8.165-6.508,14.722-14.3,18.809-24.043a75.608,75.608,0,0,0,5.265-17.906,151.91,151.91,0,0,0,1.181-16.312c.338-8.256.41-16.525.748-24.783a119.774,119.774,0,0,1,7.391-37.465,64.462,64.462,0,0,1,15.779-23.475c4.913-4.812,10.7-7.941,16.759-10.838,5.491-2.628,11.219-2.242,16.985-1.75.829.07,1.427,1.176.887,1.736-2.16,2.247-2.175,5.016-2.242,7.854-.294,11.85-.849,23.7-2.261,35.46a298.738,298.738,0,0,1-5.785,33.647c-2.092,8.808-4.3,17.568-7.14,26.159a254.159,254.159,0,0,1-14.617,35.438,232.161,232.161,0,0,1-21.252,34.659,202.553,202.553,0,0,1-20.273,23.238c-5.245,5.113-10.524,10.19-16.616,14.326C916.094,1127,914.717,1129.453,912.28,1130.644Z" transform="translate(-613.412 -671.776)" fill="#6e26c7"/><path d="M470.66,1194.311a47.856,47.856,0,0,1-6.616-11.272c-1.18-3.032-3.369-4.7-6.222-5.867-6.347-2.594-12.607-5.38-18.839-8.249-5.12-2.358-9.94-5.2-14.807-7.972a139.443,139.443,0,0,1-28.9-21.3,84.8,84.8,0,0,1-9.322-10.428,44.861,44.861,0,0,1-5.96-11.593c-2.376-6.709-1.176-15.179,6.132-20.4a37.638,37.638,0,0,1,11.678-5.734c1.591-.454,2.476.145,2.6,1.7.084,1.085.022,2.179.008,3.272a36.09,36.09,0,0,0,10.488,25.607,61.33,61.33,0,0,0,20.473,13.634c6.7,2.613,13.679,4.272,20.579,6.195,6.652,1.856,13.007,4.31,18.553,8.551a38.228,38.228,0,0,1,12.469,16.009c1.54,3.746,3.063,7.5,4.733,11.19,3.276,7.236,7.792,13.465,14.815,17.546,3.5,2.034,7.005,4.069,10.557,6.015a76.744,76.744,0,0,1,14.162,9.835,18.582,18.582,0,0,1,5.412,8.562c2.324,7.382,1.1,14.155-4.369,19.931-1.228,1.3-2.406,1.425-4.158.863-8.973-2.879-16.273-8.48-23.408-14.281A161.345,161.345,0,0,1,480.3,1206.3C477.346,1202.872,474.436,1199.439,470.66,1194.311Z" transform="translate(-378.893 -787.558)" fill="#6e26c7"/><path d="M763.45,1016.454c9.825-6.311,19.814-12.284,30.662-16.8a136.091,136.091,0,0,1,34.142-9.479,100.509,100.509,0,0,1,14-.916,11.956,11.956,0,0,1,7,2.15,94.823,94.823,0,0,0,22.288,11.722c2.951,1.022,2.654,2.922,1.582,4.713a22.622,22.622,0,0,1-6.836,6.938,42.246,42.246,0,0,1-23.368,7.131c-4.988.111-9.978.2-14.968.217a29.164,29.164,0,0,0-8.709,1.565,15.4,15.4,0,0,0-6.933,4.573,43.524,43.524,0,0,0-7.11,11.479,98.775,98.775,0,0,1-4.862,9.589c-4.149,7.01-10.43,10.944-18.456,12.106a29.334,29.334,0,0,1-3.727.162c-.944.015-1.511-.533-1.393-1.439.231-1.782-1.006-2.487-2.185-3.25a176.519,176.519,0,0,0-21.915-12.5c-3.116-1.435-6.232-2.869-9.306-4.387-2.238-1.106-2.64-2.606-.978-4.457a78.579,78.579,0,0,1,8.489-8.673C755.084,1023.458,758.786,1019.377,763.45,1016.454Z" transform="translate(-613.713 -721.414)" fill="#6e26c7"/><path d="M1156.831,233.782a1.774,1.774,0,0,1,.33,2.372c-1.008,1.379-2.175,2.642-3.2,4.009a3.478,3.478,0,0,1-3.654,1.335c-4.3-.5-7.007,1.892-7.405,6.357-.123,1.379.186,2.791.152,4.187-.041,1.859-1.581,2.963-3.173,2.027-3.013-1.769-5.626-1.1-8.281.66a5.552,5.552,0,0,0-2.659,5.578,25.012,25.012,0,0,0,.938,4.568c.774,2.492-.26,4.211-2.08,5.711a1.726,1.726,0,0,1-2.5-.1c-.576-.523-1.051-1.162-1.644-1.659-2.726-2.278-4.349-2.259-7.391,0a4.217,4.217,0,0,1-1.194.673,1.344,1.344,0,0,1-.868-.176.96.96,0,0,1-.475-1.188,9.147,9.147,0,0,1,2.7-3.732,53.445,53.445,0,0,0,7.261-9.71,34.165,34.165,0,0,0,5.441-19.511c-.147-3.474.258-3.859,3.56-5.048,8.068-2.9,15.637-1.294,22.912,2.659A7.494,7.494,0,0,1,1156.831,233.782Z" transform="translate(-854.928 -228.655)" fill="#6e26c7"/></g><g transform="translate(51.426 92.131)" opacity="0.5"><path d="M960.088,562.014c-6.383-8.28-10.03-17.055-12.971-26.123-2.017-6.224-3.6-12.588-5.385-18.887A90.561,90.561,0,0,0,935,500.589c-2.027-3.97-5.424-6.786-8.659-9.71a24.533,24.533,0,0,0-16.268-6.183c-.622-.019-1.249.014-1.868-.036-1.22-.1-1.626-.875-.955-1.936a63.287,63.287,0,0,1,6.916-8.825,72.187,72.187,0,0,1,13.749-11.2,27.652,27.652,0,0,1,13.155-4.375c5.956-.511,10.4,4.869,11.361,9.194,1.618,7.292,2.669,14.693,4.361,21.982a239.952,239.952,0,0,0,12.66,39.107c4.551,10.775,9.563,21.327,16.469,30.86a36.244,36.244,0,0,1,1.859,3.233,11.593,11.593,0,0,0,1.671,2.792c4.1,3.857,6.9,8.825,11.031,12.682,4.226,3.946,8.391,7.912,13.511,10.713.8.434,1.817.884,1.555,2.044-.289,1.295-1.451,1.514-2.562,1.591a30.578,30.578,0,0,1-10.192-1.123c-9.857-2.7-19.08-6.755-27.218-13.085a70.494,70.494,0,0,1-8.864-8.285C964.194,567.259,961.528,564.627,960.088,562.014Z" transform="translate(-741.429 -458.291)" fill="#fff"/><path d="M437.8,1089.018c-.2-.311-.284-.444-.37-.574-.866-1.321-.545-2.4.911-2.931a33.543,33.543,0,0,1,8.7-1.742,139.938,139.938,0,0,1,34.017.986,258.267,258.267,0,0,1,37.356,8.469,264.654,264.654,0,0,1,27.946,10.691,224.7,224.7,0,0,1,28.769,15.539,8.781,8.781,0,0,1,1.795,1.441.723.723,0,0,1-.3,1.157,3.908,3.908,0,0,1-1.8.352,28.66,28.66,0,0,1-4.6-.805c-10.483-3.028-20.936-6.152-31.42-9.173a239.988,239.988,0,0,0-41.212-8.288,185.427,185.427,0,0,0-20.091-.6c-5.761.015-11.528.188-17.258-.836a32.533,32.533,0,0,1-19.634-10.86C439.705,1090.786,438.644,1089.86,437.8,1089.018Z" transform="translate(-436.955 -863.128)" fill="#fff"/></g><g transform="translate(13.399 0)" opacity="0.7"><path d="M658.28,750.773c-6.9,4.8-13.819,9.58-20.69,14.42-10.533,7.419-19.922,15.944-26.792,27.052-3.358,5.429-7.219,10.551-10.9,15.78a73.763,73.763,0,0,1-19.48,19.323,65.426,65.426,0,0,1-8.6,4.722,7.619,7.619,0,0,1-4.528.87c-4-.665-8.015-1.273-12-2.011-1.645-.3-2.032-1.35-1.117-2.719a29.282,29.282,0,0,1,2.024-2.565q32-37.888,64-75.777,20.514-24.316,40.964-48.691c1.2-1.432,2.4-2.886,3.72-4.2,1.274-1.266,2.706-.848,3.179.853a47.554,47.554,0,0,1,1.18,5,150.451,150.451,0,0,0,6.012,23.074,7.724,7.724,0,0,1-.868,7.434C669.948,740.055,664.883,746.084,658.28,750.773Z" transform="translate(-474.554 -520.317)" fill="#bd7a6b"/><path d="M1248.624,233.232c-2.536,2.064-5.06,4.134-7.61,6.181a1.558,1.558,0,0,1-2.656-.566c-2.184-4.3-4.3-8.632-6.48-12.928a4.459,4.459,0,0,1,.752-5.51c4.368-5.069,8.517-10.329,12.865-15.416a21.122,21.122,0,0,1,12.159-7.34,50.888,50.888,0,0,1,23.58.858,133.228,133.228,0,0,1,15.09,4.93,44.454,44.454,0,0,1,12.381,7.359,17.105,17.105,0,0,1,5.573,9.98,22.315,22.315,0,0,1-1.731,14.126c-1.629,3.536-3.341,7.032-5.053,10.527-.916,1.871-2.039,2.061-3.64.489a26.281,26.281,0,0,1-5.183-7.159,56.424,56.424,0,0,0-7.41-11.3c-3.395-4.062-8.172-5.511-13.307-5.8-7.579-.422-14.464,1.842-20.8,5.8-2.9,1.815-5.583,3.973-8.364,5.973Z" transform="translate(-913.515 -196.663)" fill="#bd7a6b"/><path d="M1071.745,412.7a100.889,100.889,0,0,1-15.083,7.994,30.526,30.526,0,0,1-4,1.3c-1.849.473-2.69.022-3.23-1.685a29.119,29.119,0,0,1-.755-3.184c-.809-4.132-1.5-8.288-2.432-12.391-.586-2.579.274-4.52,1.887-6.4,5.279-6.154,10.506-12.352,15.756-18.53,2.625-3.09,5.209-6.214,7.9-9.244,1.422-1.606,2.6-1.639,3.839.067a31.414,31.414,0,0,0,8.281,8.143,14.49,14.49,0,0,0,4.16,2.083c3.083.8,4.462-.106,4.85-3.187a11.4,11.4,0,0,0-.793-5.969,32.767,32.767,0,0,0-3.881-7.444,40.164,40.164,0,0,1-3.1-4.679c-1.4-2.435-1.1-4,.9-5.788a2,2,0,0,1,3.223.229,11.611,11.611,0,0,1,1.408,2.413,27.127,27.127,0,0,0,7.032,9.789c2.341,2.145,2.382,2.5,1.234,5.26-2.1,5.036-4.3,10.03-6.347,15.088a62.974,62.974,0,0,1-10.659,16.961A56.861,56.861,0,0,1,1071.745,412.7Z" transform="translate(-793.539 -297.997)" fill="#bd7a6b"/><path d="M357.609,1269.189c-3.344,2.977-8.065,5.006-12.891,6.851a24.9,24.9,0,0,1-6.842,1.468,9.579,9.579,0,0,1-7.748-2.573,2.805,2.805,0,0,1-.432-4.156c.919-1.254,1.953-2.43,2.978-3.6,5.636-6.458,11.336-12.861,16.908-19.374,2.526-2.953,4.739-6.171,7.215-9.17,3.218-3.9,3.54-4.329,7.556-.479,2.913,2.794,6.266,5.127,9.434,7.654,2.676,2.133,2.8,2.323.957,5.354a53.963,53.963,0,0,1-14.612,16.211C359.5,1267.823,358.866,1268.284,357.609,1269.189Z" transform="translate(-328.968 -869.664)" fill="#bd7a6b"/><path d="M1203.449,315.835c1.352,1.88,2.637,3.818,4.086,5.624a2.4,2.4,0,0,1,.06,3.334c-.092.123-.154.268-.248.39-.923,1.208-1.516,3.3-2.972,3.3-1.825-.007-1.608-2.3-2.162-3.652-1.528-3.71-2.977-7.454-4.469-11.178a7.142,7.142,0,0,1-.861-3.093,1.55,1.55,0,0,1,.9-1.478,1.17,1.17,0,0,1,1.564.605A31.763,31.763,0,0,0,1203.449,315.835Z" transform="translate(-891.247 -269.423)" fill="#bd7a6b"/></g></g><g transform="translate(0 0)"><path d="M615.552,662.215c-3.25,2.338-6.2,4.667-9.346,6.689a182.861,182.861,0,0,1-29.863,15.406c-23.093,9.427-47.173,13.95-72.066,14.459a218.834,218.834,0,0,1-45.567-4.235,33.432,33.432,0,0,1-9.7-3.363c-6.36-3.452-10.881-8.514-11.345-16.049-.408-6.648,2.472-12.068,7.439-16.45,1.693-1.495,4.245-2.054,5.027-4.552-1.511-1.861-3.823-2.575-5.682-3.944-2.637-1.941-5.315-3.823-8-5.7-2.03-1.42-2.059-1.415-3.886.231-6.478,5.832-12.829,11.812-19.461,17.467-4.146,3.534-8.66,6.648-13.1,9.83-5.829,4.18-11.8,8.172-18.447,10.956-9.46,3.958-19.264,5.219-29.3,2.866-5.089-1.191-9.36-4.127-13.34-7.494-4.562-3.86-7.278-8.883-9.333-14.331-3.872-10.264-4.786-20.9-3.964-31.774.16-2.1,1.473-4.03.861-6.222-1.769.969-3.476,2.083-5.32,2.878a36.831,36.831,0,0,1-25.133,1.731A20.835,20.835,0,0,1,281.5,617.284a43.812,43.812,0,0,1-1.584-4.9c-.881-3.457-.778-6.788,1.519-9.787,1.135-1.485,2.072-3.129,3.277-4.552q18.314-21.572,36.691-43.092c.3-.357.616-.7.893-1.08,1.417-1.926,1.393-2.536-.165-4.517a8.19,8.19,0,0,0-.91-1.065c-4.8-4.31-7.188-10.117-9.576-15.847a22.222,22.222,0,0,1-1.608-9.637,21.621,21.621,0,0,1,7.535-15.573c5.042-4.465,11.148-6.829,17.588-8.312a105.963,105.963,0,0,1,27.443-2.2,38.192,38.192,0,0,1,4.667.224c2.138.34,3.446-.559,4.775-2.145,10.114-12.075,20.319-24.072,30.484-36.1q40.91-48.42,81.855-96.812c2.166-2.553,3.262-4.915,2.637-8.4-1.785-9.98-.874-19.945,1.534-29.705,3.079-12.485,8.85-23.568,18.125-32.7a58.533,58.533,0,0,1,16.275-11.617,31.729,31.729,0,0,1,9.428-2.625,15.56,15.56,0,0,1,14,4.886c.643.675,1.217,1.42,1.863,2.095a1.3,1.3,0,0,0,2.039.007c.554-.542,1.022-1.172,1.526-1.765q9.531-11.238,19.061-22.479c.5-.593.974-1.22,1.485-1.808a2.673,2.673,0,0,0,.41-3.028c-.88-2.165-1.724-4.346-2.473-6.557a45.492,45.492,0,0,1-.337-27.647c2.786-9.741,8.656-17.318,17.812-21.835,9-4.443,18.13-3.664,27.1.477,1.658.764,3.2,2.685,5.033,1.933,1.434-.591,2.375-2.372,3.539-3.623,1.909-2.052,3.978-3.978,5.686-6.181a13.594,13.594,0,0,1,7.02-4.414,45.227,45.227,0,0,1,18.465-2.121A89.054,89.054,0,0,1,689.6,195.891c12.034,6.8,15.221,19.586,10.848,31.017a43.372,43.372,0,0,1-2.536,5.52,97,97,0,0,0-5.6,13.367,30.051,30.051,0,0,0-1.422,6.86,12.558,12.558,0,0,0,.53,5.091c1.278,4.385,4.436,6.8,9.006,6.656a57.614,57.614,0,0,0,11.07-1.786c3.8-.868,7.593-1.779,11.426-2.449a21.589,21.589,0,0,1,9.29.231c5.5,1.446,8.071,5.091,7.444,10.718-.791,7.068-3.259,13.6-6.345,19.96-3.558,7.326-8.23,13.96-12.54,20.823-1.243,1.977-2.386,4.023-3.476,6.094-1.114,2.126-.974,2.781.728,4.539q2.762,2.849,5.564,5.66a39.68,39.68,0,0,1,6,8.3,71.283,71.283,0,0,1,7.526,17.568,90.149,90.149,0,0,1,2.681,31.988,103.193,103.193,0,0,1-7.714,30.217,97.256,97.256,0,0,1-18.157,28.712,9.585,9.585,0,0,0-2.729,7.121,278.881,278.881,0,0,1-2.531,38.7c-.6,4.634-1.022,9.3-1.861,13.895-4.6,25.256-11.58,49.764-22.573,73.072a239.685,239.685,0,0,1-23.253,39.423,205.589,205.589,0,0,1-24.308,27.748A160.987,160.987,0,0,1,615.552,662.215Zm-3.9-4.631c3.544-2.553,7.316-4.845,10.585-7.709a248.573,248.573,0,0,0,18.241-17.412,215.983,215.983,0,0,0,32-44.787,253.888,253.888,0,0,0,16.541-37.646,289.888,289.888,0,0,0,9.85-35.583,309.664,309.664,0,0,0,6.306-52.893c.135-4.206.352-8.413.477-12.622a10.5,10.5,0,0,1,2.975-7.153c1.808-1.928,3.485-3.989,5.129-6.062a96.037,96.037,0,0,0,18.219-38.1,85.4,85.4,0,0,0,.236-38.49A62.456,62.456,0,0,0,716,329a49.922,49.922,0,0,0-33.575-15.556c-13.88-.94-26.609,2.642-38.348,9.77a91.762,91.762,0,0,0-28.115,26.36,102.414,102.414,0,0,0-17.474,46.852,4.669,4.669,0,0,0,1.41,4.238c.672.646,1.34,1.306,2.068,1.885q3.471,2.77,7,5.479a9.387,9.387,0,0,1,2.645,2.606,2.223,2.223,0,0,1,.248,2.2,2.251,2.251,0,0,1-2.331,1.22,4.7,4.7,0,0,1-1.791-.458,34.737,34.737,0,0,1-3.664-2.061c-6.829-4.52-12.5-10.325-17.684-16.563a149.437,149.437,0,0,1-18.564-29.108,240.767,240.767,0,0,1-21.7-65.491c-.791-4.438-1.612-8.9-3.572-13.044a7.7,7.7,0,0,0-7.4-4.71,15.265,15.265,0,0,0-4.156.494c-6.106,1.675-11.653,4.38-16.074,9.074-.747.791-1.6,1.483-2.423,2.2a47.723,47.723,0,0,0-9.6,11.4c-8.042,13.4-11.179,28.009-10.081,43.5a172.425,172.425,0,0,0,4.4,27.7C502.837,400.63,512.074,422.6,526.947,442a119.708,119.708,0,0,0,12.848,14.179A103.385,103.385,0,0,0,573.48,477.73a87.366,87.366,0,0,0,23.047,5.858,112.726,112.726,0,0,0,14.463.834,7.783,7.783,0,0,1,1.854.217c1.552.328,2.273,1.16,2.261,2.517a2.33,2.33,0,0,1-2.2,2.565,41.721,41.721,0,0,1-6.521.458,103.739,103.739,0,0,1-47.06-12.419,73.926,73.926,0,0,1-9.155-5.641,12.567,12.567,0,0,0-7.82-2.536,110.148,110.148,0,0,0-25.463,3.189A145.272,145.272,0,0,0,470.442,493.1c-8.6,5.689-16.761,11.959-23.751,19.6-3.739,4.083-3.993,3.577,1.283,5.988a224.345,224.345,0,0,1,28.686,15.734,11.407,11.407,0,0,1,1.875,1.379,2.955,2.955,0,0,1,.2,3.862,2.592,2.592,0,0,1-3.329.841,28.337,28.337,0,0,1-3.678-2.042,226.992,226.992,0,0,0-41.356-20.676,234.588,234.588,0,0,0-50.995-13.5,139.536,139.536,0,0,0-30.317-1.355c-8.3.608-16.346,2.22-23.81,6.2a16.63,16.63,0,0,0-8.867,17.091,25.871,25.871,0,0,0,3.678,10.016A80.674,80.674,0,0,0,333.789,552.7c9.012,8.517,19.352,15.194,30.072,21.327a247.751,247.751,0,0,0,30.464,14.324,12.293,12.293,0,0,1,6.869,6.6,67.093,67.093,0,0,0,8.018,13.67c1.351,1.7,3.041,3.141,4.336,4.881a116.1,116.1,0,0,0,16.306,17.347c8.97,7.955,17.809,16.2,29.558,20.124a3.281,3.281,0,0,1,2.507,3.052,3.352,3.352,0,0,1-2.216,3.274c-1.278.579-2.621,1.012-3.9,1.6-4.645,2.134-8.523,5.135-10.975,9.761a10.632,10.632,0,0,0,.412,11.117,15.7,15.7,0,0,0,4.781,5.057,27.585,27.585,0,0,0,10.789,4.269q13.142,2.278,26.446,3.228a193.075,193.075,0,0,0,57.165-4.291A177.718,177.718,0,0,0,611.65,657.584ZM586.018,384.552c1.367,1.9,2.726,3.8,4.105,5.694a4.646,4.646,0,0,0,2.081,1.825c.482.176.981.065,1.116-.436a29.939,29.939,0,0,0,.651-3.2,97.711,97.711,0,0,1,14.678-38.639c8.189-12.716,18.258-23.566,31.516-31.287a82.529,82.529,0,0,1,16.04-7.524c17.212-5.573,34.067-5.27,50.323,3.44.689.367,1.373.745,2.078,1.078,2.15,1.012,2.579.925,3.775-1.078,3.351-5.626,6.981-11.081,10.419-16.647,4.171-6.759,8-13.767,10.014-21.572a39.259,39.259,0,0,0,.979-4.091c.6-4.231-1.065-6.27-5.294-6.35a29.91,29.91,0,0,0-6.046.5c-3.52.663-7,1.567-10.5,2.346a54.006,54.006,0,0,1-12.477,1.668c-6.885-.085-11.547-4.421-13.509-10.274a21.294,21.294,0,0,1-.058-13.343,92.751,92.751,0,0,1,6.007-15.208c1.981-3.864,3.973-7.774,4.325-12.272.525-6.723-1.538-12.26-7-16.409a38.217,38.217,0,0,0-9.763-5.458c-4.966-1.871-10-3.527-15.086-5.033a47.621,47.621,0,0,0-25.413-.234,13.27,13.27,0,0,0-7.15,4.209c-4.935,5.831-9.773,11.744-14.649,17.624-.1.12-.167.265-.263.388a2.541,2.541,0,0,0-.219,3.037c1.193,2.189,2.348,4.4,3.492,6.61a69.479,69.479,0,0,1,5.422,13.921,10.531,10.531,0,0,1,.009,6.446,4.289,4.289,0,0,1-4.3,2.968,7.642,7.642,0,0,1-3.573-1.005,18.294,18.294,0,0,1-6.137-4.963c-1.022-1.379-2.016-2.779-3.023-4.17-.732-1.01-1.458-2.025-2.2-3.028a7.347,7.347,0,0,0-.639-.677,2.423,2.423,0,0,0-.014.841c.364,1.027.81,2.025,1.179,3.052,1.266,3.522,2.625,7.013,3.732,10.585a16.618,16.618,0,0,1,.444,9.235c-.906,3.476-3.828,5.014-7.2,3.683a11.586,11.586,0,0,1-4.291-2.782c-2.442-2.6-5.163-4.978-6.354-8.534a22.545,22.545,0,0,0-1.658-3.346c-.32-.6-.966-.441-1.461.234a2.251,2.251,0,0,0-.33,2.6c1.167,2.2,2.032,4.558,3.662,6.5a24.736,24.736,0,0,1,3.715,7,11.949,11.949,0,0,1,.436,7.357c-.716,3-2.37,4.081-5.489,3.616a15.22,15.22,0,0,1-6.721-3.139,34,34,0,0,1-7.183-6.651c-1.053-1.384-1.9-1.345-3.042-.034-2.148,2.471-4.223,5.007-6.34,7.507-5.14,6.07-10.214,12.2-15.462,18.169-2.03,2.312-2.912,4.645-2.017,7.656.53,1.786.841,3.642,1.193,5.479a231.748,231.748,0,0,0,15.736,50.345A182.667,182.667,0,0,0,586.018,384.552ZM378.576,497.675a2.744,2.744,0,0,0,.786.458c1.995.369,3.991.735,6,1.035a201.393,201.393,0,0,1,20.1,4.329,238.038,238.038,0,0,1,28.876,9.435c2.482.984,3.07,1.683,5.543-1.311a94.394,94.394,0,0,1,19.985-18.2c1.809-1.222,3.58-2.507,5.319-3.831A111.8,111.8,0,0,1,484.048,478.4a143.718,143.718,0,0,1,44.01-13.755c2.628-.352,5.275-.537,7.9-.863.581-.072,1.393-.251,1.627-.656.34-.583-.359-1.08-.793-1.519-3.508-3.539-7.319-6.827-10.455-10.669A157.951,157.951,0,0,1,508.218,424.3a188.778,188.778,0,0,1-15.674-40.973c-1.227-4.833-2.186-9.734-3.308-14.594-.269-1.167-1.225-1.417-2.082-.569-.773.764-1.473,1.605-2.176,2.435q-23.854,28.229-47.7,56.461Q408.9,460.643,380.517,494.23a31.739,31.739,0,0,0-1.962,2.593C378.426,497.009,378.561,497.386,378.576,497.675Zm20.073,167.769c2.279-1.641,4.67-3.148,6.814-4.949q7.328-6.158,14.442-12.567c2.663-2.386,5.216-4.906,7.692-7.487,1.512-1.575,1.437-2.073-.062-3.462a221.428,221.428,0,0,1-17.244-17.756c-5.833-6.764-11.23-13.76-14.725-22.04a6.239,6.239,0,0,0-3.91-3.7c-5.576-2.02-11-4.4-16.369-6.926-13.878-6.533-27.137-14.053-39.054-23.79-2.05-1.675-4.034-3.432-6.091-5.1-1.439-1.162-2.429-1.054-3.59.345-1.194,1.439-2.3,2.955-3.5,4.382-11.779,13.935-23.5,27.919-35.421,41.732-2.374,2.75-2.843,5.339-1.551,8.509.235.577.344,1.212.622,1.762,2.448,4.841,5.359,9.252,11.079,10.638a31.926,31.926,0,0,0,17.55-.369,36.615,36.615,0,0,0,12.8-7.562c.825-.711,1.555-1.549,2.436-2.179a3.567,3.567,0,0,1,3.971-.113,3.335,3.335,0,0,1,1.22,3.356,28.1,28.1,0,0,1-1.441,4.435,42.761,42.761,0,0,0-2.865,12.732,63.564,63.564,0,0,0,3.382,25.343c1.762,5.065,4.285,9.681,8.377,13.237,3.676,3.2,7.661,6.077,12.624,6.728a42.158,42.158,0,0,0,22.9-3.112C385.858,674.364,392.332,670,398.649,665.444Zm187-458.4c-2.809,1.822-5.135,5.149-7.172,8.673-3.792,6.564-4.961,13.709-4.392,21.194.1,1.294.609,1.649,1.863.938a6.353,6.353,0,0,1,6.663-.068c.813.456,1.524,1.085,2.293,1.615.619.427,1.246,1.135,2.059.53a2.331,2.331,0,0,0,.788-2.107c-.063-.931-.248-1.851-.386-2.775-.229-1.543-.545-3.076-.682-4.626-.528-5.93,5.494-9.606,10.315-8.191a23.17,23.17,0,0,1,2.516,1.2c.8.347,1.176-.2,1.278-.851a9.206,9.206,0,0,0-.029-1.859,10.426,10.426,0,0,1,3.006-8.09c1.84-1.9,4.125-1.958,6.525-1.581a2.7,2.7,0,0,0,2.488-1.022c.622-.7,1.2-1.434,1.76-2.187.745-1,.622-1.557-.5-2.242C605.625,200.465,594.913,200.241,585.645,207.049Z" transform="translate(-279.403 -184.563)" fill="#181f49"/><path d="M1330.781,798.364a12.316,12.316,0,0,1-11.186,2.227c-4.946-1.256-8.693-4.05-10.168-9.293-.536-1.9-.737-1.965-2.613-1.3a14.263,14.263,0,0,1-11.788-.561c-4.474-2.31-7.169-5.923-7.574-11.021-.121-1.523-.212-3.218,1.456-4.112,1-.535,2.27.5,3.254,2.722a18.522,18.522,0,0,0,1.885,3.739,8.419,8.419,0,0,0,10.019,2.76,2.245,2.245,0,0,0,1.456-3.006c-.419-1.661-1.036-3.271-1.46-4.927a12.029,12.029,0,0,1,.366-7.8,4.246,4.246,0,0,1,3.857-2.924,13.969,13.969,0,0,1,2.333-.029,27.8,27.8,0,0,1,16.194,7.634,5.745,5.745,0,0,1,.814,6.94,8.14,8.14,0,0,1-3.944,3.838c-2.314.9-4.565,1.967-6.875,2.9a1.618,1.618,0,0,0-1.075,2.213c1.615,5.419,6.282,7.907,11.638,6.214a26.019,26.019,0,0,1,3.124-.9,1.772,1.772,0,0,1,1.967.928,1.989,1.989,0,0,1-.217,2.2A13.555,13.555,0,0,1,1330.781,798.364Z" transform="translate(-932.435 -560.47)" fill="#181f49"/><path d="M1300.655,690.552a7.706,7.706,0,0,1-2.2,10.3c-2.9,1.837-8.423.849-10.057-1.991a7.782,7.782,0,0,1,1.865-10.455C1293,686.2,1298.584,687.469,1300.655,690.552Z" transform="translate(-932.28 -510.26)" fill="#181f49"/><path d="M1452.5,765.244c2.95-2.326,8.316-1.6,10.471,1.415,1.972,2.758,1.268,8.114-1.35,10.228a7.46,7.46,0,0,1-10.409-1.152A7.8,7.8,0,0,1,1452.5,765.244Z" transform="translate(-1037.616 -559.869)" fill="#181f49"/><g transform="translate(312.351 190.395)"><path d="M1169.582,743.09a16.287,16.287,0,0,1-2.7-5.465c-1.786-5.8,1.485-11.194,7.512-12.068a23.763,23.763,0,0,1,10.614.607,38.127,38.127,0,0,1,16.532,10.084,16.5,16.5,0,0,1,4.4,9.587,8.39,8.39,0,0,1-5.738,8.671,14.184,14.184,0,0,1-5,.981C1184.788,755.251,1176.424,750.688,1169.582,743.09Z" transform="translate(-1166.398 -725.234)" fill="#d901ab"/><path d="M1429.9,863.637a19.554,19.554,0,0,1-2.556-5.019c-2.4-6.243,1.755-11.826,7.835-12.617a26.566,26.566,0,0,1,14.121,2.1,36.944,36.944,0,0,1,12.883,9.045,16.313,16.313,0,0,1,4.083,9.242,8.423,8.423,0,0,1-5.747,8.668,14.16,14.16,0,0,1-5,.978C1445.106,875.8,1436.743,871.235,1429.9,863.637Z" transform="translate(-1335.007 -803.332)" fill="#d901ab"/></g></g></svg>