<svg xmlns="http://www.w3.org/2000/svg" width="577.154" height="568.743" viewBox="0 0 577.154 568.743"><g transform="matrix(0.891, 0.454, -0.454, 0.891, 189.024, 0)"><g transform="translate(4.219 4.836)"><path d="M390.971,40.645c-5.184,1.8-9.647,1.868-14.066,2.047a46.759,46.759,0,0,0-13.541,2.819,21.3,21.3,0,0,0-13.422,13.428c-1.725,4.7-3.37,9.442-5.178,14.113a41.917,41.917,0,0,1-8.572,13.622,27.691,27.691,0,0,1-21.744,8.965,64.782,64.782,0,0,1-14.834-2.262,78.673,78.673,0,0,0-26.386-2.02,18.827,18.827,0,0,0-8.667,2.837,40.265,40.265,0,0,0-13.72,13.794,60.3,60.3,0,0,1-21.717,21.151,37.781,37.781,0,0,1-20.987,5.154,73.277,73.277,0,0,1-18.729-3.418,27.6,27.6,0,0,1-6.316-2.8,48.906,48.906,0,0,0-13.306-5.533c-6.68-1.767-13.208-1.871-19.619,1.573A84.624,84.624,0,0,0,134.295,134.6c-3.343,2.908-6.578,5.95-10.029,8.73a37.088,37.088,0,0,1-13.133,7.064,27,27,0,0,1-19.67-1.779,52.714,52.714,0,0,1-13.076-8.432c-3.14-2.845-6.433-5.524-9.689-8.238-5.455-4.544-11.754-5.438-18.505-4.115a52.388,52.388,0,0,0-15.666,5.792c-3.6,2.02-7.526,2.938-11.447,3.933A20.094,20.094,0,0,1,9.562,136a12.131,12.131,0,0,1-5.905-5.318A30.071,30.071,0,0,1,0,116.858c-.1-3.906,1.946-7.029,3.7-10.19a23.321,23.321,0,0,1,5.142-6.2c4.874-4.243,10.529-7.064,16.488-9.37a6.056,6.056,0,0,1,5.557.268c4.272,2.515,9.09,3.188,13.857,3.778C63.152,97.428,81.6,98.313,100.091,96.2c3.82-.435,7.628-1.022,11.435-1.6,9.058-1.38,15.94-6.466,21.887-13.047,1.544-1.707,2.8-3.67,4.258-5.461,1.144-1.412,2.094-1.463,3.429-.274.572.512,1.07,1.108,1.609,1.657,4.332,4.391,9.638,6.894,15.568,8.4,8.542,2.163,17.194,1.782,25.87,1.669,9.546-.122,18.74-2.056,27.828-4.734,8.575-2.524,16.265-6.945,24.07-11.128,1.6-.858,1.88-2.241,2.428-3.683.781-2.056,1.46-2.532,3.444-1.823a3.265,3.265,0,0,0,3.647-.608c6.477-5.381,12.257-11.223,13.795-20.01a6.052,6.052,0,0,1,.566-1.626,1.969,1.969,0,0,1,2.4-1.091,11.492,11.492,0,0,1,2.113.918,57.626,57.626,0,0,0,12.633,4.025c6.7,1.511,13.079.429,19.265-1.969a215.859,215.859,0,0,0,32.3-15.377A276.43,276.43,0,0,0,356.294,11.5a35,35,0,0,0,7.5-7.976,5.929,5.929,0,0,1,4.3-2.6c6.525-.951,13.148-1.532,19.536.146,10.9,2.863,16.724,8.9,18.416,18.44,1.656,9.319-2.1,15.725-11.557,20.177A16.138,16.138,0,0,1,390.971,40.645Z" transform="translate(11.43 138.772)" fill="#a7d63f"/><path d="M389.6,38.169c-4.261,1.478-8.718,1.484-13.14,1.716a45.254,45.254,0,0,0-13.512,2.955,21.535,21.535,0,0,0-13.172,13.693c-1.609,4.546-3.236,9.084-4.964,13.583a41.631,41.631,0,0,1-8.929,14.072,27.709,27.709,0,0,1-21.324,8.622,64.183,64.183,0,0,1-14.84-2.243,78.379,78.379,0,0,0-26.388-2.044,18.987,18.987,0,0,0-8.682,2.792A40.193,40.193,0,0,0,250.9,105.081,60.658,60.658,0,0,1,229.2,126.27a37.493,37.493,0,0,1-20.406,5.2,73.113,73.113,0,0,1-19.861-3.581,24.936,24.936,0,0,1-5.777-2.6,47.97,47.97,0,0,0-13.3-5.548c-6.674-1.763-13.2-1.936-19.626,1.52a85.774,85.774,0,0,0-15.88,10.479c-3.349,2.908-6.582,5.953-10.029,8.738a37.2,37.2,0,0,1-13.13,7.079A26.994,26.994,0,0,1,91.516,145.8,52.647,52.647,0,0,1,78.43,137.38c-3.146-2.843-6.436-5.521-9.689-8.241-5.452-4.552-11.751-5.461-18.5-4.144a52.2,52.2,0,0,0-15.678,5.78c-3.593,2.029-7.52,2.95-11.441,3.945a20.136,20.136,0,0,1-13.527-1.534,12.158,12.158,0,0,1-5.917-5.312A30.55,30.55,0,0,1,.006,114.048c-.119-3.3,1.493-5.947,2.86-8.682,1.916-3.831,2.869-3.986,5.539-.819a11.973,11.973,0,0,0,8.977,4.543,28.436,28.436,0,0,0,10.294-.947c7.738-2.455,15.8-3.5,23.731-4.94,12.668-2.291,24.961-.524,36.3,6.1,2.163,1.263,4.41,2.389,6.662,3.486,8.3,4.028,16.119,2.476,23.543-2.288,2.428-1.555,4.588-3.522,6.963-5.166,10.19-7.037,21.3-10.613,33.808-8.866a71.963,71.963,0,0,1,11.167,2.95c4.418,1.365,8.84,2.729,13.235,4.174a46.427,46.427,0,0,0,15.385,2.231c15.508-.28,28.972-5.658,39.847-16.953,4.279-4.44,8.479-8.95,12.74-13.407A43.2,43.2,0,0,1,272.2,63.029a48.64,48.64,0,0,1,17.787-1.168c1.913.244,3.861.316,5.733.745,5.521,1.263,10.717-.062,15.874-1.782a14.2,14.2,0,0,0,6.751-5.255,81.565,81.565,0,0,0,5.55-8.1c7.714-13.252,19.447-21.082,33.879-25.242,7.213-2.079,14.241-4.725,21.443-6.862,6.567-1.948,11.7-6.009,11.751-13.935A1.362,1.362,0,0,1,392.926.122c9.433,3.707,15.385,14.614,13.1,24.47-1.424,6.156-5.977,9.71-11.417,12.21A30.553,30.553,0,0,1,389.6,38.169Z" transform="translate(11.417 141.602)" fill="#84af2b" opacity="0.5"/><path d="M9.7,25.4c11.471-1.4,22.271-4.222,33.2-6.361a210.125,210.125,0,0,0,31.761-8.566c9.031-3.3,18.469-5.336,27.288-9.206.879-.384,1.839-.572,2.747-.885,2.264-.786,4.034-.432,5.464,1.749A20.589,20.589,0,0,0,115.9,7.759a5.378,5.378,0,0,1,2.288,5.53c-.661,5.989-2.92,11.1-7.872,14.837-9.23,6.966-18.642,13.631-29.472,17.942-4.642,1.847-9.23,4.064-14.063,5.125C54.189,53.967,41.452,56,28.471,54.613c-5.351-.572-10.708-1.072-16.023-2.068C6.694,51.467,3.682,47.32.709,43.047c-1.037-1.49-.8-3.3-.161-5.011.935-2.527,1.966-5.02,2.085-7.773.1-2.24,1.379-3.468,3.522-3.942C7.47,26.032,8.76,25.648,9.7,25.4Z" transform="translate(151.909 169.134)" fill="#e383d4"/><g transform="translate(30.924 113.552)"><path d="M47.56,69.562a45.459,45.459,0,0,1-20,1.865,38.878,38.878,0,0,1-9.421-2.7c-5.5-2.3-10.994-4.711-15.278-9.1A19.341,19.341,0,0,1,.9,57.525C-.653,55.356-.179,53.38,2.2,52.332c2.64-1.159,5.342-2.19,8.026-3.25,12.168-4.82,24.39-9.51,36.5-14.48A285.125,285.125,0,0,0,74.294,21.265c6.1-3.3,12.3-6.432,17.82-10.678,3.515-2.7,6.948-5.506,10.425-8.256A23.294,23.294,0,0,1,105.316.276a1.835,1.835,0,0,1,2.529.611,1.564,1.564,0,0,1,.277.507c1.29,5.029,3.25,9.966,3.292,15.2.057,7.287-3.325,13.377-7.765,18.881C98.9,41.37,93.061,46.122,86.918,50.481,77.6,57.1,67.412,62.149,56.927,66.6,53.927,67.87,50.689,68.591,47.56,69.562Z" transform="translate(233.46 0)" fill="#d901ab"/><path d="M85.787,37.336C70.937,40.894,55.617,41.257,40.2,39.7a72.342,72.342,0,0,1-19.637-4.541C15.118,33,10.2,30.108,6.436,25.466a15.773,15.773,0,0,1-3.262-6.03C2.211,15.705,1.028,12.035.137,8.29-.4,6.029.665,4.95,2.986,5.311c4.371.682,8.721,1.523,13.08,2.285,7.258,1.278,14.578,1.01,21.893.888C49.7,8.287,61.4,7.31,73.077,6.148,76.9,5.766,80.7,5.171,84.512,4.625c10.464-1.5,20.924-3.042,31.391-4.54A9.68,9.68,0,0,1,118.2.052,2.616,2.616,0,0,1,120.753,3.2a20.912,20.912,0,0,1-1.969,7.213c-4.222,8.381-9.6,15.8-17.79,20.787a31.344,31.344,0,0,1-5,2.863C92.764,35.293,89.41,36.2,85.787,37.336Z" transform="translate(0 83.644)" fill="#d901ab"/></g><path d="M27.788,31.441a21.2,21.2,0,0,1,14.194.414c3.242,1.2,6.662,2.169,9.6,3.915,8.551,5.086,17.963,6.7,27.619,7.529a39.944,39.944,0,0,0,10.881-.48c8.134-1.52,14.447-6.105,20.636-11.054A54.608,54.608,0,0,0,124.81,15.871a47.057,47.057,0,0,1,5.2-6.912C134.74,3.27,141.166.821,148.263.208c8.73-.751,17.293.6,25.694,2.974a6.889,6.889,0,0,1,1.072.435,2.08,2.08,0,0,1,.84,3.331,16.946,16.946,0,0,1-2.622,2.237c-1.576,1.105-3.2,2.148-4.839,3.158a184.58,184.58,0,0,0-21.279,15.865,240.121,240.121,0,0,0-24.407,23.707c-6.06,6.719-11.912,13.625-17.859,20.448-.631.724-1.317,1.407-1.948,2.127a3.67,3.67,0,0,1-4.186,1.126c-2.384-.766-4.746-1.6-7.121-2.4-11.5-3.868-22.79-8.4-34.534-11.495-14.724-3.885-29.562-7.258-44.867-7.916q-3.75-.161-7.493-.5a18.522,18.522,0,0,1-3.391-.634,1.888,1.888,0,0,1-1.031-2.8,2.708,2.708,0,0,1,.352-.459C7.182,43.44,13.54,37.206,21.8,33.53,23.724,32.671,25.786,32.131,27.788,31.441Z" transform="translate(139.906 233.144)" fill="#f1cd30"/><g transform="translate(46.497 185.495)"><path d="M199.557,143.922c-11.349,1.07-22.137,4.881-33.349,6.823a285.6,285.6,0,0,1-43.669,3.983,343.8,343.8,0,0,1-43.875-2.04C73.11,152.076,67.542,151.74,62,150.9A137.677,137.677,0,0,1,24.5,139.62a50.608,50.608,0,0,1-17.54-12.856C-.678,117.926-2.462,103.5,3.78,92.655c3.688-6.406,3.76-6.644,10.878-8.092,6.51-1.329,12.618-.652,17.874,4.019C36.559,92.167,40.653,95.7,44.9,99.02c8.19,6.388,17.426,9.665,27.953,9.045a14.883,14.883,0,0,0,7.156-1.9c4.484-2.738,9.26-3.292,14.441-2.41a108.372,108.372,0,0,0,12.1.924c6.754.372,13.378,1.639,20.046,2.646,19.6,2.962,37.964,10.065,56.579,16.345,2.926.983,5.828,2.032,8.751,3.021a5.175,5.175,0,0,0,5.372-1.132,74.471,74.471,0,0,0,6.686-7.192c10.982-12.406,21.41-25.354,34.09-36.14,8.357-7.109,16.64-14.34,26.106-20.052,3.954-2.384,7.639-5.208,11.435-7.856a8.819,8.819,0,0,1,5.917-1.892c.566.044,1.15-.155,1.725-.164,9.46-.134,16.27-5.2,22.1-11.986a49.3,49.3,0,0,0,8.813-16.131c1.147-3.278,2.422-6.516,3.394-9.844C319.54,7.554,324.293,3.735,330.6,1.441c.721-.262,1.49-.4,2.217-.659,4.081-1.46,7.609-.828,11.453,1.493C352.82,7.432,357.82,14.8,359.247,24.469a33.023,33.023,0,0,1-3.742,20.159A104.7,104.7,0,0,1,332,74.433c-8.2,7.374-17.161,13.664-26.144,20.01a379.855,379.855,0,0,1-43.109,25.849,223.594,223.594,0,0,1-29.693,12.757c-7.466,2.631-15.011,4.886-22.611,7.014C206.737,141.1,203.515,143.539,199.557,143.922Z" transform="translate(0 0)" fill="#87413c"/></g><g transform="translate(0 0)"><path d="M161.81,8.9A254.358,254.358,0,0,1,224.565.044,238.792,238.792,0,0,1,266.6,3.007a197.812,197.812,0,0,1,46.082,12.929,170.916,170.916,0,0,1,53.242,35.139c5.712,5.542,10.458,11.819,15.523,17.874,4.159,4.976,4.046,10.705,3,16.458A38.915,38.915,0,0,1,376.8,102.05c-8.688,11.459-19.968,19.676-32.214,26.821-9.189,5.351-19.092,9.147-28.709,13.562-11.382,5.226-23.168,9.43-34.773,14.1-9.817,3.951-19.7,7.714-29.7,11.179-8,2.777-16.211,4.994-24.14,7.88-8.366,3.048-16.9,5.277-25.441,7.63a88.5,88.5,0,0,1-13.02,2.547c-4.189.5-8.259,1.919-12.418,2.708-7.556,1.436-15.144,2.673-22.709,4.049q-6.533,1.193-13.1,2.166c-19.8,2.9-39.6,5.792-59.556,7.538a199.682,199.682,0,0,1-31.159.477,90.259,90.259,0,0,1-27.512-6.227,44.973,44.973,0,0,1-14.989-9.606A32.985,32.985,0,0,1,.79,176.762a11.561,11.561,0,0,1-.652-6.245,149.362,149.362,0,0,1,12.823-46.008,178.065,178.065,0,0,1,37.058-53.35,232.041,232.041,0,0,1,64.159-44.777c8.169-3.887,16.518-7.334,25.015-10.5C146.626,13.121,154.209,11.026,161.81,8.9Z" transform="translate(0 0)" fill="#c9816b"/><path d="M230.5,165.556c-4.573.951-9.439,3.024-14.736,3.093a5.768,5.768,0,0,0-2.208.64c-7.982,3.584-16.527,5.39-24.989,7.083a233.167,233.167,0,0,1-34.311,4.6c-10.2.5-20.385,1.424-30.587,1.65a256.791,256.791,0,0,1-46.628-3.688,200.366,200.366,0,0,1-26.469-6.03,53.087,53.087,0,0,1-13.235-5.7c-2.6-1.654-5.336-3.1-7.979-4.7a27.3,27.3,0,0,1-4.308-2.9c-8.182-7.431-15.8-15.407-20.182-25.733C2.086,127.31-.021,120.442,0,113.167c.024-6.695,2.285-12.856,4.648-18.979A1.677,1.677,0,0,1,7.085,93.4a7,7,0,0,1,1.43.974c6.608,5.149,14.054,8.67,21.827,11.706a149.255,149.255,0,0,0,42.176,9.311c12.1,1.01,24.181,2.276,36.346,2.4A334.148,334.148,0,0,0,144.1,116.7c4.785-.456,9.549-1.165,14.328-1.725,7.481-.876,14.7-3.185,22.092-4.329a178.25,178.25,0,0,0,25.825-6.2c9.9-3.1,19.879-6.01,29.633-9.638,22.363-8.321,42.933-19.986,62.871-32.887,5.664-3.665,11.256-7.452,16.715-11.411,13.175-9.561,25.194-20.343,34.764-33.644a69.366,69.366,0,0,0,7.788-13.485,17.3,17.3,0,0,1,.953-2.1,2.29,2.29,0,0,1,3.48-.757c6.447,5.831,12.906,11.655,15.689,20.334A63.881,63.881,0,0,1,380.3,52.792,79.685,79.685,0,0,1,368.271,82c-3.837,5.854-8.894,10.651-13.824,15.519-8.661,8.554-18.344,15.9-28.28,22.87-7.568,5.3-15.162,10.661-23.445,14.831-12.734,6.409-25.5,12.779-38.437,18.759-5.039,2.324-10.384,4.087-15.63,6C242.84,162.1,236.941,163.794,230.5,165.556Z" transform="translate(48.095 225.865)" fill="#c9816b"/></g><g transform="translate(76.023 29.658)"><path d="M.459,6.619C-.906,1.827.837-.465,4.833.078a41.933,41.933,0,0,1,24.943,12.18c2.151,2.187,3.966,4.74,3.915,8.1a9.84,9.84,0,0,1-12.671,9.6,17.334,17.334,0,0,1-6.57-3.528C7.722,20.9,4,13.272.459,6.619Z" transform="translate(173.289 0)" fill="#87413c"/><path d="M23.192,5.3a64.235,64.235,0,0,1-.7,17.352A28.263,28.263,0,0,1,17.7,34.278c-3.638,5.005-11.131,5.542-15.034.87a12.117,12.117,0,0,1-2.4-10.341,27.177,27.177,0,0,1,2.19-6.54A50.127,50.127,0,0,1,14.3,2.792c.429-.381.864-.766,1.326-1.111C19.587-1.278,21.791-.485,23.192,5.3Z" transform="translate(0 41.379)" fill="#87413c"/><path d="M22.749,19.313c.119.456.256,1.016.414,1.57,2.425,8.566-4.883,15.779-13.529,13.941C4.539,33.742,1.661,30,.666,25.319-.967,17.606.576,10.044,3.407,2.789,4.551-.145,6.952-.792,9.422.98,14.023,4.282,21.239,11.826,22.749,19.313Z" transform="translate(89.116 13.784)" fill="#87413c"/><path d="M11.51,35.932A8.97,8.97,0,0,1,.733,30.745,10.541,10.541,0,0,1,.167,25.06,25.136,25.136,0,0,1,4.711,13.968a59.931,59.931,0,0,1,9.552-10A31.136,31.136,0,0,1,19.024.713c2.747-1.5,4.937-.59,5.941,2.276a11.9,11.9,0,0,1,.65,5.119A50.938,50.938,0,0,1,18.13,30.352,13.091,13.091,0,0,1,11.51,35.932Z" transform="translate(39.486 18.699)" fill="#87413c"/><path d="M34.709,16.017a8.814,8.814,0,0,1-8.924,11,16.318,16.318,0,0,1-8.643-2.89A67.6,67.6,0,0,1,2.487,10.362,10.941,10.941,0,0,1,.058,5.2C-.35,2.435,1.432-.167,4.077.008c9.728.643,19.062,2.568,26.585,9.486A14.621,14.621,0,0,1,34.709,16.017Z" transform="translate(125.665 0.678)" fill="#87413c"/></g><g transform="translate(0.001 7.608)" opacity="0.5"><path d="M206.777,174.335c-5.84,1.385-12.067,3.465-18.681,3.9-2.461.161-4.857,1.189-7.312,1.7-12.99,2.717-26.022,5.187-39.191,6.948-11.441,1.525-22.819,3.546-34.263,5.023-8.777,1.138-17.638,1.624-26.427,2.67a165.111,165.111,0,0,1-31.15.518,90.5,90.5,0,0,1-27.5-6.257A44.6,44.6,0,0,1,7.281,179.2a31.678,31.678,0,0,1-6.5-10.145A9.485,9.485,0,0,1,0,165.12c.134-5.238,1.362-5.664,5.494-4.01,7.07,2.833,14.554,3.683,21.994,4.687a396.148,396.148,0,0,0,54.729,3.9,308.778,308.778,0,0,0,34.01-1.847c10.893-1.252,21.78-2.586,32.627-4.177,6.656-.977,13.264-2.347,19.831-3.816,9.593-2.148,19.074-4.747,28.537-7.422,9.272-2.622,18.318-5.84,27.315-9.245,8.1-3.066,16.262-5.965,24.294-9.189,16.828-6.754,33.283-14.28,48.272-24.643a90.963,90.963,0,0,0,28.537-31.316A42.781,42.781,0,0,0,330.369,49c-.626-3.48-2.479-6.474-4.079-9.519a81.255,81.255,0,0,0-21.932-25.808A155.686,155.686,0,0,0,287.879,1.956c-.45-.273-1.1-.926-1.021-1.243.268-1.075,1.233-.657,1.919-.5,1.692.379,3.372.816,5.029,1.314a170.8,170.8,0,0,1,71.816,41.649c5.962,5.56,10.768,12.052,15.922,18.281,3.987,4.821,3.939,10.378,3,15.928a38.309,38.309,0,0,1-7.478,16.723c-8.762,11.649-20.182,19.989-32.607,27.226-9.022,5.253-18.732,8.995-28.179,13.324-11.381,5.217-23.144,9.478-34.761,14.11-10.187,4.064-20.418,8-30.786,11.569-7.824,2.69-15.8,4.949-23.6,7.669C220.572,170.292,213.994,172.4,206.777,174.335Z" transform="translate(0 0)" fill="#a05d57"/><path d="M225.991,165.522c-4.469.858-9.3,3.051-14.611,3.087a5.585,5.585,0,0,0-2.223.572c-7.768,3.6-16.14,5.321-24.4,7.007a234.055,234.055,0,0,1-39.471,5c-7.312.23-14.6,1.049-21.91,1.329a258.581,258.581,0,0,1-50.653-3.5,199.945,199.945,0,0,1-27.02-6.143,50.412,50.412,0,0,1-12.716-5.432c-2.6-1.66-5.327-3.11-7.979-4.693a25.982,25.982,0,0,1-3.873-2.514C12.8,152.979,5.342,144.982.575,134.823a9.294,9.294,0,0,1-.554-1.615c-.173-.673.775-1.5,1.478-1.281a13.212,13.212,0,0,1,2.16.792c4.112,2.1,8.232,4.189,12.3,6.388a88.656,88.656,0,0,0,13.908,5.667,227.377,227.377,0,0,0,44.513,9.892,291.477,291.477,0,0,0,66.322.465c8.792-.9,17.522-2.5,26.266-3.856,7.612-1.179,14.969-3.665,22.7-4.135a24.148,24.148,0,0,0,4.5-1.067c6.9-1.812,13.81-3.593,20.7-5.452,20.522-5.55,40.285-13.032,58.772-23.621,18.657-10.684,35.843-23.335,50.722-38.935a88.19,88.19,0,0,0,21.226-36.015,36.419,36.419,0,0,0,1.269-17.685c-.11-.566-.19-1.142-.25-1.716-.578-5.78-.569-5.774,2.381-10.887a60.4,60.4,0,0,0,5.009-9.754c.754-2.1,2.61-2.6,4.126-1.258,7.416,6.584,14.241,13.58,16.568,23.758a66.877,66.877,0,0,1,2.032,14.843,74.24,74.24,0,0,1-9.141,36C362.9,83.981,356.418,91.01,349.52,97.764c-8.56,8.381-18.091,15.594-27.836,22.477-7.389,5.22-14.826,10.463-22.924,14.554-13.065,6.6-26.153,13.16-39.439,19.294-5.026,2.321-10.372,4.094-15.627,5.983C238.058,162.1,232.358,163.773,225.991,165.522Z" transform="translate(52.821 218.237)" fill="#a05d57"/><path d="M199.411,144.231c-11.369.972-22.149,4.818-33.355,6.751a287.663,287.663,0,0,1-43.651,3.992,350.156,350.156,0,0,1-43.857-2.02c-5.938-.632-11.888-1.019-17.8-1.961a138.618,138.618,0,0,1-35.828-10.83A50.751,50.751,0,0,1,6.452,126.658C2.716,122.2,1.006,116.978.023,111.41A1.284,1.284,0,0,1,1.852,110c3.286,1.6,6.555,3.245,9.814,4.9,11.071,5.625,22.831,9.245,34.865,12.106,22.113,5.253,44.554,6.54,67.186,5.8,9.635-.322,19.2-1.341,28.748-2.557A239.947,239.947,0,0,0,175.9,123.9a12.333,12.333,0,0,1,8.455.509c2.3.975,4.737,1.621,7.1,2.449a5.183,5.183,0,0,0,5.851-1.26c2.265-2.357,4.574-4.7,6.6-7.261a14.522,14.522,0,0,1,6.918-4.919,248.345,248.345,0,0,0,51.8-25.289,165.035,165.035,0,0,0,33.39-27.473c8.927-9.731,16.393-20.421,20.749-33.057,1.829-5.312,3.352-10.7,3.48-16.33a7.216,7.216,0,0,1,4.028-6.5c.831-.486,1.686-.938,2.556-1.352,11.149-5.33,14.14-4.752,23.57,4.174,10.756,10.178,11.426,24.038,4.85,37.32-5.7,11.518-13.9,21.2-23.469,29.8-8.2,7.374-17.156,13.661-26.138,20a379.956,379.956,0,0,1-43.609,26.093,224.586,224.586,0,0,1-29.159,12.5c-7.461,2.637-15.016,4.841-22.6,7.025C206.586,141.381,203.274,143.564,199.411,144.231Z" transform="translate(46.688 177.643)" fill="#a05d57"/></g><g transform="translate(30.972 113.573)" opacity="0.5"><path d="M47.618,69.526a45.513,45.513,0,0,1-19.983,1.889A38.852,38.852,0,0,1,18.22,68.74c-5.5-2.3-11-4.687-15.287-9.06a20.2,20.2,0,0,1-1.978-2.1c-1.7-2.342-1.117-4.338,1.672-5.473,5.345-2.172,10.723-4.252,16.083-6.379a7.032,7.032,0,0,1,5.6.22,58.63,58.63,0,0,0,11.581,3.566,54.467,54.467,0,0,0,24.038-.628,68.588,68.588,0,0,0,13.58-4.812,54.068,54.068,0,0,0,19.116-15.55c4.254-5.4,6.161-11.936,7.77-18.514a29.493,29.493,0,0,0,.614-4c.262-2.545,1.793-4.18,3.79-5.509,1.352-.9,2.884-.6,3.289.882,1.374,5,3.272,9.948,3.319,15.18.059,7.288-3.322,13.372-7.753,18.871-4.746,5.893-10.574,10.649-16.714,15C77.629,57.051,67.451,62.1,56.978,66.556,53.977,67.831,50.742,68.552,47.618,69.526Z" transform="translate(233.42 0)" fill="#6e26c7"/><path d="M86.067,37.163c-15.118,3.709-30.423,4.091-45.841,2.553a72.3,72.3,0,0,1-20.17-4.725c-5.226-2.121-9.984-4.958-13.6-9.45a16.029,16.029,0,0,1-3.3-6.01C2.229,15.994,1.061,12.514.209,8.963c-.754-3.14.542-4.231,3.766-3.51A6.291,6.291,0,0,1,7.806,7.795c1.415,1.823,2.958,3.545,4.5,5.268C22.28,24.235,35.247,28.278,49.673,27.912a59.09,59.09,0,0,0,29.07-8.417A49.808,49.808,0,0,0,91.525,8.82c1.12-1.323,2.306-2.589,3.387-3.938A7.151,7.151,0,0,1,99.837,2.2C105.17,1.514,110.5.772,115.831.084a10.361,10.361,0,0,1,2.294-.039,2.61,2.61,0,0,1,2.583,3.126,20.9,20.9,0,0,1-1.96,7.216c-4.213,8.378-9.692,15.618-17.719,20.856C96.387,34.276,91.3,35.765,86.067,37.163Z" transform="translate(0 83.628)" fill="#6e26c7"/></g><g transform="translate(0.926 0.057)" opacity="0.5"><path d="M160.5,9.173C164.968,8,169.4,6.6,173.921,5.682A273.366,273.366,0,0,1,216.241.245,248.019,248.019,0,0,1,276.571,4.9c2.831.573,5.614,1.385,8.375,2.229,2.249.688,3.087,2.045,2.929,4.317a10.408,10.408,0,0,1-3.206,6.635,23.086,23.086,0,0,1-14.075,7.128,185.353,185.353,0,0,1-25.957.937c-13.109-.2-26.207-.015-39.284.688-8.828.475-17.623,1.682-26.412,2.725a240.141,240.141,0,0,0-28.37,5.148,203.785,203.785,0,0,0-42.3,15.213C92.482,57.713,78.118,67.67,64.342,78.6A225.1,225.1,0,0,0,34.1,107.922a130.791,130.791,0,0,0-12.06,16.214c-2.756,4.392-5.774,8.572-8.062,13.312a174.522,174.522,0,0,0-7.836,20.493c-.673,2.008-1.317,4.028-2.08,6.007a8.669,8.669,0,0,1-1.46,2.437,1.8,1.8,0,0,1-1.508.512c-.423-.113-.781-.733-1.013-1.21a2.163,2.163,0,0,1-.006-1.138,68.028,68.028,0,0,1,1.293-8.563c2.086-7.606,3.754-15.362,7.246-22.518.42-.864.751-1.776,1.087-2.675,8.494-22.781,22.051-42.248,39.1-59.371a228.85,228.85,0,0,1,64.567-45.15q12.259-5.821,25.015-10.48A214.411,214.411,0,0,1,160.5,9.173Z" transform="translate(0 0)" fill="#fff"/><path d="M77.567,31.828c-6.189.414-12.123,2.166-18.213,3.048-10.291,1.492-20.635,2.4-31.013,3.033a38.646,38.646,0,0,0-10.687,2.428,18.847,18.847,0,0,0-9.433,7.3c-1.013,1.493-2.175,1.546-3.384.372a40.647,40.647,0,0,1-3.468-3.867,5.79,5.79,0,0,1-.918-5.988,33.612,33.612,0,0,0,2.33-8.912,3.093,3.093,0,0,1,2.592-2.762,61,61,0,0,1,9.022-1.948,80.722,80.722,0,0,0,9.645-1.761c12.823-2.619,25.706-4.972,38.279-8.7,5.533-1.642,11.164-2.92,16.458-5.363C81.2,7.59,83.964,7.256,86.526,6.41,91.639,4.727,96.716,2.93,101.81,1.2A32.644,32.644,0,0,1,105.126.189c3.072-.709,4.872.59,5.05,3.688a9.2,9.2,0,0,1-.316,2.848A24.725,24.725,0,0,1,103.4,18.155,39.033,39.033,0,0,1,96.1,23.8C90.279,27.3,83.721,29.042,77.567,31.828Z" transform="translate(151.021 169.175)" fill="#fff"/></g><g transform="translate(89.05 89.929)"><path d="M21,1.49c7.21-1.7,14.427-2.366,21.571.31a21.6,21.6,0,0,1,4.133,2.02C53.361,8.11,53.4,14.766,49.455,20.26c-3.5,4.874-8.5,7.752-13.9,9.951A40.575,40.575,0,0,1,14.587,32.69,21.5,21.5,0,0,1,4.511,28.656C-.1,25.254-1.192,20.591,1.3,15.4,3.39,11.06,6.927,8.122,10.9,5.673A35.572,35.572,0,0,1,21,1.49Z" transform="translate(0 41.242)" fill="#d901ab"/><path d="M27.667,32.769c-4.195,1.365-9.737,1.243-15.3.388a16.128,16.128,0,0,1-8.336-3.674c-4.144-3.59-5.1-7.943-2.83-12.963a18.468,18.468,0,0,1,4.758-6.441A39.468,39.468,0,0,1,37.466.3c4.407.5,8.6,1.835,11.694,5.539a9.556,9.556,0,0,1,1.615,10.234A19.125,19.125,0,0,1,45.588,23.6C40.741,27.9,35.16,30.761,27.667,32.769Z" transform="translate(156.09 0)" fill="#d901ab"/></g></g><g transform="translate(0 0)"><path d="M271.15,404.208c-12.5,3.1-23.111,4.928-33.715,6.847a357.69,357.69,0,0,1-35.527,4.338,287.047,287.047,0,0,1-36.957.646,252.78,252.78,0,0,1-35.6-3.93c-17.942-3.471-35.038-9.272-50.334-19.56-8.914-6-16.372-13.407-21.458-23.025-6.74-12.749-7.49-26.031-3.685-39.745a6.525,6.525,0,0,1,.342-1.105c1.716-3.492,1.275-6.424-1.424-9.475a28.52,28.52,0,0,1-6.37-12.174,31.9,31.9,0,0,1-.435-14.87c.375-1.7.739-3.394,1.025-5.1.262-1.556-.322-2.044-2-1.561a39.528,39.528,0,0,1-9.668,1.573c-16.7.572-24.881-11.754-25.137-24.914-.2-10.27,5.179-17.936,13-23.981a51.749,51.749,0,0,1,12.6-7.007c1.085-.432,1.609-1.138.775-2.151-4.07-4.948-5.685-10.925-6.847-16.994-.614-3.2-2.008-5.056-5.083-6.266a41.323,41.323,0,0,1-12.3-7.44C2.983,190.049-.962,179.7.2,167.331A97.351,97.351,0,0,1,6.29,142.718a197.415,197.415,0,0,1,20.737-41.235,184.987,184.987,0,0,1,27.968-33A232.483,232.483,0,0,1,93.1,39.422a260.254,260.254,0,0,1,37.117-18.7c8.748-3.546,17.459-7.152,26.669-9.387,1.29-.313,2.473-1.056,3.739-1.5,1.812-.638,3.632-1.569,5.494-1.7,5.053-.346,9.814-1.965,14.716-2.946A271.152,271.152,0,0,1,218.04.463a239.278,239.278,0,0,1,71.172,6.1,212.154,212.154,0,0,1,34.382,11.875c18.6,8.086,34.764,19.847,49.893,33.119a65.957,65.957,0,0,1,16.3,20.778c3.653,7.529,3.885,15.2,1.943,23.073a36.229,36.229,0,0,1-7.7,15.38c-.882,1.016-1.6,2.169-2.4,3.256a2.356,2.356,0,0,0-.253,2.679c3.134,6.209,3.891,12.835,3.447,19.688-.161,2.455.03,2.565,2.64,2.306a50.559,50.559,0,0,1,17.8.989c9.1,2.33,16.068,7.389,19.968,16.089,5.494,12.242.945,25.259-10.3,31.3a43.98,43.98,0,0,1-9.718,3.632c-1.561.408-1.74,1.165-.662,2.488.971,1.195,2.038,2.312,3.024,3.5,6.23,7.482,9.075,15.982,7.716,25.739a3.945,3.945,0,0,1-.087.569c-1.221,4.338-.307,7.884,3.763,10.279,13.38,13.52,19.116,29.49,15.639,48.469-2.717,14.841-10.023,27.384-19.265,38.983-9.808,12.311-21.622,22.489-34.221,31.785-17.132,12.639-35.676,22.81-55.077,31.519a316.456,316.456,0,0,1-34.382,13.467C284.142,399.888,276.951,403.33,271.15,404.208ZM211.141,184.8c3.343-.879,6.853-1.362,9.993-2.72,7.27-3.14,14.986-4.88,22.366-7.663,7.2-2.711,14.638-4.77,21.863-7.419,9.567-3.51,19.036-7.294,28.534-11.006q6.712-2.628,13.36-5.434c5.673-2.392,11.286-4.934,16.977-7.294A204.569,204.569,0,0,0,350.118,130.5c11.2-6.614,21.416-14.316,29.258-24.947a33.3,33.3,0,0,0,6.3-16.524A22.441,22.441,0,0,0,383,75.09a67.09,67.09,0,0,0-11.566-15.04,184.452,184.452,0,0,0-26.147-21.808A173.572,173.572,0,0,0,299.45,16.613c-26.1-8-52.771-10.754-79.944-9.3a191.957,191.957,0,0,0-25.82,2.81c-7.931,1.512-15.919,2.726-23.808,4.414-5.825,1.247-11.426,3.374-17.1,5.193a280.612,280.612,0,0,0-29.026,11.313A231.864,231.864,0,0,0,57.867,75.308a173.842,173.842,0,0,0-23.96,28.108A171.359,171.359,0,0,0,9.476,157.4a57.92,57.92,0,0,0-2.044,14.263c-.03,10.761,4.686,18.854,13.7,24.514a55.355,55.355,0,0,0,16.53,6.728c13.241,3.221,26.69,3.623,40.21,2.771,4.222-.265,8.432-.775,12.639-1.233,9.755-1.061,19.56-1.609,29.246-3.4,6.993-1.3,14.093-2.005,21.136-3.045,9.32-1.383,18.663-2.631,27.935-4.3,9.087-1.642,18.049-3.96,27.142-5.554C201.082,187.235,206.123,186.073,211.141,184.8Zm55.92,212.953c7.285-1.245,13.816-4.839,20.918-6.641a41.619,41.619,0,0,0,5.536-1.665c10.151-4.156,20.48-7.842,30.485-12.4,19.358-8.816,37.874-19.029,54.935-31.772,11.31-8.446,21.8-17.8,30.742-28.79a92.037,92.037,0,0,0,16.035-27.923c4.261-12.278,3.462-24.333-1.359-36.152-2.187-5.369-5.75-10.017-9.7-14.283-1.645-1.776-2.753-1.627-4.085.51-1.942,3.107-3.513,6.474-5.688,9.4-8.19,11.038-17.433,21.124-28.546,29.3-8.068,5.938-16.333,11.614-24.583,17.3-12.09,8.328-25.012,15.216-38,22.018A222.062,222.062,0,0,1,274.7,332.386c-17.7,5.327-35.521,10.267-53.8,13.538A287.9,287.9,0,0,1,182.5,350.3c-19.882.858-39.683-.289-59.457-2.333-14.054-1.448-27.795-4.052-41.035-9.278a123.236,123.236,0,0,1-18.61-9.231c-1.937-1.171-2.378-1.037-2.869.858-3.361,13-2.762,25.513,4.189,37.4,5.2,8.9,12.52,15.562,21.145,20.924,10.75,6.68,22.471,11.015,34.689,14.1a223.507,223.507,0,0,0,45.2,6.144,291.837,291.837,0,0,0,33.512-.483,362.067,362.067,0,0,0,36.68-4.457C246.374,402.115,256.732,400,267.06,397.754Zm71.986-161.316A31.02,31.02,0,0,0,353.36,225.42a42.26,42.26,0,0,0,5.694-10.685c1.26-3.646,2.446-7.32,3.84-10.917,2.109-5.446,4.71-10.607,9.862-13.908a30.614,30.614,0,0,1,14.561-5.151c4.8-.331,9.591-.879,14.393-1.195a22.2,22.2,0,0,0,11.76-4.416c3.146-2.294,5.873-5.172,6.242-9.35.709-8.021-1.523-14.861-8.533-19.527a24.654,24.654,0,0,0-13-4.314,92.668,92.668,0,0,0-12.693.411,5.066,5.066,0,0,0-4.719,3.367,32.088,32.088,0,0,1-3.474,5.3c-6.832,9.367-15.919,16.16-25.617,22.212a173.223,173.223,0,0,1-27.4,13.586,58.9,58.9,0,0,1-24.818,4.234,46.275,46.275,0,0,1-19.342-5.411c-2.246-1.156-2.643-1.06-3.236,1.305-2.038,8.1-7.237,14.066-13.437,19.062-11.08,8.926-23.811,14.891-37.32,19.176-8.116,2.574-16.548,3.667-25,4.293a89.041,89.041,0,0,1-27.026-1.8,35.379,35.379,0,0,1-15.85-7.934c-3.14-2.8-3.1-2.843-5.72.65-5.661,7.529-12.43,13.523-21.354,17.146a71.938,71.938,0,0,1-17.259,4.395,154.611,154.611,0,0,1-32.863,1.308c-9.635-.691-19.181-2.127-28.143-6.027-2.64-1.147-5.113-2.69-7.66-4.052a3.73,3.73,0,0,0-3.268-.537c-5.828,2.127-11.548,4.532-16.1,8.855-5.36,5.086-9.239,11.093-7.976,18.9,1.621,10,6.1,14.176,14.093,15.087a22.653,22.653,0,0,0,12.957-2.08c4.129-2.077,8.271-4.162,12.543-5.908,10.809-4.418,21.067-4.1,30.223,4.091q4.313,3.857,8.709,7.618a43.188,43.188,0,0,0,16.112,8.837c6.337,1.829,12.5,1.555,18.473-1.743a56.665,56.665,0,0,0,12.07-8.846A83.05,83.05,0,0,1,164.1,266.313c6.26-3.072,12.746-4.27,19.643-2.676a45.892,45.892,0,0,1,14.012,5.271,46.151,46.151,0,0,0,8.974,3.954c4.046,1.439,8.283,1.773,12.442,2.562a33.822,33.822,0,0,0,23.96-4.174c8.754-5.1,16.247-11.751,21.553-20.516a49.223,49.223,0,0,1,9.355-10.934,27.655,27.655,0,0,1,17.876-7.16,72.631,72.631,0,0,1,24.038,2.524,40.087,40.087,0,0,0,6.224,1.317C327.533,237.169,332.91,237.681,339.047,236.438ZM249.521,331.7c7.55-2.24,15.314-3.745,22.685-6.733,5.679-2.3,11.742-3.608,17.507-5.864,14.581-5.709,28.364-12.954,41.92-20.7,9.385-5.366,18.2-11.59,27.148-17.615a189.713,189.713,0,0,0,21.547-16.506c9.063-8.211,16.994-17.3,22.971-28.042A41.443,41.443,0,0,0,407.43,225.5,28.9,28.9,0,0,0,392.9,193.745a11.579,11.579,0,0,0-9.978-.578c-1.439.527-2.753,1.383-4.153,2.023a13.916,13.916,0,0,0-7.72,8.161c-1.436,3.989-3.021,7.928-4.368,11.944a50.082,50.082,0,0,1-10.607,18.377c-5.994,6.5-13.1,10.678-22.161,10.926a12.59,12.59,0,0,0-7.067,2.16c-6.972,4.827-14.217,9.278-20.946,14.414A237.808,237.808,0,0,0,268.741,295.8c-5.875,6.9-12.052,13.535-17.948,20.412-2.6,3.033-5.559,3.885-9.251,2.646-.548-.185-1.108-.339-1.653-.527-7.657-2.622-15.371-5.089-22.947-7.928-4.7-1.764-9.433-3.373-14.248-4.764-16.533-4.77-33.3-8.155-50.549-8.906-3.462-.149-6.927-.468-10.359-.935a12.464,12.464,0,0,0-7.809,1.388c-8.789,4.648-17.749,4.3-26.841.914-6.805-2.529-12.552-6.671-17.975-11.372-3.054-2.646-6.072-5.372-9.34-7.738-4.5-3.257-13.416-3.5-18.276-1.022-2.789,1.424-4.269,3.855-5.554,6.442-4.368,8.813-5.142,17.721.021,26.5A40.11,40.11,0,0,0,73.08,326.864a131.427,131.427,0,0,0,43.029,12.761c14.546,1.716,29.133,3,43.8,3.313,12.147.259,24.279,0,36.385-.951,12.3-.965,24.33-3.757,36.438-5.95C238.4,335.015,243.929,333.173,249.521,331.7ZM172.557,271c-1.442.542-2.923.989-4.311,1.632-7.776,3.623-14.417,8.846-20.606,14.7-.429.405-.819.912-.48,1.478.143.239.691.3,1.06.334,10.362.811,20.7,1.556,30.974,3.447a257.509,257.509,0,0,1,39.579,10.562c7.258,2.574,14.557,5.033,21.774,7.719,3.009,1.12,4.988.4,7.019-2.029,4.821-5.756,9.96-11.25,14.867-16.935,14.42-16.721,30.509-31.54,49.184-43.44,1.624-1.031,3.247-2.074,4.809-3.194a1.8,1.8,0,0,0,.763-1.365c-.083-.405-.748-.8-1.24-.98-8.333-2.986-16.989-3.227-25.671-2.643a16.932,16.932,0,0,0-9.1,3.4c-3.867,2.923-7.678,6.03-10.011,10.287-3.983,7.276-9.766,12.806-15.975,18.058-5.679,4.8-11.775,8.658-19.253,9.942-2.649.456-5.154,1.725-7.9,1.6-11.42-.53-22.656-1.758-32.779-7.848a35.986,35.986,0,0,0-7.926-3.45C182.544,270.8,177.664,269.514,172.557,271Zm48.988-48.044c7.168-1.365,14.382-4.6,21.491-8.045a79.671,79.671,0,0,0,20.04-13.538,28.292,28.292,0,0,0,7.24-11,6.17,6.17,0,0,0-1.332-6.939c-1.871-1.943-3.6-4.022-5.393-6.034-1.025-1.144-2.139-1.236-3.629-.724-9.278,3.176-18.562,6.355-27.923,9.29-4.046,1.266-7.789,3.3-11.972,4.213-8.083,1.764-15.946,4.344-24.2,5.527-8.747,1.254-17.355,3.483-26.028,5.265-2.431.5-5.357.247-7.192,1.552-2.193,1.558-1.415,4.985-2.2,7.541-1.7,5.524-1.085,6.644,3.662,10.187a22.98,22.98,0,0,0,7.708,3.858,68.6,68.6,0,0,0,15.344,2.705A106.68,106.68,0,0,0,221.545,222.953ZM120.84,237.57c13.362-3.185,23.019-11.1,29.728-22.918a37.292,37.292,0,0,0,3.149-8.035c.56-1.9-.378-2.95-2.455-2.667-4.568.626-9.114,1.4-13.673,2.085-7.982,1.2-15.943,2.568-23.955,3.522C103.143,210.8,92.619,211.8,82.048,212.3c-12.507.584-24.991.947-37.424-.983-1.9-.292-3.79-.673-5.694-.953-1.3-.188-1.719.351-1.567,1.63.4,3.328,2.485,6.036,3.319,9.2a16.321,16.321,0,0,0,5.381,8.027c4.731,4.2,10.362,6.537,16.411,8.086a107.909,107.909,0,0,0,26.29,3.3A143.03,143.03,0,0,0,120.84,237.57Zm196.078-51.64a123.763,123.763,0,0,0,16.837-6.88c11.941-5.92,23.424-12.552,32.973-22.063,4.7-4.681,8.554-9.886,10.374-16.4a15.957,15.957,0,0,0,.247-9.1A28.843,28.843,0,0,1,375.771,123c.009-1.311-.888-1.674-1.9-.843a166.961,166.961,0,0,1-30.968,20.019,466.873,466.873,0,0,1-45.8,20.481q-11.862,4.505-23.722,9.01a5.425,5.425,0,0,0-1.493.852c-.819.674-1.2,1.472-.432,2.467,2.536,3.277,5.995,5.25,9.528,7.3C291.987,188.668,303.5,189.523,316.918,185.93Z" transform="translate(0)" fill="#181f49"/><path d="M40.308,47.068a27.538,27.538,0,0,1-18.86-.858,22.032,22.032,0,0,1-5.941-3.5A48.734,48.734,0,0,1,1.254,23.361,20.31,20.31,0,0,1,.033,18.332a3.479,3.479,0,0,1,2.032-3.8,3.346,3.346,0,0,1,3.665,1.114,35.815,35.815,0,0,1,3,4.219c3.012,4.711,6.012,9.4,10.273,13.157a13.357,13.357,0,0,0,5.452,3.1c11.039,2.953,17.76.206,24.923-7.481a12.7,12.7,0,0,0,2.047-4.093c2.211-5.679,2.363-11.674,2.511-17.65a9.4,9.4,0,0,1,1.361-5.506A2.72,2.72,0,0,1,59.725.941a6.343,6.343,0,0,1,2.041,3.426c1.516,9.707,1.156,19.187-3.283,28.224C54.657,40.377,48.585,45.23,40.308,47.068Z" transform="translate(159.624 94.486)" fill="#181f49"/><path d="M10.821.389c7.455-2.106,15.672,4.663,15.4,12.764A14.826,14.826,0,0,1,20.91,24.272c-3.772,3.28-8,3.671-12.4,1.835C3.772,24.128.524,20.69.066,15.33-.566,7.873,3.385,2.495,10.821.389Z" transform="translate(108.762 104.436)" fill="#181f49"/><path d="M.278,15.416a13.383,13.383,0,0,1,2.27-10.6c4.427-6.2,15.034-6.769,21.124.4,5.786,6.808,2.419,17.281-4.8,20.475C11.957,28.746,2.655,24.065.278,15.416Z" transform="translate(242.492 69.572)" fill="#181f49"/></g></g></svg>