<svg xmlns="http://www.w3.org/2000/svg" width="432.22" height="516.189" viewBox="0 0 432.22 516.189"><g transform="translate(4.796 4.321)"><g transform="translate(31.748 217.376)"><path d="M548.7,1269.947l-165.82,11.078c-.5.034-1.006.122-1.508.12-1.511-.01-2.218-.51-2.483-1.94-.549-2.973-1.106-5.945-1.506-8.938-.641-4.829-.793-9.7-1.883-14.495a18.006,18.006,0,0,1-.194-8.506,16.951,16.951,0,0,0-.032-5.022,13.429,13.429,0,0,1,12.938-14.5c1.177-.065,2.351-.159,3.528-.236Q545.207,1217.254,698.675,1207c1.344-.091,2.689-.182,4.033-.263,7.721-.457,12.927,4.322,14.326,11.437.614,3.118.764,6.306,1.5,9.443.52,2.208-.07,4.666-.065,7.01.018,6.889.117,13.778.115,20.669,0,2.949-.486,3.357-3.568,3.565q-83.16,5.555-166.323,11.112A.141.141,0,0,0,548.7,1269.947Z" transform="translate(-374.873 -1119.063)" fill="#e383d4"/><path d="M888.687,923.167c-11.216.8-20.666-3.229-28.945-10.547-4.743-4.192-8.474-9.032-10.408-15.161a18.352,18.352,0,0,1-.96-6.938c.277-3.68,2.128-5.848,5.717-6.761a89.9,89.9,0,0,1,15.434-2.125c4.175-.317,8.355-.4,12.48-1.459a20.982,20.982,0,0,1,7.508-.492c4.061.476,8.048.037,12.061-.187a94.128,94.128,0,0,1,15.58-.01c4.437.486,6.54,2.546,7.183,6.985.842,5.784-.848,11.034-3.618,15.92a41.141,41.141,0,0,1-25.554,19.85A38.57,38.57,0,0,1,888.687,923.167Z" transform="translate(-721.643 -879.16)" fill="#e383d4"/></g><g transform="translate(33.517)"><path d="M552.83,1328.564q81.376-5.438,162.756-10.868c1.844-.122,3.7-.221,5.544-.234a1.985,1.985,0,0,1,2.057,1.831,11.483,11.483,0,0,1,.3,3c-.465,4.707-.075,9.406-.062,14.108.008,2.96-.481,3.373-3.552,3.576q-163.258,10.879-326.518,21.753c-2.351.159-4.7.4-7.05.515-1.559.078-2.325-.453-2.559-1.828-.959-5.63-2.073-11.245-2.256-16.976-.086-2.7.425-3.282,3.045-3.594,1.67-.2,3.356-.265,5.036-.38Q471.2,1334.016,552.83,1328.564Z" transform="translate(-381.482 -982.802)" fill="#d901ab"/><path d="M790.3,124.987c-.227-10.927.851-20.572,4.143-29.875,3.1-8.751,7.936-16.3,15.6-21.79a30.461,30.461,0,0,1,16.783-6.158c3.016-.117,6.005-.588,9.056-.245,10.529,1.178,18.524,6.683,24.978,14.672,5.813,7.2,9.215,15.632,11.347,24.525,1.251,5.209,1.844,10.576,2.668,15.884.32,2.057-.814,3.188-2.951,2.92-3.165-.4-6.3-1.03-9.471-1.373-2.227-.239-3.2-1.451-3.655-3.487a78.9,78.9,0,0,0-5.018-15.827,38.648,38.648,0,0,0-11.344-14.586,19.817,19.817,0,0,0-11.17-4.161,15.589,15.589,0,0,0-9.912,3.149c-5.8,3.963-9.206,9.69-11.665,16.066a51.929,51.929,0,0,0-3.156,13.715c-.161,1.669-.552,3.321-.645,4.993a4.03,4.03,0,0,1-3.223,3.976c-3.223.947-6.429,1.956-9.672,2.829-1.97.53-2.7-.151-2.72-2.3C790.265,126.571,790.3,125.224,790.3,124.987Z" transform="translate(-680.886 -66.797)" fill="#d901ab"/><path d="M908.6,951.609a68.976,68.976,0,0,1,25.427,2.338,40.913,40.913,0,0,1,4.733,1.711c2.418,1.058,2.614,1.953,1.09,4.236a12.453,12.453,0,0,1-.916,1.2c-8.607,9.96-19.314,15.626-32.658,15.065-9.4-.4-17.51-4.34-24.444-10.678-.867-.793-1.724-1.6-2.532-2.455-1.218-1.285-1.114-2.348.485-3.232a60.113,60.113,0,0,1,14.892-6.054A75.633,75.633,0,0,1,908.6,951.609Z" transform="translate(-745.485 -714.651)" fill="#d901ab"/></g><g transform="translate(35.404 58.593)"><path d="M554.755,539.974q-73.827,4.935-147.653,9.861c-2.512.166-5.02.474-7.534-.179a2.811,2.811,0,0,1-2.434-2.187c-.392-1.8-.922-3.584-1.272-5.4q-2.241-11.624-4.391-23.267a49.682,49.682,0,0,1-.6-5.518c-.786-11.419-1.808-22.83-2.233-34.264a216.948,216.948,0,0,1,1.779-33.19,232.656,232.656,0,0,1,9.951-45.264,188.1,188.1,0,0,1,29.292-56.08,151.55,151.55,0,0,1,36.582-34.4,137.789,137.789,0,0,1,38.651-18.243c1.417-.406,2.97-1.352,4.209.128,1.038,1.238.071,2.548-.359,3.791a119.013,119.013,0,0,0-5.749,27.594c-.659,6.86-1.238,13.723-.6,20.63a63.392,63.392,0,0,0,2.059,9.859,11.819,11.819,0,0,0,2.894,5.266c2.127,2.213,4.082,2.447,6.752.892a15.824,15.824,0,0,0,5.174-5.417c3.427-5.294,5.469-11.153,7.2-17.153a146.382,146.382,0,0,0,5.259-29.763c.328-4.348.325-8.73.274-13.094a38.685,38.685,0,0,0-.9-4.938c-.257-1.776.555-3.069,2.333-3.263,3.171-.351,6.369-.515,9.56-.614a2.058,2.058,0,0,1,2.081,1.846,16.9,16.9,0,0,1,.3,2.5c.457,13.957,4.066,27.222,8.88,40.209a96.537,96.537,0,0,0,10.033,19.2,23.372,23.372,0,0,0,5.682,5.692c4.124,3.113,7.832,1.017,9.378-2.72a22.99,22.99,0,0,0,1.68-9.377,111.553,111.553,0,0,0-5.009-31.786c-2.065-6.405-3.989-12.857-7.136-18.853a13.992,13.992,0,0,1-.92-2.343c-.593-1.927.184-3.024,2.122-2.886a44.313,44.313,0,0,1,5,.634,144.272,144.272,0,0,1,58.059,24.676,170.9,170.9,0,0,1,42.6,44,213.9,213.9,0,0,1,26.647,56.379,278.2,278.2,0,0,1,7.253,29.864,269.094,269.094,0,0,1,4.67,46.614,302.109,302.109,0,0,1-1.038,30.709q-.21,2.512-.416,5.022c-.234,2.879-.575,3.438-3.462,4.119a36.83,36.83,0,0,1-5.989.764Q629.084,535.02,554.755,539.974Zm-2.553-49.38c6.889.075,12.966-2.187,18.566-5.844a47.636,47.636,0,0,0,5.992-4.611c7.19-6.543,11.967-14.433,13.278-24.234a15.487,15.487,0,0,0-.947-7.887,7.646,7.646,0,0,0-5.955-4.874,31.452,31.452,0,0,0-6.506-.588c-6.709-.016-13.424.008-20.131.18-12.28.317-24.437,1.935-36.577,3.672a27.674,27.674,0,0,0-4.379,1.162,9.244,9.244,0,0,0-6.372,10.693,30.682,30.682,0,0,0,3.5,10.464C521.661,483.65,534.6,491.4,552.2,490.594Zm-62.432-57.47c-.2-4.356-4.894-8.647-9.122-8.343-4.748.343-8.909,4.933-8.584,9.469a8.872,8.872,0,0,0,17.707-1.126Zm116.094-7.869a8.491,8.491,0,0,0,8.912,8.306c4.946-.172,8.387-4.351,8.207-9.507-.153-4.473-4.008-8.275-9.723-7.981C609.918,416.244,605.018,420.119,605.864,425.255Z" transform="translate(-388.535 -285.768)" fill="#e48a21"/><path d="M570.876,1550.9q-41.57,2.777-83.139,5.562c-18.808,1.28-37.633,2.383-56.408,4.065-12.281,1.1-23.78-8.87-25.155-20.547-.686-5.833-1.142-11.736-2.236-17.478-1.326-6.952-1.178-14.077-2.946-20.95a37.533,37.533,0,0,1-.572-5.518c-.749-7.352-1.837-14.67-2.744-22-1.3-10.5-3.093-20.932-4.041-31.477-.105-1.159-.552-2.283-.762-3.438-.472-2.6.331-3.692,3.073-4.085,1.33-.19,2.682-.234,4.026-.325q24.436-1.638,48.875-3.266,104.807-7,209.615-14c1.68-.112,3.36-.276,5.04-.289,2.7-.023,3.609.694,3.31,3.191-.97,8.1.224,16.128.65,24.179.372,6.969,2.4,13.543,5.042,19.959a19.107,19.107,0,0,0,3.87,5.864c2.86,3.016,6.84,3.053,9.851.117a19.411,19.411,0,0,0,4.363-7.31c2.525-6.683,3.388-13.668,3.942-20.734a124.862,124.862,0,0,0-.528-21.649c-.52-5.467-.281-5.659,5.212-6.044,8.9-.624,17.8-1.2,26.7-1.792.5-.034,1.009-.081,1.513-.089,3.3-.044,4.018.442,4.106,3.6.1,3.688.574,7.37.039,11.084a36.233,36.233,0,0,0,.1,5.539c.115,7.9.494,15.8.221,23.685-.169,4.887.372,9.763.034,14.6-.5,7.229.624,14.44-.143,21.657a48.929,48.929,0,0,0,.174,5.544c.057,6.382.195,12.766.088,19.147-.145,8.821-3.615,15.917-11.161,20.874a19.628,19.628,0,0,1-9.929,3.206q-27.219,1.607-54.428,3.4Q613.7,1548,570.876,1550.9Z" transform="translate(-391.619 -1111.253)" fill="#e48a21"/></g><g transform="translate(35.316 58.578)"><path d="M753.492,1648.029c-.06,3.17-.1,7.032-.218,10.889-.05,1.615-1.032,2.371-2.712,2.119a20.016,20.016,0,0,1-7.128-2.424c-2.042-1.178-4.075-2.371-6.155-3.477-5.131-2.722-10.257-2.972-15.314.208-1.709,1.074-3.415,2.15-5.079,3.293-11.109,7.619-22.707,8.524-34.826,2.6a33.074,33.074,0,0,0-8.974-3.266,9.719,9.719,0,0,0-6.369.757c-1.787.929-3.578,1.865-5.268,2.952-2.122,1.363-4.08,2.983-6.221,4.309a27.8,27.8,0,0,1-16.307,4.111,33.623,33.623,0,0,1-15.785-4.7c-.291-.172-.6-.319-.886-.484-6.028-3.428-11.868-3.014-17.579.8-1.958,1.306-3.921,2.621-5.981,3.758a68.7,68.7,0,0,1-6.792,3.3,22.632,22.632,0,0,1-16.3.38c-4.456-1.487-8.989-2.868-12.959-5.534-4.223-2.837-8.879-2.92-13.61-1.893a24.343,24.343,0,0,0-7.708,3.659c-2.7,1.708-5.4,3.425-8.158,5.043a23.834,23.834,0,0,1-20.4,2.051,47.706,47.706,0,0,1-8.813-3.739c-6.846-3.9-13.234-3.649-19.768,1.037a41.253,41.253,0,0,1-14.594,6.678c-7.457,1.774-14.334.562-21-2.808-2.55-1.29-5.056-2.666-7.579-4.008-3.6-1.909-7.137-1.544-10.639.271a9.7,9.7,0,0,0-.887.481c-3.963,2.616-5.356,2.619-5.782-2.975a43.867,43.867,0,0,0-1.147-7.971,25.019,25.019,0,0,1-.528-5.513c-.066-2.013.4-2.668,2.368-3.355a27.678,27.678,0,0,1,23.845,2.1c1.784.947,3.493,2.036,5.292,2.946,4.226,2.135,8.556,2.832,13.133,1.009a58.964,58.964,0,0,0,9.156-4.2c2.3-1.4,4.63-2.754,7-4.028a18.148,18.148,0,0,1,13.205-1.7,68.986,68.986,0,0,1,12.9,4.314,30.743,30.743,0,0,0,8.619,2.756,10.542,10.542,0,0,0,5.438-.522,38.8,38.8,0,0,0,8.088-4.07,78.244,78.244,0,0,1,7.794-4.658,28.6,28.6,0,0,1,22.5-2.008,51.252,51.252,0,0,1,9.334,3.792c2.214,1.188,4.626,2.008,6.922,3.052,4.66,2.125,9.189,1.628,13.58-.712,2.67-1.422,5.276-2.977,7.864-4.545a45.382,45.382,0,0,1,9.671-4.249,18.377,18.377,0,0,1,12.828.51c3.287,1.3,6.512,2.751,9.791,4.067a23.109,23.109,0,0,0,8.322,1.854,20.615,20.615,0,0,0,13.613-4.47,41,41,0,0,1,9.476-5.713,25.244,25.244,0,0,1,16.771-1.28,82.4,82.4,0,0,1,10.441,3.752c2.655,1.085,5.328,2.044,8.3,1.834a18.169,18.169,0,0,0,9.315-3.532,45.189,45.189,0,0,1,9.625-5.484c8.285-3.22,16.391-3.178,24.31,1.251a74.129,74.129,0,0,0,8.566,4.276c2.4.959,3.547,2.351,3.272,4.914A16.676,16.676,0,0,0,753.492,1648.029Z" transform="translate(-412.97 -1272.575)" fill="#e8a141"/><path d="M436.305,1771.463c-.1-1.511-.218-3.019-.3-4.53a2.824,2.824,0,0,1,2.044-3.082,24.563,24.563,0,0,1,11.936-1.1,28.668,28.668,0,0,1,10.4,3.69,73.677,73.677,0,0,0,7.664,3.833,13.842,13.842,0,0,0,10.32.319,54.009,54.009,0,0,0,10.445-4.982c3.3-2,6.555-4.1,10.381-5.094a16.734,16.734,0,0,1,6.472-.481,42.6,42.6,0,0,1,12.077,3.484,57.92,57.92,0,0,0,10.43,3.758,13.141,13.141,0,0,0,8.383-.684,77.939,77.939,0,0,0,9.23-5.183c3.889-2.317,7.71-4.7,12.244-5.794a25.588,25.588,0,0,1,10.479-.489,47.834,47.834,0,0,1,11.991,3.771c3.21,1.475,6.458,2.869,9.705,4.259a14.136,14.136,0,0,0,13.108-.772c2.785-1.565,5.6-3.095,8.282-4.831,3.9-2.526,8.254-3.73,12.682-4.77a10.43,10.43,0,0,1,4.509.112,40.607,40.607,0,0,1,7.734,2.278c2.171.913,4.343,1.834,6.522,2.723,8.29,3.383,16.069,2.712,23.306-2.822a45.664,45.664,0,0,1,5.937-3.813,25.727,25.727,0,0,1,19.982-2.468,72.32,72.32,0,0,1,10.456,3.7,15.717,15.717,0,0,0,15.858-1.115c1.989-1.261,3.955-2.559,5.939-3.828a30.4,30.4,0,0,1,18.279-4.657,20.693,20.693,0,0,1,5.4,1.2c4.826,1.589,9.123,4.291,13.546,6.715a3.049,3.049,0,0,1,1.7,2.364,31.972,31.972,0,0,1-.894,13.986c-.934,2.861-2.135,3.378-4.988,2.057a72.724,72.724,0,0,1-7.141-3.761c-6.2-3.747-12.173-3.048-18.06.664-2.7,1.7-5.344,3.511-8.09,5.139a20.115,20.115,0,0,1-9.552,2.949c-1.849.073-3.7.179-5.539.359a22.219,22.219,0,0,1-11.315-1.948c-2.46-1.089-4.871-2.288-7.313-3.419-5.492-2.543-10.727-2.283-15.673,1.412-1.885,1.41-3.862,2.7-5.77,4.077a28.49,28.49,0,0,1-14.55,5.238,29.928,29.928,0,0,1-13.83-2.234c-1.706-.7-3.334-1.6-5-2.408-1.36-.66-2.694-1.381-4.086-1.973a12.758,12.758,0,0,0-12.1.707c-2.9,1.712-5.794,3.423-8.665,5.183a33.836,33.836,0,0,1-8.693,3.966,23.237,23.237,0,0,1-11.961.393,52.029,52.029,0,0,1-14.971-5.9c-6.43-3.94-12.772-3.565-19.123-.013-2.789,1.56-5.463,3.323-8.2,4.969-1.438.866-2.886,1.719-4.366,2.507a20.774,20.774,0,0,1-17.535,1.316c-4.423-1.61-8.847-3.261-13.134-5.193a13.63,13.63,0,0,0-13.882.993,58.68,58.68,0,0,1-15.882,7.578,28.62,28.62,0,0,1-21.99-2.3c-1.628-.876-3.217-1.831-4.815-2.767a15.671,15.671,0,0,0-14.078-.975c-.472.177-.909.45-1.386.6-1.333.432-2.459-.081-2.632-1.482C437.756,1779.056,436.235,1775.388,436.305,1771.463Z" transform="translate(-423.212 -1352.938)" fill="#e8a141"/><path d="M392.767,1005.269c-.169-2.52-.35-5.037-.5-7.557a2.817,2.817,0,0,1,2.147-3.006c4.991-1.88,9.937-1.329,14.837.263a30.19,30.19,0,0,1,7.716,3.718c7.415,5.053,14.851,4.375,22.332.24,2.061-1.139,4.14-2.27,6.085-3.591,7.654-5.2,15.737-5.172,24.075-2.086,2.365.876,4.657,1.95,6.99,2.915,1.088.45,2.192.863,3.292,1.285a15.564,15.564,0,0,0,14.048-1.162c2.764-1.612,5.474-3.313,8.256-4.889a63.655,63.655,0,0,1,6.266-3.243,25.634,25.634,0,0,1,23.744,1.266,48.168,48.168,0,0,0,16.1,5.674,7.519,7.519,0,0,0,2.486.312c6.544-1.329,13.437-1.175,19.484-4.657a42.284,42.284,0,0,0,7.068-4.837,8.489,8.489,0,0,1,8.914-1.8c2.228.747,4.426,1.6,6.608,2.473,2.031.814,4.018,1.734,6.031,2.593,7.266,3.092,14.069,2.336,20.494-2.317,3.945-2.855,7.942-5.547,12.737-7.032,6.5-2.012,12.646-.866,18.778,1.2a62.794,62.794,0,0,1,7.464,3.079,12.4,12.4,0,0,0,12.048-.369,44.579,44.579,0,0,0,6.067-3.6,33.21,33.21,0,0,1,12.339-5.578,26.057,26.057,0,0,1,17.707,1.995c2.741,1.277,5.331,2.873,8.017,4.27a3.853,3.853,0,0,1,2.328,3.6c.007,5.034.879,10.069.007,15.106-.257,1.493-.889,1.961-2.426,1.633a16.667,16.667,0,0,1-4.65-1.909c-2.351-1.311-4.751-2.53-7.1-3.846-4.54-2.543-9.047-2.231-13.44.257-2.483,1.407-4.831,3.053-7.224,4.621-8.561,5.62-17.821,6.707-27.544,3.992a37.318,37.318,0,0,1-7.869-3.36c-6.884-3.8-13.185-3-19.192,1.862a54.847,54.847,0,0,1-4.967,3.467,26.937,26.937,0,0,1-16.2,4.522,42.423,42.423,0,0,1-16.929-4.338c-9.567-4.652-10.677-4.179-19.2.8a95.43,95.43,0,0,1-11.059,6.051,24.179,24.179,0,0,1-16.778.645,61.521,61.521,0,0,1-13.478-5.625c-6.143-3.56-12.249-3.048-18.3.044a47.429,47.429,0,0,0-6.822,4.307c-9.063,6.8-18.63,7.9-28.9,2.98-3.184-1.524-6.518-2.736-9.753-4.158a10.355,10.355,0,0,0-10.108.549c-3.026,1.828-6.135,3.519-9.139,5.375a32.519,32.519,0,0,1-12.811,4.382,26.876,26.876,0,0,1-16.664-2.671c-2.078-1.11-4.18-2.179-6.21-3.37-4.132-2.429-8.393-3.368-13-1.451a8.417,8.417,0,0,1-1.456.411c-1.268.268-2.047-.148-2.168-1.386-.259-2.679-.382-5.37-.562-8.056Z" transform="translate(-391.175 -789.695)" fill="#e8a141"/><path d="M403.4,1110.377c-.491-4.619-.969-6.207,5.217-6.9,5.179-.583,10.015.775,14.6,3.12,2.546,1.306,5.031,2.733,7.61,3.963a14.779,14.779,0,0,0,12.209.79,50.2,50.2,0,0,0,7.363-3.269c1.6-.934,3.221-1.834,4.78-2.829,7.891-5.048,16.167-5.055,24.667-1.883,3.15,1.178,6.266,2.458,9.367,3.763a15.176,15.176,0,0,0,14.5-1.011c3.171-1.914,6.366-3.786,9.544-5.688,9.026-5.4,18.407-5.892,28.076-1.979,2.807,1.137,5.549,2.432,8.322,3.657.307.138.61.286.9.45,7.25,4.023,14.188,3.118,20.921-1.293q2.955-1.938,5.965-3.786a32.169,32.169,0,0,1,9.884-3.721c4.993-1.12,9.679.276,14.22,2.239,2.47,1.069,4.813,2.483,7.352,3.331,7.05,2.351,13.853,2.283,20.1-2.507a65.532,65.532,0,0,1,6.78-4.382,26.4,26.4,0,0,1,21.86-2.468,88.862,88.862,0,0,1,10.849,4.109,12.413,12.413,0,0,0,12.485-.809c2.286-1.422,4.59-2.814,6.875-4.234,9.926-6.174,20.076-7.31,30.548-1.378a9.913,9.913,0,0,0,1.763.973c3.662,1.178,4.842,3.734,4.429,7.393-.455,4.005-.684,8.036-1.129,12.046-.187,1.7-1.306,2.278-2.91,1.529a52.708,52.708,0,0,1-5.776-3.1c-6.319-3.966-12.438-3.311-18.461.632-1.55,1.014-3.108,2.018-4.624,3.079-7.679,5.365-16.227,5.986-25.139,4.634a25.03,25.03,0,0,1-8.927-3.386c-7.208-4.249-13.985-3.968-20.518,1.36a41.907,41.907,0,0,1-4.114,2.92c-6.478,4.088-13.387,6.166-21.14,4.728a45.787,45.787,0,0,1-11.941-3.823c-10.28-5.016-11.232-4.772-20.533.749-1.738,1.032-3.481,2.057-5.179,3.151a26.521,26.521,0,0,1-14.8,4.338,21.025,21.025,0,0,1-6.469-.851c-4.8-1.555-9.632-3.04-14.011-5.664a17.485,17.485,0,0,0-13.1-2.273,25.434,25.434,0,0,0-7.766,3.526c-2.3,1.4-4.531,2.913-6.832,4.314a52.954,52.954,0,0,1-4.852,2.7,19.512,19.512,0,0,1-14.214,1.449,122.005,122.005,0,0,1-12.273-4.621c-9.22-3.747-9.109-5.432-20.042,1.3-4.314,2.655-8.724,5.066-13.715,6.262a29.082,29.082,0,0,1-21.037-2.5c-1.787-.941-3.568-1.909-5.266-3a12.7,12.7,0,0,0-8.671-1.971c-.667.081-1.342.135-2.014.151-2.589.062-3.337-.442-3.84-2.941C404.562,1117.147,403.96,1113.494,403.4,1110.377Z" transform="translate(-399.138 -870.214)" fill="#e8a141"/><path d="M717.565,667.9c-.237.63-.658,1.061-1.139.874a29.01,29.01,0,0,1-3.638-1.706c-5.24-2.926-10.324-2.46-15.307.616-1.147.708-2.262,1.459-3.391,2.19-1.269.822-2.522,1.677-3.815,2.463-10.028,6.088-20.352,6.184-30.9,1.485-1.69-.752-3.368-1.534-5.058-2.288-5.745-2.567-11.135-1.9-16.206,1.768-1.363.986-2.8,1.875-4.145,2.879-10.613,7.885-21.844,7.536-33.419,2.525-1.852-.8-3.63-1.766-5.461-2.619a12.769,12.769,0,0,0-12.542.71c-3.046,1.794-6.071,3.62-9.112,5.422-7.531,4.465-15.38,5.43-23.7,2.364a82.141,82.141,0,0,1-12.068-5.086c-5.144-2.884-10.461-3.409-15.927-.627a66.838,66.838,0,0,0-6.6,3.688c-2.666,1.758-5.4,3.419-8.153,5.04a7.035,7.035,0,0,1-5.812.952,6.735,6.735,0,0,0-4.9.447,8.643,8.643,0,0,1-5.916.086A61.115,61.115,0,0,1,477.7,684.09c-5.925-3.126-11.251-2.53-16.579,1.129-1.659,1.142-3.509,2-5.232,3.053a35.571,35.571,0,0,1-19.8,4.944c-4.5-.094-8.531-1.763-12.411-3.864-2.806-1.521-5.465-3.3-8.587-4.218-1.688-.5-2-1.23-1.534-3.144q1.681-6.862,3.577-13.668c.49-1.758,1.441-2.236,3.041-1.485,2.586,1.212,5.1,2.574,7.6,3.963a19.7,19.7,0,0,0,13.61,2.473,23.709,23.709,0,0,0,7.473-2.957c2.62-1.521,5.2-3.1,7.8-4.665a22.418,22.418,0,0,1,17.986-2.387,63.848,63.848,0,0,1,9.487,3.419,36.2,36.2,0,0,0,7.588,2.717,15.546,15.546,0,0,0,11.237-1.534c3.052-1.784,6.136-3.521,9.092-5.451,10.684-6.974,21.561-6.366,32.63-1.056,3.032,1.454,6.079,2.9,9.2,4.145a15.4,15.4,0,0,0,13.624-.887c2.8-1.537,5.536-3.2,8.249-4.9a38.5,38.5,0,0,1,10.711-4.322,17.882,17.882,0,0,1,8.472-.054,38.651,38.651,0,0,1,7.622,2.624c2.619,1.155,5.235,2.314,7.908,3.331a17.22,17.22,0,0,0,15.959-1.524,55.372,55.372,0,0,0,4.564-3.154,29.743,29.743,0,0,1,18.734-6.4c4.137.013,7.955,1.251,11.751,2.621,2.372.853,4.681,1.891,6.993,2.9a12.391,12.391,0,0,0,10.272-.122,33,33,0,0,0,7-3.994,30.832,30.832,0,0,1,19.337-6.163c2.358.011,3.883.778,4.774,2.876q2.863,6.733,5.677,13.486c.645,1.553,1.225,3.134,1.789,4.718A7.264,7.264,0,0,1,717.565,667.9Z" transform="translate(-406.633 -549.2)" fill="#e8a141"/><path d="M635.536,759.742c5.409-.66,10.5,1.142,15.574,2.973,1.9.686,3.747,1.511,5.6,2.32a12.859,12.859,0,0,0,12.1-.762c2.486-1.417,5-2.819,7.336-4.454,5.8-4.06,12.339-5.141,19.2-5.019,4.187.073,7.765,2.031,11.338,3.909,1.282.673,1.706,2.062,2.046,3.365,1.573,6.015,3.272,12,4.291,18.144.205,1.23-.6,1.792-1.909,1.352a31.422,31.422,0,0,1-7.692-3.758c-6.746-4.59-13.187-3.927-19.639.65a47.552,47.552,0,0,1-10.935,6.244,31.854,31.854,0,0,1-22.25-.18c-2.208-.793-4.293-1.927-6.46-2.85a44.105,44.105,0,0,0-4.691-1.807,11.677,11.677,0,0,0-9.731,1.121c-2.442,1.482-4.915,2.949-7.2,4.66-7.5,5.628-15.876,6.949-24.889,5.269a8.819,8.819,0,0,1-3.812-1.194c-3.576-2.853-8.02-3.336-12.087-4.824a9.963,9.963,0,0,0-6.938-.25c-3.9,1.438-7.948,1.435-11.961,1.542-8.424.224-16.787,1.173-25.178,1.784a15.58,15.58,0,0,0-2.968.546,14.882,14.882,0,0,1-10.784-.635c-5.1-2.382-10.194-1.651-14.987,1.095-4.088,2.34-8.1,4.824-12.133,7.255a22.376,22.376,0,0,1-13.021,3.264,25.454,25.454,0,0,1-8.3-2.029c-3.582-1.469-7.219-2.829-10.7-4.512a13.373,13.373,0,0,0-13.884.814c-2.988,1.883-6.082,3.6-9.174,5.313-6.633,3.672-13.805,3.922-21.1,3.126a15.409,15.409,0,0,1-5.716-1.911c-1.769-.973-3.625-1.8-5.339-2.855-3.819-2.361-7.776-3.906-12.411-3.256-1.884.262-2.473-.419-2.266-2.338.5-4.678,1.047-9.359,1.756-14.011.412-2.707,1.368-3.365,4.113-3.388a18.422,18.422,0,0,1,8.277,1.971c2.418,1.178,4.817,2.413,7.142,3.763,5.99,3.477,12.092,3.633,18.383.91a35,35,0,0,0,7.513-4.1,31.854,31.854,0,0,1,8.543-4.267,15.8,15.8,0,0,1,7.959-.791,49.754,49.754,0,0,1,16.215,5.36,4.518,4.518,0,0,1,2.1,2.073,21.292,21.292,0,0,0,1.114,2.265,8.559,8.559,0,0,0,8.015,4.338c3.56-.122,5.876-2.205,7.519-5.175a3.134,3.134,0,0,0,.541-1.4c-.056-3.88,2.69-5.474,5.539-7.11,4.253-2.448,8.575-4.637,13.518-5.344a30.651,30.651,0,0,1,15.815,2.234c3.283,1.3,6.509,2.77,9.656,4.366a19.183,19.183,0,0,0,19.708-.653c1.876-1.121,3.689-2.348,5.549-3.5,8.939-5.526,18.116-6.9,27.71-1.644,1.62.887,3.339,1.6,5.035,2.338a19.828,19.828,0,0,0,10.324,1.8c2.14-.25,3.986-.1,5.268,1.966.731,1.178,2.078,1.643,3.245,2.317,5.094,2.928,13.265-1.714,12.116-8.6-.167-.994-.315-1.992-.518-2.978-.53-2.569-.418-2.728,1.935-3.685A20.222,20.222,0,0,1,635.536,759.742Z" transform="translate(-393.06 -629.271)" fill="#e8a141"/><path d="M694.085,573.352a37.278,37.278,0,0,1-14.654-2.684c-2.624-1.139-5.232-2.322-7.885-3.394a13.97,13.97,0,0,0-13.075.96c-2.873,1.742-5.609,3.716-8.436,5.536-8.935,5.758-18.354,5.88-28.028,2.252-2.835-1.061-5.584-2.356-8.327-3.638a13.349,13.349,0,0,0-12.168.2,66.55,66.55,0,0,0-7.4,4.32,30.169,30.169,0,0,1-17.019,5.513,17.884,17.884,0,0,1-5.983-.72c-4.765-1.63-9.688-2.884-14.024-5.6-6.343-3.969-12.72-3.854-19.085-.081q-3.471,2.06-6.835,4.3a62.183,62.183,0,0,1-6.57,3.742,20.671,20.671,0,0,1-16.671.9,90.781,90.781,0,0,1-12.2-4.8c-5.77-3-10.875-2.372-16.126,1.16a59.886,59.886,0,0,1-9.784,5.217c-8.757,3.765-17.585,4.281-26.319-.216-2.578-1.326-2.823-1.7-1.885-4.3,1.366-3.8,2.815-7.567,4.387-11.281.973-2.3,1.6-2.647,3.908-1.9,6.638,2.158,12.6.52,18.32-2.889,2.6-1.553,5.189-3.128,7.808-4.655,5.413-3.154,11.2-3.391,17.073-1.81,3.074.827,6.024,2.119,9.013,3.248,1.573.6,3.1,1.319,4.664,1.935a16.858,16.858,0,0,0,15.516-1.157c2.023-1.2,3.989-2.5,5.977-3.765,5.771-3.662,11.828-6.272,18.888-6.231a33.963,33.963,0,0,1,11.339,2.114,66.385,66.385,0,0,1,6.909,3.076,45.584,45.584,0,0,0,8.877,3.584,14.852,14.852,0,0,0,11.25-1.269c2.645-1.475,5.242-3.038,7.823-4.622a50.029,50.029,0,0,1,9.568-4.5,18.924,18.924,0,0,1,13.324.39c2.837,1.056,5.58,2.356,8.371,3.54a42.786,42.786,0,0,0,7.146,2.436,15.384,15.384,0,0,0,11.658-1.807c2.028-1.191,3.966-2.536,5.935-3.825,3.952-2.59,7.95-4.941,12.747-5.82a28.231,28.231,0,0,1,14.87,1.144,74.878,74.878,0,0,1,7.942,3.246c5.745,2.826,11.068,2.036,16.206-1.448,1.948-1.324,3.914-2.624,5.9-3.88a23.819,23.819,0,0,1,3.1-1.68c1.768-.777,2.692-.536,3.9,1.118a105.04,105.04,0,0,1,8.192,13.315c.733,1.391.452,2.239-1.027,2.808a62.907,62.907,0,0,0-11.866,6.628A33.621,33.621,0,0,1,694.085,573.352Z" transform="translate(-426.954 -474.719)" fill="#e8a141"/><path d="M419.657,1556.59a22.206,22.206,0,0,1,12.632,2.189,69.364,69.364,0,0,1,6.694,3.531c5.663,3.534,11.516,3.313,17.414.939a78.862,78.862,0,0,0,7.133-3.758c2.676-1.412,5.312-2.915,8.059-4.174a17.851,17.851,0,0,1,10.369-1.264,45.321,45.321,0,0,1,10.644,3.053c2.485,1.034,4.936,2.186,7.492,3.008a17.415,17.415,0,0,0,15.056-1.563c3.015-1.844,6.094-3.583,9.118-5.412,8.873-5.367,18.114-5.7,27.617-1.99,2.5.978,4.938,2.146,7.347,3.347a64.723,64.723,0,0,0,7.011,2.822,14.3,14.3,0,0,0,10.774-.525,60.742,60.742,0,0,0,8.436-4.543,41,41,0,0,1,9.983-4.775,20.936,20.936,0,0,1,13.853.377c2.19.856,4.348,1.823,6.444,2.89a29.81,29.81,0,0,0,9.112,2.881c4.228.632,8.412.3,12.16-2.137,2.114-1.376,4.218-2.767,6.329-4.148,4.707-3.074,9.658-5.44,15.416-5.76a27.625,27.625,0,0,1,9.471,1.136c2.577.767,5.081,1.776,7.624,2.658a6.118,6.118,0,0,1,4.257,4.556c.627,2.434,1.526,4.806,2.384,7.175a19.7,19.7,0,0,0,5.836,8.693c.512.426,1.16.863.96,1.62-.276,1.045-1.287.892-2.068.981a27.068,27.068,0,0,1-13.377-1.738c-2.34-.944-4.626-2.028-6.972-2.962-1.87-.744-3.781-1.4-5.7-2.012a9.723,9.723,0,0,0-6.891.5,39.372,39.372,0,0,0-7.011,3.976c-1.254.848-2.453,1.781-3.732,2.59-9.986,6.307-20.281,6.27-30.792,1.446-2.293-1.053-4.558-2.171-6.87-3.178a12.134,12.134,0,0,0-9.809.1,46.107,46.107,0,0,0-8.717,5.05,36.125,36.125,0,0,1-10.461,4.9,20.993,20.993,0,0,1-11.445.323,55.9,55.9,0,0,1-14.989-5.9c-6.587-3.955-12.981-4.041-19.487-.072-1.867,1.139-3.715,2.312-5.566,3.474s-3.654,2.413-5.557,3.484a23.128,23.128,0,0,1-19.964,1.584c-3.007-1.079-5.933-2.387-8.872-3.651-10.181-4.379-10.268-4.348-19.619,1.183-2.748,1.626-5.634,3.015-8.459,4.507a26.853,26.853,0,0,1-10.671,2.8,28.291,28.291,0,0,1-16.963-3.828c-2.158-1.3-4.365-2.535-6.621-3.659a11.66,11.66,0,0,0-11.156.052c-1.636.861-3.226,1.81-4.828,2.736-2.1,1.217-2.9.825-3.291-1.656-.078-.5-.075-1.009-.151-1.508-.65-4.314-.559-8.712-1.718-12.987-.729-2.7.177-4.021,2.714-5.212A23.611,23.611,0,0,1,419.657,1556.59Z" transform="translate(-402.179 -1205.497)" fill="#e8a141"/><path d="M667.548,1447.707c.18,2.687.445,5.37.512,8.059.052,2.083-.824,2.733-2.811,2.337a26.322,26.322,0,0,1-7.542-2.793,31.772,31.772,0,0,0-7.464-3.022,11.836,11.836,0,0,0-8.808.9,37.418,37.418,0,0,0-5.622,3.35,48.834,48.834,0,0,1-4.554,3.167c-9.718,5.927-19.727,5.83-29.911,1.313-2.46-1.09-4.868-2.3-7.328-3.386a11.459,11.459,0,0,0-9.318-.005,43.4,43.4,0,0,0-4.954,2.478c-2.772,1.586-5.456,3.331-8.238,4.9-6.637,3.745-13.524,4.7-20.849,2.042a89.591,89.591,0,0,1-13.449-5.7c-5.732-3.211-11.5-3.406-17.214.193-3.273,2.065-6.677,3.927-9.877,6.093-7.617,5.159-15.564,5.8-23.953,2.179-4.015-1.737-8.084-3.347-12.085-5.115a9.809,9.809,0,0,0-9.632.587c-2.586,1.573-5.235,3.045-7.825,4.613a37.669,37.669,0,0,1-15.615,5.412,27.031,27.031,0,0,1-16.534-3.37c-2.187-1.259-4.37-2.528-6.592-3.721a12.574,12.574,0,0,0-13.41.34c-1.715,1.064-3.438,2.12-5.206,3.09-1.563.858-2.416.489-3.033-1.29a14.123,14.123,0,0,1-.694-2.926c-.543-4.5-1.013-9.013-1.542-13.52a3.059,3.059,0,0,1,1.344-3.042,9.525,9.525,0,0,1,5.11-1.956c4.7-.312,9.4-.645,14.1-.934a12.074,12.074,0,0,1,6.336,1.378c2.394,1.228,4.849,2.364,7.129,3.779,4.491,2.788,9.235,2.855,14.109,1.556a25.073,25.073,0,0,0,6.937-2.957c2.136-1.342,4.38-2.513,6.513-3.857,6.632-4.184,13.64-4.364,20.836-1.907,3.019,1.032,5.972,2.289,8.881,3.609,6.822,3.1,13.347,2.751,19.7-1.292,2.979-1.9,6.082-3.6,9.1-5.43a13.841,13.841,0,0,1,6.677-2.02c3.7-.172,7.394-.406,11.079-.744a14.459,14.459,0,0,1,7.37,1.248c3.381,1.505,6.764,3,10.141,4.514,3.873,1.737,7.785,3.077,12.174,2.414a26.4,26.4,0,0,0,10.555-4.567,52,52,0,0,1,8.387-4.592,22.85,22.85,0,0,1,19.077.06c2.452,1.108,4.928,2.169,7.409,3.214,7.76,3.266,15.07,2.707,21.86-2.546,1.459-1.129,3.056-2.08,4.61-3.079,10.493-6.738,21.075-5.349,31.7-.328a3.876,3.876,0,0,1,2.153,3.7c.146,2.517.33,5.034.5,7.55C667.709,1447.7,667.628,1447.7,667.548,1447.707Z" transform="translate(-392.429 -1125.409)" fill="#e8a141"/><path d="M1249.277,885.2c.094,1.4.12,2.075.187,2.746.4,4.013-.364,4.564-4.14,3.362a22.023,22.023,0,0,1-3.654-1.68c-1.927-1.03-3.826-2.117-5.714-3.219-5.253-3.068-10.464-3.272-15.678.106-1.833,1.188-3.779,2.208-5.578,3.443-10.839,7.445-22.141,8.028-33.911,2.431-1.667-.793-3.406-1.438-5.087-2.213a13.146,13.146,0,0,0-13.426,1.082c-2.4,1.553-4.748,3.178-7.133,4.748-9.687,6.366-19.863,6.434-30.35,2.328a13.476,13.476,0,0,1-2.236-1.15,2.016,2.016,0,0,1-.869-3,44.149,44.149,0,0,0,5.066-14.168,1.44,1.44,0,0,1,1.922-1.142c1.131.3,2.208.8,3.316,1.188,6.049,2.109,11.877,1.968,17.345-1.732,1.81-1.225,3.606-2.468,5.432-3.667,5-3.279,10.337-5.687,16.461-5.57a35.24,35.24,0,0,1,12.266,2.6c2.661,1.048,5.365,1.974,8.012,3.048a12.957,12.957,0,0,0,9.825-.216,23.192,23.192,0,0,0,5.295-2.892,44.585,44.585,0,0,1,8.282-4.777c8.189-3.55,16.292-3.682,24.325.437,1.2.614,2.33,1.36,3.555,1.9a8.052,8.052,0,0,1,5.261,7.8C1248.153,879.962,1249.51,882.848,1249.277,885.2Z" transform="translate(-925.158 -709.396)" fill="#e8a141"/><path d="M484.075,944.57c-4.962.523-9.446-.879-13.831-2.655-3.421-1.386-6.781-2.926-10.159-4.416a9.773,9.773,0,0,0-9.2.208q-4.174,2.344-8.324,4.733a45.772,45.772,0,0,1-11.125,4.634,29,29,0,0,1-22.765-3.272,58.375,58.375,0,0,0-5.791-3.05c-3.482-1.524-7.054-2.236-10.71-.427a7.286,7.286,0,0,1-1.928.564,1.388,1.388,0,0,1-1.756-1.324,49.827,49.827,0,0,1-.277-5.534c.039-3.355.173-6.707.317-10.059.118-2.744.828-3.557,3.542-3.979a22.346,22.346,0,0,1,12.861,1.34c3.216,1.446,6.425,2.936,9.5,4.657,5.456,3.061,10.977,2.569,16.563.653a35.355,35.355,0,0,0,8.837-4.809c8.064-5.705,16.542-5.739,25.361-2.195,2.65,1.066,5.263,2.229,7.928,3.258a18.952,18.952,0,0,0,17.415-1.441c2.734-1.644,5.371-3.451,8.108-5.092a24.546,24.546,0,0,1,8.381-3.344c.982-.169,1.754.232,1.737,1.254-.091,5.383,1.766,10.189,4.175,14.867.857,1.664.5,2.647-1.242,3.038-5.571,1.251-10.1,4.46-14.694,7.565C493.032,942.423,488.866,944.492,484.075,944.57Z" transform="translate(-388.206 -745.136)" fill="#e8a141"/><path d="M514.4,477.962a22.324,22.324,0,0,1,11.7,1.859c2.641,1.1,5.329,2.091,7.924,3.287,7.3,3.37,14.034,2.161,20.483-2.252,2.494-1.706,5.068-3.318,7.712-4.78a30.273,30.273,0,0,1,5.563-2.343c2.434-.762,3.619-.018,3.812,2.439a89.122,89.122,0,0,0,1.768,12.966c.558,2.424.138,3.118-1.959,4.013a78.9,78.9,0,0,0-13.137,7.484c-8.119,5.49-16.456,6.158-25.291,1.966-3.036-1.441-6.214-2.58-9.3-3.914a13.461,13.461,0,0,0-13.441,1,62.014,62.014,0,0,1-16.843,7.892,26.43,26.43,0,0,1-7.979.913c-1.669-.06-2.273-1.214-1.526-2.819a39.724,39.724,0,0,1,1.887-3.565c2.75-4.626,5.558-9.208,8.664-13.616a16.3,16.3,0,0,1,4.608-4.559c2.127-1.35,4.291-2.653,6.5-3.87A18.034,18.034,0,0,1,514.4,477.962Z" transform="translate(-458.053 -423.212)" fill="#e8a141"/><path d="M1174.355,470c-6.767.252-12.854-.708-18.573-3.511-1.207-.59-2.374-1.277-3.612-1.789-5.484-2.265-10.784-2.161-15.845,1.264-3.059,2.07-6.072,4.247-9.3,6.025-9.117,5.016-18.4,4.278-27.659.315-1.475-.632-1.828-1.425-1.175-2.816a27.607,27.607,0,0,0,2.252-14.269,6.064,6.064,0,0,1,.067-1.506c.167-.954.749-1.544,1.737-1.3a18.434,18.434,0,0,1,2.829,1.045c7.968,3.409,15.354,2.561,22.2-2.868a45.1,45.1,0,0,1,5.469-3.6,26.314,26.314,0,0,1,22.783-2.177c2.221.77,4.382,1.717,6.566,2.59,1.4.562,2.788,1.181,4.208,1.7,2.577.936,5.19,1.454,7.872.39a3.143,3.143,0,0,1,3.729.57,118.02,118.02,0,0,1,10.422,12.29c.807,1.113.5,2.106-.754,2.985C1183.467,468.209,1178.755,469.369,1174.355,470Z" transform="translate(-907.978 -401.044)" fill="#e8a141"/><path d="M624.141,392.937a36.132,36.132,0,0,1-10.953-2.3c-3.589-1.448-7.143-2.98-10.73-4.434-2.638-1.069-5.24-2.338-8.244-1.8a.843.843,0,0,1-.663-.5,1.183,1.183,0,0,1,.264-.918c1.381-1.469,2.729-2.983,4.23-4.322,2.759-2.463,5.683-4.746,8.409-7.245,1.98-1.812,3.962-2.252,6.427-1.074a33.766,33.766,0,0,0,4.755,1.631,14.05,14.05,0,0,0,11.632-1.667c3.336-1.958,6.7-3.88,9.956-5.968,3.768-2.419,8-3.454,12.26-4.457a6.086,6.086,0,0,1,2-.076,1.818,1.818,0,0,1,1.865,1.94,10.285,10.285,0,0,1-.1,1.508c-.7,4.483-1.464,8.959-2.113,13.45a4.264,4.264,0,0,1-2.906,3.716,57.655,57.655,0,0,0-11.02,6.075,35.91,35.91,0,0,1-12.251,5.794C625.98,392.5,625,392.736,624.141,392.937Z" transform="translate(-538.593 -339.939)" fill="#e8a141"/><path d="M1132.808,360.759a22.62,22.62,0,0,0-8.644,3.409c-1.982,1.261-3.857,2.7-5.8,4.028a29.961,29.961,0,0,1-25,4.467c-2.312-.554-3.826-1.443-4.359-4.109a141.241,141.241,0,0,0-4.78-18.518c-.424-1.227.445-2.109,1.583-1.659,2.029.8,4.005,1.737,6,2.616a25.37,25.37,0,0,0,10.22,2.445,19.386,19.386,0,0,0,11.791-3.771c2.3-1.677,4.79-3.11,7.193-4.652a3.958,3.958,0,0,1,4.278-.281c11.029,5.867,21.389,12.69,30.48,21.319a1.568,1.568,0,0,1,.447,1.311,1.415,1.415,0,0,1-1.224.53,30.713,30.713,0,0,1-9.669-2.658,79.345,79.345,0,0,0-8.36-3.519A29.621,29.621,0,0,0,1132.808,360.759Z" transform="translate(-897.899 -328.574)" fill="#e8a141"/><path d="M1509.225,1523.459c5.053-.552,9.669.84,14.123,3.053,4.051,2.015,7.729,4.829,12.311,5.729a2.433,2.433,0,0,1,1.675,1.753,4.567,4.567,0,0,1,.312,1.474c-.013,4.531,0,9.063-.133,13.591-.047,1.643-1.022,2.353-2.629,2.442a10.848,10.848,0,0,1-4.436-.827,40.5,40.5,0,0,1-8.2-3.867,35.651,35.651,0,0,0-3.521-1.958c-4.736-2.4-9.378-2.351-13.915.549-2.408,1.542-4.822,3.079-7.271,4.554a34.845,34.845,0,0,1-3.6,1.8.974.974,0,0,1-.884-.205,1.108,1.108,0,0,1-.055-.876,3.515,3.515,0,0,1,.476-.881,44.658,44.658,0,0,0,6.165-20.068c.3-3.6,1.031-4.858,5.079-5.682C1506.2,1523.74,1507.724,1523.647,1509.225,1523.459Z" transform="translate(-1197.329 -1192.168)" fill="#e8a141"/><path d="M892.867,503.2a26.9,26.9,0,0,1-4.513-.065,63.2,63.2,0,0,1-15.244-5.011c-1.412-.65-1.656-1.521-.866-2.829a59.339,59.339,0,0,0,6.419-13.047c.492-1.586,1.452-1.844,3.219-1.225,1.74.608,3.441,1.326,5.189,1.909a13.87,13.87,0,0,0,10.77-.629c2.406-1.17,4.714-2.546,7.033-3.883.867-.5,1.616-1.2,2.471-1.729,2.547-1.576,3.1-1.373,4.633,1.3,2.173,3.779,4.418,7.515,6.605,11.286.854,1.472.7,2.33-.672,2.8-4.99,1.7-9.092,5-13.649,7.476C900.681,501.5,897.035,503.112,892.867,503.2Z" transform="translate(-742.396 -424.861)" fill="#e8a141"/><path d="M1518.472,1429.177c-.156-2.348-.375-4.694-.452-7.045-.078-2.447.455-3.25,2.65-3.456,4.184-.393,8.386-.674,12.586-.8a10.135,10.135,0,0,1,3.88.941,38.2,38.2,0,0,1,4.982,2.434c3.509,2.034,7.011,3.945,11.2,4.293a2.569,2.569,0,0,1,2.615,3.077c-.58,4.382.151,8.732,0,13.094-.086,2.551-.8,3.269-3.384,3.261a23.383,23.383,0,0,1-11.031-3.191c-1.927-1.037-3.807-2.151-5.734-3.183-4.4-2.354-8.857-3.165-13.437-.463a4.37,4.37,0,0,1-.936.369,1.62,1.62,0,0,1-2.25-1.3c-.187-1.326-.216-2.673-.309-4.012s-.182-2.684-.271-4.028C1518.545,1429.174,1518.51,1429.174,1518.472,1429.177Z" transform="translate(-1215.693 -1114.925)" fill="#e8a141"/><path d="M1333.25,1865.848q-18.376,1.225-36.75,2.442a26.765,26.765,0,0,1-3.508-.052c-.244-.015-.58-.369-.668-.634a1.022,1.022,0,0,1,.156-.9c8.852-7.429,18.69-11.13,30.345-8.051a42.631,42.631,0,0,1,8.971,3.324c5.724,3,10.977,2.049,16.142-1.274,2.262-1.456,4.556-2.869,6.9-4.192a30.91,30.91,0,0,1,13.871-4.184,25.887,25.887,0,0,1,13.536,3.352,1.419,1.419,0,0,1,.429,2.458c-3.527,2.964-7.287,5.219-12.149,5.482-12.428.678-24.84,1.61-37.26,2.439C1333.255,1865.987,1333.252,1865.918,1333.25,1865.848Z" transform="translate(-1050.365 -1433.104)" fill="#e8a141"/><path d="M917.722,386.275c3.158.242,5.883-1.017,8.64-2.335,4.144-1.984,4.2-1.922,5.556,2.34,1.067,3.357,2.045,6.743,3.1,10.1.516,1.636.273,3.006-1.23,3.958-5.343,3.381-11.005,5.765-17.5,5.492-.168-.008-.336-.01-.5-.026-4.747-.377-5.495-1.4-4.6-5.966.745-3.789,1.368-7.6,2.049-11.4.419-2.327.437-2.343,2.971-2.268C916.717,386.192,917.219,386.241,917.722,386.275Z" transform="translate(-771.008 -356.731)" fill="#e8a141"/><path d="M852.579,1907.936c-6.7.447-13.4.905-20.1,1.331-1.155.073-2.356.388-3.461-.208a.832.832,0,0,1-.35-1.248,1.061,1.061,0,0,1,.315-.372c5.154-3.139,10.125-6.587,15.773-8.862,5.371-2.164,10.792-2.016,16.309-.76,5.629,1.282,10.633,4.067,15.811,6.441a.886.886,0,0,1,.508,1.233,1.193,1.193,0,0,1-.711.616c-1.322.208-2.655.384-3.99.476C865.98,1907.053,859.279,1907.489,852.579,1907.936Z" transform="translate(-710.693 -1465.772)" fill="#e8a141"/><path d="M1082.542,305.7c-6.439-.221-13.159-1.241-19.322-4.8-3.076-1.776-4.26-4.608-4.891-7.8a1.462,1.462,0,0,1,1.469-1.7,22.148,22.148,0,0,1,4.5.343,142.666,142.666,0,0,1,27.578,7.734c.91.374,2.192.53,2.283,1.69.117,1.5-1.352,1.716-2.387,2.143A31.048,31.048,0,0,1,1082.542,305.7Z" transform="translate(-878.994 -289.874)" fill="#e8a141"/><path d="M630.52,1926.609c-5.689.38-11.376.772-17.064,1.131-1.335.086-2.677.086-4.016.057-.231-.005-.632-.333-.642-.53-.013-.255.264-.544.454-.788a1.047,1.047,0,0,1,.424-.265,88.956,88.956,0,0,0,11.4-6.366c5.967-3.646,12.248-4.124,18.835-2.205a100.36,100.36,0,0,1,12.573,5.084c.5.226.838.7.626,1.176a1.807,1.807,0,0,1-1.061.879,12.941,12.941,0,0,1-2.482.338q-9.532.652-19.064,1.28C630.51,1926.468,630.514,1926.54,630.52,1926.609Z" transform="translate(-549.77 -1480.152)" fill="#e8a141"/><path d="M935.759,293.944c.113,1.68.21,3.36.342,5.037a3.5,3.5,0,0,1-1.984,3.742,23.264,23.264,0,0,1-9.143,2.629c-1.943.1-2.741-.593-2.944-2.616a19.005,19.005,0,0,1-.048-4.522,15.722,15.722,0,0,0-.5-7.469,5.749,5.749,0,0,1-.257-1.482,2.454,2.454,0,0,1,2.209-2.882c3.169-.359,6.362-.551,9.55-.668a2.168,2.168,0,0,1,2.311,2.195c.177,2.01.281,4.026.415,6.041Z" transform="translate(-778.592 -285.711)" fill="#e8a141"/><path d="M1099.624,1898.257c-5.04.338-10.079.684-15.119,1a23.589,23.589,0,0,1-3.021-.026,1.292,1.292,0,0,1-.791-.529.871.871,0,0,1,.3-1.29c1.5-1.084,3-2.177,4.569-3.155a34.565,34.565,0,0,1,14.238-4.8,18.717,18.717,0,0,1,7.445,1.114,73.757,73.757,0,0,1,10.73,4.4.864.864,0,0,1,.486,1.235,1.255,1.255,0,0,1-.726.614,35.1,35.1,0,0,1-3.495.444C1109.364,1897.62,1104.494,1897.93,1099.624,1898.257Z" transform="translate(-895.26 -1460.268)" fill="#e8a141"/><path d="M485.321,1935.562a22.05,22.05,0,0,1-12.259-1.142c-3.455-1.233-6.068-3.513-8.564-6.015a1.441,1.441,0,0,1,.815-2.6A23.4,23.4,0,0,1,480,1927.99c3.636,1.709,7.068,3.849,10.575,5.829a1.013,1.013,0,0,1,.459.78.888.888,0,0,1-.618.6C488.585,1935.364,486.745,1935.468,485.321,1935.562Z" transform="translate(-443.663 -1486.655)" fill="#e8a141"/><path d="M727.9,311.479a19.259,19.259,0,0,0-10.953,3.162c-2.437,1.488-4.806,3.09-7.254,4.561-4.2,2.52-8.441,4.949-13.6,4.642a1.244,1.244,0,0,1-.888-.367c-.3-.489.009-.949.427-1.222a105.953,105.953,0,0,1,15.924-8.667,122.3,122.3,0,0,1,18.423-6.808,11.438,11.438,0,0,1,2.451-.411A1.9,1.9,0,0,1,734,308.548a3.037,3.037,0,0,1-2.55,2.733,19.952,19.952,0,0,1-2.013.1C728.937,311.4,728.434,311.442,727.9,311.479Z" transform="translate(-612.964 -300.841)" fill="#e8a141"/><path d="M1530.979,1193.62a8.172,8.172,0,0,1,.858.174.562.562,0,0,1,.4.8c-.049.141-.167.333-.286.364a11.08,11.08,0,0,1-1.9.385.921.921,0,0,1-1.087-.723c-.065-.569.437-.809.926-.913A7.719,7.719,0,0,1,1530.979,1193.62Z" transform="translate(-1223.715 -950.677)" fill="#e8a141"/></g><g transform="translate(151.912 58.435)"><path d="M847.471,301.079a122.416,122.416,0,0,1-5.281,41.2,61.432,61.432,0,0,1-6.184,14.833,14.176,14.176,0,0,1-3.567,4.19c-1.993,1.454-3.827,1.1-5.063-1.092a16.27,16.27,0,0,1-1.682-4.184,62.019,62.019,0,0,1-1.679-17.426,197.5,197.5,0,0,1,1.846-20.014c1.1-7.154,3.145-14.068,5.119-21.012a6.411,6.411,0,0,1,5.54-5.05q4.217-.71,8.461-1.274c1.273-.172,1.841.679,1.936,1.787C847.148,295.717,847.292,298.4,847.471,301.079Z" transform="translate(-823.942 -289.612)" fill="#f1cd30"/><path d="M1015.184,335.55c.12,4.2.7,8.371-.231,12.563-.486,2.2-.96,4.538-3.36,5.149-2.156.549-3.719-1.183-5.156-2.606a37.521,37.521,0,0,1-6.837-9.921,128.527,128.527,0,0,1-12.547-38.1,83.085,83.085,0,0,1-1.5-11.458,21.456,21.456,0,0,1,.116-3.5,2.355,2.355,0,0,1,1.952-2.052,28.28,28.28,0,0,1,11.5.346,3.191,3.191,0,0,1,2.056,2.072c1.725,3.641,3.565,7.237,5.061,10.969a144.406,144.406,0,0,1,7.846,27.037C1014.67,329.171,1014.831,332.38,1015.184,335.55Z" transform="translate(-942.297 -285.177)" fill="#f1cd30"/><path d="M1426.587,1445.186c-.484-6.345-.933-11.877-.148-17.415.372-2.624.91-3.438,3.307-3.662,4.686-.442,9.388-.736,14.092-.957,2.06-.1,2.554.369,3.178,2.458a23.232,23.232,0,0,1,1,4.408,118.5,118.5,0,0,1-.895,30.126,44.632,44.632,0,0,1-3.149,11.135,14.186,14.186,0,0,1-3.48,4.895,3.464,3.464,0,0,1-4.99.1,14.576,14.576,0,0,1-2.208-2.715,26.43,26.43,0,0,1-3.1-6.878A74.566,74.566,0,0,1,1426.587,1445.186Z" transform="translate(-1264.907 -1118.638)" fill="#f1cd30"/></g><g transform="translate(42.198 58.72)" opacity="0.5"><path d="M573.789,667.624q-74.087,4.95-148.175,9.9c-2.514.167-5.023.455-7.535-.205a2.938,2.938,0,0,1-2.384-2.244,53.059,53.059,0,0,1-1.759-8.9,1.678,1.678,0,0,1,1.775-1.953c8.595.445,17.146-.942,25.7-.778,7.266.138,14.46-.3,21.657-.861,7.869-.616,15.7-1.758,23.558-2.473,10.219-.928,20.354-2.538,30.434-4.283a389.015,389.015,0,0,0,59.65-14.844c19.483-6.662,38.243-14.859,55.692-25.922,14.638-9.284,27.573-20.471,38.069-34.28,9.825-12.924,16.448-27.355,18.88-43.532a63.414,63.414,0,0,0,1.025-12.55c-.14-2.858.538-5.667.271-8.556A137.219,137.219,0,0,0,681.6,478q-3.167-7.985-7.084-15.626a7.47,7.47,0,0,1-.632-1.37c-.075-.268.094-.6.151-.908.3.112.681.14.876.348,2.54,2.689,5.167,5.308,7.557,8.127,14.628,17.252,25.485,36.709,33.567,57.77a224.851,224.851,0,0,1,10.618,36.266c1.227,6.1,2.239,12.223,3.284,18.349a237.66,237.66,0,0,1,2.944,36.178,251.129,251.129,0,0,1-1.248,32.21c-.13,1.165-.1,2.351-.187,3.524-.218,2.84-.59,3.414-3.5,4.091a37.218,37.218,0,0,1-5.992.754Q647.875,662.687,573.789,667.624Z" transform="translate(-413.924 -413.574)" fill="#e48a21"/><path d="M602.32,1550.98q-42.321,2.828-84.638,5.664c-18.133,1.233-36.291,2.231-54.38,3.945-12.67,1.2-24.3-9.026-25.505-20.708-.446-4.322-1.277-8.631-1.742-12.972-.367-3.406-.012-4.946,4.379-4.16,15.394,2.751,30.9,4.759,46.479,6.116,9.366.817,18.777,1.181,28.175,1.537,7.881.3,15.773.338,23.662.427a457.99,457.99,0,0,0,48.341-2.509,218.831,218.831,0,0,0,22.954-3.015c4.1-.834,8.29-1.264,12.433-1.984a304.525,304.525,0,0,0,56.886-15.259,163.872,163.872,0,0,0,24.211-11.266,100.279,100.279,0,0,0,21.878-16.911,72.43,72.43,0,0,0,11.767-15.626,62.656,62.656,0,0,0,8.028-26.827c.349-6.421.3-12.748-1.225-19.02a10.316,10.316,0,0,1-.226-2c-.06-1.466.473-2.332,1.935-2.46,4.858-.427,9.726-.783,14.6-1.009,1.919-.089,2.66.7,2.793,2.806a86.986,86.986,0,0,1,.252,10.079c-.12,2.187-.172,4.354-.107,6.538.276,9.4.262,18.8.016,28.2-.057,2.179.153,4.368.228,6.553.255,7.221-.055,14.44.185,21.669.32,9.557.1,19.132.008,28.7-.089,9.687-4.135,17.145-12.657,22.052a15.06,15.06,0,0,1-6.647,2.148q-25.195,1.6-50.385,3.209c-1.849.119-3.7.2-5.544.325Z" transform="translate(-430.053 -1111.448)" fill="#e48a21"/><path d="M1026.286,327.265c-.891-12.849-4.113-23.592-8.425-34.056-.512-1.243-1.11-2.452-1.6-3.706-1.048-2.691-.5-3.266,2.192-3.261,3,.005,4.578,1.555,5.728,4.036a135.172,135.172,0,0,1,8.033,20.653,140.387,140.387,0,0,1,3.958,16.651,146.813,146.813,0,0,1,1.43,16.066,18.735,18.735,0,0,1-1.292,7.911c-1.17,2.819-3.084,3.323-5.641,1.638a20.515,20.515,0,0,1-5.166-5.471,3.512,3.512,0,0,1-.537-2.881c.271-1.319.493-2.645.681-3.976C1026.364,335.859,1026.749,330.84,1026.286,327.265Z" transform="translate(-854.722 -286.242)" fill="#e48a21"/><path d="M849.914,301.917a127.791,127.791,0,0,1-5.282,40.747,65.545,65.545,0,0,1-6.71,14.594,17.92,17.92,0,0,1-3.876,4.608,2.377,2.377,0,0,1-3.557-.4,14.378,14.378,0,0,1-1.528-2.577c-.83-1.677-.905-3.578-1.442-5.326a5.23,5.23,0,0,1,1.3-5.492c5.687-6.624,9.152-14.443,11.631-22.708a92.152,92.152,0,0,0,3.87-28.829,15.671,15.671,0,0,1,.112-3.009c.225-1.3,2.4-2.242,3.7-1.69a2.176,2.176,0,0,1,1.239,2.028C849.577,296.549,849.734,299.233,849.914,301.917Z" transform="translate(-716.629 -290.225)" fill="#e48a21"/><path d="M1462.873,1431.893c.14,9.271.812,18.64-.983,27.911-.509,2.634-1.22,5.232-1.836,7.845-.8,3.409-3.126,5.885-5.281,8.428-1.217,1.436-3.024,1.41-4.512.167a14.6,14.6,0,0,1-4-6.309,3.32,3.32,0,0,1,.5-2.874c5.437-9.849,6.615-20.659,7.115-31.62.153-3.349.245-6.7.4-10.051a2.185,2.185,0,0,1,1.849-2.088c3.155-.814,4.793.065,5.656,3.107A17.5,17.5,0,0,1,1462.873,1431.893Z" transform="translate(-1169.906 -1118.832)" fill="#e48a21"/></g><g transform="translate(0 42.996)"><path d="M292.646,1673.755a45.309,45.309,0,0,1-12.276-.689c-12.853-2.525-21.706-11.957-23.644-25.037a48.918,48.918,0,0,1,2.055-22.432c5.491-16.974,15.755-30.7,29.31-42.126,2.541-2.14,4.27-2.12,5.016,1.958a12.158,12.158,0,0,1,.155,1.508c.34,6.064,1.68,11.975,2.9,17.891a6.922,6.922,0,0,1-2.385,7.17,63.862,63.862,0,0,0-11.716,13.814,23.875,23.875,0,0,0-3.015,7.968c-.878,4.556.983,7.887,4.4,10.508a18.2,18.2,0,0,0,11.351,3.583c1.008,0,2.016-.12,3.025-.141,2.784-.057,3.3.356,3.723,2.938.027.167.039.333.053.5a108.95,108.95,0,0,0,2.668,17.432c.508,2.015-.038,2.777-1.92,3.438A43.727,43.727,0,0,1,292.646,1673.755Z" transform="translate(-256.226 -1219.593)" fill="#a27dfa"/><path d="M1681.42,1585.829c-3.038-.013-6.41.434-9.728-.424-1.6-.414-2.377-1.227-2.146-2.879.858-6.176.234-12.407.8-18.591.219-2.38.624-3.053,2.968-3.183a26.19,26.19,0,0,0,8.841-1.826c3.492-1.479,6.449-3.583,8.056-7.219a9.413,9.413,0,0,0,.276-7.8,29.961,29.961,0,0,0-6.184-9.715,68.51,68.51,0,0,0-10.719-9.1,7.285,7.285,0,0,1-3.511-6.712c.016-4.694-.611-9.37-.078-14.092.3-2.65-.114-5.37-.012-8.054.068-1.776,1.31-2.432,2.764-1.537a95.4,95.4,0,0,1,32.483,31.783c4.4,7.281,7.651,15.055,8.61,23.475,1.082,9.484-.7,18.443-7.539,25.755a26.163,26.163,0,0,1-8.977,6.35A43.367,43.367,0,0,1,1681.42,1585.829Z" transform="translate(-1291.333 -1155.317)" fill="#a27dfa"/><path d="M1135.609,227.578c3.318-.421,7.4.543,11.2,2.452,11.91,5.989,18.947,15.668,21.243,28.777a21.077,21.077,0,0,1,.177,4.514c-.073,1.654-1.279,2.247-2.855,1.456-1.048-.525-2.052-1.144-3.048-1.763a153.193,153.193,0,0,0-40.31-17.931c-4.172-1.152-5.456-1.774-3.149-6.738C1121.973,231.653,1127.233,228.093,1135.609,227.578Z" transform="translate(-887.203 -227.48)" fill="#a27dfa"/><path d="M600.878,295.545a27.278,27.278,0,0,1,1.286-10.94c3.145-10.017,8.822-18.037,18.509-22.783a21.823,21.823,0,0,1,16.148-1.685c5.382,1.558,8.859,5.284,11.038,10.306a2.53,2.53,0,0,1-1.166,3.453,29.764,29.764,0,0,1-3.182,1.516,156.455,156.455,0,0,0-37.131,23.053c-.776.642-1.5,1.36-2.318,1.937-1.324.931-2.658.333-2.928-1.342C600.947,297.906,600.956,296.717,600.878,295.545Z" transform="translate(-508.569 -250.776)" fill="#a27dfa"/></g><g transform="translate(0.007 0.04)" opacity="0.5"><path d="M292.512,1733.846a44.686,44.686,0,0,1-12.541-.8c-12.653-2.684-21.26-11.952-23.212-24.837a49.4,49.4,0,0,1,1.861-21.94,77.919,77.919,0,0,1,9.645-20.476,8.31,8.31,0,0,1,1.31-1.509.935.935,0,0,1,.872-.14,1.013,1.013,0,0,1,.321.851c-.13.829-.374,1.638-.563,2.457-.49,2.127-.909,4.275-1.469,6.384-1.633,6.135-1.413,12.345-.729,18.549a29.138,29.138,0,0,0,9.386,19.041,26.99,26.99,0,0,0,15.979,6.8,50.673,50.673,0,0,0,5.518.434c2.559-.049,3.564,1.261,3.939,3.581.321,1.987.932,3.922,1.333,5.9.564,2.782.253,3.256-2.226,4.093A44.973,44.973,0,0,1,292.512,1733.846Z" transform="translate(-256.252 -1236.714)" fill="#6e26c7"/><path d="M1681.519,1642.878c-3.188.06-6.387.338-9.541-.382-1.929-.44-2.631-1.212-2.394-3.16a64.041,64.041,0,0,0,.567-7.531c.007-1.932.434-2.388,2.216-2.827,1.953-.484,3.924-.913,5.9-1.266,15.208-2.7,22.053-14.631,23.087-26.247.78-8.779-1.469-16.94-4.382-25.03-.5-1.383-1.438-2.653-1.23-4.244,2.007-.063,2.639,1.7,3.578,2.884,7.211,9.084,12.712,19.124,14.358,30.681,1.766,12.417-1.16,23.553-12.152,31.045C1695.594,1640.846,1688.714,1642.588,1681.519,1642.878Z" transform="translate(-1291.364 -1169.408)" fill="#6e26c7"/><path d="M944.444,922.816a35.512,35.512,0,0,1-20.358-4.02c-.423-.223-.964-.634-.684-1.176a1.681,1.681,0,0,1,1.147-.736,86.441,86.441,0,0,0,8.926-1.4c8.741-1.968,15.182-7.1,19.845-14.4,3.708-5.8,6.572-12.082,7.193-19.142.21-2.369.681-2.629,3.191-3,3.207-.468,6.376.083,9.523.406,3.277.336,5.316,2.585,5.9,5.984a21.552,21.552,0,0,1-.913,10.914,38.768,38.768,0,0,1-15.5,19.9C956.927,920.02,950.658,922.768,944.444,922.816Z" transform="translate(-744.826 -661.534)" fill="#6e26c7"/><path d="M969.322,118.332c.244,1.321.557,2.634.723,3.963a2.255,2.255,0,0,1-2.689,2.738c-3.5-.419-6.985-.991-10.477-1.5a3.11,3.11,0,0,1-2.741-2.593,139.387,139.387,0,0,0-4.97-16.4c-1.073-2.965-.9-6.28-1.856-9.367a49.42,49.42,0,0,0-5.87-12.787c-4.184-6.348-10.267-10.025-17.284-12.4-.95-.32-1.981-.4-2.94-.7a1.694,1.694,0,0,1-1.042-.858c-.175-.583.425-.9.9-.946a57.5,57.5,0,0,1,6.53-.546,33.27,33.27,0,0,1,21,7.4,48.613,48.613,0,0,1,14,18.25A78.051,78.051,0,0,1,969.322,118.332Z" transform="translate(-742.496 -66.945)" fill="#6e26c7"/><path d="M600.7,303.057a29.009,29.009,0,0,1,1.475-11.64c3.191-9.541,8.518-17.447,17.881-22.018a1.164,1.164,0,0,1,1.4.055,1.113,1.113,0,0,1,.083,1.357c-.342.764-.677,1.534-1.045,2.288-2.853,5.841-2.512,11.666.1,17.47.274.609.627,1.183.958,1.763a1.6,1.6,0,0,1-.378,2.229c-.511.432-1.076.8-1.625,1.183a166.008,166.008,0,0,0-14.789,11.294,5.493,5.493,0,0,1-1.718.97,1.321,1.321,0,0,1-1.672-.741C600.648,305.879,600.857,304.319,600.7,303.057Z" transform="translate(-508.464 -215.074)" fill="#6e26c7"/><path d="M1238.093,265.378c-.094,1.074.887,3.1-1,4.054-1.539.775-2.785-.764-4.062-1.467-4.855-2.67-9.668-5.417-14.5-8.121-2.374-1.329-2.512-1.636-1.776-4.431.088-.325.167-.655.286-.967,2.561-6.561,1.113-12.5-2.8-18.047a13.791,13.791,0,0,1-.806-1.277c-.25-.445-.432-.957.034-1.337a1.254,1.254,0,0,1,.918-.161,6.047,6.047,0,0,1,1.425.476,37.6,37.6,0,0,1,21.04,24.354c.429,1.443.76,2.923,1.066,4.4A21.825,21.825,0,0,1,1238.093,265.378Z" transform="translate(-957.113 -189.006)" fill="#6e26c7"/></g><g transform="translate(35.434 0.566)" opacity="0.5"><path d="M389.672,509.423c-.269-4.031-.871-9.736-.987-15.452a245.508,245.508,0,0,1,1.863-33.692,230.657,230.657,0,0,1,10.031-45.246,187.951,187.951,0,0,1,29.133-55.6,152.407,152.407,0,0,1,36.572-34.41,141.39,141.39,0,0,1,37.667-18.006,24.392,24.392,0,0,1,3.416-.858,1.913,1.913,0,0,1,2.119,2.582c-.567,1.932-1.341,3.807-1.9,5.742a89.3,89.3,0,0,0-3.191,14.269,6.452,6.452,0,0,1-4.537,5.916c-14.519,5.57-26.9,14.529-38.184,25.025C450.9,369.711,441.936,381.26,434,393.613a212.322,212.322,0,0,0-18.616,36.334,246.836,246.836,0,0,0-15.148,55.882,294.566,294.566,0,0,0-2.8,33.128c-.3,9.45.441,18.82.991,28.215a10.858,10.858,0,0,1-.166,4.5,1.91,1.91,0,0,1-1.793,1.5,1.709,1.709,0,0,1-1.673-1.581c-.641-3.126-1.216-6.267-1.811-9.4C391.034,531.919,390.219,521.529,389.672,509.423Z" transform="translate(-388.646 -242.657)" fill="#fff"/><path d="M1132.751,335.6a52.763,52.763,0,0,1-21.7-3.462,187.887,187.887,0,0,1-23.563-11.416,60.371,60.371,0,0,0-16.95-6.223c-.817-.184-1.638-.356-2.46-.528a3.529,3.529,0,0,1-2.8-2.6,108.957,108.957,0,0,0-6.512-16.36,6.7,6.7,0,0,1-.46-1.438,1.807,1.807,0,0,1,1.844-2.361,39.772,39.772,0,0,1,5,.552,147.286,147.286,0,0,1,58.48,24.7c6.069,4.275,11.5,9.268,17.1,14.082a9.331,9.331,0,0,1,1.047,1.084,1.494,1.494,0,0,1-.671,2.434,14.459,14.459,0,0,1-5.843,1.376C1134.429,335.455,1133.592,335.541,1132.751,335.6Z" transform="translate(-879.069 -231.721)" fill="#fff"/><path d="M790.23,125.765c.091-9.928.761-19.777,4.169-29.229,3.335-9.247,8.575-17.1,16.9-22.6a28.736,28.736,0,0,1,13.043-5c3.254-.317,5.362,2.288,4.7,5.495a8.935,8.935,0,0,1-.447,1.444,10.794,10.794,0,0,1-3.764,5.243c-1.792,1.246-3.572,2.507-5.383,3.724-1.533,1.027-3.109,1.992-4.653,3-9.553,6.262-14.242,15.845-17.724,26.192a76.6,76.6,0,0,0-3.235,13.717c-.094.666-.109,1.344-.239,2-.308,1.555-1.222,2.338-2.325,2.005-1.3-.4-1.105-1.462-1.074-2.47C790.239,128.116,790.224,126.941,790.23,125.765Z" transform="translate(-682.731 -68.911)" fill="#fff"/><path d="M928.329,285.789c7.383-.627,6.789-.275,7.284,6.5.294,4.018.234,8.08,1.5,11.983a9.785,9.785,0,0,1,.327,2.5c.082,1.649-.546,2.429-2.283,2.725a32.97,32.97,0,0,1-3.513.346,37.954,37.954,0,0,0-7.916,1.469,1.633,1.633,0,0,1-2.085-1.592c.018-3.7-.114-7.406.215-11.078a23.481,23.481,0,0,0-.537-8.47c-.7-2.554.272-3.716,2.983-4.1C925.633,285.885,926.986,285.878,928.329,285.789Z" transform="translate(-778.625 -227.598)" fill="#fff"/></g><g transform="translate(87.941 224.082)"><path d="M609.753,975.146a30.481,30.481,0,0,1-15.779-2.369,19.407,19.407,0,0,1-6.5-4.683c-3.263-3.5-3.44-7.609-.623-11.489a15.764,15.764,0,0,1,5.673-4.912,34.146,34.146,0,0,1,29.735-1.2,14.556,14.556,0,0,1,6.478,4.639c3.382,4.579,2.969,9.752-1.35,13.47a28.1,28.1,0,0,1-14.11,6.288C612.121,975.085,610.928,975.069,609.753,975.146Z" transform="translate(-584.871 -936.033)" fill="#d901ab"/><path d="M1255.709,931.887a30.613,30.613,0,0,1-11.91-1.046,19.258,19.258,0,0,1-8.922-5.44,8.393,8.393,0,0,1-.861-10.652,19.626,19.626,0,0,1,7.432-6.66,34.923,34.923,0,0,1,26.928-2.112,19.683,19.683,0,0,1,4.97,2.421c5.8,3.857,7.32,10.795.98,16.612-4.369,4.013-9.811,5.718-15.535,6.657C1257.8,931.828,1256.779,931.815,1255.709,931.887Z" transform="translate(-1059.208 -904.219)" fill="#d901ab"/></g><g transform="translate(74.705 395.581)"><path d="M726.457,1654.889a3.839,3.839,0,0,0,.087-.5c.332-8.058.33-8.056-5.439-14.11a14.607,14.607,0,0,1-1.334-1.5,2.072,2.072,0,0,1,.586-3.072,13.067,13.067,0,0,1,2.7-1.318,28.259,28.259,0,0,1,3.412-.889,7.691,7.691,0,0,0,5.852-4.954,29.966,29.966,0,0,1,2.62-4.876,2.234,2.234,0,0,1,3.814-.312,32.536,32.536,0,0,1,3.559,4.876,6.729,6.729,0,0,0,5.663,3.591,32.272,32.272,0,0,1,5.916,1.207c2,.58,2.621,2.1,1.581,3.924a18.2,18.2,0,0,1-3,4.02,7.752,7.752,0,0,0-2.171,7.843c.221.981.572,1.94.714,2.931a10.809,10.809,0,0,1,.094,2.986,2.35,2.35,0,0,1-2.979,1.968,40.773,40.773,0,0,1-6.214-2.055,6.057,6.057,0,0,0-5.76.3c-1.771.965-3.53,1.969-5.375,2.775C728.2,1658.863,726.418,1657.635,726.457,1654.889Z" transform="translate(-670.115 -1601.747)" fill="#fff"/><path d="M542.67,1577.23c.073-1.675.1-3.355.23-5.024a6.5,6.5,0,0,0-2.624-6.184,29.039,29.039,0,0,1-2.573-2.418c-3.378-3.261-3.077-4.824,1.229-6.267,1.6-.533,3.2-1.032,4.816-1.508a6.235,6.235,0,0,0,4.092-3.458,52.354,52.354,0,0,1,3.109-5.766c1.19-1.851,2.7-1.958,4.132-.32a34.632,34.632,0,0,1,3.244,4.489,7.735,7.735,0,0,0,6.1,3.911,40.455,40.455,0,0,1,5.955,1.051,2.484,2.484,0,0,1,1.391,4.018c-1.254,1.786-2.663,3.471-4.08,5.136a5.425,5.425,0,0,0-1.372,4.66c.338,1.984.639,3.979.956,5.968.437,2.738-1.029,4.254-3.73,3.659a39.269,39.269,0,0,1-5.289-1.669,7.1,7.1,0,0,0-6.305.411,36.519,36.519,0,0,1-5.024,2.353C544.311,1581.233,542.6,1579.976,542.67,1577.23Z" transform="translate(-535.408 -1545.131)" fill="#fff"/><path d="M560.953,1751.812a4.119,4.119,0,0,1,.065-1.425,4.265,4.265,0,0,0-1.515-4.043c-1.556-1.529-3.216-2.968-4.661-4.6-1.534-1.73-1.1-3.485,1.066-4.385a44.267,44.267,0,0,1,6.2-2.088,5.713,5.713,0,0,0,4.058-3.4,58.729,58.729,0,0,1,2.779-5.365c1.337-2.234,3.165-2.364,4.832-.312a64.319,64.319,0,0,1,3.792,5.334,4.88,4.88,0,0,0,3.656,2.336,63.675,63.675,0,0,1,6.917,1.332c2.255.577,2.923,2.27,1.628,4.2a52.1,52.1,0,0,1-4.057,5.133c-1.2,1.373-1.806,2.762-1.112,4.582a21.493,21.493,0,0,1,.93,6.962c.079,2.208-1.528,3.287-3.721,2.681-2.9-.8-5.714-2.788-8.625-2.405-2.693.351-5.166,2.27-7.771,3.419-2.414,1.064-3.876.229-4.287-2.346a7.481,7.481,0,0,1-.1-1C561,1755.248,560.988,1754.073,560.953,1751.812Z" transform="translate(-548.973 -1676.683)" fill="#fff"/></g></g><g transform="translate(0 0)"><path d="M275.84,446.367c-.847-7.856-1.9-15.7-3.035-23.5-1.212-8.348-1.771-16.711-2.463-25.085a22.359,22.359,0,0,1,.45-7.021,18.4,18.4,0,0,1,8.986-12.227c3.032-1.768,2.971-1.818,2.175-5.36-1.952-8.691-3.609-17.423-5.037-26.226-2.162-13.34-2.854-26.77-3.215-40.206a218.407,218.407,0,0,1,1.194-27.674,238.969,238.969,0,0,1,12.23-56.077A189.383,189.383,0,0,1,312.6,173.877a208.692,208.692,0,0,1,15.883-18.926c.688-.741,1.31-1.542,2.019-2.26a4.015,4.015,0,0,0,.992-4.189c-4.237-15.426,6.705-35.468,18.837-41.943a41.444,41.444,0,0,1,7.24-3.529c8.134-2.5,15.6-1.56,22.272,4.013,1.228,1.025,1.656.848,1.888-.7.222-1.49.368-3,.477-4.5.809-11.242,3.547-21.891,9.606-31.536A41.043,41.043,0,0,1,412.775,52.9a24.053,24.053,0,0,1,7.852-1.706c4.361-.086,8.69-1.006,13.087-.257a40.806,40.806,0,0,1,17.427,7.56c7.121,5.211,11.938,12.259,15.706,20.078a60.059,60.059,0,0,1,5.589,17.208c.247,1.656.736,3.279,1.141,4.91.216.866.89,1.076,1.436.364a19.954,19.954,0,0,1,11.335-7.086,20.334,20.334,0,0,1,7.5-.549c10.62,1.227,18.934,6.447,25.539,14.675,6.485,8.082,9.69,17.252,9.024,27.63-.125,1.953.382,3.29,1.943,4.247,3.615,2.216,6.657,5.136,9.786,7.939a183.186,183.186,0,0,1,34.313,41.426,221.754,221.754,0,0,1,22.068,48.6,255.191,255.191,0,0,1,8.2,33.781,265.532,265.532,0,0,1,4.054,36.04c.26,7.542.281,15.1-.018,22.656s-.489,15.114-1.617,22.611a2.663,2.663,0,0,0,1.909,3.136,21.241,21.241,0,0,1,5.8,3.009,19.812,19.812,0,0,1,7.43,14.394c.549,6.353,1.422,12.711.666,19.129a34.1,34.1,0,0,0,.156,4.535c.148,8.231.307,16.464.4,24.694.023,2.177-.216,4.356-.3,6.535a4.434,4.434,0,0,0,2.665,4.41,96.633,96.633,0,0,1,17.07,12.5A88.877,88.877,0,0,1,662.584,469.5a62.681,62.681,0,0,1,7.44,21.3c1.066,7.531.52,14.706-2.616,21.623A32.01,32.01,0,0,1,652.5,528.3a43.938,43.938,0,0,1-25.381,4.878,4.778,4.778,0,0,0-.5-.039c-1.838-.028-3.906-.585-5.443.083-1.308.57-2.018,2.538-2.965,3.909a23.8,23.8,0,0,1-19.023,10.706q-72.308,4.856-144.609,9.84-52.908,3.581-105.824,7.066c-11.085.733-22.181,1.3-33.265,2.036-7.985.528-14.411-2.523-19.769-8.223-1.758-4.117-5-3.7-8.413-2.749-6.8,1.888-13.633,1.656-20.482.336-16.488-3.183-26.619-15.169-28.261-31.255-1.143-11.187,1.519-21.74,6.192-31.812a97.051,97.051,0,0,1,16.185-24.26,85.91,85.91,0,0,1,12.943-11.97c1.978-1.446,3.007-2.894,2.347-5.453A27.693,27.693,0,0,1,275.84,446.367Zm168.7-80.637q73.833-4.935,147.661-9.864c1.344-.091,2.689-.153,4.031-.281,4.226-.4,4.741-.947,5.05-5.268.023-.333,0-.674.021-1.009.4-6.54.671-13.091,1.043-19.628.476-8.413-.588-16.786-.094-25.189.258-4.382-1.241-8.647-1.555-12.984a201.1,201.1,0,0,0-3.747-25.415,244.738,244.738,0,0,0-9.021-33.052,207.782,207.782,0,0,0-33.047-60.384,162.142,162.142,0,0,0-30.062-29.032,140.58,140.58,0,0,0-38.636-20.492,145.139,145.139,0,0,0-23.431-6.03c-.822-.135-1.732-.486-2.392.171-.967.965-.039,1.906.364,2.723a140.416,140.416,0,0,1,11.427,38.552,53.555,53.555,0,0,1,.291,17.1,18.209,18.209,0,0,1-2.418,7.112c-2.236,3.4-5.492,4.439-9.162,2.751a15.6,15.6,0,0,1-2.938-1.924,30.646,30.646,0,0,1-7.74-9.227,119.737,119.737,0,0,1-16-52.106c-.485-7.435.187-6.93-7.717-6.384a10.815,10.815,0,0,0-1.5.218,1.957,1.957,0,0,0-1.724,2.124c.032,1.176.117,2.353.221,3.526a103.312,103.312,0,0,1-.318,17.631,137.81,137.81,0,0,1-5.67,28.668,63.716,63.716,0,0,1-6.378,14.8,18.956,18.956,0,0,1-5.7,6.329c-3.655,2.369-7.145,1.794-9.79-1.631a18.322,18.322,0,0,1-3.14-6.278c-2.053-7.229-2.3-14.667-1.959-22.039a128.487,128.487,0,0,1,6.041-34.691,11.986,11.986,0,0,0,.5-2.46c.072-.637-.463-.895-.98-.832a10.5,10.5,0,0,0-2.442.536c-4.881,1.833-9.792,3.6-14.6,5.6a128.214,128.214,0,0,0-30.282,18.011A149.838,149.838,0,0,0,321.4,172.811a198.921,198.921,0,0,0-14.232,21.415c-10.533,18.6-17.463,38.6-21.748,59.5a231.49,231.49,0,0,0-4.756,39.01c-.264,8.059-.764,16.115-.081,24.169.752,8.87,1.035,17.761,2.409,26.611,1.417,9.141,2.993,18.224,4.883,27.277,1.026,4.915.049,5.365,6.483,4.967,1.344-.083,2.688-.177,4.032-.268Zm-28.024,64.675q-63.986,4.275-127.969,8.556c-1.677.112-3.357.247-5.02.481a1.868,1.868,0,0,0-1.7,2.127,28.706,28.706,0,0,0,.487,6.028c1.88,6.86,1.571,14,2.962,20.942,1.416,7.06,1.868,14.316,2.717,21.488.237,2.005.186,4.062.611,6.023,1.711,7.9,1.923,15.993,3.253,23.948,1.19,7.115,1.554,14.375,2.8,21.48,1.589,9.045,6.237,15.837,15.521,18.705a23.116,23.116,0,0,0,8.939,1.056c17.085-1.462,34.208-2.288,51.286-4.067,20.41-2.125,40.958-2.915,61.447-4.286,20.655-1.378,41.3-2.913,61.971-4.1,20.479-1.17,40.9-3.253,61.447-3.487,13.445-.156,26.871-1.677,40.308-2.533a26.113,26.113,0,0,0,6.891-1.417,21.47,21.47,0,0,0,14.581-19.844c.1-4.031.284-8.054.081-12.085a35.159,35.159,0,0,1-.218-6.043c.886-7.05-.008-14.1.106-21.147.166-10.4-.039-20.812.052-31.224.07-8.228-.213-16.461-.37-24.691a39.418,39.418,0,0,1,.1-5.536c.364-3.048-.206-3.573-3.209-3.524-.5.008-1.009.052-1.514.086q-12.591.839-25.188,1.683c-.673.044-1.347.075-2.013.169-2.276.325-2.785.973-2.559,3.4a15.253,15.253,0,0,0,.557,2.965,15.869,15.869,0,0,1,.434,6.987,14.855,14.855,0,0,0-.107,3.516,63.48,63.48,0,0,1-.364,13.088c-.744,6.538-1.867,12.987-4.639,19.038a19.893,19.893,0,0,1-3.167,5.126c-4.216,4.709-9.029,4.764-13.452.14a21.348,21.348,0,0,1-4.015-6.374,67.826,67.826,0,0,1-4.2-14.5,97.039,97.039,0,0,1-1.656-24.562,29.019,29.019,0,0,0-.153-4.53,1.906,1.906,0,0,0-2.036-1.831c-1.68-.005-3.362.083-5.04.2Q480.5,426.127,416.516,430.405Zm31.23-9.2c0,.036.005.07.008.106q83.384-5.57,166.771-11.1c1.587-.1,1.883-.762,2.049-2.14.879-7.378-.447-14.766.234-22.151.484-5.25-1.425-10.28-2.091-15.429-.58-4.5-3.761-7.323-8.343-8.4a26.844,26.844,0,0,0-8.028-.33Q445.18,372,292.013,382.235c-1.343.088-2.7.119-4.026.317-6.864,1.02-11.271,5.833-11.191,12.758.056,4.819-.294,9.63.586,14.485,1.256,6.933,1.851,13.986,2.712,20.989.142,1.16.53,1.815,1.9,1.652,2.5-.3,5.024-.486,7.543-.655Q368.641,426.487,447.746,421.206ZM281.47,484.356c-.984-5.531-1.594-9.861-2.577-14.1-.5-2.148-.583-4.327-1.038-6.457a.924.924,0,0,0-1.5-.684,6.777,6.777,0,0,0-1.252.832,101.3,101.3,0,0,0-18.555,21.171,72.887,72.887,0,0,0-9.9,21.969c-1.783,7.214-2.637,14.475-.7,21.881,2.472,9.476,7.927,16.071,17.263,19.477,5.032,1.839,10.229,1.893,15.4,1.971,2.976.044,5.973-.8,8.947-1.321a1.85,1.85,0,0,0,1.725-2.509,53.946,53.946,0,0,1-1.257-6.413,95.851,95.851,0,0,0-1.6-10.446c-.245-1.4-.8-1.893-2.358-1.81A23.571,23.571,0,0,1,271.83,525.7c-6.578-3.331-9.3-9.471-7.052-16.422a30.731,30.731,0,0,1,2.953-6.4c2.98-4.949,6.924-9.1,10.985-13.114C280.678,487.821,282,485.964,281.47,484.356Zm382.378,10.827a51.567,51.567,0,0,0-4.543-17.839c-5.586-12.173-14.1-22.034-24.278-30.5a55.669,55.669,0,0,0-9.882-6.935,1.021,1.021,0,0,0-1.578.653,5.613,5.613,0,0,0-.382,1.953,149.734,149.734,0,0,1,.117,17.616,6.272,6.272,0,0,0,3.16,6.314,54.364,54.364,0,0,1,10.72,9.078,29.41,29.41,0,0,1,6.007,8.639c3.027,7.32,1.121,13.128-5.492,17.366a24.994,24.994,0,0,1-11.414,3.537c-1.173.112-1.88.338-2.08,1.6-.928,5.83-.1,11.736-.78,17.585-.185,1.578.731,2.286,2.6,2.317,4.5.075,8.99.231,13.489-.663a36.567,36.567,0,0,0,12.173-4.618,23.705,23.705,0,0,0,9.937-11.689A30.983,30.983,0,0,0,663.848,495.182ZM424.363,57.292c-9.188-.3-17.063,3.76-23.46,10.836-4.936,5.461-8.044,12-10.117,19.012a64.743,64.743,0,0,0-2.767,22.424c.139,2.276-1.348,4.616.263,6.826,2.42,0,4.522-1.23,6.8-1.768.814-.193,1.588-.551,2.39-.8a3.4,3.4,0,0,0,2.564-3.308c.329-3.344.725-6.7,1.381-9.988,1.641-8.236,4.817-15.785,10.777-21.888,3.356-3.435,7.271-5.874,12.24-6.462a19.777,19.777,0,0,1,14.646,4.233,38.167,38.167,0,0,1,12.281,15.733,61.268,61.268,0,0,1,4.386,13.923c.41,2.416,1.569,3.544,3.863,3.875,2.5.359,4.972.848,7.474,1.194,1.373.192,1.779-.213,1.654-1.727A89.39,89.39,0,0,0,465.477,92.1c-2.231-7.8-5.294-15.273-10.593-21.594C447.08,61.185,437.589,55.636,424.363,57.292Zm13.42,51.454c2.954-.031,6.646-.5,10.341.109,1.378.226,1.775-.273,1.568-1.719A45.015,45.015,0,0,0,443.039,89.3a30.912,30.912,0,0,0-7.531-8.09,14.122,14.122,0,0,0-17.72.458,24.1,24.1,0,0,0-4.339,4.9,41.587,41.587,0,0,0-5.117,10.943,42.181,42.181,0,0,0-1.984,11.905c0,1.622.609,2.067,2.176,1.865,3.335-.432,6.726-.6,10-1.326A61.716,61.716,0,0,1,437.783,108.746ZM397,167.587c.146,2.179.285,4.356.438,6.535a28.347,28.347,0,0,0,1.759,7.32c.386,1.108.879,2.3,2.251,2.431s2.1-.967,2.744-1.924a46.264,46.264,0,0,0,5.426-10.2c5.037-14.035,7.12-28.608,7.683-43.426a70.431,70.431,0,0,0-.57-9.045c-.188-2.057-.949-2.621-3.007-2.291-1.816.291-3.59.933-5.41,1.092-2.589.224-3.814,1.669-4.517,3.976a144.56,144.56,0,0,0-4.176,15.543C397.763,147.516,396.363,157.463,397,167.587Zm69.351-2.736c.117-3.394-.855-6.631-1.378-9.942a129.3,129.3,0,0,0-11.414-35.338c-2.155-4.538-1.644-4.111-6.384-4.158-.5,0-1-.1-1.5-.153-5.322-.53-5.517-.3-5.324,4.826.377,9.994,2.773,19.592,5.685,29.071a97.845,97.845,0,0,0,10.749,23.8,22.627,22.627,0,0,0,4.784,5.8c1.828,1.462,3.09,1.17,3.856-.954a16.178,16.178,0,0,0,.684-2.923A31.317,31.317,0,0,0,466.346,164.851ZM576.519,432.209c-.213-3.183-.333-6.379-.671-9.549-.226-2.117-.926-2.728-2.928-2.634-4.026.187-8.054.455-12.066.84-1.977.192-2.759.986-2.7,2.962.128,4.366-.671,8.7-.252,13.073.432,4.507.8,8.995,1.612,13.478a88.142,88.142,0,0,0,3.131,12.165,22.269,22.269,0,0,0,3.919,6.99c.9,1.111,1.964,1.064,3.025.031a11.55,11.55,0,0,0,2.528-3.729,42.143,42.143,0,0,0,2.837-8.595A86.787,86.787,0,0,0,576.519,432.209ZM336.842,143.8a14.29,14.29,0,0,0,.184,1.513.636.636,0,0,0,1.076.434c.948-.689,1.839-1.456,2.738-2.211a141.9,141.9,0,0,1,30.323-19.665c2.879-1.368,5.778-2.692,8.67-4.036a1.375,1.375,0,0,0,.86-1.99c-2.774-6.522-10.813-10.977-17.744-9.559a28.352,28.352,0,0,0-13.069,6.158C340.878,122.172,337.066,132.189,336.842,143.8ZM522,130.335a29.377,29.377,0,0,0-4.242-13.416c-5.326-9.182-12.937-15.262-23.651-17.033a16.726,16.726,0,0,0-18.162,10.438c-.692,1.693-.369,2.5,1.277,3.126,1.256.476,2.528.913,3.815,1.292a150.571,150.571,0,0,1,37.52,16.9,13.878,13.878,0,0,0,2.215,1.147.777.777,0,0,0,1.144-.575A14.789,14.789,0,0,0,522,130.335Zm101.434,363.2c.164,2.444.179,3.8.367,5.123a1.546,1.546,0,0,0,1.766,1.43c4.031-.575,7.952-1.537,11.044-4.413a6.9,6.9,0,0,0,2.065-7.364,13.351,13.351,0,0,0-1.6-3.687,47.647,47.647,0,0,0-11.161-11.559,1.7,1.7,0,0,0-1.867-.3,1.617,1.617,0,0,0-.765,1.727C623.721,481.2,623.63,487.915,623.432,493.534ZM285.563,520.046c-.387-2.14-.983-4.421-1.185-6.738-.466-5.331-1.234-10.613-2.148-15.881-.252-1.451-.874-1.743-1.987-.783a32.875,32.875,0,0,0-10.056,14.7c-.105.315-.131.66-.25.97-.8,2.1-.127,3.924,1.036,5.671a8.457,8.457,0,0,0,4.777,3.479,54.24,54.24,0,0,0,7.353,1.5C285.018,523.231,285.7,522.332,285.563,520.046Z" transform="translate(-238.302 -50.648)" fill="#181f49"/><path d="M874.487,865.087c10.733.3,21.472-.9,32.207-.057,6.923.541,9.788,3.849,10.542,10A29.036,29.036,0,0,1,913.473,893c-5.682,10.215-13.923,17.741-25.023,21.607-11.763,4.1-23.241,2.746-34.05-3.355a43.4,43.4,0,0,1-18.024-18.539,28.575,28.575,0,0,1-3.141-10.566c-.584-7.253,3.128-11.915,10.292-13.028,6.307-.977,12.594-2,18.982-2.455C866.506,866.385,870.41,865.061,874.487,865.087Zm3.494,45.364c4.841.213,9.727-1.454,14.409-3.937a41.391,41.391,0,0,0,8.459-6.342,33.793,33.793,0,0,0,10.883-20.513,11.272,11.272,0,0,0-.052-3.51,6.309,6.309,0,0,0-6.6-5.68c-4.53-.1-9.078-.325-13.6-.1-15.115.764-30.231,1.532-45.215,3.906-6.294,1-8.468,4.369-6.713,10.626A32.686,32.686,0,0,0,850.586,901.4C858.393,907.954,867.028,911.781,877.981,910.451Z" transform="translate(-673.996 -646.89)" fill="#181f49"/><path d="M1204.509,787.33c-5.386.484-10.86-4.226-11.406-9.819a10.9,10.9,0,0,1,9.2-11.3c5.705-.627,11.263,3.638,11.881,9.117A11.164,11.164,0,0,1,1204.509,787.33Z" transform="translate(-937.583 -574.692)" fill="#181f49"/><path d="M694.96,810.483c-.433-6.116,3.5-10.561,9.638-11.206a10.618,10.618,0,0,1,11.327,9.741,10.827,10.827,0,0,1-9.772,11.4A10.63,10.63,0,0,1,694.96,810.483Z" transform="translate(-572.742 -598.922)" fill="#181f49"/><path d="M1209.354,692.267a3.128,3.128,0,0,1-4.21,3.388,15.02,15.02,0,0,1-2.276-1.019,12.037,12.037,0,0,0-11.53.068,26.15,26.15,0,0,1-3.092,1.648c-1.646.611-3.409.661-4.655-.759a3.961,3.961,0,0,1-.3-4.715,15.277,15.277,0,0,1,11.853-8.277c5.747-.744,10.1,1.49,13.138,6.373A5.838,5.838,0,0,1,1209.354,692.267Z" transform="translate(-929.963 -513.397)" fill="#181f49"/><path d="M687.2,716.73c5.595-.468,9.849,2.252,13.317,6.452,1.437,1.743,1.577,3.984.614,5.131-1.252,1.49-2.978,1.433-4.637,1.123a18.909,18.909,0,0,1-3.3-1.2c-4.075-1.589-7.878-.9-11.494,1.363a21.7,21.7,0,0,1-2.109,1.344,3.257,3.257,0,0,1-4.656-2.863,6.4,6.4,0,0,1,.293-1.968A13.433,13.433,0,0,1,687.2,716.73Z" transform="translate(-558.101 -538.458)" fill="#181f49"/></g></svg>