<svg xmlns="http://www.w3.org/2000/svg" width="662.748" height="327.395" viewBox="0 0 662.748 327.395"><g transform="translate(-54.2 -559.342)"><g transform="translate(58.639 564.709)"><g transform="translate(16.553 16.396)"><path d="M112.969,629.7a15.506,15.506,0,0,1,2.361-1.66,63.625,63.625,0,0,1,8.5-3.357c12.584-3.69,25.465-4.787,38.484-4.315,21.913.793,43.767,2.476,65.508,5.4,6.8.914,13.556,2.1,20.353,3.013,2.674.359,4.221,1.614,5.724,3.928a130.7,130.7,0,0,0,9.727,12.694c5.164,6.13,9.886,12.587,14.682,19a375.322,375.322,0,0,0,38.048,44.125c2.317,2.26,4.887,4.256,7.334,6.383q1.724,1.5,3.419,3.036a1.917,1.917,0,0,1,.8,1.981c-.271.912-1.1.952-1.866.878-1.518-.144-3.03-.342-4.542-.539-4.153-.547-8.318-1.008-12.454-1.675-10.414-1.68-20.878-1.565-31.363-1.1-4.949.218-9.907.333-14.847.682-8.6.609-17,2.217-24.825,6.026a5.571,5.571,0,0,1-4.94.118c-4.893-2.109-9.774-4.186-14.485-6.747-7.366-4.008-14.588-8.233-21.739-12.6-11.729-7.159-22.877-15.146-33.833-23.409a375.536,375.536,0,0,1-30.57-25.8,148.934,148.934,0,0,1-16.171-17.7,18.063,18.063,0,0,1-3.2-6.029A10.521,10.521,0,0,1,112.969,629.7Z" transform="translate(-112.963 -620.263)" fill="#b17eff"/><path d="M1023.111,842.846c3.614-9.033,7.192-18.079,10.853-27.095,2.117-5.216,3.083-5.723,8.118-3.751,9.414,3.684,18.765,7.541,28.138,11.335.707.286,1.368.692,2.087.936,8.33,2.841,15.964,7.219,23.887,10.94,8.43,3.959,16.489,8.7,24.737,13.049,4.545,2.4,9.208,4.586,13.718,7.055,7.169,3.93,14.68,7.235,21.512,11.805,2.995,2,6.408,3.316,9.556,5.123,10.423,5.977,20.4,12.644,30.514,19.115,5.936,3.8,11.814,7.693,17.692,11.578a49.157,49.157,0,0,1,4.132,3.057,1.537,1.537,0,0,1-.637,2.682,14.878,14.878,0,0,1-2.8.483c-14.113.964-27.973,3.691-41.915,5.851-19.248,2.983-38.567,4.958-58.086,4.106a97.091,97.091,0,0,1-17-2.149,25.039,25.039,0,0,1-7.953-3.136,318.582,318.582,0,0,0-27.938-15.555c-7.487-3.732-15.074-7.331-22.632-10.937-8.1-3.864-16.377-7.223-24.63-10.68-3.638-1.522-3.9-2.195-2.382-6.174,3.125-8.2,6.344-16.362,9.527-24.54.419-1.066.849-2.125,1.273-3.19C1022.964,842.786,1023.039,842.817,1023.111,842.846Z" transform="translate(-690.332 -742.823)" fill="#b17eff"/><path d="M1446.794,1342.812c1.609-3.127,2.057-6.494,2.346-9.948.383-4.613,1.492-5.335,5.872-3.864,26.5,8.916,53.883,13.385,81.62,16a324.39,324.39,0,0,0,34.8,1.686c9.928-.133,19.826-.625,29.447-3.351,2.464-.7,4.25-.336,4.486,3.281.566,8.519-2.223,15.684-8.79,21.326-4.976,4.274-10.871,6.137-17.208,7.006-8.766,1.2-17.491.442-26.234-.312-14.845-1.279-29.382-4.271-43.82-7.811-8.678-2.131-17.356-4.3-25.968-6.7-5.86-1.63-11.6-3.705-17.391-5.551-6.167-1.963-12.35-3.864-18.511-5.845-2.93-.943-3.089-1.374-1.774-3.929C1446.016,1344.12,1446.419,1343.473,1446.794,1342.812Z" transform="translate(-969.082 -1075.378)" fill="#b17eff"/></g><g transform="translate(0.938 26.859)"><path d="M1348.911,1172.615c-1.415-.566-2.806-1.206-4.25-1.68-2.541-.84-3.844-2.491-4.888-5.049a61.181,61.181,0,0,0-10.853-17.379,311.169,311.169,0,0,0-25.621-26.092,141.514,141.514,0,0,0-17.68-13.541c-2.234-1.45-4.327-3.118-6.467-4.71-.749-.557-1.721-1.141-1.173-2.27.489-1,1.58-.872,2.517-.893a16.688,16.688,0,0,1,1.716.062c15.281,1.3,30.5.085,45.647-1.686,11.537-1.347,23-3.337,34.505-5.026,7.163-1.052,14.337-2.055,21.494-3.131a53.323,53.323,0,0,0,8.413-1.568,5.884,5.884,0,0,1,5.818.937c7.275,5.223,14.709,10.234,21.925,15.531,15.994,11.734,31.227,24.421,46.1,37.541,9.91,8.746,18.717,18.458,25.326,30.028a55.631,55.631,0,0,1,4.021,8.834c.737,2.058.171,3.207-1.822,4.18a27.881,27.881,0,0,1-7.1,2.093c-7.163,1.38-14.414,1.512-21.648,1.462a424.157,424.157,0,0,1-65.42-5.786c-11.678-1.9-23.215-4.354-34.664-7.213C1359.467,1175.926,1354.008,1174.851,1348.911,1172.615Z" transform="translate(-846.084 -932.191)" fill="#b218c8"/><path d="M702.789,737.568q-5.633,14.082-11.266,28.164a17.651,17.651,0,0,1-.931,2.087,2.4,2.4,0,0,1-2.9,1.225,25.731,25.731,0,0,1-2.711-.916c-1.426-.544-2.865-1.064-4.25-1.7-9.556-4.389-19.7-7.177-29.653-10.387-14.659-4.728-29.432-9.219-44.586-12.243-5.368-1.072-9.818-4.121-14.122-7.3A175.3,175.3,0,0,1,571.9,718.25c-14.087-14.314-26.069-30.353-38.166-46.3-3.921-5.167-7.941-10.247-12.256-15.1a47.239,47.239,0,0,1-3.793-5,1.4,1.4,0,0,1,1.3-2.3,23.623,23.623,0,0,1,3.413.333c14.6,2.783,29.158,5.8,43.8,8.327,11.478,1.981,22.514,5.677,33.889,8.025,4.274.881,8.412,2.421,12.625,3.62,10.252,2.915,20.58,5.589,30.744,8.782,6.9,2.168,13.828,4.293,20.725,6.453,15.139,4.738,29.657,11.02,44.408,16.719a35.33,35.33,0,0,1,4.675,2.133c1.621.914,2.034,2.059,1.427,3.866-.731,2.168-1.627,4.279-2.476,6.405q-4.669,11.692-9.35,23.381C702.835,737.587,702.814,737.577,702.789,737.568Z" transform="translate(-357.278 -649.553)" fill="#b218c8"/><path d="M188.1,765.716c-7.266-4.586-15.331-7.609-23.012-11.353-15.08-7.347-29.485-15.857-43.946-24.269a229.934,229.934,0,0,1-36.277-26.754,69.931,69.931,0,0,1-8.843-9.7c-5.483-7.083-7.991-15.042-6.208-24.085,1.088-5.509,4.227-9.726,8.23-13.372,2.025-1.845,3.511-1.54,5.04.931,6.7,10.812,15.593,19.643,24.9,28.156a413.75,413.75,0,0,0,41.061,32.756,351.713,351.713,0,0,0,34.762,21.893c4.66,2.531,9.188,5.424,14.267,7.172a13.418,13.418,0,0,1,2.054,1c3.042,1.667,3.263,2.468,1.046,5.21-3.145,3.885-5.972,7.884-6.836,12.976-.227,1.323-1.365,1.745-2.638,1.191C190.483,766.933,189.3,766.3,188.1,765.716Z" transform="translate(-69.25 -653.05)" fill="#b218c8"/></g><path d="M736.413,1215.052c-15.587-6.234-31.23-12.348-46.744-18.762A123.42,123.42,0,0,1,670.58,1186a52.655,52.655,0,0,1-6.208-5.04,15.845,15.845,0,0,1-4.469-7.219,9.613,9.613,0,0,1,4-10.962,25.8,25.8,0,0,1,10.243-3.393c8.489-1.094,16.745.236,24.913,2.317a316.876,316.876,0,0,1,41.659,14.069c12.89,5.27,25.966,10.131,38.651,15.858,10.387,4.69,20.727,9.615,30.06,16.351a62.013,62.013,0,0,1,10.818,10.143,32.755,32.755,0,0,1,4.245,7.41c2.093,4.345-.277,11.364-5.719,13.144a24.277,24.277,0,0,1-7.823,1.389,55.65,55.65,0,0,1-14.632-2.4,202.572,202.572,0,0,1-22.265-7.272c-12.536-5.138-25.146-10.093-37.727-15.124C736.357,1215.195,736.387,1215.12,736.413,1215.052Z" transform="translate(-447.684 -950.148)" fill="#ffcf00"/><path d="M639.51,1179.679c-6.553-2.624-13.191-5.052-19.646-7.906a183.563,183.563,0,0,1-36.536-21.108c-11.416-8.6-22.709-17.373-33.718-26.5a112.582,112.582,0,0,1-13.872-14.4,43.5,43.5,0,0,1-7.115-12.987,18.311,18.311,0,0,1,.05-12.872c3.667-10.609,10.88-17.709,21.314-21.633a75.991,75.991,0,0,1,25.724-4.8,171.9,171.9,0,0,1,44.707,5.359c11.466,2.853,22.98,5.45,33.933,10.016a14.16,14.16,0,0,0,3.307.867,21.279,21.279,0,0,1,8.035,2.895c5.565,3.476,11.788,5.359,17.736,7.909a27.464,27.464,0,0,0,6.538,2.022,20.938,20.938,0,0,1,7.986,3.015,62.958,62.958,0,0,0,10.305,4.914c7.587,3.148,14.643,7.334,21.753,11.372A206.229,206.229,0,0,1,755,1121.9a139.226,139.226,0,0,1,21.27,19.9,60.7,60.7,0,0,1,11.13,19.216,33.068,33.068,0,0,1-2.311,27.667,20.364,20.364,0,0,1-12.227,9.733,79.643,79.643,0,0,1-26.552,3.257c-7.622-.251-15.21-.952-22.8-1.822-9.085-1.037-18.234-1.477-27.283-2.918A242.855,242.855,0,0,1,671.7,1191.5C660.579,1188.531,650.195,1183.73,639.51,1179.679Zm10.9-26.957c-.026.071-.056.144-.085.218,12.218,4.888,24.46,9.712,36.645,14.68a179.994,179.994,0,0,0,29.481,8.946,60.6,60.6,0,0,0,9.633,1.123,21.266,21.266,0,0,0,11.018-2.565,11.007,11.007,0,0,0,5.294-5.748c2.01-4.828,1.12-9.329-1.374-13.644-4.192-7.26-10.287-12.687-17.12-17.353-8.041-5.495-16.89-9.55-25.533-13.945-4.917-2.5-10.147-4.389-15.282-6.44-6.019-2.405-12.168-4.5-18.116-7.066-16.115-6.947-32.465-13.17-49.518-17.465a78,78,0,0,0-23.183-2.709c-5.158.268-10.255,1.182-14.715,4.068-5.559,3.6-7.3,9.279-4.975,15.422,1.833,4.849,5.258,8.336,9.32,11.3a112.624,112.624,0,0,0,22.34,12.6C619.507,1140.634,635.011,1146.561,650.413,1152.723Z" transform="translate(-362.848 -884.875)" fill="#ff8c01"/><g transform="translate(164.563 181.49)" opacity="0.5"><path d="M639.3,1195.587c-6.91-2.762-13.913-5.315-20.707-8.336a180.351,180.351,0,0,1-33.641-19.3c-12.3-9.031-24.218-18.55-36.023-28.212-5.043-4.13-9.244-9.087-13.412-14.063-3.23-3.859-5.273-8.372-7.086-13.011a16.633,16.633,0,0,1-.625-10.143,32.7,32.7,0,0,1,13.668-19.781c.507-.348,1.146-.5,1.524-.018a3.443,3.443,0,0,1,.348,1.545,1.188,1.188,0,0,1-.136.551c-4.318,10.626-1.043,20.277,4.15,29.482a68.609,68.609,0,0,0,15.614,18.874,128.747,128.747,0,0,0,26.6,17.656c5.648,2.739,11.107,5.863,16.666,8.79,1.011.533,2.084.946,3.128,1.415,9.733,4.369,19.322,9.043,29.078,13.368,6.084,2.694,12.085,5.636,18.308,8,10.5,3.988,21.167,7.481,31.911,10.779a228.181,228.181,0,0,0,25.531,6.19,127.6,127.6,0,0,0,21.069,1.816,43.282,43.282,0,0,0,12.987-1.881c9.875-2.912,14.7-7.74,16.383-20.25a37.138,37.138,0,0,0-1.338-14.169,107.729,107.729,0,0,0-6.29-18.375c-.719-1.556-1.4-3.136-2.017-4.74-.377-.988-1.379-2.19-.195-3.045.9-.646,1.728.43,2.429,1.029,6.667,5.7,13.376,11.369,18.995,18.154a61.736,61.736,0,0,1,11.1,19.245,33.006,33.006,0,0,1-2.393,27.663,20.429,20.429,0,0,1-12.28,9.666,82.613,82.613,0,0,1-27.13,3.228c-8.972-.254-17.857-1.539-26.788-2.255-7.6-.61-15.186-1.385-22.732-2.508a223.816,223.816,0,0,1-24.531-5.45C660.33,1204.546,649.948,1199.727,639.3,1195.587Z" transform="translate(-527.291 -1082.416)" fill="#ff8c01"/><path d="M736.692,1233.43c-15.767-6.3-31.616-12.413-47.266-18.995-8.6-3.62-16.563-8.566-24.368-13.7-4.345-2.859-5.035-7.346-5.406-11.958-.068-.864.749-1.291,1.574-1.276a4.628,4.628,0,0,1,1.654.386c4.371,1.869,9.04,3.072,12.99,5.9a15.255,15.255,0,0,0,3.1,1.462c7.227,2.989,14.493,5.892,21.689,8.957,11.566,4.929,23.08,9.975,34.631,14.942a214.205,214.205,0,0,0,51.936,15.334,105.3,105.3,0,0,0,13.677.878c4.121.094,7.911-.858,10.677-4.389,1.126-1.438,2.14-1.426,3.4-.215,3.708,3.578,7.346,7.207,9.22,12.212,2.447,6.538-.124,12.188-6.756,14.558a19.708,19.708,0,0,1-6.774.843,53.875,53.875,0,0,1-14.066-2.346,187.4,187.4,0,0,1-21.734-7.036c-12.722-5.191-25.5-10.231-38.261-15.334C736.633,1233.577,736.663,1233.505,736.692,1233.43Z" transform="translate(-612.367 -1149.959)" fill="#ff8c01"/></g><path d="M887.243,586.225c12.551,5.115,24.754,10.88,35.778,18.908a93.918,93.918,0,0,1,10.806,9.336c9.633,9.546,19.189,19.267,26.022,31.036,7.658,13.2,14.455,26.889,16.914,42.25.6,3.764,1.45,7.491,2.246,11.223a24.574,24.574,0,0,1,.082,8.538,2.012,2.012,0,0,1-3.054,1.465q-9.648-4.976-19.26-10.019c-5.223-2.741-10.429-5.524-15.64-8.284q-8.33-4.408-16.654-8.812c-.507-.267-1-.563-1.515-.8-10.906-5.026-21.659-10.371-32.872-14.7-6.408-2.476-12.657-5.412-19.177-7.552-7.6-2.5-14.88-5.622-22.2-8.824-12.4-5.424-25.094-10.222-37.8-14.922-6.408-2.37-13.111-3.943-19.679-5.889-4.745-1.407-9.474-2.88-14.234-4.243-9.88-2.833-19.781-5.6-29.668-8.42-3.3-.939-6.591-1.9-9.866-2.918a2.005,2.005,0,0,1-.9-2.881,11.75,11.75,0,0,1,1.813-2.193,81.737,81.737,0,0,1,6.485-5.608c4.312-3.151,8.734-6.159,13.185-9.112a85.669,85.669,0,0,1,22.228-10.331,30.216,30.216,0,0,0,3.2-1.223A70.757,70.757,0,0,1,804.4,576.6a295.365,295.365,0,0,1,30.792-2.236,113.109,113.109,0,0,1,34.264,5.617C875.476,581.857,881.373,583.972,887.243,586.225Z" transform="translate(-497.059 -574.366)" fill="#7be3dc"/><path d="M615.469,978.7c-10.608-4.3-21.188-8.675-31.964-12.56-7.9-2.85-16.077-4.7-24.2-6.747q-6.1-1.534-12.274-2.741a162.658,162.658,0,0,0-43.849-2.458,66.486,66.486,0,0,0-20.925,5.589c-7.947,3.387-13.9,9.232-18.243,16.728-.8,1.382-.872,2.9-1.3,4.348-.678,2.3-2.341,2.895-4.419,1.663a12.768,12.768,0,0,1-1.382-1.011c-7.676-6.09-14.615-12.837-19.431-21.517-1.48-2.665-3.125-5.241-4.613-7.9a25.02,25.02,0,0,1-2.995-8c-.637-3.759-1.459-7.5-1.928-11.276-1.43-11.491,3.67-19.84,13.58-25.5a39.906,39.906,0,0,1,15.767-4.912c16.33-1.66,32.71-2.722,49.113-1.045a291.944,291.944,0,0,1,35.56,5.685c8.722,2,17.465,3.923,26.152,6.08,4.8,1.192,9.553,2.631,14.228,4.245,8.462,2.92,16.975,5.757,25.494,8.444,12.775,4.028,25.053,9.226,37.369,14.323,9.833,4.068,19.555,8.471,28.987,13.474,4.7,2.493,9.586,4.649,14.349,7.054a385.879,385.879,0,0,1,58.11,36.294c12.869,9.677,23.74,21.47,34.346,33.5a60,60,0,0,1,8.59,13.459,27.5,27.5,0,0,1,2.57,11.634c.224,7.8-2.965,14.1-8.76,19.033-3.325,2.839-7.033,5.232-10.611,7.77a14,14,0,0,1-3.007,1.627c-13.347,5.182-27.053,7.97-41.438,6.134a13.258,13.258,0,0,1-2.234-.424,2.333,2.333,0,0,1-1.486-3.6c5.288-10.559,4.109-21.064-.519-31.4-4.758-10.632-12.315-19.151-20.781-27.015a164.117,164.117,0,0,0-29.954-21.863c-6.933-3.994-13.842-8.023-20.887-11.808a112.181,112.181,0,0,0-10.983-4.87C632.848,985.609,624.15,982.177,615.469,978.7Z" transform="translate(-298.72 -784.003)" fill="#007cf7"/><g transform="translate(145.561 26.107)" opacity="0.5"><path d="M645.278,1039.21c-10.605-4.3-21.182-8.672-31.949-12.557-7.9-2.85-16.073-4.7-24.195-6.744q-6.092-1.534-12.268-2.741a162.748,162.748,0,0,0-43.831-2.467,66.7,66.7,0,0,0-20.922,5.574c-8.147,3.461-14.228,9.471-18.49,17.226-.71,1.288-.766,2.924-1.25,4.356a2.484,2.484,0,0,1-3.693,1.453,4.741,4.741,0,0,1-1-.554c-4.124-3.386-8.389-6.62-11.867-10.718-1.913-2.252-2.656-3.534.05-6.281,6.1-6.19,13.229-10.838,20.778-14.983,16.315-8.951,33.927-13.6,52.288-15.394a150.466,150.466,0,0,1,46.081,2.542c6.891,1.464,13.627,3.512,20.4,5.48,14.517,4.221,28.294,10.287,42.166,16.115,6.3,2.647,12.27,6.063,18.365,9.182,3.555,1.822,7.074,3.734,10.605,5.6,14.332,7.573,28.091,16.08,41.656,24.928,8.613,5.621,17.143,11.4,26,16.628,7.245,4.271,15.039,7.428,23.67,7.82,5.388.245,10.193-.994,14.1-4.932.672-.678,1.392-1.306,2.1-1.946,1.2-1.094,2.411-.864,3.614.012a2.809,2.809,0,0,1,.46.345c7.876,8.522,16.448,16.466,21.341,27.363a28.738,28.738,0,0,1,1.591,19.006c-1.15,4.766-4.233,8.539-7.929,11.631-3.207,2.688-6.721,5.011-10.146,7.428a16.528,16.528,0,0,1-3.484,1.937c-13.347,5.153-27.047,7.947-41.426,6.1a14.044,14.044,0,0,1-1.692-.268c-2.122-.53-2.842-1.939-1.91-3.817,5.241-10.567,4.044-21.061-.584-31.389-4.763-10.629-12.327-19.139-20.8-26.989a163.422,163.422,0,0,0-29.942-21.851c-6.933-3.982-13.842-8.017-20.881-11.8a112.1,112.1,0,0,0-10.977-4.867C662.647,1046.115,653.956,1042.679,645.278,1039.21Z" transform="translate(-474.098 -870.619)" fill="#007cf7"/><path d="M823.526,664.271c2.125.849,4.284,1.624,6.372,2.562,11.142,5.012,22.844,8.521,34.4,12.331,12.639,4.167,25.544,7.623,39.026,8.1a60.973,60.973,0,0,0,23.074-3.254,27.012,27.012,0,0,0,12.934-9.953c.554-.774,1.008-1.622,1.621-2.339a1.726,1.726,0,0,1,2.535-.214,3.961,3.961,0,0,1,.837.769c5.017,6.469,11.03,12.209,15.039,19.4,7.617,13.668,14.8,27.544,17.349,43.275.607,3.761,1.468,7.481,2.234,11.216a23.39,23.39,0,0,1-.023,8.521,1.989,1.989,0,0,1-2.653,1.424c-.525-.219-.979-.592-1.48-.855-8.79-4.545-17.609-9.041-26.369-13.637-8.253-4.33-16.448-8.778-24.684-13.138-1.515-.8-3.154-1.356-4.675-2.143-14.762-7.62-30.29-13.456-45.671-19.623a59.744,59.744,0,0,0-11.956-3.842,11.343,11.343,0,0,1-4.209-1.692,59.461,59.461,0,0,0-11.307-5.45c-11.349-4.492-22.651-9.111-34.106-13.316-6.591-2.419-13.435-4.155-20.179-6.15-4.015-1.188-7.991-2.47-12.047-3.549-9.191-2.445-18.255-5.375-27.387-8.044-4.566-1.335-9.176-2.515-13.757-3.792-2.514-.7-3.027-2.214-1.317-4.158a48.482,48.482,0,0,1,7.643-6.869,10.958,10.958,0,0,1,5.359-1.757,85.462,85.462,0,0,1,32.3,2.273A270.839,270.839,0,0,1,823.526,664.271Z" transform="translate(-642.528 -647.447)" fill="#007cf7"/></g><g transform="translate(95.772 83.112)" opacity="0.5"><path d="M1278.036,1122.277c.183-.192.413-.666.69-.69a25.994,25.994,0,0,1,3.974-.124,171.742,171.742,0,0,0,30.827-.454,9.14,9.14,0,0,1,8.524,3.245c6.745,7.248,13.73,14.276,20.728,21.291a157.888,157.888,0,0,0,31.964,24.8,67.436,67.436,0,0,0,7.752,3.646c3.33,1.421,6.75,2.644,10.075,4.068a76.652,76.652,0,0,0,31.77,6.019,55.711,55.711,0,0,0,30.755-9.338,32.47,32.47,0,0,0,8.6-8.266c1.444-2.048,2.6-2.476,4.586-.628,9.4,8.751,17.839,18.287,24.023,29.624a60.924,60.924,0,0,1,3.343,7.885,2.618,2.618,0,0,1-1.391,3.378,25.132,25.132,0,0,1-7.593,2.388,110.514,110.514,0,0,1-21.635,1.48,424,424,0,0,1-65.408-5.771c-11.667-1.9-23.2-4.369-34.664-7.181a132.037,132.037,0,0,1-20.668-6.553c-1.8-.772-3.29-1.648-4.039-3.693a59.964,59.964,0,0,0-11.578-18.892,303.563,303.563,0,0,0-25.214-25.68,145.67,145.67,0,0,0-17.662-13.55c-2.547-1.668-4.928-3.584-7.357-5.418A1.239,1.239,0,0,1,1278.036,1122.277Z" transform="translate(-940.974 -1008.79)" fill="#8021cd"/><path d="M1603.736,1358.174c-3.555,7.646-9.208,12.89-17.4,15.328a58.492,58.492,0,0,1-19.236,2.163,251.924,251.924,0,0,1-53.6-7.855c-9.75-2.564-19.56-4.9-29.341-7.343-.554-.139-1.108-.283-1.651-.46-6.155-1.993-12.292-4.021-18.458-5.984-5.618-1.789-11.271-3.478-16.884-5.277-2.8-.893-2.936-1.279-1.426-4.05a23.242,23.242,0,0,0,3.242-10.836,16.407,16.407,0,0,1,.283-2.841c.413-2.117,1.568-2.871,3.691-2.467a16.26,16.26,0,0,1,2.2.592c23.563,7.982,47.893,12.268,72.536,15.048a354.771,354.771,0,0,0,43.324,2.576c10.122-.1,20.185-.7,30.025-3.346,2.7-.725,4.021.159,4.2,2.936A25.6,25.6,0,0,1,1603.736,1358.174Z" transform="translate(-1048.24 -1142.181)" fill="#8021cd"/><path d="M1041.966,932.939c3.36,1.346,6.8,2.522,10.075,4.071q10.046,4.768,19.926,9.88c6.249,3.247,12.374,6.728,18.558,10.095,13.6,7.4,26.193,16.315,38.455,25.718,3.178,2.432,6.255,4.987,9.32,7.555a1.3,1.3,0,0,1-.837,2.352c-4.374.242-8.754.531-13.135.557a121.968,121.968,0,0,1-25.591-2.061,27.214,27.214,0,0,1-9.079-3.369c-9.031-5.68-18.47-10.65-27.908-15.593-7.245-3.8-14.915-6.786-22.148-10.6-8.295-4.37-17.061-7.558-25.65-11.2-2.865-1.215-3.319-2.1-2.311-4.839,2.181-5.9,4.486-11.761,6.815-17.608.743-1.86,1.515-2.221,3.59-1.9a25,25,0,0,1,5.017,1.065c5,1.878,9.934,3.928,14.891,5.91A.1.1,0,0,1,1041.966,932.939Z" transform="translate(-769.513 -883.431)" fill="#8021cd"/><path d="M775.673,850.889c2.836,1.135,5.689,2.221,8.5,3.419,1.822.778,2.282,1.74,1.7,3.624-.56,1.819-1.32,3.579-2,5.359-1.568,4.1-3.107,8.209-4.734,12.283-1.085,2.718-2.052,3.179-4.864,2.14-3.937-1.453-7.765-3.21-11.724-4.6-9.159-3.21-18.329-6.386-27.661-9.086-4.934-1.428-9.818-3.055-14.726-4.576-8.209-2.542-16.551-4.476-24.919-6.324-5.377-1.188-9.963-3.872-14.264-7.033a165.25,165.25,0,0,1-25.237-23.181,18.886,18.886,0,0,1-1.4-1.805,1.093,1.093,0,0,1,.663-1.763,24.165,24.165,0,0,1,2.827-.074c7.867.215,15.51,1.976,23.142,3.615,9.869,2.119,19.749,4.3,29.441,7.083s19.469,5.3,29.063,8.5c7.231,2.411,14.341,5.2,21.621,7.381C766.053,847.338,770.857,849.091,775.673,850.889Z" transform="translate(-540.023 -814.89)" fill="#8021cd"/><path d="M393.3,842.057c-7.236-3.014-13.819-7.253-20.657-11.005-2.072-1.138-2.14-2.4-.368-4.038a43.824,43.824,0,0,1,9.353-6.542c22.676-11.966,46.741-15.805,72.061-12.081.377.056.758.1,1.132.172,12.106,2.472,9.816,1.438,17.267,9.633a186.267,186.267,0,0,0,19.024,18.137c1.212,1,3.475,1.929,2.411,3.906-.8,1.485-2.827.48-4.25.321q-6.81-.756-13.583-1.837c-11.941-1.913-23.923-1.71-35.929-.968-3.042.187-6.093.248-9.138.38-9.412.413-18.529,2.121-27.083,6.248a4.635,4.635,0,0,1-3.867.216C397.538,843.768,395.422,842.906,393.3,842.057Z" transform="translate(-358.047 -807.024)" fill="#8021cd"/><path d="M358.548,910.875c-6.1-3.065-12.085-6.348-18.455-8.844a8.067,8.067,0,0,1-1.014-.517c-5.359-3.044-5.276-3.1-2.429-8.567a64.076,64.076,0,0,1,5.8-9.77c1.931-2.5,2.965-2.8,5.86-1.387,3.914,1.912,7.82,3.878,11.552,6.114a66.031,66.031,0,0,0,9.149,4.56,19.062,19.062,0,0,1,3.015,1.6c1.4.889,1.592,1.979.657,3.355-.424.626-.937,1.192-1.412,1.785-2.859,3.586-5.412,7.3-6.2,11.991-.295,1.754-1.3,2.093-2.933,1.422-.177-.072-.339-.175-.51-.258Q360.089,911.614,358.548,910.875Z" transform="translate(-334.723 -854.539)" fill="#8021cd"/></g><g transform="translate(0 0.353)" opacity="0.5"><path d="M651.12,839.678c-10.676-3.849-20.062-10.087-29.559-16.085-10.335-6.523-19.684-14.4-29.5-21.645-8.743-6.452-17.32-13.126-26.11-19.513-10.175-7.4-20.846-14.057-31.61-20.572q-14.414-8.726-29.323-16.586c-13.842-7.267-28.28-13.217-42.482-19.708-24.477-11.189-49.656-20.588-74.508-30.82a172.382,172.382,0,0,0-17.111-6.5c-7.885-2.3-15.4-5.638-23.225-7.984-5.854-1.752-11.531-3.934-17.317-5.82-6.508-2.119-13.137-3.867-19.679-5.882-4.369-1.346-8.725-2.7-13.123-3.959-16.48-4.707-33.016-9.192-49.659-13.275a533.067,533.067,0,0,0-62.885-11.787,303.529,303.529,0,0,0-41.632-2.576c-13.954.234-27.793,1.5-41.258,5.465a49.263,49.263,0,0,0-15.428,7.325A31.816,31.816,0,0,0,76,662.879a24.885,24.885,0,0,1-1.5,3.073,2.18,2.18,0,0,1-2.461,1.011,2.251,2.251,0,0,1-1.943-1.851c-.2-1.869.242-3.908-.36-5.6-.53-1.495-2.379-2.475-2.594-4.3a55.135,55.135,0,0,1-.516-6.258c-.009-3.017,1.359-5.863,1.232-8.946-.035-.815.778-1.687,1.261-2.5a30,30,0,0,1,7.794-8.287,58.7,58.7,0,0,1,18.762-9.472c10.237-3.138,20.551-5.757,31.28-6.524,2.679-.192,4.955-.09,6.058,2.9.386,1.051,1.43,1.072,2.42,1.043,2.284-.065,4.578-.032,6.859-.152,21.229-1.1,42.263,1.313,63.309,3.469,14.992,1.536,29.73,4.694,44.559,7.256,14.458,2.5,28.931,4.912,43.348,7.634a275.715,275.715,0,0,1,31.036,7.689c9.082,2.836,18.246,5.4,27.3,8.334,5.067,1.643,10.072,3.534,15.192,4.95,10.511,2.909,20.38,7.514,30.659,10.977,5.589,1.883,11.166,3.785,16.713,5.808,3.626,1.325,6.715,3.589,10.158,5.21a3.933,3.933,0,0,1,2.234,2.489c.56,2.2,2.264,2.943,4.08,3.609,4.109,1.5,7.988,3.646,12.421,4.231a14.18,14.18,0,0,1,3.249,1.08c8.507,3.387,17.22,6.353,25.45,10.317,8.253,3.972,16.825,7.177,25.026,11.2s16.076,8.67,24.224,12.8c8.672,4.392,17.149,9.125,25.479,14.112,8.99,5.381,18.057,10.643,26.871,16.3q26.219,16.832,52.173,34.068,26.909,17.9,52.391,37.792c1.651,1.294,3.225,2.688,4.8,4.073a8.737,8.737,0,0,1,2.6,3.711,3.912,3.912,0,0,1-1.114,4.657,21.128,21.128,0,0,1-10.116,5.061c-5.713.949-11.4.867-16.843-1.595C655.4,841.3,653.246,840.525,651.12,839.678Z" transform="translate(-66.626 -599.654)" fill="#fff"/><path d="M615.861,945.966c-7.614-3.045-15.174-6.234-22.859-9.083-4.99-1.848-10.14-3.281-15.26-4.75s-10.3-2.7-15.434-4.127c-11.929-3.324-24.009-5.981-36.1-8.616a282.411,282.411,0,0,0-32.71-5.228,117.063,117.063,0,0,0-45.768,4.6,46.663,46.663,0,0,0-15.493,8.423,19.177,19.177,0,0,0-5.671,7.076,31.277,31.277,0,0,1-1.515,3.061,2.015,2.015,0,0,1-1.978.895c-.8-.064-1.645-.473-1.745-1.235-.663-4.95-3-9.684-.354-14.959,2-3.991,4.062-7.634,7.487-10.591,6.376-5.5,13.833-8.665,21.824-10.778a91.842,91.842,0,0,1,27.165-3.03c5.716.221,11.413.609,17.1,1.307,11.348,1.394,22.714,2.617,34.072,3.908,8.342.947,16.536,2.747,24.772,4.3,3.888.734,7.9.965,11.033,4.1,1.085,1.091,3.116,1.351,4.772,1.744,11.113,2.627,22.3,4.974,33.347,7.855a149.03,149.03,0,0,1,19.092,5.9c12.172,4.993,24.452,9.743,36.525,14.959,6.62,2.859,12.863,6.579,19.372,9.71,9.81,4.716,18.947,10.567,28.18,16.276A375.766,375.766,0,0,1,746.7,996.784c2.941,2.42,6.06,4.625,9.114,6.907,1.9,1.421,3.591,2.971,3.054,5.65-.348,1.71-2.441,2.441-5.925,2.131a52.115,52.115,0,0,1-15.293-4.25c-11.343-4.687-21.382-11.649-31.964-17.674q-9.674-5.5-19.513-10.738c-9.061-4.831-18.175-9.571-27.3-14.29-2.028-1.047-4.215-1.775-6.284-2.75C640.525,956.087,628.45,950.432,615.861,945.966Z" transform="translate(-293.598 -782.457)" fill="#fff"/><path d="M911.333,585.955c12.044,5.76,23.976,11.677,34.381,20.218,3.679,3.023,7.44,5.948,11.13,8.959a12.387,12.387,0,0,1,3.69,4.306,3.887,3.887,0,0,1-1.6,5.422,21.18,21.18,0,0,1-4.71,2.043,49.91,49.91,0,0,1-24.884.948c-12.539-2.808-24.27-7.751-35.566-13.832-5.194-2.8-10.582-5.239-15.764-8.058a110.25,110.25,0,0,0-13.418-6.317,119.35,119.35,0,0,0-36.1-8.056,111,111,0,0,0-47.628,7.567,46.725,46.725,0,0,1-10.458,2.827,2.236,2.236,0,0,1-2.447-1.073,2.457,2.457,0,0,1,.637-3.1,10.938,10.938,0,0,1,4.533-2.326,144.463,144.463,0,0,0,24.642-10.592c4.044-2.261,8.519-3.393,12.949-4.423,22.5-5.235,45.212-6.728,68.121-3.2a101.762,101.762,0,0,1,23.2,5.931A93.506,93.506,0,0,0,911.333,585.955Z" transform="translate(-517.224 -575.353)" fill="#fff"/><path d="M567.854,1060.765a5.784,5.784,0,0,1,.987-1.061,6.412,6.412,0,0,1,2.013-1.058c9.023-2.3,17.217-7.121,26.532-8.572,3.375-.525,6.632-1.733,10.1-1.851,1.651-.056,3.036.089,3.593,1.984.422,1.441,1.751,1.264,2.841,1.371,4.36.418,8.74.672,13.085,1.2a198.083,198.083,0,0,1,33.93,7.714c5.636,1.724,11.366,3.13,17,4.873,4,1.238,7.923,2.747,11.846,4.221,3.393,1.276,6.738,2.673,10.1,4.023,2.476.993,4.873,2.049,7.72,1.539a7.6,7.6,0,0,1,3.879.692c4.947,1.981,9.926,3.867,14.525,6.662,3.573,2.172,7.375,3.962,11.059,5.948q10.045,5.421,20.073,10.888a13.454,13.454,0,0,1,1.887,1.291c5.394,4.283,11.407,7.578,17.338,11.012a14.836,14.836,0,0,1,1.887,1.279,1.572,1.572,0,0,1-.13,2.458,27.6,27.6,0,0,1-3.879,2.379c-6.4,3.028-12.958,2.942-19.461.484-6.6-2.494-13.2-5.02-19.608-7.956-6.22-2.848-12.18-6.243-18.268-9.376-3.723-1.916-7.481-3.75-11.159-5.766-5.836-3.2-12.062-5.68-17.9-8.875a191.759,191.759,0,0,0-18.211-8.209c-8.454-3.546-17.244-6-26.063-8.377a32.412,32.412,0,0,1-3.242-1.114,105.728,105.728,0,0,0-37.426-6.989c-7.051-.074-14.1-.5-21.123.407-3.207.415-6.376,1.108-9.565,1.665a15.656,15.656,0,0,1-2.794.4C568.2,1064.041,567.176,1062.058,567.854,1060.765Z" transform="translate(-388.662 -879.294)" fill="#fff"/><path d="M688.784,1155.519c3.154,2.9,7.355,2.488,11.254,3.015a186.929,186.929,0,0,1,22.408,4.3,28.584,28.584,0,0,1,9.365,4.044,30.394,30.394,0,0,0,11.6,4.622,17.232,17.232,0,0,1,6.426,2.264c3.525,2.388,7.487,3.729,11.346,5.341,5.966,2.491,11.879,5.055,17.631,8.071,5.206,2.73,10.724,4.881,15.876,7.773,3.98,2.234,8.1,4.215,12.074,6.453,1.975,1.111,3.938,2.343,5.052,4.492,1.02,1.966.378,4.012-1.686,4.625a17.8,17.8,0,0,1-4.5.64,48.836,48.836,0,0,1-12.439-1.536c-10.258-2.388-19.91-6.453-29.508-10.644-7.838-3.425-15.448-7.319-23-11.351-6.538-3.487-13.456-6.258-20.012-9.712a208.656,208.656,0,0,0-19.7-9.049,70.93,70.93,0,0,0-16.536-4.295c-7.844-1.109-15.558-1.02-22.826,2.78a2.329,2.329,0,0,1-3.092-.563,2.642,2.642,0,0,1-.148-2.715c.139-.354.227-.822.5-1.011,3.652-2.553,6.214-6.774,11.024-7.534a58.209,58.209,0,0,1,17.082-.33C687.531,1155.273,688.088,1155.394,688.784,1155.519Z" transform="translate(-446.787 -947.749)" fill="#fff"/></g></g><g transform="translate(54.2 559.342)"><path d="M335.1,860.463c-8.681-3.472-17.412-6.821-26.019-10.464-4.725-2-9.3-4.386-13.836-6.8a336.777,336.777,0,0,1-31.976-18.868c-11.67-7.991-22.732-16.693-32.185-27.336-6.358-7.16-10.859-15.2-12.7-24.6A7.791,7.791,0,0,0,215,767.357a79.852,79.852,0,0,1-17.718-17.727,91.453,91.453,0,0,1-11.219-19.876,47.922,47.922,0,0,1-2.983-13.942c-.23-2.887-1.6-4.265-4.123-5.438-7.242-3.366-14.343-7.036-21.5-10.585-.513-.255-1.017-.537-1.55-.74-8.41-3.214-15.976-8.064-23.829-12.35-6.352-3.466-12.492-7.316-18.836-10.8A216.378,216.378,0,0,1,86.2,657.753c-6.514-4.982-13.028-9.954-18.623-16.032A67.1,67.1,0,0,1,58.9,630.414a31.88,31.88,0,0,1-4.578-19.2A29.252,29.252,0,0,1,63,592.426a39.151,39.151,0,0,1,9.25-6.657c8.719-4.588,18.036-7.086,27.726-8.629,10.066-1.6,20.153-1.421,30.245-1.042a644.3,644.3,0,0,1,69.461,6.53c25.279,3.713,50.4,8.327,75.436,13.384,4.669.942,9.326,1.97,13.942,3.132a4.759,4.759,0,0,0,5.129-1.374,117.637,117.637,0,0,1,43.377-27.977c7.5-2.8,14.88-6.04,22.865-7.186,8.672-1.245,17.332-2.724,26.14-2.771,1.907-.01,3.81-.192,5.714-.315,11.154-.725,22.037.815,32.831,3.564a128.518,128.518,0,0,1,15.228,4.895c1.757.69,3.7.887,5.5,1.471a50.374,50.374,0,0,1,10.535,4.405,29.781,29.781,0,0,0,4.015,2.161,118.949,118.949,0,0,1,43.867,30.244c5.795,6.348,11.336,12.877,16.76,19.515,5.966,7.3,9.409,16.087,13.624,24.412,6.036,11.926,8.507,24.85,10.706,37.843a31.106,31.106,0,0,1,.448,8.548c-.418,3.642,1.1,5.522,4.08,7.236,6.768,3.9,13.412,8.018,19.991,12.23,16.536,10.588,32.925,21.385,49.054,32.595a685.208,685.208,0,0,1,60.02,46.688c9.355,8.174,18.264,16.748,25.391,27.027A74.154,74.154,0,0,1,716.2,848.175a30.977,30.977,0,0,1-1,16.928,25.172,25.172,0,0,1-5.6,9.214,36.907,36.907,0,0,1-19.119,10.806c-8.89,2.016-17.8,1.868-26.747,1.037-11.585-1.079-23.157-2.3-34.523-4.923-6.5-1.5-12.987-3.013-19.455-4.616-7.947-1.972-15.87-4.044-23.8-6.075-.554-.144-1.1-.295-1.645-.474-7.057-2.314-14.131-4.59-21.164-6.968-4.15-1.4-8.536-2-12.533-3.926-1.934-.932-3.691-.254-5.312,1-2.264,1.748-4.563,3.455-6.862,5.153a39.749,39.749,0,0,1-12.852,6.1c-5.312,1.524-10.546,3.257-16.059,4.076a81.925,81.925,0,0,1-22.237.433,9.886,9.886,0,0,0-7.923,1.963c-6.532,4.955-14.249,7.063-22.331,8a140.975,140.975,0,0,1-33.674-.481,308.843,308.843,0,0,1-41.436-8.362A329.768,329.768,0,0,1,335.1,860.463Zm56.691-142.338c-11.683-4.644-23.229-9.589-35.282-13.333-12.183-3.785-24.365-7.518-36.677-10.858a387.141,387.141,0,0,0-44.259-8.8c-18.614-2.786-37.273-2.042-55.917-.373a52.234,52.234,0,0,0-15.967,4.266c-8.032,3.452-15.266,12.822-13.919,24.057,1.058,8.8,2.732,17.337,8.218,24.644.681.908,1.129,1.989,1.736,2.959A74.166,74.166,0,0,0,216.487,759.3c1.692,1.35,2.488,1.22,3.764-.507.9-1.224,1.7-2.526,2.517-3.811a42.493,42.493,0,0,1,21.27-17.45c13.126-5.035,26.744-5.816,40.548-5.055,15.107.831,29.756,4.28,44.359,8.018,5.185,1.326,10.181,3.171,15.293,4.675a154.224,154.224,0,0,1,28.574,11.454,23.617,23.617,0,0,0,6.358,2.506,55.392,55.392,0,0,1,9.232,2.983A253.119,253.119,0,0,1,421.535,777.5c11.5,6.4,22.921,12.911,33.326,21.014,11.354,8.837,21.571,18.688,28.657,31.487,5.665,10.243,8.241,20.855,5.53,32.456-.348,1.48-.625,2.983-.837,4.486a1.621,1.621,0,0,0,1.126,1.778,7.522,7.522,0,0,0,2.211.5c12.574.687,24.666-1.642,36.439-5.913a14.466,14.466,0,0,0,3.089-1.48,93.674,93.674,0,0,0,11.059-8.124,23.379,23.379,0,0,0,6.09-27.109,53.577,53.577,0,0,0-9.421-14.939c-4.186-4.693-8.589-9.191-12.875-13.8a179.365,179.365,0,0,0-29.052-24.89c-14.543-10.125-29.458-19.661-45.311-27.7-4.074-2.063-8.177-4.08-12.25-6.149-6.609-3.357-13.141-6.921-19.932-9.883C410.3,725.281,401,721.809,391.787,718.125Zm-21.549,44.4a290.9,290.9,0,0,0-34.882-12.887c-1.65-.469-3.248-1.138-4.91-1.539q-10.271-2.481-20.569-4.849a145.519,145.519,0,0,0-36.279-3.935c-10,.23-19.666,1.925-28.9,6.087a32.627,32.627,0,0,0-17.8,18.349,18.018,18.018,0,0,0-.009,13.872c2.836,7.3,7.684,13.135,13.1,18.55,11.4,11.39,24.477,20.61,38.2,28.931,6.833,4.141,13.65,8.433,20.9,11.726,6.715,3.048,12.713,7.84,20.321,8.861a5.6,5.6,0,0,1,2.1.864c6.028,3.77,12.754,5.966,19.307,8.53,4.955,1.94,9.757,4.374,15.1,5.2,3.823,2.662,8.268,3.646,12.625,5.052,7.62,2.458,15.3,4.622,23.046,6.615a226.313,226.313,0,0,0,49.049,7.481c9.191.3,18.311-.053,27.142-2.992,4.274-1.424,8.153-3.6,10.352-7.608,4.356-7.953,6.166-16.339,3.313-25.332a61.418,61.418,0,0,0-9.674-18.667c-7.688-10.134-17.314-18.216-27.672-25.415a253.472,253.472,0,0,0-25.4-15.389c-7.387-3.941-14.762-7.909-22.508-11.1C388.792,769.877,381.333,766.962,370.238,762.525Zm77.738-183.707c.006-.015.012-.03.018-.043-3.189-1.276-6.379-2.56-9.574-3.826a131.644,131.644,0,0,0-28.7-7.5,93.445,93.445,0,0,0-20.551-.56c-15.406,1.045-30.937,1.549-45.31,8.293a7.525,7.525,0,0,1-1.079.382,79.178,79.178,0,0,0-22.172,10.423c-4.746,3.2-9.471,6.435-14.128,9.761a41.237,41.237,0,0,0-4.725,4.134,1.6,1.6,0,0,0,.445,2.8,11.273,11.273,0,0,0,2.125.833c6.847,1.677,13.612,3.617,20.359,5.661q5.735,1.733,11.5,3.4c9.326,2.693,18.782,4.973,28,8q16.823,5.527,33.328,12.038c26.77,10.6,53.688,20.869,79.8,33.077,1.037.485,2.128.861,3.142,1.392,8.59,4.519,17.12,9.148,25.756,13.572,9.492,4.86,19.036,9.614,28.3,14.914a11.657,11.657,0,0,0,1.562.7c1.61.632,2.842,0,2.771-1.626a61.905,61.905,0,0,0-.725-7.96c-.672-3.947-1.521-7.868-2.452-11.766-1.591-6.684-3.366-13.32-6.432-19.523-1.521-3.073-3.2-6.074-4.557-9.218A78.453,78.453,0,0,0,514.068,628.6c-4.616-5.854-9.58-11.382-14.573-16.9a114.866,114.866,0,0,0-39.835-28.193C455.817,581.836,451.873,580.378,447.976,578.819ZM496.488,762.74c.065.389,0,.867.195,1.017,1.8,1.4,3.62,2.78,5.471,4.109,8.218,5.9,16.265,12.005,23.357,19.26,5.058,5.179,9.946,10.535,15.027,15.693a71.146,71.146,0,0,1,14.85,22.187,6.466,6.466,0,0,0,4.292,4.109c5.094,1.565,10.134,3.354,15.286,4.678a425.964,425.964,0,0,0,48.188,9.559c14.561,1.99,29.158,3.478,43.843,4.041,10.1.386,20.215.474,30.26-.911a62.4,62.4,0,0,0,7.823-1.657c2.14-.58,2.493-1.374,1.674-3.313-.885-2.1-1.839-4.191-2.93-6.2A103.136,103.136,0,0,0,682.6,808.561q-18.773-17.213-38.932-32.784c-10.252-7.941-20.8-15.463-31.434-22.894-2.623-1.836-4.923-2.547-7.888-1.344a15.1,15.1,0,0,1-3.378.572c-17.155,2.58-34.3,5.241-51.465,7.705a280.02,280.02,0,0,1-33.02,2.971c-6.108.144-12.2.186-18.3-.159A13.826,13.826,0,0,0,496.488,762.74ZM77.258,591.6a4.237,4.237,0,0,0,.8,2.839,69.912,69.912,0,0,0,9.9,12.551c12.1,12.778,25.6,23.975,39.593,34.583a437.334,437.334,0,0,0,52.091,34.11c4.654,2.582,9.509,4.816,14.308,7.13,1.707.824,3.416,1.481,5.441.482a65.565,65.565,0,0,1,19.086-5.626c5.312-.833,10.644-.674,15.958-1.076a181.566,181.566,0,0,1,44.462,1.76c1.872.32,3.776.46,5.671.615.283.022.607-.315.878-.529a1.017,1.017,0,0,0-.239-.488,15.828,15.828,0,0,0-1.229-1.2c-13.7-11.692-25.568-25.087-36.539-39.314-6.871-8.908-13.7-17.844-20.6-26.726-3.743-4.818-7.982-9.3-11.26-14.409-2.11-3.288-4.531-4.852-8.186-5.076-.754-.045-1.5-.284-2.252-.4a698.147,698.147,0,0,0-79.112-7.534c-11.873-.426-23.628.215-35.2,3.094A61.056,61.056,0,0,0,78.4,590.6,5.4,5.4,0,0,0,77.258,591.6Zm362.294,65.371c-.018.036-.03.072-.048.108-4.073-1.63-8.105-3.366-12.233-4.855-3.555-1.282-4.84-.7-6.284,2.7-3.2,7.534-6.155,15.148-9.886,22.474-5.2,10.209-7.351,21.63-11.938,32.115a6.364,6.364,0,0,0-.33,1.095,2.23,2.23,0,0,0,1.326,2.807c1.739.78,3.508,1.492,5.271,2.223,7.222,3,14.7,5.506,21.594,9.121,6.408,3.359,13.058,6.194,19.454,9.576,8.253,4.356,16.5,8.69,24.542,13.424,2.941,1.733,5.86,3.743,9.067,4.722a80.19,80.19,0,0,0,20.881,2.962,287.587,287.587,0,0,0,51.283-3.4c12.633-1.854,25.161-4.445,37.9-5.606,2.841-.259,5.665-.725,8.489-1.146.283-.042.543-.4.754-.663.041-.056-.124-.368-.259-.474-1.055-.811-2.093-1.654-3.2-2.382-7.64-5.023-15.316-9.99-22.944-15.036-12.074-7.992-24.577-15.276-37.17-22.386-7.953-4.488-16.224-8.405-24.348-12.586-4.062-2.09-8.129-4.17-12.168-6.306-8.071-4.274-15.958-8.918-24.212-12.8C463.38,667.132,451.413,662.168,439.553,656.968Zm-66.06,45.852c6.332,2.534,10.739,4.351,15.194,6.052,2.075.793,2.865.4,3.248-1.709a27.956,27.956,0,0,1,1.857-5.989c6.627-15.389,11.655-31.439,19.425-46.365,3.249-6.231,2.718-7.284-3.655-9.707-9.067-3.447-17.927-7.375-27.276-10.2-9.079-2.743-17.748-6.84-26.98-9.285-5.146-1.363-10.16-3.257-15.33-4.5-3.717-.894-7.3-2.156-10.957-3.2-9.326-2.654-18.664-5.281-28.029-7.8-7.34-1.973-14.679-3.987-22.1-5.6-11.16-2.424-22.387-4.545-33.6-6.731-6.538-1.275-13.1-2.442-19.661-3.611-.719-.128-1.86-.224-2.164.166-.5.643.342,1.325.822,1.875,5.394,6.174,10.376,12.672,15.354,19.182,11.8,15.434,23.431,31.018,37.309,44.731,6.508,6.435,13.108,12.766,20.7,17.938,2.965,2.022,5.86,4.339,9.427,5.207,11.829,2.879,23.655,5.705,35.292,9.383C353.425,696.16,364.538,699.482,373.492,702.82ZM63.177,605.908a15.526,15.526,0,0,0-1.615,9.031c.654,4.9,1.8,9.658,4.784,13.883a69.286,69.286,0,0,0,11.49,12.657,253.706,253.706,0,0,0,38.944,27.929c5.777,3.31,11.59,6.558,17.376,9.848,7.938,4.511,15.9,8.953,24.147,12.9,7.2,3.443,14.293,7.11,21.42,10.708,2.1,1.061,2.98.828,3.98-1.414,1.394-3.123,2.476-6.359,4.713-9.092,2.19-2.671,1.922-3.527-1.026-5.217-1.15-.66-2.423-1.105-3.638-1.655-2.429-1.1-4.958-2.029-7.266-3.345-10.582-6.026-21.043-12.225-31.127-19.1a425.246,425.246,0,0,1-49.435-38.7c-6.847-6.327-13.724-12.672-19.2-20.315-1.217-1.7-2.352-3.464-3.513-5.2-2.3-3.444-3-3.434-5.9-.189A20.987,20.987,0,0,0,63.177,605.908Zm644.761,256.57c.253-.837.861-2.452,1.22-4.121a20.819,20.819,0,0,0,.342-3.976c.059-2.939-.5-3.414-3.278-2.892-2.246.424-4.48.9-6.727,1.315-11.9,2.164-23.917,1.78-35.9,1.374a425.217,425.217,0,0,1-61.824-7c-12.911-2.352-25.809-4.923-38.113-9.733a12.058,12.058,0,0,0-4.445-.937c-1.1,0-1.845.424-1.875,1.609-.106,4.088-1.562,7.8-3.048,11.531-.914,2.3-.43,3.348,1.869,3.732,5.86.985,11.342,3.286,16.931,5.064,8.884,2.83,17.774,5.589,26.794,7.926,7,1.81,13.978,3.714,21,5.427a273.794,273.794,0,0,0,41.1,6.773c9.886.861,19.8,1.665,29.506-1.22C698.961,875.124,704.748,870.823,707.938,862.478Z" transform="translate(-54.2 -559.342)" fill="#0c1949"/><path d="M725.2,1211.246c-9.557-3.823-19.065-7.773-28.684-11.434a262.968,262.968,0,0,1-32.916-15.773,44.665,44.665,0,0,1-13.765-10.989,20.611,20.611,0,0,1-4.684-11.457,11.565,11.565,0,0,1,3.416-9.35c4.041-4.165,9.1-6.09,14.694-6.906a64.263,64.263,0,0,1,24.392,1.365,266.26,266.26,0,0,1,27.855,8.389c6.258,2.234,12.6,4.283,18.791,6.726a26.725,26.725,0,0,1,6.1,3.1,12.867,12.867,0,0,0,5.25,2.166c6.635,1.241,12.787,4,18.667,7.006,5.1,2.612,10.439,4.619,15.556,7.139a168.523,168.523,0,0,1,23.251,13.314,51.605,51.605,0,0,1,15.44,16.634,19.581,19.581,0,0,1,2.388,12.118,11.87,11.87,0,0,1-6.243,9.085c-5.135,3.007-10.724,3.746-16.554,3.216a93.881,93.881,0,0,1-17.326-3.511c-7.122-2.048-14.165-4.439-21.089-7.08C748.154,1220.584,736.7,1215.847,725.2,1211.246Zm5.482-5.494c13.963,5.167,30.2,12.831,47.387,18.025,4.929,1.491,9.875,2.889,14.868,4.053a34.567,34.567,0,0,0,11.36.878,13.917,13.917,0,0,0,6.456-2.108,6.759,6.759,0,0,0,3.189-7.372,18.375,18.375,0,0,0-2.877-6.791c-4.3-6.52-10.222-11.266-16.808-15.222-3.749-2.249-7.729-4.1-11.555-6.229-10-5.55-20.562-9.931-31.034-14.429-12.592-5.409-25.42-10.243-38.431-14.644-11.027-3.726-22.028-7.34-33.5-9.379a44.064,44.064,0,0,0-13.659-.466,27.073,27.073,0,0,0-8.8,2.349c-5.214,2.632-6.523,6.653-3.767,11.841,1.648,3.1,4.268,5.341,6.974,7.466a66.689,66.689,0,0,0,12.707,7.643c8.427,3.985,16.672,8.365,25.447,11.631C708.468,1196.66,718.139,1200.736,730.678,1205.752Z" transform="translate(-434.017 -935.613)" fill="#0c1949"/></g></g></svg>