<svg xmlns="http://www.w3.org/2000/svg" width="586.946" height="661.593" viewBox="0 0 586.946 661.593"><g transform="translate(-1282 -2419)" opacity="0.5"><g transform="translate(-969 -103)"><g transform="translate(2251 2522)"><path d="M1429.488,184.956l-10.26.295-.3-10.261,10.27-.3Z" transform="translate(-1366.429 -174.692)" fill="#569cf8"/><path d="M1537.547,220.432l-14.013.4-.4-14.016,14.007-.4Z" transform="translate(-1436.464 -196.016)" fill="#569cf8"/><path d="M1596.346,324.055,1576,326.022l-1.961-20.34,20.339-1.967Z" transform="translate(-1470.681 -261.411)" fill="#569cf8"/><path d="M1294.769,242.408l-34.949,1.009-1.01-34.955,34.956-1.006Z" transform="translate(-1258.81 -196.714)" fill="#569cf8"/><path d="M1456.84,348.065l-17.945.518-.525-17.943,17.945-.514Z" transform="translate(-1379.495 -279.161)" fill="#569cf8"/><path d="M1690.505,481.878l-22.935,2.216-2.21-22.931,22.926-2.213Z" transform="translate(-1532.059 -365.747)" fill="#569cf8"/><path d="M1783.433,611.406,1768.6,612.84l-1.43-14.831L1782,596.575Z" transform="translate(-1600.488 -458.247)" fill="#569cf8"/></g><g transform="translate(2251 2826)"><path d="M1429.488,184.956l-10.26.295-.3-10.261,10.27-.3Z" transform="translate(-1366.429 -174.692)" fill="#569cf8"/><path d="M1537.547,220.432l-14.013.4-.4-14.016,14.007-.4Z" transform="translate(-1436.464 -196.016)" fill="#569cf8"/><path d="M1596.346,324.055,1576,326.022l-1.961-20.34,20.339-1.967Z" transform="translate(-1470.681 -261.411)" fill="#569cf8"/><path d="M1294.769,242.408l-34.949,1.009-1.01-34.955,34.956-1.006Z" transform="translate(-1258.81 -196.714)" fill="#569cf8"/><path d="M1456.84,348.065l-17.945.518-.525-17.943,17.945-.514Z" transform="translate(-1379.495 -279.161)" fill="#569cf8"/><path d="M1690.505,481.878l-22.935,2.216-2.21-22.931,22.926-2.213Z" transform="translate(-1532.059 -365.747)" fill="#569cf8"/><path d="M1783.433,611.406,1768.6,612.84l-1.43-14.831L1782,596.575Z" transform="translate(-1600.488 -458.247)" fill="#569cf8"/></g><g transform="translate(2251 2623)"><path d="M1429.488,184.956l-10.26.295-.3-10.261,10.27-.3Z" transform="translate(-1366.429 -174.692)" fill="#569cf8"/><path d="M1537.547,220.432l-14.013.4-.4-14.016,14.007-.4Z" transform="translate(-1436.464 -196.016)" fill="#569cf8"/><path d="M1596.346,324.055,1576,326.022l-1.961-20.34,20.339-1.967Z" transform="translate(-1470.681 -261.411)" fill="#569cf8"/><path d="M1294.769,242.408l-34.949,1.009-1.01-34.955,34.956-1.006Z" transform="translate(-1258.81 -196.714)" fill="#569cf8"/><path d="M1456.84,348.065l-17.945.518-.525-17.943,17.945-.514Z" transform="translate(-1379.495 -279.161)" fill="#569cf8"/><path d="M1690.505,481.878l-22.935,2.216-2.21-22.931,22.926-2.213Z" transform="translate(-1532.059 -365.747)" fill="#569cf8"/><path d="M1783.433,611.406,1768.6,612.84l-1.43-14.831L1782,596.575Z" transform="translate(-1600.488 -458.247)" fill="#569cf8"/></g><g transform="translate(2251 2928)"><path d="M1429.488,184.956l-10.26.295-.3-10.261,10.27-.3Z" transform="translate(-1366.429 -174.692)" fill="#569cf8"/><path d="M1537.547,220.432l-14.013.4-.4-14.016,14.007-.4Z" transform="translate(-1436.464 -196.016)" fill="#569cf8"/><path d="M1596.346,324.055,1576,326.022l-1.961-20.34,20.339-1.967Z" transform="translate(-1470.681 -261.411)" fill="#569cf8"/><path d="M1294.769,242.408l-34.949,1.009-1.01-34.955,34.956-1.006Z" transform="translate(-1258.81 -196.714)" fill="#569cf8"/><path d="M1456.84,348.065l-17.945.518-.525-17.943,17.945-.514Z" transform="translate(-1379.495 -279.161)" fill="#569cf8"/><path d="M1690.505,481.878l-22.935,2.216-2.21-22.931,22.926-2.213Z" transform="translate(-1532.059 -365.747)" fill="#569cf8"/><path d="M1783.433,611.406,1768.6,612.84l-1.43-14.831L1782,596.575Z" transform="translate(-1600.488 -458.247)" fill="#569cf8"/></g><g transform="translate(2251 2725)"><path d="M1429.488,184.956l-10.26.295-.3-10.261,10.27-.3Z" transform="translate(-1366.429 -174.692)" fill="#569cf8"/><path d="M1537.547,220.432l-14.013.4-.4-14.016,14.007-.4Z" transform="translate(-1436.464 -196.016)" fill="#569cf8"/><path d="M1596.346,324.055,1576,326.022l-1.961-20.34,20.339-1.967Z" transform="translate(-1470.681 -261.411)" fill="#569cf8"/><path d="M1294.769,242.408l-34.949,1.009-1.01-34.955,34.956-1.006Z" transform="translate(-1258.81 -196.714)" fill="#569cf8"/><path d="M1456.84,348.065l-17.945.518-.525-17.943,17.945-.514Z" transform="translate(-1379.495 -279.161)" fill="#569cf8"/><path d="M1690.505,481.878l-22.935,2.216-2.21-22.931,22.926-2.213Z" transform="translate(-1532.059 -365.747)" fill="#569cf8"/><path d="M1783.433,611.406,1768.6,612.84l-1.43-14.831L1782,596.575Z" transform="translate(-1600.488 -458.247)" fill="#569cf8"/></g><g transform="translate(2251 3029)"><path d="M1429.488,184.956l-10.26.295-.3-10.261,10.27-.3Z" transform="translate(-1366.429 -174.692)" fill="#569cf8"/><path d="M1537.547,220.432l-14.013.4-.4-14.016,14.007-.4Z" transform="translate(-1436.464 -196.016)" fill="#569cf8"/><path d="M1596.346,324.055,1576,326.022l-1.961-20.34,20.339-1.967Z" transform="translate(-1470.681 -261.411)" fill="#569cf8"/><path d="M1294.769,242.408l-34.949,1.009-1.01-34.955,34.956-1.006Z" transform="translate(-1258.81 -196.714)" fill="#569cf8"/><path d="M1456.84,348.065l-17.945.518-.525-17.943,17.945-.514Z" transform="translate(-1379.495 -279.161)" fill="#569cf8"/><path d="M1690.505,481.878l-22.935,2.216-2.21-22.931,22.926-2.213Z" transform="translate(-1532.059 -365.747)" fill="#569cf8"/><path d="M1783.433,611.406,1768.6,612.84l-1.43-14.831L1782,596.575Z" transform="translate(-1600.488 -458.247)" fill="#569cf8"/></g></g><g transform="translate(3151 5457.593) rotate(180)"><g transform="translate(1484.054 2377)"><path d="M1429.488,184.956l-10.26.295-.3-10.261,10.27-.3Z" transform="translate(-1366.429 -174.692)" fill="#569cf8"/><path d="M1537.547,220.432l-14.013.4-.4-14.016,14.007-.4Z" transform="translate(-1436.464 -196.016)" fill="#569cf8"/><path d="M1596.346,324.055,1576,326.022l-1.961-20.34,20.339-1.967Z" transform="translate(-1470.681 -261.411)" fill="#569cf8"/><path d="M1294.769,242.408l-34.949,1.009-1.01-34.955,34.956-1.006Z" transform="translate(-1258.81 -196.714)" fill="#569cf8"/><path d="M1456.84,348.065l-17.945.518-.525-17.943,17.945-.514Z" transform="translate(-1379.495 -279.161)" fill="#569cf8"/><path d="M1690.505,481.878l-22.935,2.216-2.21-22.931,22.926-2.213Z" transform="translate(-1532.059 -365.747)" fill="#569cf8"/><path d="M1783.433,611.406,1768.6,612.84l-1.43-14.831L1782,596.575Z" transform="translate(-1600.488 -458.247)" fill="#569cf8"/></g><g transform="translate(1484.054 2681)"><path d="M1429.488,184.956l-10.26.295-.3-10.261,10.27-.3Z" transform="translate(-1366.429 -174.692)" fill="#569cf8"/><path d="M1537.547,220.432l-14.013.4-.4-14.016,14.007-.4Z" transform="translate(-1436.464 -196.016)" fill="#569cf8"/><path d="M1596.346,324.055,1576,326.022l-1.961-20.34,20.339-1.967Z" transform="translate(-1470.681 -261.411)" fill="#569cf8"/><path d="M1294.769,242.408l-34.949,1.009-1.01-34.955,34.956-1.006Z" transform="translate(-1258.81 -196.714)" fill="#569cf8"/><path d="M1456.84,348.065l-17.945.518-.525-17.943,17.945-.514Z" transform="translate(-1379.495 -279.161)" fill="#569cf8"/><path d="M1690.505,481.878l-22.935,2.216-2.21-22.931,22.926-2.213Z" transform="translate(-1532.059 -365.747)" fill="#569cf8"/><path d="M1783.433,611.406,1768.6,612.84l-1.43-14.831L1782,596.575Z" transform="translate(-1600.488 -458.247)" fill="#569cf8"/></g><g transform="translate(1484.054 2478)"><path d="M1429.488,184.956l-10.26.295-.3-10.261,10.27-.3Z" transform="translate(-1366.429 -174.692)" fill="#569cf8"/><path d="M1537.547,220.432l-14.013.4-.4-14.016,14.007-.4Z" transform="translate(-1436.464 -196.016)" fill="#569cf8"/><path d="M1596.346,324.055,1576,326.022l-1.961-20.34,20.339-1.967Z" transform="translate(-1470.681 -261.411)" fill="#569cf8"/><path d="M1294.769,242.408l-34.949,1.009-1.01-34.955,34.956-1.006Z" transform="translate(-1258.81 -196.714)" fill="#569cf8"/><path d="M1456.84,348.065l-17.945.518-.525-17.943,17.945-.514Z" transform="translate(-1379.495 -279.161)" fill="#569cf8"/><path d="M1690.505,481.878l-22.935,2.216-2.21-22.931,22.926-2.213Z" transform="translate(-1532.059 -365.747)" fill="#569cf8"/><path d="M1783.433,611.406,1768.6,612.84l-1.43-14.831L1782,596.575Z" transform="translate(-1600.488 -458.247)" fill="#569cf8"/></g><g transform="translate(1484.054 2783)"><path d="M1429.488,184.956l-10.26.295-.3-10.261,10.27-.3Z" transform="translate(-1366.429 -174.692)" fill="#569cf8"/><path d="M1537.547,220.432l-14.013.4-.4-14.016,14.007-.4Z" transform="translate(-1436.464 -196.016)" fill="#569cf8"/><path d="M1596.346,324.055,1576,326.022l-1.961-20.34,20.339-1.967Z" transform="translate(-1470.681 -261.411)" fill="#569cf8"/><path d="M1294.769,242.408l-34.949,1.009-1.01-34.955,34.956-1.006Z" transform="translate(-1258.81 -196.714)" fill="#569cf8"/><path d="M1456.84,348.065l-17.945.518-.525-17.943,17.945-.514Z" transform="translate(-1379.495 -279.161)" fill="#569cf8"/><path d="M1690.505,481.878l-22.935,2.216-2.21-22.931,22.926-2.213Z" transform="translate(-1532.059 -365.747)" fill="#569cf8"/><path d="M1783.433,611.406,1768.6,612.84l-1.43-14.831L1782,596.575Z" transform="translate(-1600.488 -458.247)" fill="#569cf8"/></g><g transform="translate(1484.054 2580)"><path d="M1429.488,184.956l-10.26.295-.3-10.261,10.27-.3Z" transform="translate(-1366.429 -174.692)" fill="#569cf8"/><path d="M1537.547,220.432l-14.013.4-.4-14.016,14.007-.4Z" transform="translate(-1436.464 -196.016)" fill="#569cf8"/><path d="M1596.346,324.055,1576,326.022l-1.961-20.34,20.339-1.967Z" transform="translate(-1470.681 -261.411)" fill="#569cf8"/><path d="M1294.769,242.408l-34.949,1.009-1.01-34.955,34.956-1.006Z" transform="translate(-1258.81 -196.714)" fill="#569cf8"/><path d="M1456.84,348.065l-17.945.518-.525-17.943,17.945-.514Z" transform="translate(-1379.495 -279.161)" fill="#569cf8"/><path d="M1690.505,481.878l-22.935,2.216-2.21-22.931,22.926-2.213Z" transform="translate(-1532.059 -365.747)" fill="#569cf8"/><path d="M1783.433,611.406,1768.6,612.84l-1.43-14.831L1782,596.575Z" transform="translate(-1600.488 -458.247)" fill="#569cf8"/></g><g transform="translate(1484.054 2884)"><path d="M1429.488,184.956l-10.26.295-.3-10.261,10.27-.3Z" transform="translate(-1366.429 -174.692)" fill="#569cf8"/><path d="M1537.547,220.432l-14.013.4-.4-14.016,14.007-.4Z" transform="translate(-1436.464 -196.016)" fill="#569cf8"/><path d="M1596.346,324.055,1576,326.022l-1.961-20.34,20.339-1.967Z" transform="translate(-1470.681 -261.411)" fill="#569cf8"/><path d="M1294.769,242.408l-34.949,1.009-1.01-34.955,34.956-1.006Z" transform="translate(-1258.81 -196.714)" fill="#569cf8"/><path d="M1456.84,348.065l-17.945.518-.525-17.943,17.945-.514Z" transform="translate(-1379.495 -279.161)" fill="#569cf8"/><path d="M1690.505,481.878l-22.935,2.216-2.21-22.931,22.926-2.213Z" transform="translate(-1532.059 -365.747)" fill="#569cf8"/><path d="M1783.433,611.406,1768.6,612.84l-1.43-14.831L1782,596.575Z" transform="translate(-1600.488 -458.247)" fill="#569cf8"/></g></g><g transform="translate(-969 -92)"><g transform="translate(2655 2511)"><path d="M1429.488,184.956l-10.26.295-.3-10.261,10.27-.3Z" transform="translate(-1366.429 -174.692)" fill="#569cf8"/><path d="M1537.547,220.432l-14.013.4-.4-14.016,14.007-.4Z" transform="translate(-1436.464 -196.016)" fill="#569cf8"/><path d="M1596.346,324.055,1576,326.022l-1.961-20.34,20.339-1.967Z" transform="translate(-1470.681 -261.411)" fill="#569cf8"/><path d="M1294.769,242.408l-34.949,1.009-1.01-34.955,34.956-1.006Z" transform="translate(-1258.81 -196.714)" fill="#569cf8"/><path d="M1456.84,348.065l-17.945.518-.525-17.943,17.945-.514Z" transform="translate(-1379.495 -279.161)" fill="#569cf8"/><path d="M1690.505,481.878l-22.935,2.216-2.21-22.931,22.926-2.213Z" transform="translate(-1532.059 -365.747)" fill="#569cf8"/><path d="M1783.433,611.406,1768.6,612.84l-1.43-14.831L1782,596.575Z" transform="translate(-1600.488 -458.247)" fill="#569cf8"/></g><g transform="translate(2655 2815)"><path d="M1429.488,184.956l-10.26.295-.3-10.261,10.27-.3Z" transform="translate(-1366.429 -174.692)" fill="#569cf8"/><path d="M1537.547,220.432l-14.013.4-.4-14.016,14.007-.4Z" transform="translate(-1436.464 -196.016)" fill="#569cf8"/><path d="M1596.346,324.055,1576,326.022l-1.961-20.34,20.339-1.967Z" transform="translate(-1470.681 -261.411)" fill="#569cf8"/><path d="M1294.769,242.408l-34.949,1.009-1.01-34.955,34.956-1.006Z" transform="translate(-1258.81 -196.714)" fill="#569cf8"/><path d="M1456.84,348.065l-17.945.518-.525-17.943,17.945-.514Z" transform="translate(-1379.495 -279.161)" fill="#569cf8"/><path d="M1690.505,481.878l-22.935,2.216-2.21-22.931,22.926-2.213Z" transform="translate(-1532.059 -365.747)" fill="#569cf8"/><path d="M1783.433,611.406,1768.6,612.84l-1.43-14.831L1782,596.575Z" transform="translate(-1600.488 -458.247)" fill="#569cf8"/></g><g transform="translate(2655 2612)"><path d="M1429.488,184.956l-10.26.295-.3-10.261,10.27-.3Z" transform="translate(-1366.429 -174.692)" fill="#569cf8"/><path d="M1537.547,220.432l-14.013.4-.4-14.016,14.007-.4Z" transform="translate(-1436.464 -196.016)" fill="#569cf8"/><path d="M1596.346,324.055,1576,326.022l-1.961-20.34,20.339-1.967Z" transform="translate(-1470.681 -261.411)" fill="#569cf8"/><path d="M1294.769,242.408l-34.949,1.009-1.01-34.955,34.956-1.006Z" transform="translate(-1258.81 -196.714)" fill="#569cf8"/><path d="M1456.84,348.065l-17.945.518-.525-17.943,17.945-.514Z" transform="translate(-1379.495 -279.161)" fill="#569cf8"/><path d="M1690.505,481.878l-22.935,2.216-2.21-22.931,22.926-2.213Z" transform="translate(-1532.059 -365.747)" fill="#569cf8"/><path d="M1783.433,611.406,1768.6,612.84l-1.43-14.831L1782,596.575Z" transform="translate(-1600.488 -458.247)" fill="#569cf8"/></g><g transform="translate(2655 2917)"><path d="M1429.488,184.956l-10.26.295-.3-10.261,10.27-.3Z" transform="translate(-1366.429 -174.692)" fill="#569cf8"/><path d="M1537.547,220.432l-14.013.4-.4-14.016,14.007-.4Z" transform="translate(-1436.464 -196.016)" fill="#569cf8"/><path d="M1596.346,324.055,1576,326.022l-1.961-20.34,20.339-1.967Z" transform="translate(-1470.681 -261.411)" fill="#569cf8"/><path d="M1294.769,242.408l-34.949,1.009-1.01-34.955,34.956-1.006Z" transform="translate(-1258.81 -196.714)" fill="#569cf8"/><path d="M1456.84,348.065l-17.945.518-.525-17.943,17.945-.514Z" transform="translate(-1379.495 -279.161)" fill="#569cf8"/><path d="M1690.505,481.878l-22.935,2.216-2.21-22.931,22.926-2.213Z" transform="translate(-1532.059 -365.747)" fill="#569cf8"/><path d="M1783.433,611.406,1768.6,612.84l-1.43-14.831L1782,596.575Z" transform="translate(-1600.488 -458.247)" fill="#569cf8"/></g><g transform="translate(2655 2714)"><path d="M1429.488,184.956l-10.26.295-.3-10.261,10.27-.3Z" transform="translate(-1366.429 -174.692)" fill="#569cf8"/><path d="M1537.547,220.432l-14.013.4-.4-14.016,14.007-.4Z" transform="translate(-1436.464 -196.016)" fill="#569cf8"/><path d="M1596.346,324.055,1576,326.022l-1.961-20.34,20.339-1.967Z" transform="translate(-1470.681 -261.411)" fill="#569cf8"/><path d="M1294.769,242.408l-34.949,1.009-1.01-34.955,34.956-1.006Z" transform="translate(-1258.81 -196.714)" fill="#569cf8"/><path d="M1456.84,348.065l-17.945.518-.525-17.943,17.945-.514Z" transform="translate(-1379.495 -279.161)" fill="#569cf8"/><path d="M1690.505,481.878l-22.935,2.216-2.21-22.931,22.926-2.213Z" transform="translate(-1532.059 -365.747)" fill="#569cf8"/><path d="M1783.433,611.406,1768.6,612.84l-1.43-14.831L1782,596.575Z" transform="translate(-1600.488 -458.247)" fill="#569cf8"/></g><g transform="translate(2655 3018)"><path d="M1429.488,184.956l-10.26.295-.3-10.261,10.27-.3Z" transform="translate(-1366.429 -174.692)" fill="#569cf8"/><path d="M1537.547,220.432l-14.013.4-.4-14.016,14.007-.4Z" transform="translate(-1436.464 -196.016)" fill="#569cf8"/><path d="M1596.346,324.055,1576,326.022l-1.961-20.34,20.339-1.967Z" transform="translate(-1470.681 -261.411)" fill="#569cf8"/><path d="M1294.769,242.408l-34.949,1.009-1.01-34.955,34.956-1.006Z" transform="translate(-1258.81 -196.714)" fill="#569cf8"/><path d="M1456.84,348.065l-17.945.518-.525-17.943,17.945-.514Z" transform="translate(-1379.495 -279.161)" fill="#569cf8"/><path d="M1690.505,481.878l-22.935,2.216-2.21-22.931,22.926-2.213Z" transform="translate(-1532.059 -365.747)" fill="#569cf8"/><path d="M1783.433,611.406,1768.6,612.84l-1.43-14.831L1782,596.575Z" transform="translate(-1600.488 -458.247)" fill="#569cf8"/></g></g></g></svg>