<svg xmlns="http://www.w3.org/2000/svg" width="652.775" height="652.775" viewBox="0 0 652.775 652.775"><g opacity="0.5"><path d="M657.334,330.947c0,180.26-146.127,326.387-326.387,326.387S4.559,511.207,4.559,330.947,150.686,4.559,330.947,4.559,657.334,150.689,657.334,330.947Z" transform="translate(-4.559 -4.559)" fill="#005ea8"/><g transform="translate(411.247 55.784)"><path d="M1429.488,184.956l-10.26.295-.3-10.261,10.27-.3Z" transform="translate(-1366.429 -174.692)" fill="#ffc800"/><path d="M1537.547,220.432l-14.013.4-.4-14.016,14.007-.4Z" transform="translate(-1436.464 -196.016)" fill="#ffc800"/><path d="M1596.346,324.055,1576,326.022l-1.961-20.34,20.339-1.967Z" transform="translate(-1470.681 -261.411)" fill="#ffc800"/><path d="M1294.769,242.408l-34.949,1.009-1.01-34.955,34.956-1.006Z" transform="translate(-1258.81 -196.714)" fill="#ffc800"/><path d="M1456.84,348.065l-17.945.518-.525-17.943,17.945-.514Z" transform="translate(-1379.495 -279.161)" fill="#ffc800"/><path d="M1690.505,481.878l-22.935,2.216-2.21-22.931,22.926-2.213Z" transform="translate(-1532.059 -365.747)" fill="#ffc800"/><path d="M1783.433,611.406,1768.6,612.84l-1.43-14.831L1782,596.575Z" transform="translate(-1600.488 -458.247)" fill="#ffc800"/></g></g></svg>