<svg xmlns="http://www.w3.org/2000/svg" xmlns:xlink="http://www.w3.org/1999/xlink" width="315" height="231" viewBox="0 0 315 231"><defs><clipPath id="a"><rect width="315" height="231" transform="translate(1528 7765)" fill="#fff" stroke="#707070" stroke-width="1"/></clipPath></defs><g transform="translate(-1528 -7765)" opacity="0.5" clip-path="url(#a)"><g transform="translate(1958.289 7969.058)"><path d="M279.4,49v77.521H21V49H46.84v51.68H253.562V49Z" transform="translate(-423.475 10.462)" fill="#898890"/><path d="M21,33H59.76V71.76H21Z" transform="translate(-423.475 -76.899)" fill="#5aaae7"/><path d="M27,33H65.76V71.76H27Z" transform="translate(-390.715 -76.899)" fill="#3d9ae2"/><path d="M71.76,33V71.76H33V33Z" transform="translate(-357.954 -76.899)" fill="#5aaae7"/><path d="M39,33H77.76V71.76H39Z" transform="translate(-325.194 -76.899)" fill="#3d9ae2"/><path d="M100.6,39V77.76H36V39h64.6Z" transform="translate(-341.574 -44.138)" fill="#acabb1"/><path d="M136.361,45V70.84H33V45H136.361Z" transform="translate(-357.954 -11.378)" fill="#898890"/><path d="M36,53h64.6V78.84H36Z" transform="translate(-341.574 32.302)" fill="#c6c5ca"/><path d="M231.722,49v51.68H160.661V74.84h-64.6v25.84H25V49H231.722Z" transform="translate(-401.635 10.462)" fill="#acabb1"/><path d="M21,27H59.76V65.76H21Z" transform="translate(-423.475 -109.659)" fill="#3d9ae2"/><path d="M27,27H65.76V65.76H27Z" transform="translate(-390.715 -109.659)" fill="#5aaae7"/><path d="M33,27H71.76V65.76H33Z" transform="translate(-357.954 -109.659)" fill="#3d9ae2"/><path d="M39,27H77.76V65.76H39Z" transform="translate(-325.194 -109.659)" fill="#5aaae7"/><path d="M27,21H65.76V59.76H27Z" transform="translate(-390.715 -142.419)" fill="#3d9ae2"/><path d="M21,21H59.76V59.76H21Z" transform="translate(-423.475 -142.419)" fill="#5aaae7"/><path d="M33,21H71.76V59.76H33Z" transform="translate(-357.954 -142.419)" fill="#5aaae7"/><path d="M39,21H77.76V59.76H39Z" transform="translate(-325.194 -142.419)" fill="#3d9ae2"/><path d="M45,13H148.361V180.961H45Z" transform="translate(-292.434 -186.1)" fill="#d1d3d4"/><path d="M176.041,13V64.68H21V13Z" transform="translate(-423.475 -186.1)" fill="#ffa733"/><path d="M36,39h64.6V51.92H36Z" transform="translate(-341.574 -44.138)" fill="#898890"/><path d="M142.9,24v96.9H46Z" transform="translate(-286.974 -126.039)" fill="#bcbec0"/><path d="M284.862,192.881a6.46,6.46,0,0,0,6.46-6.46V18.46a6.46,6.46,0,0,0-6.46-6.46H26.46A6.46,6.46,0,0,0,20,18.46V186.421a6.46,6.46,0,0,0,6.46,6.46H116.9v25.84h-12.92a6.46,6.46,0,0,0-6.46,6.46v19.38H26.46a6.46,6.46,0,0,0-6.46,6.46v77.521A6.46,6.46,0,0,0,26.46,335h258.4a6.46,6.46,0,0,0,6.46-6.46V251.022a6.46,6.46,0,0,0-6.46-6.46H213.8v-19.38a6.46,6.46,0,0,0-6.46-6.46h-12.92v-25.84ZM149.2,115.361h25.84V141.2H149.2Zm-12.92,25.84h-25.84v-25.84h25.84Zm38.76-38.76H149.2V76.6h25.84Zm-38.76,0h-25.84V76.6h25.84Zm-38.76,0H71.68V76.6h25.84Zm-38.76,0H32.92V76.6H58.76Zm0,12.92V141.2H32.92v-25.84Zm12.92,0h25.84V141.2H71.68Zm25.84,38.76v25.84H71.68v-25.84Zm12.92,0h25.84v25.84h-25.84Zm38.76,0h25.84v25.84H149.2Zm129.2,25.84H187.961V24.92H278.4ZM175.041,24.92V63.68H32.92V24.92ZM32.92,154.121H58.76v25.84H32.92ZM252.562,257.482v38.76H194.421v-19.38a6.46,6.46,0,0,0-6.46-6.46h-64.6a6.46,6.46,0,0,0-6.46,6.46v19.38H58.76v-38.76ZM181.5,296.242h-51.68v-12.92H181.5Zm96.9,25.84H32.92v-64.6H45.84V302.7a6.46,6.46,0,0,0,6.46,6.46H259.022a6.46,6.46,0,0,0,6.46-6.46v-45.22H278.4Zm-77.521-77.521H110.441v-12.92h90.441Zm-19.38-25.84h-51.68v-25.84H181.5Z" transform="translate(-428.935 -191.56)"/><path d="M48,20H86.76V32.92H48Z" transform="translate(-276.054 -147.879)"/><path d="M56,20H68.92V32.92H56Z" transform="translate(-232.373 -147.879)"/><path d="M48,24H86.76V36.92H48Z" transform="translate(-276.054 -126.039)"/><path d="M56,24H68.92V36.92H56Z" transform="translate(-232.373 -126.039)"/><path d="M48,28H86.76V40.92H48Z" transform="translate(-276.054 -104.199)"/><path d="M56,28H68.92V40.92H56Z" transform="translate(-232.373 -104.199)"/><path d="M48,32H86.76V44.92H48Z" transform="translate(-276.054 -82.359)"/><path d="M56,32H68.92V44.92H56Z" transform="translate(-232.373 -82.359)"/><path d="M40,16H52.92V28.92H40Z" transform="translate(-319.734 -169.72)"/><path d="M36,16H48.92V28.92H36Z" transform="translate(-341.574 -169.72)"/><path d="M32,16H44.92V28.92H32Z" transform="translate(-363.414 -169.72)"/></g></g></svg>