<svg xmlns="http://www.w3.org/2000/svg" width="266.533" height="318.313" viewBox="0 0 266.533 318.313"><g transform="translate(-654.99 -1779.296)"><g transform="translate(654.99 1779.296)"><g transform="translate(2.958 2.665)"><g transform="translate(19.578 134.048)"><path d="M482.062,1245.706l-102.255,6.831c-.31.021-.621.075-.93.074-.932-.006-1.368-.314-1.531-1.2-.338-1.833-.682-3.666-.928-5.512-.4-2.978-.489-5.983-1.161-8.938a11.1,11.1,0,0,1-.119-5.246,10.453,10.453,0,0,0-.02-3.1,8.281,8.281,0,0,1,7.978-8.94c.726-.04,1.45-.1,2.175-.146q94.641-6.324,189.279-12.645c.829-.056,1.658-.112,2.487-.162,4.761-.282,7.972,2.665,8.834,7.053.378,1.923.471,3.889.927,5.823.321,1.361-.043,2.877-.04,4.323.011,4.248.072,8.5.071,12.746,0,1.819-.3,2.07-2.2,2.2l-102.565,6.852A.086.086,0,0,0,482.062,1245.706Z" transform="translate(-374.873 -1152.662)" fill="#e383d4"/><path d="M873.218,906.3c-6.916.494-12.744-1.992-17.849-6.5a20.762,20.762,0,0,1-6.418-9.349,11.317,11.317,0,0,1-.592-4.279A4.233,4.233,0,0,1,851.885,882a55.441,55.441,0,0,1,9.518-1.31,43.668,43.668,0,0,0,7.7-.9,12.937,12.937,0,0,1,4.63-.3,42.781,42.781,0,0,0,7.438-.115,58.053,58.053,0,0,1,9.607-.006c2.736.3,4.033,1.57,4.429,4.307a15.154,15.154,0,0,1-2.231,9.817,25.37,25.37,0,0,1-15.758,12.241A23.777,23.777,0,0,1,873.218,906.3Z" transform="translate(-770.208 -879.16)" fill="#e383d4"/></g><g transform="translate(20.668)"><path d="M487.146,1324.308q50.181-3.353,100.365-6.7c1.137-.075,2.279-.136,3.419-.144a1.224,1.224,0,0,1,1.268,1.129,7.084,7.084,0,0,1,.186,1.852,85.589,85.589,0,0,0-.038,8.7c0,1.825-.3,2.08-2.19,2.2q-100.675,6.709-201.351,13.414c-1.45.1-2.9.247-4.347.318-.961.048-1.434-.279-1.578-1.127a77.107,77.107,0,0,1-1.391-10.468c-.053-1.666.262-2.024,1.878-2.216,1.03-.124,2.07-.164,3.105-.234Q436.809,1327.67,487.146,1324.308Z" transform="translate(-381.482 -1111.09)" fill="#d901ab"/><path d="M790.29,102.68a50.8,50.8,0,0,1,2.555-18.422,26.946,26.946,0,0,1,9.622-13.437,18.784,18.784,0,0,1,10.349-3.8,36.65,36.65,0,0,1,5.585-.151c6.493.726,11.423,4.121,15.4,9.048a37.5,37.5,0,0,1,7,15.124c.771,3.212,1.137,6.522,1.645,9.795.2,1.268-.5,1.966-1.82,1.8-1.952-.244-3.886-.635-5.841-.847a2.369,2.369,0,0,1-2.254-2.15,48.649,48.649,0,0,0-3.094-9.76,23.833,23.833,0,0,0-7-8.995,12.22,12.22,0,0,0-6.888-2.566,9.613,9.613,0,0,0-6.112,1.942c-3.577,2.444-5.677,5.975-7.193,9.907a32.023,32.023,0,0,0-1.946,8.458c-.1,1.03-.341,2.048-.4,3.079a2.485,2.485,0,0,1-1.988,2.452c-1.988.584-3.965,1.206-5.965,1.745-1.215.327-1.666-.093-1.677-1.419C790.268,103.657,790.288,102.826,790.29,102.68Z" transform="translate(-722.818 -66.797)" fill="#d901ab"/><path d="M897.049,951.507a42.535,42.535,0,0,1,15.68,1.442A25.222,25.222,0,0,1,915.648,954c1.491.653,1.612,1.2.672,2.612a7.7,7.7,0,0,1-.565.742c-5.308,6.142-11.91,9.636-20.139,9.29a23.479,23.479,0,0,1-15.073-6.584c-.535-.489-1.063-.988-1.561-1.514-.751-.792-.687-1.448.3-1.993a37.068,37.068,0,0,1,9.183-3.733A46.628,46.628,0,0,1,897.049,951.507Z" transform="translate(-796.465 -805.384)" fill="#d901ab"/></g><g transform="translate(21.832 36.132)"><path d="M491.036,442.527q-45.527,3.043-91.052,6.081a14.345,14.345,0,0,1-4.646-.111,1.733,1.733,0,0,1-1.5-1.349c-.241-1.113-.568-2.21-.784-3.327q-1.382-7.168-2.708-14.348a30.646,30.646,0,0,1-.372-3.4c-.485-7.041-1.115-14.078-1.377-21.129a133.787,133.787,0,0,1,1.1-20.467,143.472,143.472,0,0,1,6.136-27.912,116,116,0,0,1,18.063-34.582,93.455,93.455,0,0,1,22.559-21.211,84.969,84.969,0,0,1,23.835-11.25c.874-.25,1.831-.834,2.6.079.64.763.044,1.572-.221,2.338a73.391,73.391,0,0,0-3.545,17.016,67.642,67.642,0,0,0-.37,12.722,39.09,39.09,0,0,0,1.27,6.079A7.288,7.288,0,0,0,461.8,331a2.945,2.945,0,0,0,4.164.55,9.758,9.758,0,0,0,3.19-3.34,39.035,39.035,0,0,0,4.443-10.578,90.267,90.267,0,0,0,3.243-18.353c.2-2.681.2-5.383.169-8.074a23.861,23.861,0,0,0-.555-3.045,1.582,1.582,0,0,1,1.439-2.012c1.956-.216,3.927-.317,5.895-.378a1.269,1.269,0,0,1,1.284,1.138,10.42,10.42,0,0,1,.183,1.543c.282,8.607,2.507,16.787,5.476,24.8a59.531,59.531,0,0,0,6.187,11.838,14.412,14.412,0,0,0,3.5,3.51c2.543,1.92,4.83.627,5.783-1.677a14.178,14.178,0,0,0,1.036-5.783,68.79,68.79,0,0,0-3.089-19.6,72.364,72.364,0,0,0-4.4-11.626,8.63,8.63,0,0,1-.567-1.445c-.366-1.188.114-1.865,1.309-1.78a27.325,27.325,0,0,1,3.085.391,88.967,88.967,0,0,1,35.8,15.217,105.389,105.389,0,0,1,26.267,27.133,131.9,131.9,0,0,1,16.432,34.766,171.518,171.518,0,0,1,4.473,18.416,165.942,165.942,0,0,1,2.88,28.745,186.3,186.3,0,0,1-.64,18.937q-.13,1.549-.257,3.1c-.144,1.775-.355,2.12-2.135,2.54a22.713,22.713,0,0,1-3.693.471Q536.872,439.472,491.036,442.527Zm-1.574-30.451a20.189,20.189,0,0,0,11.449-3.6,29.377,29.377,0,0,0,3.695-2.843,24.127,24.127,0,0,0,8.188-14.944,9.551,9.551,0,0,0-.584-4.864,4.715,4.715,0,0,0-3.672-3.005,19.4,19.4,0,0,0-4.012-.362c-4.137-.01-8.278,0-12.414.111a194.838,194.838,0,0,0-22.556,2.264,17.063,17.063,0,0,0-2.7.717,5.7,5.7,0,0,0-3.93,6.594,18.92,18.92,0,0,0,2.158,6.453C470.629,407.794,478.607,412.571,489.462,412.076Zm-38.5-35.439c-.125-2.686-3.018-5.332-5.626-5.145a5.866,5.866,0,0,0-5.294,5.839,5.471,5.471,0,0,0,10.919-.694Zm71.591-4.853a5.236,5.236,0,0,0,5.5,5.122,5.366,5.366,0,0,0,5.061-5.863c-.095-2.758-2.471-5.1-6-4.922C525.053,366.228,522.032,368.617,522.553,371.784Z" transform="translate(-388.535 -285.768)" fill="#e48a21"/><path d="M502.591,1497.976q-25.635,1.712-51.269,3.43c-11.6.789-23.207,1.469-34.784,2.507-7.573.678-14.664-5.47-15.512-12.67-.423-3.6-.7-7.237-1.379-10.778-.818-4.287-.726-8.681-1.817-12.919a23.147,23.147,0,0,1-.353-3.4c-.462-4.533-1.133-9.046-1.692-13.567-.8-6.472-1.908-12.908-2.492-19.41-.065-.715-.341-1.408-.47-2.12-.291-1.606.2-2.277,1.9-2.519.82-.117,1.654-.144,2.483-.2q15.069-1.01,30.139-2.014,64.63-4.318,129.262-8.635c1.036-.069,2.072-.17,3.108-.178,1.663-.014,2.226.428,2.041,1.968-.6,5,.138,9.946.4,14.91a37.507,37.507,0,0,0,3.109,12.308,11.779,11.779,0,0,0,2.386,3.616,4.039,4.039,0,0,0,6.075.072,11.968,11.968,0,0,0,2.691-4.508,45.831,45.831,0,0,0,2.431-12.786,77,77,0,0,0-.326-13.35c-.321-3.371-.173-3.49,3.214-3.727,5.489-.385,10.978-.738,16.468-1.1.311-.021.622-.05.933-.055,2.035-.027,2.478.273,2.532,2.219a39.55,39.55,0,0,1,.024,6.835,22.345,22.345,0,0,0,.063,3.416c.071,4.869.3,9.744.136,14.606-.1,3.013.229,6.02.021,9-.311,4.458.385,8.905-.088,13.355a30.164,30.164,0,0,0,.107,3.419c.035,3.935.12,7.872.054,11.807a14.761,14.761,0,0,1-6.883,12.872,12.1,12.1,0,0,1-6.123,1.977q-16.785.991-33.564,2.1Q529,1496.185,502.591,1497.976Z" transform="translate(-392.051 -1226.863)" fill="#e48a21"/></g><g transform="translate(21.778 36.123)"><path d="M626.425,1642.315c-.037,1.955-.063,4.336-.135,6.714-.031,1-.637,1.462-1.672,1.307a12.346,12.346,0,0,1-4.4-1.495c-1.259-.726-2.513-1.462-3.8-2.144-3.164-1.679-6.325-1.833-9.444.128-1.054.662-2.106,1.326-3.132,2.03-6.851,4.7-14,5.256-21.476,1.6a20.4,20.4,0,0,0-5.534-2.014,5.992,5.992,0,0,0-3.927.467c-1.1.573-2.207,1.15-3.249,1.82-1.309.84-2.516,1.839-3.836,2.657a17.142,17.142,0,0,1-10.056,2.535,20.733,20.733,0,0,1-9.734-2.9c-.18-.106-.367-.2-.547-.3a9.624,9.624,0,0,0-10.84.491c-1.208.805-2.418,1.616-3.688,2.317a42.4,42.4,0,0,1-4.189,2.037,13.957,13.957,0,0,1-10.049.234,32.169,32.169,0,0,1-7.991-3.413c-2.6-1.75-5.476-1.8-8.393-1.167a15.015,15.015,0,0,0-4.753,2.256c-1.665,1.054-3.33,2.112-5.031,3.11a14.7,14.7,0,0,1-12.583,1.265,29.43,29.43,0,0,1-5.435-2.306c-4.222-2.407-8.161-2.25-12.19.64a25.436,25.436,0,0,1-9,4.118,18.337,18.337,0,0,1-12.951-1.732c-1.572-.8-3.117-1.644-4.674-2.471a6.68,6.68,0,0,0-6.56.167,5.972,5.972,0,0,0-.547.3c-2.444,1.613-3.3,1.615-3.566-1.834a27.056,27.056,0,0,0-.707-4.915,15.427,15.427,0,0,1-.326-3.4c-.041-1.241.245-1.645,1.46-2.069a17.067,17.067,0,0,1,14.7,1.3c1.1.584,2.154,1.255,3.263,1.817a9.435,9.435,0,0,0,8.1.622,36.369,36.369,0,0,0,5.646-2.593c1.416-.866,2.855-1.7,4.317-2.484a11.191,11.191,0,0,1,8.143-1.05,42.539,42.539,0,0,1,7.956,2.66,18.961,18.961,0,0,0,5.315,1.7,6.5,6.5,0,0,0,3.353-.322,23.922,23.922,0,0,0,4.987-2.51,48.215,48.215,0,0,1,4.806-2.872,17.634,17.634,0,0,1,13.872-1.238,31.6,31.6,0,0,1,5.756,2.338c1.365.733,2.853,1.238,4.269,1.882a9.014,9.014,0,0,0,8.374-.439c1.647-.877,3.254-1.836,4.849-2.8a27.991,27.991,0,0,1,5.964-2.62,11.332,11.332,0,0,1,7.911.315c2.027.8,4.016,1.7,6.038,2.508a14.254,14.254,0,0,0,5.132,1.143,12.713,12.713,0,0,0,8.395-2.757,25.289,25.289,0,0,1,5.844-3.523,15.566,15.566,0,0,1,10.342-.789,50.816,50.816,0,0,1,6.439,2.314,9.957,9.957,0,0,0,10.861-1.047,27.868,27.868,0,0,1,5.935-3.382c5.109-1.985,10.108-1.96,14.991.771a45.711,45.711,0,0,0,5.282,2.637c1.479.592,2.187,1.45,2.018,3.031A10.3,10.3,0,0,0,626.425,1642.315Z" transform="translate(-416.438 -1410.787)" fill="#e8a141"/><path d="M436.189,1760.493c-.063-.932-.135-1.862-.184-2.794a1.741,1.741,0,0,1,1.26-1.9,15.148,15.148,0,0,1,7.36-.68,17.682,17.682,0,0,1,6.414,2.276,45.411,45.411,0,0,0,4.726,2.364,8.535,8.535,0,0,0,6.364.2,33.3,33.3,0,0,0,6.441-3.072,24.425,24.425,0,0,1,6.4-3.141,10.313,10.313,0,0,1,3.991-.3,26.266,26.266,0,0,1,7.447,2.149,35.719,35.719,0,0,0,6.432,2.317,8.1,8.1,0,0,0,5.169-.422,48.082,48.082,0,0,0,5.692-3.2,27.377,27.377,0,0,1,7.551-3.573,15.779,15.779,0,0,1,6.462-.3,29.5,29.5,0,0,1,7.394,2.325c1.98.909,3.983,1.769,5.985,2.627a8.717,8.717,0,0,0,8.083-.476c1.717-.965,3.456-1.908,5.107-2.979a24.1,24.1,0,0,1,7.821-2.941,6.434,6.434,0,0,1,2.781.069,25.047,25.047,0,0,1,4.769,1.4c1.339.563,2.678,1.131,4.022,1.679,5.112,2.086,9.909,1.672,14.372-1.74a28.151,28.151,0,0,1,3.661-2.351,15.864,15.864,0,0,1,12.322-1.522,44.59,44.59,0,0,1,6.448,2.279,9.692,9.692,0,0,0,9.779-.688c1.227-.778,2.439-1.578,3.662-2.361a18.747,18.747,0,0,1,11.272-2.872,12.752,12.752,0,0,1,3.328.741,50.8,50.8,0,0,1,8.353,4.141,1.88,1.88,0,0,1,1.045,1.458,19.716,19.716,0,0,1-.551,8.624c-.576,1.764-1.317,2.083-3.076,1.269a44.845,44.845,0,0,1-4.4-2.319c-3.821-2.311-7.506-1.88-11.137.409-1.666,1.051-3.3,2.165-4.989,3.169a12.405,12.405,0,0,1-5.89,1.819c-1.14.045-2.28.111-3.416.221a13.7,13.7,0,0,1-6.977-1.2c-1.517-.672-3-1.411-4.509-2.109a8.852,8.852,0,0,0-9.665.871c-1.163.869-2.381,1.663-3.558,2.514a17.569,17.569,0,0,1-8.972,3.23,18.457,18.457,0,0,1-8.528-1.378c-1.052-.435-2.056-.986-3.082-1.485-.839-.407-1.661-.851-2.519-1.217a7.868,7.868,0,0,0-7.462.436c-1.786,1.056-3.573,2.111-5.343,3.2a20.863,20.863,0,0,1-5.361,2.445,14.33,14.33,0,0,1-7.376.242,32.09,32.09,0,0,1-9.232-3.637c-3.965-2.43-7.876-2.2-11.792-.008-1.72.962-3.369,2.049-5.059,3.064-.887.534-1.78,1.06-2.693,1.546a12.81,12.81,0,0,1-10.813.811c-2.728-.993-5.456-2.011-8.1-3.2a8.4,8.4,0,0,0-8.56.613,36.183,36.183,0,0,1-9.794,4.673,17.648,17.648,0,0,1-13.56-1.419c-1-.54-1.984-1.129-2.969-1.706a9.664,9.664,0,0,0-8.681-.6c-.291.109-.56.278-.855.372-.822.266-1.516-.05-1.623-.914C437.083,1765.175,436.145,1762.913,436.189,1760.493Z" transform="translate(-428.114 -1502.405)" fill="#e8a141"/><path d="M392.573,993.215c-.1-1.554-.216-3.106-.309-4.66a1.737,1.737,0,0,1,1.324-1.854,13.436,13.436,0,0,1,9.149.162,18.617,18.617,0,0,1,4.758,2.293c4.573,3.116,9.158,2.7,13.771.148,1.271-.7,2.553-1.4,3.753-2.215,4.72-3.207,9.7-3.19,14.846-1.286,1.458.54,2.872,1.2,4.311,1.8.671.278,1.352.532,2.03.792a9.6,9.6,0,0,0,8.663-.717c1.7-.994,3.376-2.043,5.091-3.015a39.25,39.25,0,0,1,3.864-2,15.808,15.808,0,0,1,14.642.781,29.7,29.7,0,0,0,9.926,3.5,4.639,4.639,0,0,0,1.533.192c4.035-.819,8.286-.725,12.015-2.872a26.072,26.072,0,0,0,4.359-2.983,5.235,5.235,0,0,1,5.5-1.108c1.374.46,2.729.985,4.075,1.525,1.253.5,2.478,1.07,3.719,1.6a12.125,12.125,0,0,0,12.638-1.429,27.2,27.2,0,0,1,7.855-4.336c4.011-1.241,7.8-.534,11.58.741a38.729,38.729,0,0,1,4.6,1.9,7.648,7.648,0,0,0,7.43-.228,27.485,27.485,0,0,0,3.741-2.218,20.478,20.478,0,0,1,7.609-3.44,16.069,16.069,0,0,1,10.919,1.23c1.69.787,3.288,1.772,4.944,2.633a2.376,2.376,0,0,1,1.435,2.219c0,3.1.542,6.209,0,9.315-.159.921-.548,1.209-1.5,1.007a10.28,10.28,0,0,1-2.867-1.177c-1.45-.808-2.93-1.56-4.379-2.372a7.96,7.96,0,0,0-8.288.159c-1.531.868-2.979,1.883-4.455,2.85a19.894,19.894,0,0,1-16.986,2.462,23.016,23.016,0,0,1-4.852-2.072c-4.245-2.341-8.13-1.849-11.835,1.148a33.861,33.861,0,0,1-3.063,2.138,16.612,16.612,0,0,1-9.989,2.789,26.16,26.16,0,0,1-10.44-2.675c-5.9-2.869-6.584-2.577-11.841.494a58.833,58.833,0,0,1-6.82,3.732,14.91,14.91,0,0,1-10.346.4,37.934,37.934,0,0,1-8.312-3.469c-3.788-2.2-7.554-1.88-11.284.027a29.252,29.252,0,0,0-4.207,2.656c-5.589,4.2-11.488,4.873-17.822,1.838-1.964-.94-4.019-1.687-6.014-2.564a6.385,6.385,0,0,0-6.233.338c-1.866,1.127-3.783,2.17-5.636,3.315a20.052,20.052,0,0,1-7.9,2.7,16.573,16.573,0,0,1-10.276-1.647c-1.281-.685-2.578-1.344-3.83-2.078-2.548-1.5-5.176-2.077-8.015-.895a5.2,5.2,0,0,1-.9.253c-.782.165-1.262-.091-1.337-.855-.16-1.652-.236-3.311-.346-4.968Z" transform="translate(-391.591 -860.278)" fill="#e8a141"/><path d="M403.3,1100.174c-.3-2.848-.6-3.828,3.217-4.257a15.676,15.676,0,0,1,9,1.924c1.57.805,3.1,1.686,4.693,2.444a9.114,9.114,0,0,0,7.529.487,30.951,30.951,0,0,0,4.541-2.016c.986-.576,1.986-1.131,2.947-1.745,4.866-3.113,9.97-3.118,15.211-1.161,1.943.727,3.864,1.516,5.776,2.321a9.359,9.359,0,0,0,8.94-.624c1.956-1.18,3.926-2.335,5.885-3.507a18.525,18.525,0,0,1,17.313-1.22c1.731.7,3.422,1.5,5.132,2.255.189.085.376.176.557.278,4.471,2.481,8.749,1.923,12.9-.8q1.822-1.2,3.679-2.335a19.839,19.839,0,0,1,6.1-2.295c3.079-.691,5.969.17,8.769,1.381,1.523.659,2.968,1.531,4.533,2.054,4.347,1.45,8.543,1.408,12.394-1.546a40.407,40.407,0,0,1,4.181-2.7,16.278,16.278,0,0,1,13.48-1.522,54.808,54.808,0,0,1,6.69,2.534,7.655,7.655,0,0,0,7.7-.5c1.41-.877,2.83-1.735,4.24-2.611,6.121-3.807,12.38-4.508,18.838-.85a6.113,6.113,0,0,0,1.087.6c2.258.727,2.986,2.3,2.731,4.559-.281,2.47-.422,4.955-.7,7.428-.115,1.046-.805,1.4-1.794.943a32.485,32.485,0,0,1-3.562-1.913c-3.9-2.446-7.67-2.042-11.384.39-.956.625-1.916,1.244-2.851,1.9-4.735,3.308-10.007,3.691-15.5,2.858a15.436,15.436,0,0,1-5.505-2.088c-4.445-2.62-8.624-2.447-12.653.839a25.847,25.847,0,0,1-2.537,1.8c-3.995,2.521-8.255,3.8-13.036,2.915a28.238,28.238,0,0,1-7.364-2.357c-6.339-3.093-6.926-2.943-12.662.462-1.072.637-2.146,1.269-3.194,1.943a16.355,16.355,0,0,1-9.127,2.675,12.965,12.965,0,0,1-3.989-.525,41,41,0,0,1-8.64-3.493,10.783,10.783,0,0,0-8.077-1.4,15.682,15.682,0,0,0-4.789,2.174c-1.418.863-2.794,1.8-4.213,2.661a32.669,32.669,0,0,1-2.992,1.663,12.032,12.032,0,0,1-8.765.893,75.225,75.225,0,0,1-7.568-2.85c-5.686-2.311-5.617-3.35-12.359.8a29.234,29.234,0,0,1-8.457,3.861,17.934,17.934,0,0,1-12.973-1.539c-1.1-.581-2.2-1.177-3.247-1.847a7.834,7.834,0,0,0-5.347-1.215c-.411.05-.827.083-1.242.093-1.6.038-2.058-.272-2.368-1.814C404.014,1104.348,403.642,1102.1,403.3,1100.174Z" transform="translate(-400.669 -952.075)" fill="#e8a141"/><path d="M600.953,659.3c-.146.388-.406.654-.7.539a17.884,17.884,0,0,1-2.244-1.052,8.724,8.724,0,0,0-9.439.38c-.707.436-1.4.9-2.091,1.35-.782.507-1.555,1.034-2.352,1.519-6.184,3.754-12.55,3.813-19.054.916-1.042-.464-2.077-.946-3.119-1.411a9.435,9.435,0,0,0-9.994,1.09c-.84.608-1.724,1.156-2.556,1.775-6.544,4.862-13.471,4.647-20.608,1.557-1.142-.494-2.239-1.089-3.368-1.615a7.874,7.874,0,0,0-7.734.438c-1.878,1.106-3.744,2.232-5.619,3.344a16.272,16.272,0,0,1-14.614,1.458,50.653,50.653,0,0,1-7.442-3.137,9.859,9.859,0,0,0-9.822-.387,41.22,41.22,0,0,0-4.068,2.274c-1.644,1.084-3.33,2.109-5.028,3.108a4.338,4.338,0,0,1-3.584.587,4.153,4.153,0,0,0-3.021.276,5.33,5.33,0,0,1-3.648.053,37.685,37.685,0,0,1-7.806-3.079,9.123,9.123,0,0,0-10.224.7c-1.023.7-2.164,1.232-3.227,1.883a21.935,21.935,0,0,1-12.209,3.049,16.778,16.778,0,0,1-7.653-2.383,27.807,27.807,0,0,0-5.3-2.6c-1.041-.308-1.236-.759-.946-1.939q1.037-4.231,2.206-8.429c.3-1.084.888-1.379,1.875-.916,1.595.747,3.148,1.588,4.688,2.444a12.146,12.146,0,0,0,8.393,1.525,14.62,14.62,0,0,0,4.608-1.823c1.616-.938,3.21-1.913,4.81-2.877a13.824,13.824,0,0,1,11.091-1.472,39.374,39.374,0,0,1,5.85,2.109,22.32,22.32,0,0,0,4.679,1.676,9.587,9.587,0,0,0,6.929-.946c1.882-1.1,3.784-2.171,5.607-3.361,6.588-4.3,13.3-3.926,20.121-.651,1.87.9,3.749,1.788,5.673,2.556a9.5,9.5,0,0,0,8.4-.547c1.729-.948,3.414-1.976,5.087-3.02a23.743,23.743,0,0,1,6.605-2.665,11.027,11.027,0,0,1,5.225-.034,23.835,23.835,0,0,1,4.7,1.618c1.615.712,3.228,1.427,4.877,2.054a10.619,10.619,0,0,0,9.841-.94,34.132,34.132,0,0,0,2.814-1.945,18.342,18.342,0,0,1,11.553-3.947,21.466,21.466,0,0,1,7.247,1.616c1.462.526,2.887,1.166,4.312,1.79a7.642,7.642,0,0,0,6.334-.075,20.352,20.352,0,0,0,4.317-2.463,19.013,19.013,0,0,1,11.925-3.8,2.8,2.8,0,0,1,2.944,1.774q1.766,4.152,3.5,8.316c.4.957.755,1.932,1.1,2.909A4.476,4.476,0,0,1,600.953,659.3Z" transform="translate(-409.213 -586.102)" fill="#e8a141"/><path d="M543.266,757.843c3.336-.407,6.475.7,9.6,1.833,1.171.423,2.311.932,3.451,1.43a7.93,7.93,0,0,0,7.463-.47c1.533-.874,3.081-1.738,4.524-2.747,3.578-2.5,7.609-3.17,11.838-3.1,2.582.045,4.789,1.252,6.992,2.41a2.948,2.948,0,0,1,1.262,2.075c.97,3.709,2.018,7.4,2.646,11.188.127.759-.372,1.1-1.177.834a19.373,19.373,0,0,1-4.744-2.317c-4.16-2.83-8.132-2.422-12.111.4a29.325,29.325,0,0,1-6.743,3.85,19.643,19.643,0,0,1-13.721-.111c-1.361-.489-2.648-1.188-3.983-1.758a27.206,27.206,0,0,0-2.893-1.114,7.2,7.2,0,0,0-6,.691c-1.506.914-3.031,1.819-4.437,2.874-4.626,3.47-9.79,4.285-15.348,3.249a5.438,5.438,0,0,1-2.351-.736c-2.2-1.759-4.945-2.057-7.454-2.975a6.144,6.144,0,0,0-4.279-.154,22.547,22.547,0,0,1-7.376.951c-5.195.138-10.352.723-15.526,1.1a9.614,9.614,0,0,0-1.83.337,9.177,9.177,0,0,1-6.65-.391,9.629,9.629,0,0,0-9.242.675c-2.521,1.443-4.992,2.975-7.482,4.474a13.8,13.8,0,0,1-8.029,2.013,15.7,15.7,0,0,1-5.116-1.251c-2.209-.906-4.452-1.745-6.6-2.782a8.246,8.246,0,0,0-8.562.5c-1.843,1.161-3.751,2.221-5.658,3.276-4.09,2.264-8.513,2.418-13.01,1.928a9.5,9.5,0,0,1-3.525-1.179c-1.091-.6-2.235-1.108-3.292-1.761a11.207,11.207,0,0,0-7.653-2.008c-1.162.162-1.525-.258-1.4-1.442.311-2.885.645-5.772,1.083-8.64.254-1.669.844-2.075,2.536-2.089a11.362,11.362,0,0,1,5.1,1.215c1.491.726,2.971,1.488,4.4,2.32a11.936,11.936,0,0,0,11.336.561,21.583,21.583,0,0,0,4.633-2.53,19.644,19.644,0,0,1,5.268-2.632,9.744,9.744,0,0,1,4.908-.488,30.679,30.679,0,0,1,10,3.305,2.786,2.786,0,0,1,1.3,1.278,13.129,13.129,0,0,0,.687,1.4,5.278,5.278,0,0,0,4.942,2.675,5.387,5.387,0,0,0,4.637-3.191,1.932,1.932,0,0,0,.333-.864c-.034-2.393,1.659-3.376,3.416-4.384a23.423,23.423,0,0,1,8.336-3.3,18.9,18.9,0,0,1,9.752,1.378c2.025.8,4.014,1.708,5.954,2.693a11.829,11.829,0,0,0,12.153-.4c1.157-.691,2.275-1.448,3.422-2.157,5.512-3.408,11.172-4.254,17.087-1.014,1,.547,2.059.986,3.1,1.442a12.227,12.227,0,0,0,6.366,1.11c1.32-.154,2.458-.064,3.249,1.213a5,5,0,0,0,2,1.429c3.141,1.806,8.18-1.057,7.471-5.3-.1-.613-.194-1.228-.319-1.836-.327-1.584-.258-1.682,1.193-2.272A12.47,12.47,0,0,1,543.266,757.843Z" transform="translate(-393.74 -677.387)" fill="#e8a141"/><path d="M597.11,562.013a22.988,22.988,0,0,1-9.036-1.655c-1.618-.7-3.227-1.432-4.862-2.093a8.615,8.615,0,0,0-8.063.592c-1.772,1.074-3.459,2.292-5.2,3.414-5.51,3.55-11.318,3.626-17.284,1.389-1.748-.654-3.443-1.453-5.135-2.244a8.232,8.232,0,0,0-7.5.123,41.048,41.048,0,0,0-4.563,2.664,18.6,18.6,0,0,1-10.5,3.4,11.028,11.028,0,0,1-3.689-.444c-2.939-1.005-5.974-1.778-8.648-3.451a10.566,10.566,0,0,0-11.769-.05q-2.14,1.27-4.215,2.649a38.358,38.358,0,0,1-4.052,2.307,12.747,12.747,0,0,1-10.28.555,55.969,55.969,0,0,1-7.523-2.959c-3.558-1.849-6.706-1.462-9.944.715a36.932,36.932,0,0,1-6.034,3.217c-5.4,2.322-10.844,2.64-16.23-.133-1.59-.818-1.741-1.045-1.163-2.652.843-2.341,1.736-4.667,2.705-6.956.6-1.416.988-1.632,2.41-1.171,4.093,1.331,7.77.321,11.3-1.782,1.6-.958,3.2-1.929,4.815-2.871a13.285,13.285,0,0,1,10.528-1.116c1.9.51,3.715,1.307,5.558,2,.97.367,1.911.813,2.876,1.193a10.4,10.4,0,0,0,9.568-.713c1.248-.741,2.46-1.544,3.686-2.322,3.558-2.258,7.294-3.868,11.647-3.842a20.946,20.946,0,0,1,6.993,1.3,40.938,40.938,0,0,1,4.261,1.9,28.105,28.105,0,0,0,5.474,2.21,9.158,9.158,0,0,0,6.937-.782c1.631-.909,3.232-1.873,4.824-2.85a30.846,30.846,0,0,1,5.9-2.773,11.67,11.67,0,0,1,8.216.24c1.75.651,3.441,1.453,5.162,2.183a26.382,26.382,0,0,0,4.407,1.5,9.487,9.487,0,0,0,7.189-1.115c1.251-.734,2.445-1.564,3.66-2.359a21.378,21.378,0,0,1,7.861-3.589,17.408,17.408,0,0,1,9.17.706,46.177,46.177,0,0,1,4.9,2c3.542,1.743,6.825,1.256,9.994-.893,1.2-.816,2.414-1.618,3.641-2.393a14.68,14.68,0,0,1,1.915-1.036,1.648,1.648,0,0,1,2.407.69,64.779,64.779,0,0,1,5.051,8.211c.452.858.279,1.381-.633,1.732a38.792,38.792,0,0,0-7.317,4.087A20.732,20.732,0,0,1,597.11,562.013Z" transform="translate(-432.381 -501.19)" fill="#e8a141"/><path d="M414.914,1550.82a13.694,13.694,0,0,1,7.79,1.35,42.751,42.751,0,0,1,4.128,2.178c3.492,2.179,7.1,2.043,10.739.579a48.628,48.628,0,0,0,4.4-2.317c1.65-.871,3.275-1.8,4.97-2.574a11.007,11.007,0,0,1,6.394-.779,27.949,27.949,0,0,1,6.564,1.883c1.532.638,3.044,1.348,4.62,1.855a10.739,10.739,0,0,0,9.284-.964c1.859-1.137,3.758-2.21,5.623-3.337,5.472-3.31,11.17-3.515,17.03-1.227,1.543.6,3.045,1.323,4.53,2.064a39.91,39.91,0,0,0,4.323,1.74,8.819,8.819,0,0,0,6.644-.324,37.459,37.459,0,0,0,5.2-2.8,25.276,25.276,0,0,1,6.156-2.944,12.909,12.909,0,0,1,8.542.232c1.35.528,2.681,1.124,3.974,1.782a18.386,18.386,0,0,0,5.619,1.777,10.44,10.44,0,0,0,7.5-1.318c1.3-.848,2.6-1.706,3.9-2.558a19.227,19.227,0,0,1,9.506-3.552,17.037,17.037,0,0,1,5.841.7c1.589.473,3.133,1.1,4.7,1.639a3.773,3.773,0,0,1,2.625,2.809c.386,1.5.941,2.964,1.47,4.424a12.147,12.147,0,0,0,3.6,5.361c.316.263.715.532.592,1-.17.645-.794.55-1.275.6a16.692,16.692,0,0,1-8.249-1.071c-1.443-.582-2.853-1.251-4.3-1.826-1.153-.459-2.332-.861-3.514-1.241a6,6,0,0,0-4.25.308,24.285,24.285,0,0,0-4.323,2.452c-.773.523-1.512,1.1-2.3,1.6-6.158,3.889-12.507,3.867-18.988.892-1.414-.649-2.811-1.339-4.237-1.96a7.483,7.483,0,0,0-6.049.061,28.431,28.431,0,0,0-5.375,3.114,22.275,22.275,0,0,1-6.451,3.022,12.945,12.945,0,0,1-7.058.2,34.473,34.473,0,0,1-9.243-3.64,10.768,10.768,0,0,0-12.017-.045c-1.151.7-2.291,1.426-3.432,2.142s-2.253,1.488-3.427,2.149a14.262,14.262,0,0,1-12.311.977c-1.855-.666-3.659-1.472-5.471-2.252-6.278-2.7-6.332-2.681-12.1.729-1.694,1-3.474,1.859-5.217,2.779a16.561,16.561,0,0,1-6.58,1.727,17.447,17.447,0,0,1-10.46-2.361c-1.331-.8-2.692-1.564-4.083-2.256a7.19,7.19,0,0,0-6.88.032c-1.009.531-1.989,1.116-2.977,1.687-1.3.75-1.788.509-2.029-1.021-.048-.308-.046-.622-.093-.93-.4-2.66-.345-5.372-1.059-8.008-.45-1.663.109-2.479,1.674-3.214A14.558,14.558,0,0,1,414.914,1550.82Z" transform="translate(-404.136 -1334.314)" fill="#e8a141"/><path d="M562.676,1441.759c.111,1.657.274,3.311.316,4.97.032,1.285-.508,1.685-1.733,1.442a16.235,16.235,0,0,1-4.651-1.722,19.588,19.588,0,0,0-4.6-1.864,7.3,7.3,0,0,0-5.431.556,23.069,23.069,0,0,0-3.467,2.066,30.129,30.129,0,0,1-2.808,1.953c-5.993,3.655-12.165,3.6-18.445.81-1.517-.672-3-1.416-4.519-2.088a7.066,7.066,0,0,0-5.746,0,26.77,26.77,0,0,0-3.055,1.528c-1.709.978-3.364,2.054-5.08,3.023a14.749,14.749,0,0,1-12.857,1.259,55.237,55.237,0,0,1-8.293-3.512,9.732,9.732,0,0,0-10.615.119c-2.018,1.273-4.117,2.422-6.091,3.757a14.5,14.5,0,0,1-14.771,1.344c-2.476-1.071-4.985-2.064-7.452-3.154a6.049,6.049,0,0,0-5.94.362c-1.595.97-3.228,1.878-4.825,2.845a23.228,23.228,0,0,1-9.629,3.337,16.668,16.668,0,0,1-10.2-2.078c-1.349-.776-2.695-1.559-4.065-2.295a7.755,7.755,0,0,0-8.269.21c-1.058.656-2.12,1.307-3.21,1.905-.964.529-1.49.3-1.871-.8a8.714,8.714,0,0,1-.428-1.8c-.335-2.776-.625-5.558-.951-8.337a1.886,1.886,0,0,1,.829-1.876,5.873,5.873,0,0,1,3.151-1.206c2.9-.192,5.8-.4,8.7-.576a7.443,7.443,0,0,1,3.907.85c1.476.757,2.99,1.458,4.4,2.33a10.563,10.563,0,0,0,8.7.959,15.456,15.456,0,0,0,4.278-1.823c1.317-.828,2.7-1.549,4.016-2.378,4.09-2.58,8.411-2.691,12.849-1.176,1.862.637,3.683,1.411,5.476,2.226a12.023,12.023,0,0,0,12.148-.8c1.837-1.171,3.751-2.218,5.614-3.348a8.534,8.534,0,0,1,4.117-1.246c2.28-.106,4.56-.25,6.832-.459a8.916,8.916,0,0,1,4.545.77c2.085.928,4.171,1.851,6.253,2.784,2.389,1.071,4.8,1.9,7.507,1.489a16.279,16.279,0,0,0,6.509-2.816,32.071,32.071,0,0,1,5.172-2.832,14.091,14.091,0,0,1,11.764.037c1.512.683,3.039,1.337,4.569,1.982,4.785,2.014,9.293,1.669,13.48-1.57.9-.7,1.884-1.283,2.843-1.9,6.471-4.155,13-3.3,19.545-.2a2.39,2.39,0,0,1,1.328,2.28c.09,1.552.2,3.1.308,4.656C562.775,1441.754,562.725,1441.755,562.676,1441.759Z" transform="translate(-393.021 -1243.01)" fill="#e8a141"/><path d="M1200.23,877.143c.058.864.074,1.28.116,1.693.247,2.474-.225,2.814-2.553,2.073a13.588,13.588,0,0,1-2.253-1.036c-1.188-.635-2.359-1.305-3.524-1.985-3.239-1.892-6.453-2.017-9.668.066-1.131.733-2.33,1.362-3.44,2.123-6.684,4.591-13.653,4.951-20.911,1.5-1.028-.489-2.1-.887-3.137-1.365a8.107,8.107,0,0,0-8.28.667c-1.479.957-2.928,1.96-4.4,2.928-5.973,3.926-12.249,3.967-18.716,1.435a8.313,8.313,0,0,1-1.379-.709,1.243,1.243,0,0,1-.536-1.852,27.223,27.223,0,0,0,3.124-8.737.888.888,0,0,1,1.185-.7c.7.184,1.362.494,2.045.733,3.73,1.3,7.324,1.214,10.7-1.068,1.116-.755,2.224-1.522,3.35-2.261,3.085-2.022,6.374-3.507,10.151-3.435a21.732,21.732,0,0,1,7.564,1.6c1.641.646,3.308,1.217,4.941,1.88a7.99,7.99,0,0,0,6.058-.133,14.3,14.3,0,0,0,3.265-1.783,27.5,27.5,0,0,1,5.108-2.946,16.749,16.749,0,0,1,15,.27c.738.379,1.437.839,2.192,1.174a4.965,4.965,0,0,1,3.244,4.808C1199.537,873.915,1200.374,875.695,1200.23,877.143Z" transform="translate(-1000.359 -768.734)" fill="#e8a141"/><path d="M447.324,932.462a17.5,17.5,0,0,1-8.529-1.637c-2.109-.855-4.181-1.8-6.265-2.723a6.026,6.026,0,0,0-5.674.128q-2.574,1.446-5.133,2.919a28.228,28.228,0,0,1-6.86,2.858,17.886,17.886,0,0,1-14.038-2.018,36.02,36.02,0,0,0-3.571-1.881c-2.147-.94-4.35-1.379-6.6-.263a4.491,4.491,0,0,1-1.189.348.856.856,0,0,1-1.083-.816,30.721,30.721,0,0,1-.171-3.412c.024-2.069.107-4.136.2-6.2.073-1.692.511-2.194,2.184-2.453a13.78,13.78,0,0,1,7.931.826c1.983.892,3.962,1.811,5.856,2.872,3.364,1.887,6.769,1.584,10.213.4a21.8,21.8,0,0,0,5.45-2.965c4.973-3.518,10.2-3.539,15.639-1.353,1.634.657,3.246,1.374,4.889,2.009a11.687,11.687,0,0,0,10.739-.888c1.686-1.013,3.312-2.128,5-3.14a15.137,15.137,0,0,1,5.168-2.062c.605-.1,1.082.143,1.071.773a19.168,19.168,0,0,0,2.575,9.168c.528,1.026.31,1.633-.766,1.873-3.436.771-6.23,2.75-9.061,4.665A14.659,14.659,0,0,1,447.324,932.462Z" transform="translate(-388.206 -809.479)" fill="#e8a141"/><path d="M502.585,476.231a13.766,13.766,0,0,1,7.216,1.147c1.629.677,3.286,1.289,4.886,2.027,4.5,2.078,8.654,1.333,12.631-1.389,1.538-1.052,3.125-2.046,4.755-2.947a18.672,18.672,0,0,1,3.43-1.445c1.5-.47,2.231-.011,2.351,1.5a54.967,54.967,0,0,0,1.09,8c.344,1.495.085,1.923-1.208,2.474a48.661,48.661,0,0,0-8.1,4.615,14.748,14.748,0,0,1-15.6,1.212c-1.872-.888-3.832-1.591-5.736-2.413a8.3,8.3,0,0,0-8.288.616,38.242,38.242,0,0,1-10.387,4.867,16.3,16.3,0,0,1-4.921.563c-1.029-.037-1.4-.749-.941-1.738a24.491,24.491,0,0,1,1.163-2.2c1.7-2.853,3.428-5.678,5.342-8.4a10.054,10.054,0,0,1,2.842-2.811c1.312-.832,2.646-1.636,4.007-2.386A11.121,11.121,0,0,1,502.585,476.231Z" transform="translate(-467.836 -442.469)" fill="#e8a141"/><path d="M1145.038,459.718a23.336,23.336,0,0,1-11.453-2.165c-.744-.364-1.464-.787-2.227-1.1a9.762,9.762,0,0,0-9.771.78c-1.886,1.276-3.744,2.619-5.736,3.716-5.622,3.093-11.349,2.638-17.056.194-.909-.39-1.127-.879-.725-1.737a17.024,17.024,0,0,0,1.389-8.8,3.746,3.746,0,0,1,.042-.928c.1-.588.462-.952,1.071-.8a11.367,11.367,0,0,1,1.745.645,12.591,12.591,0,0,0,13.69-1.769,27.809,27.809,0,0,1,3.372-2.218,16.227,16.227,0,0,1,14.049-1.342c1.37.475,2.7,1.059,4.049,1.6.866.347,1.719.728,2.595,1.046a6.607,6.607,0,0,0,4.854.24,1.938,1.938,0,0,1,2.3.351,72.779,72.779,0,0,1,6.427,7.579c.5.686.311,1.3-.465,1.841A18.459,18.459,0,0,1,1145.038,459.718Z" transform="translate(-980.773 -417.197)" fill="#e8a141"/><path d="M612.409,380.216a22.28,22.28,0,0,1-6.755-1.421c-2.213-.893-4.405-1.838-6.617-2.734-1.627-.659-3.231-1.441-5.083-1.11a.52.52,0,0,1-.409-.311.729.729,0,0,1,.163-.566c.851-.906,1.683-1.839,2.608-2.665,1.7-1.519,3.5-2.926,5.185-4.468a3.232,3.232,0,0,1,3.963-.662,20.827,20.827,0,0,0,2.932,1.006,8.664,8.664,0,0,0,7.173-1.028c2.057-1.208,4.132-2.393,6.139-3.68a23.536,23.536,0,0,1,7.56-2.749,3.753,3.753,0,0,1,1.235-.047,1.121,1.121,0,0,1,1.15,1.2,6.338,6.338,0,0,1-.062.93c-.434,2.765-.9,5.524-1.3,8.294a2.63,2.63,0,0,1-1.792,2.292,35.554,35.554,0,0,0-6.8,3.746,22.144,22.144,0,0,1-7.555,3.573C613.543,379.946,612.94,380.092,612.409,380.216Z" transform="translate(-559.655 -347.534)" fill="#e8a141"/><path d="M1114.142,354.424a13.949,13.949,0,0,0-5.33,2.1c-1.222.778-2.378,1.663-3.576,2.484a18.476,18.476,0,0,1-15.419,2.755,2.993,2.993,0,0,1-2.688-2.534,87.085,87.085,0,0,0-2.947-11.419c-.261-.757.274-1.3.976-1.023,1.251.5,2.47,1.071,3.7,1.613a15.644,15.644,0,0,0,6.3,1.507,11.954,11.954,0,0,0,7.271-2.325c1.421-1.034,2.954-1.918,4.436-2.869a2.44,2.44,0,0,1,2.638-.173,84.7,84.7,0,0,1,18.8,13.146.967.967,0,0,1,.276.808.872.872,0,0,1-.755.327,18.938,18.938,0,0,1-5.962-1.639,48.947,48.947,0,0,0-5.156-2.17A18.264,18.264,0,0,0,1114.142,354.424Z" transform="translate(-969.282 -334.577)" fill="#e8a141"/><path d="M1502.983,1523.413a15.5,15.5,0,0,1,8.709,1.883c2.5,1.243,4.766,2.978,7.592,3.533a1.5,1.5,0,0,1,1.033,1.081,2.817,2.817,0,0,1,.192.909c-.008,2.794,0,5.589-.082,8.381-.029,1.014-.63,1.451-1.621,1.506a6.69,6.69,0,0,1-2.736-.51,24.974,24.974,0,0,1-5.059-2.384,22,22,0,0,0-2.171-1.208,8.133,8.133,0,0,0-8.581.338c-1.485.951-2.973,1.9-4.484,2.808a21.5,21.5,0,0,1-2.218,1.113.6.6,0,0,1-.545-.127.683.683,0,0,1-.034-.54,2.168,2.168,0,0,1,.294-.544,27.541,27.541,0,0,0,3.8-12.375c.188-2.219.635-3,3.132-3.5C1501.118,1523.586,1502.057,1523.529,1502.983,1523.413Z" transform="translate(-1310.648 -1319.118)" fill="#e8a141"/><path d="M884.79,492.659a16.588,16.588,0,0,1-2.783-.04,38.974,38.974,0,0,1-9.4-3.09c-.871-.4-1.021-.938-.534-1.745a36.6,36.6,0,0,0,3.958-8.045c.3-.978.9-1.137,1.985-.755,1.073.375,2.122.818,3.2,1.177a8.553,8.553,0,0,0,6.641-.388c1.483-.722,2.907-1.57,4.337-2.394.535-.308,1-.741,1.523-1.066,1.571-.972,1.909-.847,2.857.8,1.34,2.33,2.725,4.634,4.073,6.96.527.908.432,1.437-.415,1.727-3.077,1.05-5.606,3.084-8.417,4.61A15.369,15.369,0,0,1,884.79,492.659Z" transform="translate(-792.001 -444.349)" fill="#e8a141"/><path d="M1518.3,1424.845c-.1-1.448-.231-2.895-.279-4.344-.048-1.509.281-2,1.634-2.131,2.58-.242,5.172-.415,7.761-.492a6.252,6.252,0,0,1,2.393.581,23.568,23.568,0,0,1,3.072,1.5,16.487,16.487,0,0,0,6.9,2.647,1.584,1.584,0,0,1,1.613,1.9c-.357,2.7.093,5.385,0,8.074-.053,1.573-.5,2.016-2.087,2.011a14.421,14.421,0,0,1-6.8-1.968c-1.188-.64-2.348-1.326-3.536-1.963-2.712-1.451-5.462-1.952-8.286-.285a2.69,2.69,0,0,1-.577.228,1,1,0,0,1-1.387-.8c-.115-.818-.133-1.648-.191-2.474s-.112-1.655-.167-2.484C1518.341,1424.843,1518.319,1424.843,1518.3,1424.845Z" transform="translate(-1331.584 -1231.058)" fill="#e8a141"/><path d="M1317.545,1860.655q-11.332.755-22.662,1.506a16.52,16.52,0,0,1-2.163-.032c-.151-.01-.358-.228-.412-.391a.63.63,0,0,1,.1-.555c5.459-4.581,11.525-6.864,18.713-4.965a26.291,26.291,0,0,1,5.532,2.049c3.53,1.852,6.769,1.264,9.954-.786,1.4-.9,2.809-1.769,4.254-2.585a19.063,19.063,0,0,1,8.554-2.58,15.964,15.964,0,0,1,8.347,2.067.875.875,0,0,1,.265,1.516,12.471,12.471,0,0,1-7.492,3.38c-7.664.418-15.318.993-22.977,1.5C1317.549,1860.74,1317.547,1860.7,1317.545,1860.655Z" transform="translate(-1143.102 -1593.798)" fill="#e8a141"/><path d="M915.093,384.9a10.407,10.407,0,0,0,5.328-1.44c2.555-1.224,2.591-1.185,3.426,1.443.658,2.07,1.261,4.158,1.914,6.23A1.9,1.9,0,0,1,925,393.57c-3.295,2.085-6.787,3.555-10.791,3.387-.1,0-.207-.006-.31-.016-2.927-.233-3.388-.863-2.834-3.679.46-2.337.844-4.686,1.264-7.029.258-1.435.269-1.445,1.832-1.4C914.473,384.845,914.782,384.875,915.093,384.9Z" transform="translate(-824.62 -366.678)" fill="#e8a141"/><path d="M843.353,1903.707c-4.133.276-8.264.558-12.4.821a3.766,3.766,0,0,1-2.135-.128.513.513,0,0,1-.216-.77.656.656,0,0,1,.194-.229c3.178-1.935,6.244-4.062,9.727-5.465a16.4,16.4,0,0,1,10.057-.468c3.471.791,6.557,2.508,9.75,3.972a.547.547,0,0,1,.313.76.735.735,0,0,1-.438.38c-.815.128-1.637.237-2.461.293C851.617,1903.162,847.485,1903.431,843.353,1903.707Z" transform="translate(-755.858 -1631.042)" fill="#e8a141"/><path d="M1073.249,300.216a25.012,25.012,0,0,1-11.915-2.96,6.5,6.5,0,0,1-3.016-4.809.9.9,0,0,1,.906-1.049,13.657,13.657,0,0,1,2.776.212,87.978,87.978,0,0,1,17.006,4.769c.561.231,1.352.327,1.408,1.042.072.924-.834,1.058-1.472,1.321A19.146,19.146,0,0,1,1073.249,300.216Z" transform="translate(-947.729 -290.457)" fill="#e8a141"/><path d="M622.193,1922.748c-3.508.234-7.015.476-10.523.7-.823.053-1.651.053-2.476.035-.143,0-.39-.205-.4-.327-.008-.157.163-.335.28-.486a.646.646,0,0,1,.261-.163,54.871,54.871,0,0,0,7.033-3.926,13.85,13.85,0,0,1,11.615-1.36,61.943,61.943,0,0,1,7.753,3.135c.311.14.516.431.386.725a1.115,1.115,0,0,1-.654.542,8.008,8.008,0,0,1-1.531.208q-5.878.4-11.756.789C622.187,1922.66,622.189,1922.7,622.193,1922.748Z" transform="translate(-572.398 -1647.435)" fill="#e8a141"/><path d="M930.185,290.788c.07,1.036.129,2.072.211,3.106a2.156,2.156,0,0,1-1.224,2.307,14.346,14.346,0,0,1-5.638,1.621c-1.2.064-1.69-.366-1.815-1.613a11.722,11.722,0,0,1-.03-2.789,9.7,9.7,0,0,0-.307-4.606,3.546,3.546,0,0,1-.159-.914,1.513,1.513,0,0,1,1.362-1.777c1.954-.221,3.923-.34,5.889-.412a1.337,1.337,0,0,1,1.425,1.353c.109,1.24.173,2.482.256,3.725Z" transform="translate(-833.266 -285.711)" fill="#e8a141"/><path d="M1092.3,1894.857c-3.108.209-6.216.422-9.323.618a14.535,14.535,0,0,1-1.863-.016.8.8,0,0,1-.488-.326.537.537,0,0,1,.184-.8c.925-.669,1.849-1.342,2.818-1.945a21.316,21.316,0,0,1,8.78-2.959,11.542,11.542,0,0,1,4.591.687,45.485,45.485,0,0,1,6.617,2.715.533.533,0,0,1,.3.762.774.774,0,0,1-.448.378,21.651,21.651,0,0,1-2.155.274C1098.3,1894.465,1095.3,1894.656,1092.3,1894.857Z" transform="translate(-966.274 -1624.767)" fill="#e8a141"/><path d="M477.119,1931.672a13.6,13.6,0,0,1-7.56-.7,14.34,14.34,0,0,1-5.281-3.709.889.889,0,0,1,.5-1.6,14.43,14.43,0,0,1,9.058,1.347c2.242,1.054,4.359,2.374,6.521,3.594a.626.626,0,0,1,.283.481.548.548,0,0,1-.381.369C479.131,1931.55,478,1931.615,477.119,1931.672Z" transform="translate(-451.429 -1654.849)" fill="#e8a141"/><path d="M715.318,309.52a11.877,11.877,0,0,0-6.755,1.95c-1.5.917-2.964,1.905-4.473,2.813-2.588,1.554-5.205,3.052-8.389,2.863a.767.767,0,0,1-.548-.226c-.186-.3.005-.585.263-.754a65.339,65.339,0,0,1,9.82-5.345,75.419,75.419,0,0,1,11.361-4.2,7.05,7.05,0,0,1,1.511-.253,1.172,1.172,0,0,1,.973,1.344,1.873,1.873,0,0,1-1.572,1.686,12.308,12.308,0,0,1-1.241.059C715.958,309.473,715.648,309.5,715.318,309.52Z" transform="translate(-644.442 -302.96)" fill="#e8a141"/><path d="M1530.207,1193.62a5.06,5.06,0,0,1,.529.107.346.346,0,0,1,.249.491c-.031.087-.1.205-.176.224a6.838,6.838,0,0,1-1.169.238.568.568,0,0,1-.67-.446c-.04-.351.269-.5.571-.563A4.79,4.79,0,0,1,1530.207,1193.62Z" transform="translate(-1340.73 -1043.807)" fill="#e8a141"/></g><g transform="translate(93.678 36.035)"><path d="M838.451,297.3a75.49,75.49,0,0,1-3.257,25.409,37.88,37.88,0,0,1-3.813,9.147,8.74,8.74,0,0,1-2.2,2.584,1.911,1.911,0,0,1-3.122-.674,10.036,10.036,0,0,1-1.037-2.58,38.248,38.248,0,0,1-1.035-10.746,121.807,121.807,0,0,1,1.139-12.342,106.766,106.766,0,0,1,3.157-12.957,3.954,3.954,0,0,1,3.417-3.114q2.6-.438,5.217-.786c.785-.106,1.135.418,1.194,1.1C838.252,294,838.341,295.651,838.451,297.3Z" transform="translate(-823.942 -290.233)" fill="#f1cd30"/><path d="M1003.819,316.24c.074,2.588.43,5.162-.143,7.747-.3,1.357-.592,2.8-2.072,3.175-1.329.338-2.293-.73-3.18-1.607a23.137,23.137,0,0,1-4.216-6.118,79.258,79.258,0,0,1-7.738-23.5,51.238,51.238,0,0,1-.923-7.066,13.227,13.227,0,0,1,.071-2.16,1.452,1.452,0,0,1,1.2-1.265,17.44,17.44,0,0,1,7.091.213,1.968,1.968,0,0,1,1.268,1.278c1.064,2.245,2.2,4.463,3.121,6.764a89.05,89.05,0,0,1,4.838,16.673C1003.5,312.307,1003.6,314.285,1003.819,316.24Z" transform="translate(-958.872 -285.177)" fill="#f1cd30"/><path d="M1426.366,1436.735a49.5,49.5,0,0,1-.091-10.739c.229-1.618.561-2.12,2.04-2.258,2.89-.272,5.789-.454,8.69-.59,1.27-.061,1.575.228,1.96,1.516a14.326,14.326,0,0,1,.619,2.718,73.073,73.073,0,0,1-.552,18.578,27.514,27.514,0,0,1-1.942,6.867,8.746,8.746,0,0,1-2.146,3.018,2.136,2.136,0,0,1-3.077.059,9,9,0,0,1-1.361-1.674,16.3,16.3,0,0,1-1.91-4.241A45.982,45.982,0,0,1,1426.366,1436.735Z" transform="translate(-1326.665 -1235.365)" fill="#f1cd30"/></g><g transform="translate(26.022 36.21)" opacity="0.5"><path d="M512.507,588.07q-45.686,3.053-91.374,6.1a14.218,14.218,0,0,1-4.647-.127,1.812,1.812,0,0,1-1.47-1.384,32.721,32.721,0,0,1-1.085-5.489,1.035,1.035,0,0,1,1.094-1.2c5.3.274,10.573-.581,15.845-.48,4.48.085,8.917-.184,13.355-.531,4.853-.38,9.679-1.084,14.527-1.525,6.3-.572,12.551-1.565,18.767-2.641a239.9,239.9,0,0,0,36.784-9.154,160.575,160.575,0,0,0,34.343-15.985,88.643,88.643,0,0,0,23.475-21.139,58.23,58.23,0,0,0,11.642-26.845,39.111,39.111,0,0,0,.632-7.739c-.086-1.762.332-3.494.167-5.276a84.617,84.617,0,0,0-5.573-23.52q-1.953-4.924-4.368-9.636a4.606,4.606,0,0,1-.39-.845c-.047-.165.058-.372.093-.56.183.069.42.086.54.215,1.567,1.658,3.186,3.273,4.66,5.011a122.041,122.041,0,0,1,20.7,35.625,138.658,138.658,0,0,1,6.548,22.364c.757,3.759,1.381,7.537,2.025,11.315a146.555,146.555,0,0,1,1.815,22.31,154.858,154.858,0,0,1-.77,19.862c-.08.718-.059,1.45-.115,2.173-.135,1.751-.364,2.106-2.155,2.522a22.951,22.951,0,0,1-3.695.465Q558.193,585.025,512.507,588.07Z" transform="translate(-413.924 -431.407)" fill="#e48a21"/><path d="M538.542,1498.062q-26.1,1.744-52.193,3.493c-11.182.76-22.379,1.376-33.534,2.433a14.87,14.87,0,0,1-15.728-12.77c-.275-2.665-.787-5.322-1.075-8-.226-2.1-.007-3.05,2.7-2.566,9.493,1.7,19.057,2.934,28.662,3.771,5.775.5,11.579.728,17.374.948,4.86.186,9.727.208,14.591.263a282.421,282.421,0,0,0,29.81-1.547,134.973,134.973,0,0,0,14.155-1.859c2.527-.515,5.112-.779,7.667-1.224a187.778,187.778,0,0,0,35.079-9.41,101.049,101.049,0,0,0,14.93-6.947,61.841,61.841,0,0,0,13.491-10.428,44.666,44.666,0,0,0,7.256-9.636,38.639,38.639,0,0,0,4.95-16.543,39.865,39.865,0,0,0-.755-11.729,6.359,6.359,0,0,1-.14-1.235c-.037-.9.292-1.438,1.193-1.517,3-.263,6-.483,9-.622,1.183-.055,1.64.43,1.722,1.73a53.645,53.645,0,0,1,.155,6.216c-.074,1.349-.106,2.685-.066,4.031.17,5.8.162,11.593.01,17.391-.035,1.344.094,2.694.141,4.041.157,4.453-.034,8.9.114,13.363.2,5.893.059,11.8,0,17.7-.055,5.974-2.55,10.573-7.8,13.6a9.286,9.286,0,0,1-4.1,1.325q-15.537.986-31.07,1.979c-1.14.073-2.28.125-3.419.2Z" transform="translate(-432.312 -1227.019)" fill="#e48a21"/><path d="M1022.253,311.539a65.366,65.366,0,0,0-5.2-21c-.316-.767-.685-1.512-.985-2.285-.646-1.66-.306-2.014,1.352-2.011a3.624,3.624,0,0,1,3.532,2.489,83.353,83.353,0,0,1,4.953,12.736,86.568,86.568,0,0,1,2.441,10.268,90.527,90.527,0,0,1,.882,9.907,11.553,11.553,0,0,1-.8,4.878c-.722,1.738-1.9,2.049-3.478,1.01a12.649,12.649,0,0,1-3.186-3.374,2.166,2.166,0,0,1-.331-1.777c.167-.813.3-1.631.42-2.452A34.3,34.3,0,0,0,1022.253,311.539Z" transform="translate(-916.457 -286.242)" fill="#e48a21"/><path d="M841.214,297.993a78.805,78.805,0,0,1-3.257,25.127,40.421,40.421,0,0,1-4.138,9,11.052,11.052,0,0,1-2.39,2.842,1.466,1.466,0,0,1-2.194-.244,8.863,8.863,0,0,1-.942-1.589,20.84,20.84,0,0,1-.889-3.284,3.225,3.225,0,0,1,.8-3.387,37.54,37.54,0,0,0,7.172-14,56.825,56.825,0,0,0,2.386-17.778,9.663,9.663,0,0,1,.069-1.855,1.842,1.842,0,0,1,2.279-1.042,1.342,1.342,0,0,1,.764,1.251C841.007,294.683,841.1,296.338,841.214,297.993Z" transform="translate(-759.023 -290.783)" fill="#e48a21"/><path d="M1456.443,1428.49c.087,5.717.5,11.495-.606,17.212-.314,1.624-.752,3.226-1.132,4.838-.494,2.1-1.928,3.629-3.257,5.2a1.869,1.869,0,0,1-2.782.1,9,9,0,0,1-2.466-3.89,2.048,2.048,0,0,1,.306-1.772c3.353-6.073,4.08-12.739,4.387-19.5.094-2.065.151-4.132.247-6.2a1.347,1.347,0,0,1,1.14-1.288c1.945-.5,2.956.04,3.488,1.916A10.786,10.786,0,0,1,1456.443,1428.49Z" transform="translate(-1275.782 -1235.438)" fill="#e48a21"/></g><g transform="translate(0 26.514)"><path d="M278.685,1638.6a27.941,27.941,0,0,1-7.57-.425,17.811,17.811,0,0,1-14.58-15.44,30.165,30.165,0,0,1,1.267-13.833c3.386-10.467,9.716-18.934,18.074-25.977,1.567-1.32,2.633-1.307,3.093,1.207a7.494,7.494,0,0,1,.1.93,75.39,75.39,0,0,0,1.791,11.033,4.268,4.268,0,0,1-1.471,4.421,39.385,39.385,0,0,0-7.225,8.519,14.723,14.723,0,0,0-1.859,4.913c-.541,2.809.606,4.864,2.711,6.48a11.223,11.223,0,0,0,7,2.21c.621,0,1.243-.074,1.865-.087,1.717-.035,2.032.22,2.3,1.812.017.1.024.205.033.31a67.181,67.181,0,0,0,1.645,10.749c.313,1.243-.023,1.713-1.184,2.12A26.959,26.959,0,0,1,278.685,1638.6Z" transform="translate(-256.226 -1358.54)" fill="#a27dfa"/><path d="M1676.853,1550.742a23.512,23.512,0,0,1-6-.261c-.988-.255-1.466-.757-1.323-1.775.529-3.809.144-7.651.492-11.464.135-1.467.385-1.883,1.83-1.963a16.154,16.154,0,0,0,5.452-1.126,8.73,8.73,0,0,0,4.968-4.452,5.8,5.8,0,0,0,.17-4.813,18.474,18.474,0,0,0-3.813-5.991,42.245,42.245,0,0,0-6.61-5.609,4.492,4.492,0,0,1-2.165-4.139c.01-2.895-.377-5.778-.048-8.69.185-1.634-.07-3.311-.008-4.966.042-1.1.808-1.5,1.7-.948a58.829,58.829,0,0,1,20.031,19.6,35.875,35.875,0,0,1,5.31,14.476c.667,5.848-.43,11.373-4.649,15.882a16.133,16.133,0,0,1-5.536,3.916A26.741,26.741,0,0,1,1676.853,1550.742Z" transform="translate(-1436.301 -1285.262)" fill="#a27dfa"/><path d="M1128.754,227.54a12.631,12.631,0,0,1,6.905,1.512,23.366,23.366,0,0,1,13.1,17.746,13,13,0,0,1,.109,2.784c-.045,1.02-.789,1.385-1.761.9-.646-.324-1.265-.706-1.88-1.087a94.468,94.468,0,0,0-24.858-11.057c-2.572-.71-3.365-1.094-1.942-4.155C1120.345,230.053,1123.589,227.858,1128.754,227.54Z" transform="translate(-975.572 -227.48)" fill="#a27dfa"/><path d="M600.833,281.646a16.821,16.821,0,0,1,.793-6.747c1.94-6.177,5.44-11.123,11.414-14.049A13.457,13.457,0,0,1,623,259.81a10.482,10.482,0,0,1,6.807,6.355,1.56,1.56,0,0,1-.719,2.13,18.361,18.361,0,0,1-1.962.935,96.481,96.481,0,0,0-22.9,14.216c-.479.4-.924.839-1.43,1.195-.816.574-1.639.205-1.806-.828C600.876,283.1,600.881,282.369,600.833,281.646Z" transform="translate(-543.91 -254.038)" fill="#a27dfa"/></g><g transform="translate(0.004 0.024)" opacity="0.5"><path d="M278.612,1707.1a27.561,27.561,0,0,1-7.734-.494,17.778,17.778,0,0,1-14.314-15.316,30.463,30.463,0,0,1,1.147-13.53,48.051,48.051,0,0,1,5.948-12.627,5.125,5.125,0,0,1,.808-.93.577.577,0,0,1,.538-.086.624.624,0,0,1,.2.525c-.08.511-.231,1.01-.347,1.515-.3,1.312-.56,2.636-.906,3.937a30.831,30.831,0,0,0-.45,11.439,17.968,17.968,0,0,0,5.788,11.742,16.645,16.645,0,0,0,9.854,4.192,31.268,31.268,0,0,0,3.4.268c1.578-.03,2.2.778,2.429,2.208.2,1.225.575,2.418.822,3.637.348,1.716.156,2.008-1.373,2.524A27.748,27.748,0,0,1,278.612,1707.1Z" transform="translate(-256.252 -1400.542)" fill="#6e26c7"/><path d="M1676.927,1615.78a24.094,24.094,0,0,1-5.884-.236c-1.19-.271-1.623-.747-1.477-1.948a39.478,39.478,0,0,0,.349-4.644c0-1.192.268-1.472,1.366-1.743,1.2-.3,2.42-.563,3.64-.781,9.378-1.666,13.6-9.022,14.237-16.186.481-5.414-.906-10.446-2.7-15.435a5.533,5.533,0,0,1-.759-2.617c1.238-.038,1.628,1.05,2.207,1.778,4.447,5.6,7.839,11.793,8.854,18.92,1.089,7.657-.715,14.524-7.494,19.144A23.144,23.144,0,0,1,1676.927,1615.78Z" transform="translate(-1436.333 -1323.81)" fill="#6e26c7"/><path d="M936.349,905.93a21.9,21.9,0,0,1-12.554-2.479c-.261-.138-.594-.391-.422-.725a1.037,1.037,0,0,1,.707-.454,53.265,53.265,0,0,0,5.5-.861,19.194,19.194,0,0,0,12.238-8.881,26.179,26.179,0,0,0,4.436-11.8c.13-1.461.42-1.621,1.968-1.849a23.662,23.662,0,0,1,5.872.25,4.041,4.041,0,0,1,3.64,3.69,13.29,13.29,0,0,1-.563,6.73,23.907,23.907,0,0,1-9.556,12.269C944.046,904.206,940.18,905.9,936.349,905.93Z" transform="translate(-813.252 -744.807)" fill="#6e26c7"/><path d="M950.47,98.633c.151.815.343,1.625.446,2.444a1.391,1.391,0,0,1-1.658,1.689c-2.16-.258-4.307-.611-6.461-.922a1.918,1.918,0,0,1-1.69-1.6,85.957,85.957,0,0,0-3.065-10.111c-.662-1.828-.557-3.873-1.145-5.776a30.477,30.477,0,0,0-3.62-7.885c-2.58-3.914-6.331-6.182-10.659-7.646-.586-.2-1.222-.244-1.813-.431a1.044,1.044,0,0,1-.643-.529c-.108-.359.262-.553.558-.584a35.458,35.458,0,0,1,4.027-.337A20.516,20.516,0,0,1,937.7,71.506a29.979,29.979,0,0,1,8.631,11.254A48.132,48.132,0,0,1,950.47,98.633Z" transform="translate(-810.595 -66.945)" fill="#6e26c7"/><path d="M600.664,290.076a17.89,17.89,0,0,1,.909-7.178c1.968-5.884,5.253-10.759,11.026-13.578a.718.718,0,0,1,.862.034.687.687,0,0,1,.051.837c-.211.471-.418.946-.645,1.411a12.111,12.111,0,0,0,.062,10.773c.169.375.387.73.591,1.087a.989.989,0,0,1-.233,1.374c-.315.266-.664.492-1,.73a102.364,102.364,0,0,0-9.12,6.965,3.387,3.387,0,0,1-1.059.6.815.815,0,0,1-1.031-.457A7.054,7.054,0,0,1,600.664,290.076Z" transform="translate(-543.787 -235.82)" fill="#6e26c7"/><path d="M1228.539,253.2c-.058.662.547,1.913-.619,2.5-.949.478-1.717-.471-2.5-.9-2.994-1.647-5.962-3.34-8.943-5.008-1.464-.819-1.549-1.009-1.1-2.733.054-.2.1-.4.176-.6,1.579-4.046.686-7.705-1.729-11.129a8.529,8.529,0,0,1-.5-.787c-.154-.274-.266-.59.021-.824a.773.773,0,0,1,.566-.1,3.729,3.729,0,0,1,.879.293,23.184,23.184,0,0,1,12.975,15.018c.265.89.468,1.8.657,2.713A13.428,13.428,0,0,1,1228.539,253.2Z" transform="translate(-1055.27 -206.101)" fill="#6e26c7"/></g><g transform="translate(21.851 0.349)" opacity="0.5"><path d="M389.279,431.494c-.166-2.486-.537-6-.609-9.529a151.394,151.394,0,0,1,1.149-20.776,142.238,142.238,0,0,1,6.186-27.9A115.9,115.9,0,0,1,413.971,339a93.983,93.983,0,0,1,22.553-21.219,87.191,87.191,0,0,1,23.228-11.1,15.042,15.042,0,0,1,2.107-.529,1.18,1.18,0,0,1,1.307,1.592c-.349,1.192-.827,2.348-1.172,3.541a55.066,55.066,0,0,0-1.968,8.8,3.979,3.979,0,0,1-2.8,3.648c-8.953,3.435-16.585,8.96-23.547,15.432a107.684,107.684,0,0,0-17.068,20.916,130.927,130.927,0,0,0-11.479,22.406,152.211,152.211,0,0,0-9.341,34.46,181.64,181.64,0,0,0-1.724,20.428c-.185,5.828.272,11.605.611,17.4a6.7,6.7,0,0,1-.1,2.776,1.178,1.178,0,0,1-1.106.925,1.054,1.054,0,0,1-1.032-.975c-.4-1.928-.75-3.865-1.117-5.8A140.89,140.89,0,0,1,389.279,431.494Z" transform="translate(-388.646 -266.99)" fill="#fff"/><path d="M1104.19,318.579a32.538,32.538,0,0,1-13.38-2.135,115.859,115.859,0,0,1-14.531-7.04,37.228,37.228,0,0,0-10.452-3.837c-.5-.114-1.01-.22-1.517-.326a2.176,2.176,0,0,1-1.729-1.6,67.194,67.194,0,0,0-4.016-10.088,4.129,4.129,0,0,1-.284-.887,1.114,1.114,0,0,1,1.137-1.456,24.533,24.533,0,0,1,3.085.34,90.826,90.826,0,0,1,36.062,15.231c3.743,2.636,7.093,5.715,10.547,8.684a5.762,5.762,0,0,1,.646.669.921.921,0,0,1-.414,1.5,8.917,8.917,0,0,1-3.6.848C1105.224,318.492,1104.708,318.545,1104.19,318.579Z" transform="translate(-947.754 -254.523)" fill="#fff"/><path d="M790.208,103.971c.056-6.123.469-12.2,2.571-18.025,2.057-5.7,5.288-10.547,10.423-13.935a17.72,17.72,0,0,1,8.043-3.084,2.65,2.65,0,0,1,2.9,3.388,5.511,5.511,0,0,1-.276.89,6.656,6.656,0,0,1-2.321,3.233c-1.1.768-2.2,1.546-3.32,2.3-.945.633-1.917,1.228-2.869,1.852-5.891,3.861-8.782,9.771-10.929,16.152a47.24,47.24,0,0,0-1.995,8.459c-.058.411-.067.829-.148,1.235-.19.959-.754,1.442-1.434,1.236-.8-.244-.682-.9-.662-1.523C790.214,105.421,790.2,104.7,790.208,103.971Z" transform="translate(-723.918 -68.911)" fill="#fff"/><path d="M925.559,285.707c4.553-.386,4.186-.17,4.492,4.011.181,2.478.144,4.982.925,7.39a6.032,6.032,0,0,1,.2,1.541c.05,1.017-.337,1.5-1.408,1.681a20.337,20.337,0,0,1-2.167.213,23.405,23.405,0,0,0-4.881.906,1.007,1.007,0,0,1-1.285-.981c.011-2.279-.07-4.567.132-6.831a14.481,14.481,0,0,0-.331-5.223c-.431-1.575.168-2.292,1.839-2.529C923.9,285.766,924.731,285.761,925.559,285.707Z" transform="translate(-833.242 -249.822)" fill="#fff"/></g><g transform="translate(54.23 138.182)"><path d="M600.215,964.608a18.8,18.8,0,0,1-9.73-1.461,11.969,11.969,0,0,1-4.009-2.888,5.171,5.171,0,0,1-.384-7.085,9.721,9.721,0,0,1,3.5-3.029,21.057,21.057,0,0,1,18.337-.738,8.976,8.976,0,0,1,3.995,2.861c2.086,2.824,1.831,6.013-.832,8.307a17.332,17.332,0,0,1-8.7,3.878C601.675,964.57,600.94,964.561,600.215,964.608Z" transform="translate(-584.871 -940.489)" fill="#d901ab"/><path d="M1246.814,921.281a18.878,18.878,0,0,1-7.345-.645,11.876,11.876,0,0,1-5.5-3.355,5.176,5.176,0,0,1-.531-6.568,12.1,12.1,0,0,1,4.583-4.107,21.536,21.536,0,0,1,16.606-1.3,12.137,12.137,0,0,1,3.064,1.493c3.576,2.378,4.514,6.657.6,10.244-2.694,2.474-6.05,3.526-9.58,4.105C1248.1,921.244,1247.474,921.236,1246.814,921.281Z" transform="translate(-1125.64 -904.219)" fill="#d901ab"/></g><g transform="translate(46.068 243.939)"><path d="M723.725,1642.447a2.368,2.368,0,0,0,.054-.306c.2-4.969.2-4.968-3.354-8.7a9,9,0,0,1-.823-.925,1.277,1.277,0,0,1,.362-1.894,8.052,8.052,0,0,1,1.666-.813,17.423,17.423,0,0,1,2.1-.548,4.743,4.743,0,0,0,3.609-3.055,18.479,18.479,0,0,1,1.616-3.007,1.378,1.378,0,0,1,2.352-.192,20.052,20.052,0,0,1,2.195,3.007,4.15,4.15,0,0,0,3.492,2.215,19.9,19.9,0,0,1,3.648.744,1.5,1.5,0,0,1,.975,2.42,11.223,11.223,0,0,1-1.847,2.479,4.78,4.78,0,0,0-1.339,4.837c.136.6.353,1.2.44,1.807a6.668,6.668,0,0,1,.058,1.841,1.449,1.449,0,0,1-1.837,1.214,25.164,25.164,0,0,1-3.832-1.267,3.735,3.735,0,0,0-3.552.186c-1.092.595-2.177,1.214-3.315,1.711C724.8,1644.9,723.7,1644.14,723.725,1642.447Z" transform="translate(-688.981 -1609.676)" fill="#fff"/><path d="M539.886,1564.925c.045-1.033.061-2.069.142-3.1a4.01,4.01,0,0,0-1.618-3.813,17.928,17.928,0,0,1-1.587-1.491c-2.083-2.011-1.9-2.975.758-3.865.984-.329,1.975-.637,2.97-.93a3.845,3.845,0,0,0,2.523-2.133,32.278,32.278,0,0,1,1.917-3.555,1.414,1.414,0,0,1,2.548-.2,21.359,21.359,0,0,1,2,2.768,4.769,4.769,0,0,0,3.759,2.412,24.966,24.966,0,0,1,3.672.648,1.532,1.532,0,0,1,.858,2.478c-.774,1.1-1.642,2.141-2.516,3.167a3.345,3.345,0,0,0-.846,2.873c.208,1.224.394,2.454.589,3.681.269,1.688-.634,2.623-2.3,2.256a24.223,24.223,0,0,1-3.262-1.03,4.379,4.379,0,0,0-3.888.253,22.5,22.5,0,0,1-3.1,1.451C540.9,1567.394,539.845,1566.618,539.886,1564.925Z" transform="translate(-535.408 -1545.131)" fill="#fff"/><path d="M558.261,1741.436a2.54,2.54,0,0,1,.04-.879,2.63,2.63,0,0,0-.934-2.493c-.96-.943-1.983-1.83-2.874-2.834a1.541,1.541,0,0,1,.657-2.7,27.3,27.3,0,0,1,3.821-1.288,3.523,3.523,0,0,0,2.5-2.1,36.215,36.215,0,0,1,1.713-3.308c.824-1.378,1.952-1.458,2.98-.193a39.665,39.665,0,0,1,2.338,3.289,3.009,3.009,0,0,0,2.255,1.44,39.272,39.272,0,0,1,4.266.821,1.538,1.538,0,0,1,1,2.591,32.125,32.125,0,0,1-2.5,3.166,2.573,2.573,0,0,0-.685,2.825,13.255,13.255,0,0,1,.573,4.293c.049,1.361-.942,2.027-2.295,1.653-1.788-.494-3.523-1.719-5.319-1.483-1.66.217-3.186,1.4-4.792,2.109-1.489.656-2.39.141-2.644-1.447a4.608,4.608,0,0,1-.059-.619C558.29,1743.555,558.282,1742.831,558.261,1741.436Z" transform="translate(-550.873 -1695.107)" fill="#fff"/></g></g><g transform="translate(0 0)"><path d="M261.45,294.672c-.522-4.844-1.174-9.683-1.872-14.49-.747-5.148-1.092-10.3-1.519-15.469a13.788,13.788,0,0,1,.277-4.33,11.346,11.346,0,0,1,5.541-7.54c1.87-1.091,1.832-1.121,1.342-3.305-1.2-5.359-2.226-10.744-3.106-16.173a185.757,185.757,0,0,1-1.983-24.794,134.684,134.684,0,0,1,.736-17.066,147.362,147.362,0,0,1,7.542-34.581,116.785,116.785,0,0,1,15.71-30.288,128.693,128.693,0,0,1,9.795-11.671c.424-.457.808-.951,1.245-1.394a2.476,2.476,0,0,0,.612-2.583c-2.613-9.513,4.135-21.872,11.616-25.865a25.558,25.558,0,0,1,4.464-2.176c5.016-1.543,9.62-.962,13.734,2.474.757.632,1.021.523,1.164-.435.137-.919.227-1.849.294-2.777a41.341,41.341,0,0,1,5.924-19.447,25.31,25.31,0,0,1,12.925-10.727,14.832,14.832,0,0,1,4.842-1.052c2.689-.053,5.359-.621,8.07-.159a25.164,25.164,0,0,1,10.747,4.662c4.391,3.214,7.361,7.56,9.685,12.381a37.036,37.036,0,0,1,3.446,10.611c.152,1.021.454,2.022.7,3.028.133.534.549.664.885.224a12.3,12.3,0,0,1,6.99-4.37,12.539,12.539,0,0,1,4.625-.338c6.549.757,11.676,3.975,15.749,9.049a23.991,23.991,0,0,1,5.565,17.039,2.526,2.526,0,0,0,1.2,2.619,42.877,42.877,0,0,1,6.034,4.9,112.966,112.966,0,0,1,21.16,25.546A136.746,136.746,0,0,1,459.2,166.14a157.365,157.365,0,0,1,5.055,20.831,163.73,163.73,0,0,1,2.5,22.225c.16,4.651.173,9.309-.011,13.971a127.448,127.448,0,0,1-1,13.943,1.642,1.642,0,0,0,1.177,1.934A13.1,13.1,0,0,1,470.5,240.9a12.217,12.217,0,0,1,4.582,8.876c.338,3.918.877,7.839.41,11.8a21.024,21.024,0,0,0,.1,2.8c.091,5.076.189,10.152.244,15.228.015,1.342-.133,2.686-.186,4.03a2.734,2.734,0,0,0,1.644,2.72,59.593,59.593,0,0,1,10.526,7.707,54.809,54.809,0,0,1,12.122,14.883,38.652,38.652,0,0,1,4.588,13.137,23.458,23.458,0,0,1-1.613,13.334,19.739,19.739,0,0,1-9.19,9.789,27.1,27.1,0,0,1-15.651,3.008,2.942,2.942,0,0,0-.311-.024c-1.134-.017-2.409-.361-3.356.051-.807.351-1.244,1.565-1.828,2.41a14.677,14.677,0,0,1-11.73,6.6q-44.589,2.995-89.175,6.068-32.626,2.208-65.258,4.357c-6.836.452-13.678.8-20.514,1.256a14.723,14.723,0,0,1-12.191-5.071c-1.084-2.539-3.086-2.279-5.188-1.7a27.247,27.247,0,0,1-12.63.207c-10.168-1.963-16.415-9.354-17.427-19.274-.7-6.9.937-13.406,3.818-19.617a59.848,59.848,0,0,1,9.981-14.96,52.979,52.979,0,0,1,7.981-7.381c1.22-.892,1.855-1.785,1.447-3.363A17.075,17.075,0,0,1,261.45,294.672Zm104.031-49.726q45.53-3.043,91.057-6.083c.829-.056,1.658-.095,2.486-.173,2.606-.247,2.924-.584,3.114-3.249.015-.205,0-.415.013-.622.244-4.033.414-8.073.643-12.1.293-5.188-.362-10.351-.058-15.533.159-2.7-.765-5.332-.959-8.007a124.023,124.023,0,0,0-2.311-15.672,150.916,150.916,0,0,0-5.563-20.382,128.133,128.133,0,0,0-20.379-37.236,99.99,99.99,0,0,0-18.538-17.9,86.691,86.691,0,0,0-23.825-12.637,89.5,89.5,0,0,0-14.449-3.719c-.507-.083-1.068-.3-1.475.106-.6.6-.024,1.176.225,1.679a86.59,86.59,0,0,1,7.046,23.774,33.024,33.024,0,0,1,.18,10.542,11.229,11.229,0,0,1-1.491,4.386,4.168,4.168,0,0,1-5.65,1.7,9.62,9.62,0,0,1-1.812-1.187,18.9,18.9,0,0,1-4.773-5.69A73.837,73.837,0,0,1,359.093,94.8c-.3-4.585.116-4.274-4.759-3.937a6.669,6.669,0,0,0-.924.135,1.207,1.207,0,0,0-1.063,1.31c.02.725.072,1.451.136,2.174a63.706,63.706,0,0,1-.2,10.873,84.981,84.981,0,0,1-3.5,17.678,39.292,39.292,0,0,1-3.933,9.126,11.69,11.69,0,0,1-3.512,3.9,4.122,4.122,0,0,1-6.037-1.006,11.3,11.3,0,0,1-1.936-3.871,42.305,42.305,0,0,1-1.208-13.591,79.233,79.233,0,0,1,3.725-21.392,7.388,7.388,0,0,0,.309-1.517c.044-.393-.285-.552-.6-.513a6.477,6.477,0,0,0-1.506.33c-3.01,1.131-6.039,2.218-9.006,3.451a79.064,79.064,0,0,0-18.673,11.107,92.4,92.4,0,0,0-16.863,16.917,122.666,122.666,0,0,0-8.777,13.206,124.681,124.681,0,0,0-13.411,36.691,142.748,142.748,0,0,0-2.933,24.056,126.837,126.837,0,0,0-.05,14.9c.464,5.47.638,10.953,1.486,16.41.874,5.637,1.846,11.238,3.011,16.821.632,3.031.03,3.308,4,3.063.829-.051,1.657-.109,2.486-.165ZM348.2,284.829q-39.457,2.636-78.913,5.276c-1.034.069-2.07.152-3.1.3a1.152,1.152,0,0,0-1.046,1.312,17.7,17.7,0,0,0,.3,3.717c1.159,4.23.969,8.632,1.827,12.914.873,4.354,1.152,8.828,1.676,13.251.146,1.236.115,2.5.377,3.714,1.055,4.87,1.186,9.862,2.006,14.768.734,4.387.958,8.865,1.728,13.246.98,5.578,3.846,9.766,9.571,11.535a14.255,14.255,0,0,0,5.512.651c10.536-.9,21.095-1.411,31.626-2.508,12.586-1.31,25.257-1.8,37.892-2.643,12.737-.85,25.471-1.8,38.215-2.526,12.629-.722,25.219-2.006,37.892-2.15,8.291-.1,16.57-1.034,24.856-1.562a16.1,16.1,0,0,0,4.25-.874,13.24,13.24,0,0,0,8.992-12.237c.059-2.486.175-4.966.05-7.452a21.685,21.685,0,0,1-.135-3.727c.547-4.348,0-8.695.066-13.041.1-6.411-.024-12.834.032-19.255.043-5.074-.132-10.151-.228-15.226a24.3,24.3,0,0,1,.063-3.414c.224-1.88-.127-2.2-1.979-2.173-.311,0-.622.032-.933.053l-15.533,1.038c-.415.027-.831.047-1.241.1-1.4.2-1.718.6-1.578,2.1a9.4,9.4,0,0,0,.343,1.828,9.785,9.785,0,0,1,.268,4.309,9.162,9.162,0,0,0-.066,2.168,39.146,39.146,0,0,1-.224,8.071,38.083,38.083,0,0,1-2.861,11.74,12.268,12.268,0,0,1-1.953,3.161c-2.6,2.9-5.568,2.938-8.3.086a13.166,13.166,0,0,1-2.476-3.93,41.828,41.828,0,0,1-2.59-8.939,59.838,59.838,0,0,1-1.021-15.146,17.9,17.9,0,0,0-.095-2.794,1.176,1.176,0,0,0-1.256-1.129c-1.036,0-2.073.051-3.108.12Q387.658,282.191,348.2,284.829Zm19.258-5.673c0,.022,0,.043,0,.066q51.42-3.435,102.841-6.848c.978-.064,1.161-.47,1.264-1.32.542-4.549-.276-9.105.144-13.66.3-3.238-.879-6.339-1.289-9.514-.358-2.773-2.319-4.516-5.145-5.178a16.553,16.553,0,0,0-4.95-.2q-94.452,6.317-188.9,12.625c-.828.054-1.663.074-2.482.2-4.233.629-6.95,3.6-6.9,7.867a52.626,52.626,0,0,0,.362,8.932c.774,4.275,1.142,8.624,1.673,12.943.087.715.327,1.119,1.174,1.018,1.544-.185,3.1-.3,4.651-.4Q318.677,282.413,367.458,279.156ZM264.922,318.1c-.607-3.411-.983-6.081-1.589-8.7-.307-1.325-.359-2.668-.64-3.982a.57.57,0,0,0-.922-.422,4.179,4.179,0,0,0-.772.513,62.466,62.466,0,0,0-11.442,13.055,44.947,44.947,0,0,0-6.106,13.547c-1.1,4.449-1.626,8.926-.435,13.493,1.524,5.843,4.889,9.91,10.646,12.011,3.1,1.134,6.308,1.167,9.5,1.216a30.013,30.013,0,0,0,5.517-.815,1.141,1.141,0,0,0,1.064-1.547,33.271,33.271,0,0,1-.775-3.955,59.113,59.113,0,0,0-.989-6.442c-.151-.866-.5-1.167-1.454-1.116a14.536,14.536,0,0,1-7.546-1.368c-4.056-2.054-5.737-5.841-4.349-10.127a18.95,18.95,0,0,1,1.821-3.945,42.249,42.249,0,0,1,6.774-8.087C264.434,320.235,265.248,319.09,264.922,318.1Zm235.8,6.676a31.8,31.8,0,0,0-2.8-11,53.643,53.643,0,0,0-14.971-18.81,34.328,34.328,0,0,0-6.094-4.277.63.63,0,0,0-.973.4,3.462,3.462,0,0,0-.236,1.2,92.329,92.329,0,0,1,.072,10.863,3.868,3.868,0,0,0,1.948,3.894,33.525,33.525,0,0,1,6.61,5.6,18.136,18.136,0,0,1,3.7,5.327c1.867,4.514.691,8.1-3.387,10.709a15.413,15.413,0,0,1-7.038,2.181c-.723.069-1.159.209-1.283.985-.573,3.6-.063,7.237-.481,10.844-.114.973.451,1.41,1.6,1.429a38.808,38.808,0,0,0,8.318-.409,22.55,22.55,0,0,0,7.507-2.848,14.618,14.618,0,0,0,6.127-7.208A19.106,19.106,0,0,0,500.72,324.775ZM353.039,54.745c-5.666-.188-10.522,2.319-14.467,6.682a29.647,29.647,0,0,0-6.239,11.724,39.924,39.924,0,0,0-1.706,13.828c.086,1.4-.831,2.846.162,4.21,1.492,0,2.789-.759,4.2-1.09.5-.119.979-.34,1.474-.494a2.1,2.1,0,0,0,1.581-2.04c.2-2.062.447-4.129.851-6.159a25.963,25.963,0,0,1,6.645-13.5,12.415,12.415,0,0,1,7.548-3.985,12.2,12.2,0,0,1,9.031,2.611,23.536,23.536,0,0,1,7.573,9.7,37.781,37.781,0,0,1,2.7,8.586,2.516,2.516,0,0,0,2.382,2.389c1.54.221,3.066.523,4.609.736.847.119,1.1-.132,1.02-1.065a55.123,55.123,0,0,0-2.012-10.675A35.3,35.3,0,0,0,371.86,62.89C367.047,57.146,361.195,53.724,353.039,54.745Zm8.275,31.729a34.627,34.627,0,0,1,6.377.067c.85.14,1.095-.168.967-1.06a27.759,27.759,0,0,0-4.1-11,19.062,19.062,0,0,0-4.644-4.989,8.709,8.709,0,0,0-10.927.282,14.863,14.863,0,0,0-2.676,3.02,25.645,25.645,0,0,0-3.155,6.748,26.012,26.012,0,0,0-1.224,7.341c0,1,.375,1.275,1.342,1.15,2.057-.266,4.148-.37,6.164-.818A38.058,38.058,0,0,1,361.314,86.474ZM336.162,122.76c.09,1.344.176,2.686.27,4.03a17.48,17.48,0,0,0,1.085,4.514c.238.683.542,1.421,1.388,1.5s1.293-.6,1.692-1.187a28.528,28.528,0,0,0,3.346-6.289,88.546,88.546,0,0,0,4.738-26.779,43.43,43.43,0,0,0-.351-5.577c-.116-1.269-.585-1.616-1.855-1.413-1.12.18-2.214.576-3.336.673a2.975,2.975,0,0,0-2.786,2.452,89.144,89.144,0,0,0-2.575,9.585A74.991,74.991,0,0,0,336.162,122.76Zm42.766-1.687a32.165,32.165,0,0,0-.85-6.131A79.733,79.733,0,0,0,371.04,93.15c-1.329-2.8-1.014-2.535-3.937-2.564-.309,0-.617-.064-.926-.095-3.282-.327-3.4-.183-3.283,2.976a70.044,70.044,0,0,0,3.505,17.927,60.336,60.336,0,0,0,6.629,14.68,13.953,13.953,0,0,0,2.95,3.576c1.127.9,1.905.722,2.378-.588a9.98,9.98,0,0,0,.422-1.8A19.312,19.312,0,0,0,378.928,121.072Zm67.939,164.869c-.132-1.963-.205-3.934-.414-5.889-.14-1.305-.571-1.682-1.806-1.625-2.482.115-4.966.28-7.441.518-1.219.119-1.7.608-1.666,1.826.079,2.692-.414,5.362-.155,8.061.266,2.779.492,5.547.994,8.312a54.355,54.355,0,0,0,1.931,7.5,13.731,13.731,0,0,0,2.417,4.31c.557.685,1.211.656,1.865.019a7.124,7.124,0,0,0,1.559-2.3,25.989,25.989,0,0,0,1.75-5.3A53.518,53.518,0,0,0,446.867,285.941Zm-147.8-177.853a8.816,8.816,0,0,0,.114.933.392.392,0,0,0,.663.268c.584-.425,1.134-.9,1.689-1.363a87.5,87.5,0,0,1,18.7-12.127c1.775-.844,3.563-1.66,5.346-2.489a.848.848,0,0,0,.53-1.227,10.354,10.354,0,0,0-10.942-5.895,17.484,17.484,0,0,0-8.059,3.8C301.557,94.754,299.206,100.931,299.068,108.088Zm114.178-8.3a18.116,18.116,0,0,0-2.616-8.273c-3.284-5.662-7.978-9.412-14.585-10.5a10.314,10.314,0,0,0-11.2,6.437c-.427,1.044-.228,1.544.787,1.928.774.293,1.559.563,2.353.8A92.852,92.852,0,0,1,411.123,100.6a8.559,8.559,0,0,0,1.366.707.479.479,0,0,0,.706-.354A9.124,9.124,0,0,0,413.246,99.788ZM475.8,323.758c.1,1.507.111,2.341.226,3.159a.953.953,0,0,0,1.089.882c2.486-.354,4.9-.948,6.81-2.721a4.252,4.252,0,0,0,1.273-4.541,8.23,8.23,0,0,0-.985-2.274,29.382,29.382,0,0,0-6.883-7.128,1.048,1.048,0,0,0-1.151-.188,1,1,0,0,0-.471,1.065C475.975,316.151,475.919,320.293,475.8,323.758Zm-208.35,16.349c-.239-1.32-.606-2.726-.73-4.155-.287-3.287-.761-6.544-1.325-9.793-.156-.895-.539-1.075-1.225-.483a20.273,20.273,0,0,0-6.2,9.062c-.065.194-.081.407-.154.6a3.647,3.647,0,0,0,.639,3.5,5.215,5.215,0,0,0,2.946,2.146,33.453,33.453,0,0,0,4.534.927C267.11,342.071,267.533,341.517,267.446,340.107Z" transform="translate(-238.302 -50.648)" fill="#181f49"/><path d="M858.651,864.948c6.619.186,13.241-.555,19.861-.035,4.269.334,6.036,2.374,6.5,6.166a17.905,17.905,0,0,1-2.32,11.083,27.886,27.886,0,0,1-15.431,13.324,24.674,24.674,0,0,1-21-2.069,26.765,26.765,0,0,1-11.115-11.432,17.619,17.619,0,0,1-1.937-6.516c-.36-4.472,1.929-7.348,6.346-8.034,3.889-.6,7.766-1.236,11.706-1.514C853.729,865.748,856.136,864.932,858.651,864.948Zm2.155,27.974a17.647,17.647,0,0,0,8.886-2.428,25.529,25.529,0,0,0,5.216-3.911,20.839,20.839,0,0,0,6.711-12.649,6.953,6.953,0,0,0-.032-2.165,3.89,3.89,0,0,0-4.072-3.5c-2.793-.064-5.6-.2-8.385-.059a262.369,262.369,0,0,0-27.882,2.409c-3.882.614-5.222,2.694-4.14,6.553a20.156,20.156,0,0,0,6.8,10.17C848.726,891.383,854.051,893.742,860.805,892.922Z" transform="translate(-735.016 -730.394)" fill="#181f49"/><path d="M1200.121,779.211a6.894,6.894,0,0,1-7.034-6.055,6.539,6.539,0,0,1,13-1.346A6.884,6.884,0,0,1,1200.121,779.211Z" transform="translate(-1035.518 -648.085)" fill="#181f49"/><path d="M694.948,806.17a6.241,6.241,0,0,1,5.943-6.91,6.548,6.548,0,0,1,6.985,6.007,6.676,6.676,0,0,1-6.026,7.03A6.555,6.555,0,0,1,694.948,806.17Z" transform="translate(-619.58 -675.708)" fill="#181f49"/><path d="M1199.12,688.508a1.929,1.929,0,0,1-2.6,2.09,9.264,9.264,0,0,1-1.4-.629,7.423,7.423,0,0,0-7.11.042,16.142,16.142,0,0,1-1.907,1.017,2.335,2.335,0,0,1-3.055-3.376,9.421,9.421,0,0,1,7.309-5.1,7.74,7.74,0,0,1,8.1,3.93A3.6,3.6,0,0,1,1199.12,688.508Z" transform="translate(-1026.831 -578.206)" fill="#181f49"/><path d="M682.5,716.71c3.45-.289,6.074,1.389,8.212,3.979a2.61,2.61,0,0,1,.378,3.164,2.75,2.75,0,0,1-2.859.693,11.659,11.659,0,0,1-2.033-.739,7.549,7.549,0,0,0-7.088.84,13.38,13.38,0,0,1-1.3.829,2.009,2.009,0,0,1-2.871-1.766,3.945,3.945,0,0,1,.181-1.214A8.284,8.284,0,0,1,682.5,716.71Z" transform="translate(-602.889 -606.776)" fill="#181f49"/></g></g></g></svg>