<svg xmlns="http://www.w3.org/2000/svg" width="676.991" height="758.029" viewBox="0 0 676.991 758.029">
  <g id="Group_32" data-name="Group 32" transform="translate(-283.009 -2320.746)">
    <g id="Untitled-1-01" transform="translate(307.225 2426)" opacity="0.5">
      <path id="Path_14" data-name="Path 14" d="M657.334,330.947c0,180.26-146.127,326.387-326.387,326.387S4.559,511.207,4.559,330.947,150.686,4.559,330.947,4.559,657.334,150.689,657.334,330.947Z" transform="translate(-4.559 -4.559)" fill="#005ea8"/>
      <g id="Group_5" data-name="Group 5" transform="translate(411.247 55.784)">
        <path id="Path_15" data-name="Path 15" d="M1429.488,184.956l-10.26.295-.3-10.261,10.27-.3Z" transform="translate(-1366.429 -174.692)" fill="#ffc800"/>
        <path id="Path_16" data-name="Path 16" d="M1537.547,220.432l-14.013.4-.4-14.016,14.007-.4Z" transform="translate(-1436.464 -196.016)" fill="#ffc800"/>
        <path id="Path_17" data-name="Path 17" d="M1596.346,324.055,1576,326.022l-1.961-20.34,20.339-1.967Z" transform="translate(-1470.681 -261.411)" fill="#ffc800"/>
        <path id="Path_18" data-name="Path 18" d="M1294.769,242.408l-34.949,1.009-1.01-34.955,34.956-1.006Z" transform="translate(-1258.81 -196.714)" fill="#ffc800"/>
        <path id="Path_19" data-name="Path 19" d="M1456.84,348.065l-17.945.518-.525-17.943,17.945-.514Z" transform="translate(-1379.495 -279.161)" fill="#ffc800"/>
        <path id="Path_20" data-name="Path 20" d="M1690.505,481.878l-22.935,2.216-2.21-22.931,22.926-2.213Z" transform="translate(-1532.059 -365.747)" fill="#ffc800"/>
        <path id="Path_21" data-name="Path 21" d="M1783.433,611.406,1768.6,612.84l-1.43-14.831L1782,596.575Z" transform="translate(-1600.488 -458.247)" fill="#ffc800"/>
      </g>
    </g>
    <g id="XMLID_58_" transform="matrix(0.899, -0.438, 0.438, 0.899, 283.009, 2468.93)">
      <g id="XMLID_59_" transform="translate(4.196 4.218)">
        <path id="Path_113" data-name="Path 113" d="M204.843,178.692q-3.585,24.959-7.169,49.915c-.18,1.245-.4,2.485-.507,3.735-.3,3.6.653,4.968,4.114,5.633,6.458,1.242,12.183-.6,17.132-4.679,7.167-5.9,12.176-13.409,15.94-21.869a237.292,237.292,0,0,0,11.584-33.308c2.051-7.4,4.449-14.708,6.733-22.044a71.715,71.715,0,0,1,5.9-13.331,33.719,33.719,0,0,1,7.417-9.055c5.769-5.065,15.792-5.745,22.9-1.238,5.973,3.788,9.746,9.288,12.171,15.729,3.541,9.409,4.973,19.113,3.255,29.141-.345,2.012-.619,4.039-.874,6.065-1.7,13.543-6.15,26.221-11.953,38.494A134.064,134.064,0,0,1,274.4,249.431a87.6,87.6,0,0,1-31.606,24.745,46.06,46.06,0,0,1-19.127,4.393c-3.449.029-6.9.187-10.344.342a52.442,52.442,0,0,0-9.742,1.6c-8.773,2.075-13.625,7.939-15.637,16.4a67.84,67.84,0,0,0-1.2,8.392c-.776,7.17-1.369,14.358-2.252,21.513-1.133,9.2-2.478,18.367-3.735,27.551-.17,1.247-.427,2.485-.5,3.737-.1,1.714-.015,3.441-.121,5.16-.112,1.811-2.124,2.684-2.3,4.539-.177,1.908-1.58,2.524-3.276,2.777a158.721,158.721,0,0,1-24.83,2.15c-15.12-.165-30.065-2.15-44.882-4.815-13.9-2.5-27.533-6.247-40.277-12.625a18.971,18.971,0,0,1-2.482-1.335c-.483-.34-1.113-.942-1.108-1.422.03-2.961-1.486-5.669-.921-8.79,1.229-6.8,1.74-13.732,3.129-20.493q1.514-7.368,2.84-14.771c2.238-12.666,4.522-25.325,6.686-38.009,1.08-6.322,2.842-12.594,3.245-18.988.892-14.138,3.619-28.016,5.377-42.029a16.932,16.932,0,0,0-4.213-13.943,30.966,30.966,0,0,0-8.351-6.808,72.408,72.408,0,0,0-14.823-5.963,51.882,51.882,0,0,1-17.314-8.3,68.919,68.919,0,0,1-9.28-8.674,95.458,95.458,0,0,1-19.576-34A154.7,154.7,0,0,1,.034,86.935c-.263-8.2,1.063-16.266,2.122-24.364A59.167,59.167,0,0,1,6.6,46.757C10,38.842,14.741,31.874,21.927,26.877A21.8,21.8,0,0,1,41.2,23.572a17.668,17.668,0,0,1,11.568,9.657A46.384,46.384,0,0,1,57.09,48.084a217.875,217.875,0,0,1,.949,26.789c-.175,15.227-.048,30.434,2.82,45.493a55.006,55.006,0,0,0,8.051,19.45c2.926,4.58,7.209,7.368,12.233,9.1a10.413,10.413,0,0,0,3.7.476c3.225-.122,4.054-.908,4.722-4.116a18.142,18.142,0,0,0,.29-1.864c1.149-11.1,3.9-21.93,5.628-32.932,1.608-10.23,3.611-20.4,5.585-30.546,1.4-7.208,2.319-14.54,4.434-21.639,1.158-3.881,1.855-7.929,2.836-11.887,3.033-12.254,7.141-24.085,13.84-34.856a35.982,35.982,0,0,1,9.441-10.4,10.709,10.709,0,0,1,2.05-1.1.925.925,0,0,1,.86.143c.255.347.573.92.447,1.228a30.349,30.349,0,0,1-1.534,2.9C131.648,7.634,130,11,129.5,14.822a14.351,14.351,0,0,0,.621,6.5,9.088,9.088,0,0,0,7.348,6.514c5.408,1.041,10.26-.595,14.914-3.055A42.225,42.225,0,0,0,166.684,12.1c.721-.983,1.255-2.478,2.715-2.32,1.762.192,1.791,2,2.226,3.259a38.359,38.359,0,0,0,16.158,20.75,14.765,14.765,0,0,0,8.036,2.308c3.485-.007,6.453-1.315,8.247-4.531,1.616-2.9,2.874-5.817,2.463-9.358a46.421,46.421,0,0,0-1.495-8.79,10.684,10.684,0,0,1-.42-2.286,1.21,1.21,0,0,1,1.774-.891,11.041,11.041,0,0,1,1.991,1.949,37.652,37.652,0,0,1,5.39,10.943,81.642,81.642,0,0,1,3.764,20.8,240.622,240.622,0,0,1-.539,32.424c-.471,6.1-1.381,12.174-1.66,18.261-.371,8.184-2.089,16.2-2.58,24.325C211.54,139.055,207.373,158.764,204.843,178.692Zm-76.56-91.2a8.358,8.358,0,0,0,2.524-16.523,8.474,8.474,0,0,0-9.567,6.854C120.438,83.019,123.123,86.705,128.283,87.489ZM187.05,95.93c4.538,1.228,9.205-3.5,9.637-6.953a8.648,8.648,0,0,0-7.609-9.625,8.452,8.452,0,0,0-9.03,7.14A8.017,8.017,0,0,0,187.05,95.93ZM152.7,126.274a15.593,15.593,0,0,0,13.608-3.791c4.876-4.148,7.305-9.708,8.621-15.829a3.5,3.5,0,0,0-.194-2.742,1.205,1.205,0,0,0-.706-.539c-.243-.032-.706.18-.755.369-.362,1.354-.621,2.733-.951,4.094-1.332,5.468-3.636,10.307-8.369,13.754a14.585,14.585,0,0,1-21.094-3.565,20.494,20.494,0,0,1-3.615-14.739,30.715,30.715,0,0,0,.317-3.742,1.36,1.36,0,0,0-.73-1.053c-.68-.2-1.13.277-1.333.939-.046.15-.1.3-.132.451a24.329,24.329,0,0,0,1.2,14.788C141.081,120.843,145.276,125.228,152.7,126.274Z" transform="translate(0 67.49)" fill="#a7d63f"/>
        <g id="XMLID_60_" transform="translate(0.135 67.539)" opacity="0.5">
          <path id="Path_114" data-name="Path 114" d="M58.6,240.409c-4.393-.631-8.005-.971-11.54-1.694-10.288-2.1-20.623-4.082-30.451-7.931-4.235-1.66-8.366-3.583-12.56-5.349C2.022,224.58.409,223.488.82,220.92c-1.935-5.189.081-10.213.7-15.286.168-1.388,1.167-1.728,2.448-1.024,1.375.757,2.724,1.563,4.06,2.388,5.8,3.572,12.128,5.83,18.6,7.834a78.118,78.118,0,0,0,15.237,2.9c8.692.888,17.219.213,25.365-3.383a62.442,62.442,0,0,0,10-5.189c6.584-4.451,11.121-10.567,14.85-17.377A180.047,180.047,0,0,0,103.1,166.3a64.8,64.8,0,0,1,19.819-28.73c8.2-6.715,17.562-11.567,28.216-13.38,2.476-.422,4.971-.73,7.449-1.133,3.871-.629,7.732-1.308,11.6-1.939a43.963,43.963,0,0,0,23.167-11.831A75.659,75.659,0,0,0,216.47,68.095c.927-4.609,1.985-9.184,2.8-13.822a141.484,141.484,0,0,0,.612-45.452,56.971,56.971,0,0,1-.633-6.084C219.155.516,220.39-.447,222.564.2a24.721,24.721,0,0,1,12.494,7.973A41.276,41.276,0,0,1,243.172,25c1.808,7.366,2.643,14.831,1.238,22.406-.372,2.007-.629,4.036-.877,6.062-1.708,13.87-6.288,26.832-12.264,39.377a133.215,133.215,0,0,1-16.916,27.108,87.58,87.58,0,0,1-31.221,24.493,46.67,46.67,0,0,1-20.037,4.521,80.377,80.377,0,0,0-19.158,1.854c-9.171,2.219-14.317,8.186-16.027,17.11a140.087,140.087,0,0,0-2.585,19.61c-.507,10.7-2.379,21.207-3.745,31.784-.383,2.96-.913,5.9-1.233,8.868-.2,1.864-.046,3.757-.211,5.626-.158,1.772-2.141,2.665-2.3,4.538-.143,1.675-1.391,2.359-2.918,2.568-6.22.854-12.415,1.941-18.709,2.082-6.588.151-13.152-.233-19.734-.607C70.177,242.045,64.011,240.98,58.6,240.409Z" transform="translate(59.82 129.547)" fill="#84af2b"/>
          <path id="Path_115" data-name="Path 115" d="M35.513.037a1.457,1.457,0,0,1,1.261,1.82,9.1,9.1,0,0,1-.558,1.293c-4.433,8.206-7.129,17.023-9.566,25.985a148.032,148.032,0,0,0-4.5,26.9c-1.09,13.348-.638,26.651,2.841,39.708a55.266,55.266,0,0,0,5.578,13.45c3.99,6.91,10.148,11.48,16.944,15.251,3.008,1.67,6.245,2.934,9.395,4.342,6.457,2.888,12.922,5.786,18.486,10.252,7.87,6.317,12.59,14.324,12.693,24.656a23,23,0,0,1-5.447,15.193c-.793.966-1.637.881-2.123-.26-2.45-5.755-6.768-9.691-12.113-12.686a58.644,58.644,0,0,0-13.932-5.652c-12.216-3.177-21.577-10.307-29.562-19.865a89.756,89.756,0,0,1-14.4-23.585A132.591,132.591,0,0,1,1.6,84.194,149.357,149.357,0,0,1,.021,65.914,108.167,108.167,0,0,1,.9,48.081c.506-3.259.882-6.541,1.425-9.793C4.257,26.685,8.933,16.4,17.236,7.937A25.221,25.221,0,0,1,33.379.037C34-.019,34.631.006,35.257,0A.7.7,0,0,1,35.513.037Z" transform="translate(0 22.612)" fill="#84af2b"/>
          <path id="Path_116" data-name="Path 116" d="M27.19,28.158c3.6.434,8.169-1.112,12.524-3.444A42.235,42.235,0,0,0,53.988,11.992c.092-.126.17-.264.269-.386.688-.825,1.193-2.043,2.482-1.9,1.323.143,1.572,1.422,1.883,2.444a42.792,42.792,0,0,0,7,13.249,35.623,35.623,0,0,0,10.727,9.053,12.567,12.567,0,0,0,7.74,1.563,8.762,8.762,0,0,0,7.293-4.536c1.587-2.92,2.825-5.837,2.424-9.371a44.024,44.024,0,0,0-1.517-8.783,6.35,6.35,0,0,1-.4-1.828,1.68,1.68,0,0,1,.519-1.2,1.272,1.272,0,0,1,1.706.143A12.663,12.663,0,0,1,95.7,12.174a31.681,31.681,0,0,1,4.07,7.414,78.9,78.9,0,0,1,5.116,26.692,3.7,3.7,0,0,1-2.143,3.779,25.97,25.97,0,0,1-13.977,3.412c-11.409-.551-20.777-5.228-28.575-13.428a82.834,82.834,0,0,1-5.718-6.868,1.618,1.618,0,0,0-2.455-.444c-1.656,1.192-3.274,2.441-4.948,3.609a41.416,41.416,0,0,1-25.278,7.49A29.5,29.5,0,0,1,4.226,38.152,22.338,22.338,0,0,1,1.732,36,5.015,5.015,0,0,1,.466,30.06,104.075,104.075,0,0,1,9.753,11.053a35.214,35.214,0,0,1,9.2-10A7.02,7.02,0,0,1,20.555.093a1.59,1.59,0,0,1,1.306.1,1.416,1.416,0,0,1,.383,1.242A7.778,7.778,0,0,1,21.2,3.517a33.555,33.555,0,0,0-3.451,7.206,15.708,15.708,0,0,0-.722,9.254C18.132,24.722,20.846,27.219,27.19,28.158Z" transform="translate(112.584 0)" fill="#84af2b"/>
          <path id="Path_117" data-name="Path 117" d="M33.581,31.815C21.469,30.143,12.74,24.367,5.761,15.778A30.9,30.9,0,0,1,.327,4.878,6.931,6.931,0,0,1,.041,2.114,2.2,2.2,0,0,1,3.851.687,28.647,28.647,0,0,1,7.058,4.109,42.753,42.753,0,0,0,28.285,18.236c11.872,3.643,22.923,1.672,33.423-4.483a31.728,31.728,0,0,0,3.659-2.934c.976-.789,1.915-1.626,2.946-2.332A2.491,2.491,0,0,1,71.4,8.451a3.063,3.063,0,0,1,1.121,3.378,13.389,13.389,0,0,1-1.752,3.306A38.689,38.689,0,0,1,58.385,26.544C50.462,31.308,41.855,33.237,33.581,31.815Z" transform="translate(113.288 137.842)" fill="#84af2b"/>
        </g>
        <path id="Path_118" data-name="Path 118" d="M101.938,89.652a207.8,207.8,0,0,1-32.446-7.111A192.6,192.6,0,0,1,19.925,60.014C13.674,56.068,7.992,51.335,2.213,46.743A5.783,5.783,0,0,1,0,41.821c-.025-6.116.1-12.2.564-18.324C1,17.867,1.393,12.242,2.144,6.64c.144-1.078-.028-2.189.02-3.281a9.29,9.29,0,0,1,.332-2.3A1.953,1.953,0,0,1,3.425.1,1.032,1.032,0,0,1,4.674.451a1.949,1.949,0,0,1,.3.354c5.075,8.83,13.1,14.742,20.982,20.658A160.7,160.7,0,0,0,66.943,43.409a159.307,159.307,0,0,0,19.3,6.028c8.742,2.024,17.581,3.223,26.434,4.5,14.739,2.121,29.444,1.519,44.108-.413a148.582,148.582,0,0,0,35.584-8.8c6.846-2.718,13.656-5.592,19.938-9.572,1.628-1.029,2.73-2.6,4.381-3.51a2.267,2.267,0,0,1,1.311-.184c.558.073.65.641.716,1.087a4.1,4.1,0,0,1-.021,1.408c-1.082,5.218-1.226,10.611-2.987,15.707a17.217,17.217,0,0,0-.59,2.757,168.768,168.768,0,0,1-5,20.066,4.391,4.391,0,0,1-2.589,3.106c-2.752,1.15-5.449,2.446-8.232,3.514a179.77,179.77,0,0,1-43.258,10.926,221.734,221.734,0,0,1-26.291,1.578c-4.849,0-9.719-.413-14.568-.606C110.125,90.8,105.189,90.021,101.938,89.652Z" transform="translate(11.554 388.042)" fill="#d901ab"/>
        <path id="Path_119" data-name="Path 119" d="M26.8,35.529a24.373,24.373,0,0,1,12.693,4.154,3.486,3.486,0,0,0,1.291.524,1,1,0,0,0,.849-.225c.247-.344.551-.9.428-1.207a11.373,11.373,0,0,0-1.371-2.437A48.777,48.777,0,0,1,35.3,26.42a30.308,30.308,0,0,1-1.852-18.9C34.58,2.586,37.763-.052,42.823,0a13.434,13.434,0,0,1,5.471,1.237A30.451,30.451,0,0,1,58.177,8.36a44.975,44.975,0,0,1,9.516,15.03c.214.591.386,1.2.631,1.775,1.039,2.434,2.322,2.613,4.165.561.522-.583.92-1.276,1.429-1.871A47.813,47.813,0,0,1,92.2,10.132a29.467,29.467,0,0,1,7.776-1.766,8.464,8.464,0,0,1,1.878.024c6.4.682,9.436,3.934,9.337,10.676-.08,5.357-2.413,10.025-5.274,14.42A52.317,52.317,0,0,1,95.742,44.544c-.711.607-1.436,1.2-2.089,1.867a.946.946,0,0,0,0,.853c.126.245.483.566.7.54,1.7-.2,3.386-.58,5.092-.7,10.676-.773,20.675.785,28.886,8.488a17.533,17.533,0,0,1,3.027,4.145c2.07,3.531,1.247,9.249-3.713,12.237a23.186,23.186,0,0,1-14.523,2.983c-6.138-.585-12.14-1.706-17.559-4.9a6.068,6.068,0,0,0-.847-.41c-.888-.354-1.869-.728-2.648.034-.816.8-.391,1.759.114,2.58a43.765,43.765,0,0,1,3.854,8.572,34.113,34.113,0,0,1,1.548,11.14,11.222,11.222,0,0,1-2.711,6.9,6.136,6.136,0,0,1-5.478,2.155,14.657,14.657,0,0,1-7.948-2.6A36.664,36.664,0,0,1,68.17,81.688a34.741,34.741,0,0,1-2.483-8.582c-.08-.621-.265-1.231-.374-1.847-.141-.781-.235-1.718-1.085-1.93-.983-.243-1.187.747-1.544,1.415-.883,1.662-1.7,3.366-2.689,4.968a40.119,40.119,0,0,1-18.227,15.78A16.341,16.341,0,0,1,31.656,92.8c-3.39-.682-5.231-2.475-5.873-5.856A15.885,15.885,0,0,1,26.5,79.05c1.364-4.276,3.957-7.829,6.755-11.239,1.093-1.33,2.355-2.524,3.563-3.757.588-.6,1.016-1.252.562-2.07A2.012,2.012,0,0,0,35.4,60.969a18.5,18.5,0,0,0-2.775.435c-6.962,1.594-13.763.374-20.487-1.325a21.151,21.151,0,0,1-8.491-4.957c-5.079-4.428-4.8-11.3.515-15.47,3.579-2.808,7.832-3.888,12.2-4.627A28.583,28.583,0,0,1,26.8,35.529Z" transform="translate(106.396 0)" fill="#e48a21"/>
        <path id="Path_120" data-name="Path 120" d="M19.641,24.5A25.968,25.968,0,0,1,3.76,17.481a9.97,9.97,0,0,1-1.888-2.069C-.774,10.884-1.333,6.021,5.02,2.256A18.062,18.062,0,0,1,13.576.04,30.428,30.428,0,0,1,35.3,7.279a11.591,11.591,0,0,1,3.218,4.554c1.825,4.344.485,8.561-3.684,10.853A19.209,19.209,0,0,1,23.5,25.053C22.26,24.929,21.025,24.7,19.641,24.5Z" transform="translate(153.825 35.269)" fill="#f8e891"/>
        <path id="Path_121" data-name="Path 121" d="M108.8,38.352a30.719,30.719,0,0,1-12.031-3.674,29.028,29.028,0,0,0-3.012-1.316,1.6,1.6,0,0,0-1.75.361,1.528,1.528,0,0,0-.2,1.76c.483.985,1.087,1.91,1.582,2.891A35.468,35.468,0,0,1,97.579,55.11a9.109,9.109,0,0,1-.143,2.337C95.7,63.415,93.38,66.07,86.529,64.682a13.735,13.735,0,0,1-5.121-2.291A36.433,36.433,0,0,1,67.98,45.208a36.218,36.218,0,0,1-2.4-8.608,10.658,10.658,0,0,0-.517-2.291,1.823,1.823,0,0,0-.891-.995c-.475-.2-.871.233-1.1.653-.966,1.8-1.833,3.65-2.877,5.4a39.8,39.8,0,0,1-18.48,16.164A16.306,16.306,0,0,1,31.6,56.8a6.682,6.682,0,0,1-5.826-5.9,15.953,15.953,0,0,1,.746-7.89c1.376-4.271,3.967-7.822,6.772-11.227,1.095-1.33,2.355-2.524,3.564-3.757.6-.607.972-1.272.5-2.075a2.049,2.049,0,0,0-2.012-.976,19.881,19.881,0,0,0-2.773.451c-6.963,1.575-13.765.357-20.485-1.354A21.064,21.064,0,0,1,3.609,19.1c-5.063-4.454-4.734-11.276.58-15.474A18.093,18.093,0,0,1,9.13.938c4.024-1.513,5.3-1.655,4.745,3.109-.448,3.8,1.708,6.554,4.776,8.58a13.138,13.138,0,0,0,6.225,2c4.1.348,7.985,1.63,11.947,2.575a9.832,9.832,0,0,1,5.471,3.466,7.04,7.04,0,0,1,1.78,5.657c-.091.624-.182,1.245-.229,1.871-.158,2.1-.1,4.189,2.03,5.356,2.151,1.179,4.3.68,6.388-1.325,1.244-1.2,2.474-2.415,3.637-3.691a10.237,10.237,0,0,1,6.633-3.17,9.932,9.932,0,0,1,9.535,3.9,30.277,30.277,0,0,1,3.66,6.026,5.562,5.562,0,0,0,4.684,3.473c2.165.182,3.2-.451,3.837-2.565.408-1.349.636-2.76,1.126-4.075,1.752-4.713,4.672-6.759,9.7-6.548,4.068.17,8.157.054,12.193.869a13.824,13.824,0,0,0,4.682.206c4.354-.653,7.5-2.847,8.973-7.264,1.366-4.1,2.056-4.254,5.332-1.6a16.136,16.136,0,0,1,5.135,6.026c2.048,4.754.67,9.548-3.8,12.205a23.637,23.637,0,0,1-14.064,2.987C112.116,38.917,110.722,38.629,108.8,38.352Z" transform="translate(106.395 35.986)" fill="#e48a21" opacity="0.5"/>
        <path id="Path_122" data-name="Path 122" d="M1.746,1.008c-.155.226-.289.621-.468.644-.7.09-1.068-.377-1.247-1C-.072.306.093-.01.445,0A1.291,1.291,0,0,1,1.746,1.008Z" transform="translate(223.966 49.589)" fill="#e48a21" opacity="0.5"/>
        <path id="Path_123" data-name="Path 123" d="M86.233,170.719a152.607,152.607,0,0,1-40.345-12.358,69.127,69.127,0,0,1-23.032-17.542,85.586,85.586,0,0,1-19.7-40.555C.753,88.2.114,75.989.018,63.743-.071,52.3.168,40.866.9,29.44c.512-7.97.783-15.955,1.587-23.91.125-1.237-.062-2.51.08-3.747A2.439,2.439,0,0,1,3.5.253,1.687,1.687,0,0,1,5.631.607Q9.938,4.255,14.253,7.9c5.789,4.878,12.275,8.713,18.8,12.474,13.264,7.64,27.473,13.067,42.049,17.523,4.927,1.51,10.051,2.466,15.057,3.723a165.042,165.042,0,0,0,19,3.267c6.518.85,13.1,1.024,19.68,1.252a206.931,206.931,0,0,0,23.027-.563A173.376,173.376,0,0,0,200.86,34.662c2.927-1.116,5.764-2.471,8.645-3.718.718-.31,1.422-.66,2.162-.913a1.331,1.331,0,0,1,1.7,1.122,17.071,17.071,0,0,1-.281,3.267c-1.5,6.728-3.153,13.421-4.575,20.158-.939,4.451-1.876,8.887-3.038,13.29-2.685,10.155-5.337,20.309-8.606,30.3A191.457,191.457,0,0,1,185.42,126.5a85.912,85.912,0,0,1-35.654,36.472,67.22,67.22,0,0,1-23.655,7.528,162.8,162.8,0,0,1-26.28,1.286A133.882,133.882,0,0,1,86.233,170.719Z" transform="translate(7.355 435.85)" fill="#a27dfa"/>
        <path id="Path_124" data-name="Path 124" d="M102.05,69.077C81.364,66.645,61.8,59.577,43.158,49.9A163.548,163.548,0,0,1,7.872,25.8c-2.086-1.908-4.046-3.951-6.11-5.878A5.179,5.179,0,0,1,.046,15.266c.2-1.718.37-3.436.576-5.15.283-2.33.835-4.64.478-7.024a3.978,3.978,0,0,1,.1-1.4C1.369.908,1.665.122,2.584.011A1.461,1.461,0,0,1,4.052.976c2.24,4.859,6.257,8.252,10.063,11.708a146.58,146.58,0,0,0,23.921,17.46A185.183,185.183,0,0,0,79.421,48.035c10.069,3.024,20.527,4.456,30.968,5.771a166.3,166.3,0,0,0,16.864,1.408,185.45,185.45,0,0,0,21.149-.869,162.992,162.992,0,0,0,39.5-8.412,121.438,121.438,0,0,0,23.044-10.639c1.65-1,2.864-2.417,4.383-3.509a1.511,1.511,0,0,1,1.721-.306,1.6,1.6,0,0,1,.641,1.641,20.6,20.6,0,0,1-.26,2.339c-.544,3.408-1.158,6.81-1.648,10.227a5.5,5.5,0,0,1-3.046,4.393,140.772,140.772,0,0,1-18.3,8.6A193,193,0,0,1,146.461,70a183.463,183.463,0,0,1-25.363.961A175.2,175.2,0,0,1,102.05,69.077Z" transform="translate(12.61 388.065)" fill="#e383d4"/>
        <g id="XMLID_61_" transform="translate(7.483 454.462)">
          <path id="Path_125" data-name="Path 125" d="M99.409,63.494C85.348,61.8,72.61,57.917,60.064,53.31a270.163,270.163,0,0,1-39.774-18.2C14.126,31.628,8.306,27.628,2.5,23.595.967,22.532-.031,21.314.142,19.338.2,18.721-.031,18.085,0,17.464q.408-7.04.875-14.081a13.019,13.019,0,0,1,.232-1.869C1.393.189,2.416-.374,3.54.262A26.73,26.73,0,0,1,7.078,2.587,170.8,170.8,0,0,0,44.629,24.906a276.624,276.624,0,0,0,36.805,13c8.009,2.281,16.029,4.509,24.36,5.1,6.718.476,13.465.82,20.195.767,8.152-.068,16.321-.364,24.447-1.019a187.761,187.761,0,0,0,35.207-6.111,156.169,156.169,0,0,0,17.409-5.81c.726-.3,1.466-.568,2.213-.805,3.453-1.1,4.732-.15,3.679,3.15-1.626,5.1-1.949,10.489-3.781,15.533a4.979,4.979,0,0,1-3.009,3.325c-1.029.384-2.07.738-3.111,1.092-16.584,5.669-33.691,8.752-51.081,10.543a246.26,246.26,0,0,1-27.721,1.476A115.135,115.135,0,0,1,99.409,63.494Z" transform="translate(0.283 0)" fill="#855efa"/>
          <path id="Path_126" data-name="Path 126" d="M92.668,58.4c-10.406-.844-20.27-3.961-30.1-7.256A222.944,222.944,0,0,1,27.6,36.072,194.264,194.264,0,0,1,9.484,25.117C7.036,23.427,4.263,22.243,2.1,20.1a5.3,5.3,0,0,1-1.862-3.66Q.045,8.917,0,1.391C-.007.168.768-.289,1.885.182A23.634,23.634,0,0,1,4.831,1.643,358.94,358.94,0,0,0,59.5,27.9a222.77,222.77,0,0,0,21.954,6.956c8.235,2.223,16.636,3.247,25.04,4.126a132.011,132.011,0,0,0,17.373.262A319,319,0,0,0,176.613,32.9,151.064,151.064,0,0,0,192.682,29.3a30.1,30.1,0,0,1,5.08-.922,1.232,1.232,0,0,1,1.471,1.383,4.533,4.533,0,0,1-.2,1.389c-1.456,4.47-2.968,8.921-4.393,13.4-.6,1.883-1.993,2.631-3.708,3.228-8.016,2.791-16.2,4.98-24.442,6.96-16.875,4.053-34.053,5.485-51.348,5.7A104.605,104.605,0,0,1,92.668,58.4Z" transform="translate(0 41.163)" fill="#855efa"/>
          <path id="Path_127" data-name="Path 127" d="M85.621,54.957c-5.129-.738-10.294-1.291-15.382-2.252a154.467,154.467,0,0,1-29.268-8.679c-8.583-3.465-17.112-7.087-25.344-11.348-1.392-.718-2.731-1.539-4.109-2.291a7.8,7.8,0,0,1-3.209-3.359A83.254,83.254,0,0,1,.072,2.584,5.281,5.281,0,0,1,.091.739.945.945,0,0,1,1.133,0,5.978,5.978,0,0,1,4.066,1.389,232.1,232.1,0,0,0,28.187,15.126,226.128,226.128,0,0,0,61.874,28.362,175.741,175.741,0,0,0,100.641,35.7a201.332,201.332,0,0,0,29.132-.048,236.1,236.1,0,0,0,49.457-9.009c1.247-.364,2.8-1.553,3.859-.116.813,1.1-.352,2.359-.9,3.422a88.186,88.186,0,0,1-14.135,19.886,9.809,9.809,0,0,1-5.313,2.762A185.381,185.381,0,0,1,142.3,55.87c-8.415.981-16.827,2-25.329,1.941A141.565,141.565,0,0,1,97.74,56.753q-6.063-.881-12.126-1.743C85.616,54.99,85.619,54.97,85.621,54.957Z" transform="translate(2.871 78.337)" fill="#855efa"/>
        </g>
        <g id="XMLID_62_" transform="translate(16.985 419.36)" opacity="0.5">
          <path id="Path_128" data-name="Path 128" d="M76.351,140.75c-16.592-3.077-32.666-7.664-47.361-16.3a68.765,68.765,0,0,1-12.811-10.3c-6.387-6.189-11.108-13.581-15.147-21.44a19.925,19.925,0,0,1-.944-2.155,1.136,1.136,0,0,1,.006-.893c.3-.432.822-.359,1.256-.18,1.017.413,2.01.888,3.025,1.306,8.143,3.344,16.382,6.364,25.142,7.708A34.821,34.821,0,0,1,33.13,99.53a28.747,28.747,0,0,0,7.443,1.029,32.321,32.321,0,0,1,3.754.054A102.129,102.129,0,0,0,80.3,98.059a106.011,106.011,0,0,0,45.373-23C140.013,62.64,152.484,48.6,160.883,31.342c2.48-5.092,4.721-10.3,5.546-15.95.381-2.6,1.806-3.781,4.233-4.276a131.454,131.454,0,0,0,14.445-4.286,103.583,103.583,0,0,0,14.875-5.9,14.49,14.49,0,0,1,2.17-.878A1.335,1.335,0,0,1,203.768,1.3a4.025,4.025,0,0,1,0,.937c-.539,3.1-.99,6.208-1.667,9.271-1.25,5.659-2.631,11.285-3.97,16.926-1.085,4.577-2.092,9.179-3.3,13.722q-2.425,9.086-5.116,18.1c-3.861,12.955-8.237,25.716-14.686,37.662a85.584,85.584,0,0,1-23.639,27.726A73.264,73.264,0,0,1,125.5,138.73a95.79,95.79,0,0,1-19.071,2.8C96.389,142.1,86.361,142.249,76.351,140.75Z" transform="translate(0 46.465)" fill="#6e26c7"/>
          <path id="Path_129" data-name="Path 129" d="M43.7,9.07c-1.544,8.955-3.745,17.765-5.83,26.6-.25,1.058-1.031,2.039-1.087,3.082-.226,4.228-3.157,5.66-6.516,7.019A198.969,198.969,0,0,1,9,53.279C6.731,53.91,4.452,54.507,2.156,55,.47,55.366-.13,54.764.023,52.968.443,47.973.938,42.993,1.341,38c.452-5.616.806-11.246,1.26-16.863.216-2.7.26-2.757,2.847-3.436A141.583,141.583,0,0,0,29.613,8.54C34.144,6.4,38.68,4.234,42.291.6A3.478,3.478,0,0,1,43.08.1a1.273,1.273,0,0,1,1.689,1.058C44.836,3.852,44.117,6.441,43.7,9.07Z" transform="translate(168.518 0)" fill="#6e26c7"/>
        </g>
        <g id="XMLID_63_" transform="translate(5.978 0.579)" opacity="0.5">
          <path id="Path_130" data-name="Path 130" d="M10.946,105.553A157.669,157.669,0,0,0,13.4,162.115c.378,1.68.7,3.383.937,5.087a4.1,4.1,0,0,1-.308,1.805,1.45,1.45,0,0,1-2.342.5,7.565,7.565,0,0,1-1.342-1.9,39.428,39.428,0,0,1-1.457-3.975c-1.323-4.17-2.153-8.47-4.444-12.344-1.074-1.816-1.361-4.16-1.746-6.31A133.843,133.843,0,0,1,.583,123.468C.372,109.989-.081,96.5.013,83.03q.08-11.5.914-23.013C1.448,52.81,2.745,45.689,3.1,38.5,3.511,30.171,5.065,22,5.772,13.721c.239-2.806.259-5.631.427-8.441a14.254,14.254,0,0,1,.42-2.786A3.221,3.221,0,0,1,9.213.052c1.275-.267,2.042.543,2.751,1.422a2.692,2.692,0,0,1,.283.378c3.973,7.053,10.31,11.718,16.61,16.421a25.8,25.8,0,0,1,3.337,2.606c2.89,3.024,6.474,4.839,10.252,6.461C55.564,32.976,68.643,38.7,81.731,44.4c2.438,1.063,4.925,1.986,7.339,3.136A14.018,14.018,0,0,0,97.8,48.605c.774-.15,1.641-.5,2.28.009,2.256,1.781,5.034,1.714,7.612,2.116,8.065,1.253,16.137,2.68,24.262,3.281a132.756,132.756,0,0,0,27.233-.762,6.055,6.055,0,0,0,2.693-.7c1.937-1.408,3.721-2.141,5.922-.466.473.359,1.536.078,2.291-.088,2.3-.495,4.56-1.2,6.876-1.582,1.587-.262,2.313-1.51,3.424-2.325a1.355,1.355,0,0,1,2.167.883c.784,7.99-.291,15.3-7.128,20.736A42.443,42.443,0,0,1,156.719,78.1a80.959,80.959,0,0,1-17.341,1.184c-5.324-.131-10.667-.106-15.962-.573-4.825-.427-9.712-.781-14.352-2.432a7.732,7.732,0,0,0-1.822-.461c-6.423-.684-12.619-2.529-18.847-4.038-8.881-2.145-17.889-3.3-26.878-4.66A91.3,91.3,0,0,0,39,66.88a23.219,23.219,0,0,0-14.872,7.3C17.363,81.15,12.952,89.252,11.874,99.018,11.632,101.2,11.259,103.375,10.946,105.553Z" transform="translate(0 387.24)" fill="#fff"/>
          <path id="Path_131" data-name="Path 131" d="M41.715,133.82a24.563,24.563,0,0,1-13.869-8.528c-7.07-8.375-11.064-18.161-13.505-28.682a123.085,123.085,0,0,1-2.893-30.83,50.317,50.317,0,0,1,.694-5.6,94.7,94.7,0,0,0,.742-19.226A32.217,32.217,0,0,0,7.9,25.935,97.148,97.148,0,0,0,2.335,17.78C-2.037,12.1.313,5.254,4.6.738A3.032,3.032,0,0,1,7.7.167c5.647,1.291,10.065,4.274,12.754,9.521A43.113,43.113,0,0,1,24.9,24.008,196.388,196.388,0,0,1,25.99,51.238c-.2,15.372-.1,30.718,2.769,45.926a55.055,55.055,0,0,0,7.715,19.066,22.514,22.514,0,0,0,11.088,9.087c3.228,1.3,6.338,1.67,9.405-.369a.876.876,0,0,1,.806-.058,1.062,1.062,0,0,1,.267.84c-.522,3.255-2.62,5.341-5.423,6.645A18.281,18.281,0,0,1,41.715,133.82Z" transform="translate(26.095 89.957)" fill="#fff"/>
          <path id="Path_132" data-name="Path 132" d="M8.9,113.871a22.718,22.718,0,0,1-4.172-.648C2.253,112.367.26,110.9,0,107.97c-.056-.653.67-1.371,1.151-1.056,2.625,1.73,5.623,1.774,8.586,2.051a10.045,10.045,0,0,0,4.558-.83c6.747-2.514,11.559-7.38,15.9-12.834,4.648-5.842,7.65-12.6,10.409-19.445a251.627,251.627,0,0,0,8.878-26.774c2.223-8,4.725-15.928,7.261-23.838a66.435,66.435,0,0,1,5.667-12.4A28.663,28.663,0,0,1,71.482,2.8,15.409,15.409,0,0,1,81.258.036a2.424,2.424,0,0,1,2.388,1.835c1.373,3.966.592,7.747-1,11.438-1.444,3.349-3.774,6.136-5.922,9.036-2.24,3.027-4.466,6.062-6.73,9.07a50.661,50.661,0,0,0-7.827,16.5c-2.694,9.179-5.434,18.338-8.808,27.294-3.277,8.691-7.026,17.134-13.128,24.3a45.34,45.34,0,0,1-13.21,11.158C21.32,113.676,15.36,115.246,8.9,113.871Z" transform="translate(190.362 196.481)" fill="#fff"/>
          <path id="Path_133" data-name="Path 133" d="M11.785.37c3.72.125,6.739,2.211,9.649,4.324,6.151,4.467,10.073,10.67,13.039,17.544.5,1.149.872,2.354,1.422,3.475a1.528,1.528,0,0,0,2.408.45,33.154,33.154,0,0,0,2.512-2.779C45.557,17.817,50.976,13.136,57.8,10.257a21.535,21.535,0,0,1,13.824-1.3c3.808.929,5.672,2.833,6.342,6.661a14.74,14.74,0,0,1-.068,5.159c-.134.751-.252,1.9-.723,2.118-1.143.523-1.408-.842-1.942-1.474A7.9,7.9,0,0,0,67.193,18.7a24.43,24.43,0,0,0-10.247,4.538q-5.3,3.917-10.555,7.912a22,22,0,0,1-5.376,2.894,9.51,9.51,0,0,1-8.592-.822,16.083,16.083,0,0,1-4.889-4.368c-1.689-2.267-3.356-4.551-4.98-6.864a39.529,39.529,0,0,0-9.775-10.1c-3.552-2.462-7.02-3.466-10.829-.657a1.726,1.726,0,0,1-1.3.268c-.767-.209-.682-.962-.607-1.554A29.285,29.285,0,0,1,.669,6.232C1.818,1.8,4.728-.268,9.342.028,10.126.077,10.9.242,11.785.37Z" transform="translate(133.436 0)" fill="#fff"/>
        </g>
      </g>
      <g id="XMLID_64_" transform="translate(0 0)">
        <g id="XMLID_65_" transform="translate(0 0)">
          <path id="Path_134" data-name="Path 134" d="M13.858,394.094c.583-4.058,1.093-7.32,1.514-10.592,1.587-12.363,8.828-19.641,20.489-23.122,8.2-2.446,16.606-3.339,25.083-3.849,2.346-.141,4.7-.124,7.055-.143a1.977,1.977,0,0,0,2.065-1.546,2.059,2.059,0,0,0,.123-.454c.371-5.2,2.28-10.091,3.007-15.222,1.943-13.69,3.975-27.369,5.867-41.068.793-5.745.737-11.572,1.592-17.329a18.112,18.112,0,0,0-.468-6.075,12.8,12.8,0,0,0-5.586-8.388,54.751,54.751,0,0,0-14.9-6.878c-2.849-.876-5.7-1.755-8.516-2.728-8.23-2.842-14.826-8.116-20.8-14.244-12.471-12.8-20.364-28.121-24.911-45.3A157.805,157.805,0,0,1,.056,162.8c-.169-4.385.086-8.778.184-13.166a103.972,103.972,0,0,1,1.6-16.382c2.3-12.613,7.211-24.032,16.273-33.361a29.826,29.826,0,0,1,12.019-8.053c2.336-.767,2.5-1.158,2.215-3.82-.43-4.055-.615-8.138-.8-12.215a15.62,15.62,0,0,1,.335-4.194,2.608,2.608,0,0,1,2.3-2.085,2.54,2.54,0,0,1,2.41,1.2,14.561,14.561,0,0,1,1.459,2.924,51.5,51.5,0,0,1,2.19,9.635c.251,1.391.559,2.776.71,4.179.148,1.386.58,2.41,2.12,2.665,1.616.265,3.1.352,4.131-1.33q3.938-6.425,7.982-12.785A25.756,25.756,0,0,1,57.4,72.965c1.171-1.357,2.569-1.716,3.747-1.116A3.12,3.12,0,0,1,62.571,75.9a58.237,58.237,0,0,1-2.69,6.526c-1.7,3.538-3.526,7.016-5.333,10.5-.471.907-.732,1.747.121,2.548,1.007.942,1.869,2.262,3.57,1.684a16.179,16.179,0,0,0,2.136-.983c3.767-1.946,7.52-3.917,11.293-5.851,1.534-.786,3.075-1.575,4.671-2.218a2.183,2.183,0,0,1,2.917.769,2.488,2.488,0,0,1-.141,3.075A17.323,17.323,0,0,1,76.4,94.529c-3.491,2.679-7.035,5.288-10.55,7.931-.879.663-1.748,1.337-2.591,2.043a2.249,2.249,0,0,0-.725,2.541c.09.3.173.607.278.9,3.18,9.031,3.621,18.435,3.77,27.878.17,10.664-.394,21.328.138,31.992a180.537,180.537,0,0,0,2.666,24.325,46.5,46.5,0,0,0,7.334,17.214,15.724,15.724,0,0,0,9.264,6.837c2.136.556,3.122.056,3.375-2.029.738-6.087,2.8-11.9,3.472-18.013a143.541,143.541,0,0,1,2.706-17.219c1.99-8.422,2.78-17.047,4.666-25.452,1.273-5.677,1.976-11.443,3.3-17.086,3.233-13.734,6.1-27.595,11.538-40.683,3.628-8.727,8.045-17.052,15.108-23.641a4.543,4.543,0,0,0,.664-1.16,3.919,3.919,0,0,0-1.165-.621,35.939,35.939,0,0,1-9.113-2.257,32.844,32.844,0,0,1-8.1-4.757,20.013,20.013,0,0,1-3.256-3.377c-4.615-6.052-3.987-12.988,1.631-18.172a24.482,24.482,0,0,1,11.114-5.908,39.341,39.341,0,0,1,16.82-.693q1.387.273,2.793.441c1.257.149,1.659-.4,1.249-1.7-.8-2.541-2-4.93-2.618-7.554a49.027,49.027,0,0,1-1.287-8.843A19.64,19.64,0,0,1,141.2,7.016c2.12-3.952,7.479-7.75,13.362-6.894,7.679,1.119,13.415,5.166,18.237,10.73a48.025,48.025,0,0,1,7.713,11.238c1.194,2.6,1.934,1.783,3.379.255a47.378,47.378,0,0,1,16.372-11.669c5.038-2.077,10.191-3.089,15.618-1.65a12.645,12.645,0,0,1,9.414,8.98A17.938,17.938,0,0,1,224.965,30a50.45,50.45,0,0,1-8.143,14.241c-1.029,1.267-.75,1.957.823,2.223,2.015.341,4.056.524,6.058.925A35.6,35.6,0,0,1,241.486,56.5a19.6,19.6,0,0,1,5.327,8.726,11,11,0,0,1-2.131,10.6,17.209,17.209,0,0,1-8.3,5.961,31.755,31.755,0,0,1-15.3,1.6c-.772-.126-1.558-.2-2.339-.25s-1.223.532-.852,1.184a56.356,56.356,0,0,1,4.332,9.912,90.252,90.252,0,0,1,4.05,23.614,216.714,216.714,0,0,1-.136,22.1c-.469,10.349-1.554,20.632-2.468,30.939-.765,8.606-2.216,17.129-2.808,25.723-1.546,22.452-5.9,44.518-8.754,66.785-.881,6.856-2.046,13.674-3.119,20.5-.658,4.179-1.044,8.39-2.4,12.467a36.79,36.79,0,0,0-1.124,7.441c-.148,1.337.563,2.075,1.937,2.07,3.995-.012,7.749-.747,11.111-3.182a43.576,43.576,0,0,0,12.814-14.846,147.338,147.338,0,0,0,11.458-28.327c2.638-8.871,5.114-17.79,7.812-26.639a101.952,101.952,0,0,1,8.936-21.236A31.138,31.138,0,0,1,270.1,200.469c8.172-5.08,16.428-4.662,24.576-.194a27.666,27.666,0,0,1,11.9,12.382c.2.425.446.83.689,1.233,1.733,2.864,1.306,3.009,4.708,2.14q7.3-1.868,14.652-3.541a36.08,36.08,0,0,1,5.57-.835,2.333,2.333,0,0,1,2.527,1.725,2.094,2.094,0,0,1-1.129,2.371,30.175,30.175,0,0,1-4.075,2.335c-4.573,2.082-9.191,4.068-13.783,6.1a31.207,31.207,0,0,0-2.959,1.447,1.532,1.532,0,0,0-.85,1.568c.306,1.536.675,3.065,1.126,4.565a1.353,1.353,0,0,0,1.5.888c1.25-.107,2.5-.231,3.742-.388q7.241-.921,14.474-1.876a8.449,8.449,0,0,1,3.73.02,1.958,1.958,0,0,1,.915,3.325,11.4,11.4,0,0,1-4.5,2.466c-4.89,1.74-9.914,3.007-14.933,4.293-1.063.272-2.131.553-3.162.92a1.463,1.463,0,0,0-1.073,1.391c-.092,4.5-1.126,4.934,4.221,5.944,4.466.847,8.9,1.854,13.322,2.922a21.308,21.308,0,0,1,4.349,1.733,2.173,2.173,0,0,1,1.223,2.352,2.571,2.571,0,0,1-1.762,2.034,11.174,11.174,0,0,1-5.114.369q-7.5-.586-15.013-1.068c-2.6-.165-2.912.1-3.439,2.7a155.32,155.32,0,0,1-18.224,47.726c-5.325,9.141-11.511,17.723-19.251,24.9-8.655,8.034-18.251,14.868-29.487,19.066a54.186,54.186,0,0,1-18.94,3.153,82.088,82.088,0,0,0-12.673.752c-2.5.4-4.871,1.184-7.313,1.743-5.92,1.357-10.3,9.125-10.188,15.463.027,1.519,1.06,2.111,2.381,2.5a124.748,124.748,0,0,1,14.217,4.951,86.419,86.419,0,0,1,17.753,9.635,29.253,29.253,0,0,1,8.614,9.834c2.473,4.65,2.723,9.664,2.254,14.688a95.918,95.918,0,0,1-2.335,15.838c-1.742,6.533-1.961,13.373-4.318,19.751a20.733,20.733,0,0,0-.5,2.777q-2.494,11.249-5.009,22.488c-.07.306-.148.606-.211.917-1.35,6.606-2.623,13.232-4.073,19.819-.944,4.281-2.123,8.509-3.232,12.756-1.587,6.067-3.109,12.154-4.827,18.183-4.568,16.028-9.684,31.851-18.2,46.326a85.314,85.314,0,0,1-22.309,25.255,93.352,93.352,0,0,1-15.48,9.829c-9.192,4.427-18.965,6.47-29.053,7.363a178.7,178.7,0,0,1-19.746.6c-5.008-.116-10.108-.141-14.993-1.1-15.591-3.068-30.862-7.315-44.924-14.979a74.588,74.588,0,0,1-18.415-14.533c-8.681-9.179-14.725-19.954-18.964-31.7a103.733,103.733,0,0,1-5.314-25.294c-1-10.32-1.291-20.654-1.314-31.027-.02-9.572.432-19.12.744-28.677.221-6.732,1.121-13.436,1.6-20.163.382-5.311.591-10.635.876-15.955.05-.942.071-1.883.146-2.82.513-6.407,1.4-12.815,1.455-19.227C12.343,404.768,13.687,399.1,13.858,394.094Zm57.526-6.309q-2.277,15.865-4.555,31.725c-.112.777-.185,1.563-.3,2.34a2.687,2.687,0,0,0,1.692,3.038c2.132,1,4.3,1.913,6.434,2.912a120.82,120.82,0,0,0,29.622,9.053c10.033,1.869,20.189,3.087,30.285,4.621a153.054,153.054,0,0,0,18.3,1.282,130.725,130.725,0,0,0,22.524-1.6c5.58-.8,5.145-.51,5.934-5.99q3.761-26.131,7.5-52.262a26.3,26.3,0,0,0,.408-4.684,34.5,34.5,0,0,1,2.548-14.259,21.137,21.137,0,0,1,10.154-11.327,32.151,32.151,0,0,1,7.6-2.478,76.613,76.613,0,0,1,16.375-1.49c5.99-.075,11.941-.621,17.549-2.952a81.034,81.034,0,0,0,24.823-15.969c12.766-12.077,21.7-26.773,28.636-42.774a120.293,120.293,0,0,0,5.271-14.6c.956-3.33,1.558-6.725,2.475-10.045a72.586,72.586,0,0,0,2.053-31.225,43.371,43.371,0,0,0-8.992-20.962c-6.317-7.781-21.175-11.713-30.172.255a54.241,54.241,0,0,0-6.395,10.965,168.075,168.075,0,0,0-6.844,20.035c-2.466,8.431-4.6,16.96-7.521,25.252a205.875,205.875,0,0,1-8.3,20.51,59.351,59.351,0,0,1-14.509,18.93,20.718,20.718,0,0,1-8.623,4.685c-3.342.859-6.737,1.651-10.225.784-3.934-.978-5.831-3.469-5.662-7.505a36.07,36.07,0,0,1,.469-3.74c1.546-10.557,2.786-21.165,5.286-31.563,2.825-22.59,7.057-44.981,9.1-67.69.956-10.613,1.99-21.243,3.366-31.825.345-2.648,1.019-5.305.954-7.946-.165-6.458,1-12.81,1.311-19.229a253.4,253.4,0,0,0-.112-29.623A68.654,68.654,0,0,0,215.6,93.184c-.648-1.748-1.024-3.805-2.871-4.919.041,1.708.075,3.417.129,5.123.022.626.109,1.252.138,1.879a15.075,15.075,0,0,1-2.968,9.264,11.107,11.107,0,0,1-8.613,5.038,17.064,17.064,0,0,1-11.086-3.15A45.333,45.333,0,0,1,175.008,90.1c-1.939-3.563-1.92-3.417-4.915-.946a101.246,101.246,0,0,1-9.776,7.368,29.267,29.267,0,0,1-15.014,5.063c-8.967.211-14.13-4.907-13.866-13.431a19.09,19.09,0,0,1,1.472-7.356c.517-1.143.943-2.328,1.392-3.5.142-.371.013-.614-.3-.614a.65.65,0,0,0-.413.187c-.33.333-.629.7-.952,1.039-5.5,5.82-8.891,12.916-11.965,20.151-4.373,10.293-6.817,21.183-9.372,32.017-1.438,6.1-2.746,12.251-3.688,18.445-1.133,7.451-3.441,14.676-4.119,22.2-.041.469-.21.922-.269,1.388-.675,5.3-2.152,10.443-3.055,15.69-1.547,8.977-2.769,18.01-4.137,27.022a24.111,24.111,0,0,1-.592,3.24c-1.057,3.563-2.922,4.851-6.623,4.6a20.576,20.576,0,0,1-15.383-8.036,51.408,51.408,0,0,1-9.854-21.673c-3.012-14.4-3.105-28.988-3.018-43.6.05-8.315.225-16.634-.42-24.932-.5-6.451-1.632-12.763-4.526-18.651a17.084,17.084,0,0,0-8.72-8.2c-5.21-2.352-10.376-2.075-15.528,0a27.764,27.764,0,0,0-10.786,8.167c-6.338,7.485-10.147,16.227-12.3,25.663a111.636,111.636,0,0,0-2.35,23.859,144.593,144.593,0,0,0,4.265,36.392c4.029,16.2,10.434,31.235,21.73,43.838,6.152,6.863,13,12.763,21.911,15.8,2.376.81,4.761,1.6,7.164,2.323a51.835,51.835,0,0,1,17.265,8.422c5.585,4.344,9.245,9.815,9.191,17.2a35.288,35.288,0,0,1-.4,4.684c-1.43,10.113-3,20.207-4.313,30.338q-1.878,14.489-4.133,28.925c-.68,4.351-1.914,8.577-2.6,12.9C74.311,366.616,72.906,377.208,71.384,387.785ZM98.02,609.435c2.491.568,5.037.092,7.511.374a129.688,129.688,0,0,0,22.562.087c11.224-.689,22.084-2.82,32.189-8.087a90.172,90.172,0,0,0,11.753-7.8,77.954,77.954,0,0,0,20.532-23.056,145.677,145.677,0,0,0,12.176-27c2.907-8.286,5.509-16.673,7.667-25.2,1.808-7.14,4.024-14.184,5.582-21.372,1.723-7.966,3.381-15.94,5.359-23.847a1.85,1.85,0,0,0-.345-1.2c-.061-.1-.592,0-.869.112-4.509,1.825-8.962,3.805-13.528,5.475a170.683,170.683,0,0,1-31.483,7.8,193.875,193.875,0,0,1-45.988,1.82,213.25,213.25,0,0,1-56.087-11.6c-15.439-5.533-30.164-12.45-43.674-21.838a157.649,157.649,0,0,1-14.1-11.014c-.815-.714-1.284-.466-1.559.631-.7,2.791-.28,5.63-.461,8.441-.5,7.665-.872,15.334-1.439,22.988-.626,8.456-.662,16.926-.6,25.386.085,10.985.371,21.954,1.96,32.861,2.594,17.818,8.941,33.9,21.218,47.365a67.052,67.052,0,0,0,19.23,14.945,146.864,146.864,0,0,0,16.058,6.732C80.258,605.575,89.159,607.433,98.02,609.435Zm18.445-129.658a170.668,170.668,0,0,0,21.516,2.257c6.12.117,12.231.223,18.339-.058A187.443,187.443,0,0,0,199,475.112a167.745,167.745,0,0,0,22.529-8.281,4.073,4.073,0,0,0,2.485-2.573,179.644,179.644,0,0,0,7.118-29.677,26.57,26.57,0,0,1,1.364-5.471c.323-.835.646-2.364.269-2.65-1-.753-1.359.753-2.082,1.175-2.3,1.339-4.553,2.776-6.89,4.053-12.8,6.985-26.578,11.164-40.79,14.076a200.268,200.268,0,0,1-33.21,3.466c-9.28.32-18.425-1.466-27.66-1.888-4.282-.194-8.213-2.073-12.427-2.534-7.862-.864-15.349-3.208-22.76-5.791a181.162,181.162,0,0,1-36.9-17.591c-10.71-6.718-20.5-14.47-28.72-24.119a2.652,2.652,0,0,0-.68-.636.628.628,0,0,0-1.016.442c-.173.767-.233,1.558-.406,2.32-1.017,4.48-.549,9.067-1.044,13.591a166.8,166.8,0,0,0-.839,19.717,6.606,6.606,0,0,0,2.619,5.723c2.263,1.689,4.387,3.563,6.638,5.272A179.9,179.9,0,0,0,71.85,468.579a206.6,206.6,0,0,0,32.959,9.49C108.656,478.83,112.577,479.219,116.465,479.777ZM219.906,77.369a50,50,0,0,0,5.16.342c2.189-.07,4.371-.379,6.55-.631a12.492,12.492,0,0,0,6.058-2.463c3.364-2.529,4.917-5.706,2.844-9.8a16.013,16.013,0,0,0-5.953-6.513c-8.2-5.076-17.03-7.093-26.6-4.919a16.86,16.86,0,0,1-2.745.624,2.641,2.641,0,0,1-2.629-1.649,2.549,2.549,0,0,1,.536-3.037c.777-.771,1.7-1.391,2.536-2.1,6.221-5.268,11.11-11.466,13.814-19.28a13.975,13.975,0,0,0,.408-7.868,6.471,6.471,0,0,0-5.359-5.258c-4.694-1.057-9.069-.081-13.261,1.939a43.206,43.206,0,0,0-15,11.914,31.44,31.44,0,0,1-2.736,3.229,3.4,3.4,0,0,1-5.553-.839,21.383,21.383,0,0,1-1.061-2.614,43.665,43.665,0,0,0-13.1-18.12,17.871,17.871,0,0,0-10.74-4.284,6.575,6.575,0,0,0-6.811,4.025,16.84,16.84,0,0,0-1.409,8.259c.431,7.753,3.316,14.636,7.56,21.023.7,1.045,1.462,2.046,2.089,3.131a2.293,2.293,0,0,1-.557,2.983,2.555,2.555,0,0,1-2.991.718A21.957,21.957,0,0,1,148.9,45.03c-7.4-4.3-15.342-5.213-23.658-3.853a23.327,23.327,0,0,0-8.321,3.167,9.711,9.711,0,0,0-4.566,5.776c-.973,3.526.785,6.128,3.234,8.285a23.367,23.367,0,0,0,6.889,4c6.809,2.723,13.784,2.692,20.858,1.536a31.947,31.947,0,0,1,3.23-.6,2.982,2.982,0,0,1,3.223,3.636,4.312,4.312,0,0,1-1.278,2.456c-1.317,1.347-2.678,2.66-3.883,4.1-3.583,4.3-6.291,8.965-6.617,14.775-.295,5.232,2.47,8.075,7.678,7.417a24.562,24.562,0,0,0,9.758-3.3,39.826,39.826,0,0,0,15.925-17.491,12.317,12.317,0,0,1,1.682-2.806,2.284,2.284,0,0,1,4.046.947c.459,1.658.636,3.393.993,5.082a37.779,37.779,0,0,0,13.744,22.411,16.033,16.033,0,0,0,5.892,2.871c3.614.966,7.255-.168,8.208-4.749a19.944,19.944,0,0,0,.328-7.944,44.165,44.165,0,0,0-4.126-11.984c-.505-.976-1.082-1.915-1.558-2.9-.653-1.362.019-2.442.9-3.4a2.589,2.589,0,0,1,3.007-.74c1.454.59,2.85,1.318,4.267,1.995A36.971,36.971,0,0,0,219.906,77.369Z" fill="#181f49"/>
          <path id="Path_135" data-name="Path 135" d="M.208,5.168c.134-.534.444-2.07.919-3.553A2.285,2.285,0,0,1,3.24.006a2.332,2.332,0,0,1,2.369,1.9,34.354,34.354,0,0,1,.42,5.6,19.929,19.929,0,0,0,2.125,9.065,12.7,12.7,0,0,0,4.227,4.936,13.02,13.02,0,0,0,17.785-1.9,20.224,20.224,0,0,0,4.87-9.007,22.868,22.868,0,0,1,.847-3.172c.643-1.643,1.922-2.5,3.172-2.3A2.928,2.928,0,0,1,41.2,8.356a24.479,24.479,0,0,1-.677,5.121c-2.012,7.626-6,13.756-13.484,17.079a18.555,18.555,0,0,1-20.422-4C1.146,20.844-.663,13.925.208,5.168Z" transform="translate(139.475 167.972)" fill="#181f49"/>
          <path id="Path_136" data-name="Path 136" d="M11.259.265c6.73.646,9.521,6.313,8.951,11.574-.529,4.876-6.563,8.99-11.465,8.257A10.455,10.455,0,0,1,.1,8.544C.862,3.36,6.655-1.157,11.259.265Z" transform="translate(182.319 149.435)" fill="#181f49"/>
          <path id="Path_137" data-name="Path 137" d="M19.811,11.623c.161,4.9-6.922,9.271-11.186,8.375A10.982,10.982,0,0,1,.069,8.213c.478-4.08,6.049-9.286,12-8.019C17.6,1.371,20.724,5.681,19.811,11.623Z" transform="translate(123.437 141.109)" fill="#181f49"/>
          <path id="Path_138" data-name="Path 138" d="M1.142,16.362A75.612,75.612,0,0,1,3.877,4.023,7.545,7.545,0,0,1,5.3,1.111C6.98-.683,9.383-.26,10.085,2.062a8.648,8.648,0,0,1,.455,3.682c-.946,6.026-.493,12.171-1.676,18.176A19.134,19.134,0,0,1,7.1,29.231a3.536,3.536,0,0,1-3.361,2.143A3.793,3.793,0,0,1,.47,28.433,11.655,11.655,0,0,1,.141,23.32C.481,21,.808,18.682,1.142,16.362Z" transform="translate(136.951 282.186)" fill="#181f49"/>
          <path id="Path_139" data-name="Path 139" d="M17.981,24.517a3.052,3.052,0,0,1-4.85,2.175,10.948,10.948,0,0,1-3.5-3.757A125.326,125.326,0,0,1,.33,3.945,3.314,3.314,0,0,1,.122,1.656,2.6,2.6,0,0,1,3.6.219,6.19,6.19,0,0,1,6.1,2.3a138.434,138.434,0,0,1,10.763,17.08A9.277,9.277,0,0,1,17.981,24.517Z" transform="translate(109.399 300.093)" fill="#181f49"/>
          <path id="Path_140" data-name="Path 140" d="M2.753,22.941a3.288,3.288,0,0,1-2.622-4.1,7.761,7.761,0,0,1,2.031-3.653C7.253,10.57,11.9,5.437,17.668,1.6a12.668,12.668,0,0,1,2.9-1.488,2.165,2.165,0,0,1,2.488.874,2.124,2.124,0,0,1,.376,2.207,12.649,12.649,0,0,1-1.711,2.777c-4.295,4.968-8.5,10.021-13.449,14.382a13.138,13.138,0,0,1-4.035,2.328A5.826,5.826,0,0,1,2.753,22.941Z" transform="translate(149.509 308.484)" fill="#181f49"/>
        </g>
        <g id="XMLID_66_" transform="translate(83.239 166.399)">
          <path id="Path_141" data-name="Path 141" d="M18.91,25.621A27.375,27.375,0,0,1,5.487,20.452,16.011,16.011,0,0,1,1.614,16.4C-.663,12.972-.527,9.686,2,6.412A13.86,13.86,0,0,1,7.143,2.429,27.346,27.346,0,0,1,19.467,0,32.64,32.64,0,0,1,35.628,4.274,16.926,16.926,0,0,1,40.3,8.162c3.619,4.415,3.83,9.179-.847,13.224a17.622,17.622,0,0,1-7.518,3.694A29.15,29.15,0,0,1,18.91,25.621Z" transform="translate(107.451 15.646)" fill="#d901ab"/>
          <path id="Path_142" data-name="Path 142" d="M19.909,25.921A28.1,28.1,0,0,1,6.046,20.5,17.466,17.466,0,0,1,1.16,14.84,7.669,7.669,0,0,1,2.672,4.96,13.677,13.677,0,0,1,8.245,1.54c10.667-3.165,20.493-1.461,29.4,5.2a11.96,11.96,0,0,1,3.9,4.631c2.193,4.83.828,9.494-3.809,12.048a26.133,26.133,0,0,1-14.1,3.017C22.392,26.382,21.153,26.1,19.909,25.921Z" transform="translate(0 0)" fill="#d901ab"/>
        </g>
      </g>
    </g>
  </g>
</svg>
