<svg xmlns="http://www.w3.org/2000/svg" width="362.117" height="61" viewBox="0 0 362.117 61">
  <g id="Group_122" data-name="Group 122" transform="translate(-229.883 -30)">
    <text id="ComboPOS" transform="translate(290 78)" fill="#707070" font-size="50" font-family="Montserrat-ExtraBold, Montserrat" font-weight="800"><tspan x="0" y="0">ComboPOS</tspan></text>
    <g id="Group_115" data-name="Group 115" transform="translate(7 96)">
      <path id="Path_256" data-name="Path 256" d="M65.429,49V62.329H21V49h4.443v8.886H60.986V49Z" transform="translate(202.994 -72.671)" fill="#898890"/>
      <path id="Path_257" data-name="Path 257" d="M21,33h6.664v6.664H21Z" transform="translate(202.994 -74.443)" fill="#5aaae7"/>
      <path id="Path_258" data-name="Path 258" d="M27,33h6.664v6.664H27Z" transform="translate(203.659 -74.443)" fill="#3d9ae2"/>
      <path id="Path_259" data-name="Path 259" d="M39.664,33v6.664H33V33Z" transform="translate(204.323 -74.443)" fill="#5aaae7"/>
      <path id="Path_260" data-name="Path 260" d="M39,33h6.664v6.664H39Z" transform="translate(204.987 -74.443)" fill="#3d9ae2"/>
      <path id="Path_261" data-name="Path 261" d="M47.107,39v6.664H36V39H47.107Z" transform="translate(204.655 -73.779)" fill="#acabb1"/>
      <path id="Path_262" data-name="Path 262" d="M50.772,45v4.443H33V45H50.772Z" transform="translate(204.323 -73.114)" fill="#898890"/>
      <path id="Path_263" data-name="Path 263" d="M36,53H47.107v4.443H36Z" transform="translate(204.655 -72.228)" fill="#c6c5ca"/>
      <path id="Path_264" data-name="Path 264" d="M60.543,49v8.886H48.325V53.443H37.218v4.443H25V49H60.543Z" transform="translate(203.437 -72.671)" fill="#acabb1"/>
      <path id="Path_265" data-name="Path 265" d="M21,27h6.664v6.664H21Z" transform="translate(202.994 -75.107)" fill="#3d9ae2"/>
      <path id="Path_266" data-name="Path 266" d="M27,27h6.664v6.664H27Z" transform="translate(203.659 -75.107)" fill="#5aaae7"/>
      <path id="Path_267" data-name="Path 267" d="M33,27h6.664v6.664H33Z" transform="translate(204.323 -75.107)" fill="#3d9ae2"/>
      <path id="Path_268" data-name="Path 268" d="M39,27h6.664v6.664H39Z" transform="translate(204.987 -75.107)" fill="#5aaae7"/>
      <path id="Path_269" data-name="Path 269" d="M27,21h6.664v6.664H27Z" transform="translate(203.659 -75.772)" fill="#3d9ae2"/>
      <path id="Path_270" data-name="Path 270" d="M21,21h6.664v6.664H21Z" transform="translate(202.994 -75.772)" fill="#5aaae7"/>
      <path id="Path_271" data-name="Path 271" d="M33,21h6.664v6.664H33Z" transform="translate(204.323 -75.772)" fill="#5aaae7"/>
      <path id="Path_272" data-name="Path 272" d="M39,21h6.664v6.664H39Z" transform="translate(204.987 -75.772)" fill="#3d9ae2"/>
      <path id="Path_273" data-name="Path 273" d="M45,13H62.772V41.879H45Z" transform="translate(205.652 -76.658)" fill="#d1d3d4"/>
      <path id="Path_274" data-name="Path 274" d="M47.658,13v8.886H21V13Z" transform="translate(202.994 -76.658)" fill="#ffa733"/>
      <path id="Path_275" data-name="Path 275" d="M36,39H47.107v2.221H36Z" transform="translate(204.655 -73.779)" fill="#898890"/>
      <path id="Path_276" data-name="Path 276" d="M62.661,24V40.661H46Z" transform="translate(205.762 -75.44)" fill="#bcbec0"/>
      <path id="Path_280" data-name="Path 280" d="M65.54,43.1a1.111,1.111,0,0,0,1.111-1.111V13.111A1.111,1.111,0,0,0,65.54,12H21.111A1.111,1.111,0,0,0,20,13.111V41.99A1.111,1.111,0,0,0,21.111,43.1h15.55v4.443H34.44a1.111,1.111,0,0,0-1.111,1.111v3.332H21.111A1.111,1.111,0,0,0,20,53.1V66.426a1.111,1.111,0,0,0,1.111,1.111H65.54a1.111,1.111,0,0,0,1.111-1.111V53.1a1.111,1.111,0,0,0-1.111-1.111H53.322V48.654a1.111,1.111,0,0,0-1.111-1.111H49.99V43.1ZM42.215,29.772h4.443v4.443H42.215Zm-2.221,4.443H35.55V29.772h4.443Zm6.664-6.664H42.215V23.107h4.443Zm-6.664,0H35.55V23.107h4.443Zm-6.664,0H28.886V23.107h4.443Zm-6.664,0H22.221V23.107h4.443Zm0,2.221v4.443H22.221V29.772Zm2.221,0h4.443v4.443H28.886Zm4.443,6.664v4.443H28.886V36.436Zm2.221,0h4.443v4.443H35.55Zm6.664,0h4.443v4.443H42.215Zm22.215,4.443H48.879V14.221h15.55ZM46.658,14.221v6.664H22.221V14.221ZM22.221,36.436h4.443v4.443H22.221ZM59.986,54.208v6.664h-10V57.54a1.111,1.111,0,0,0-1.111-1.111H37.772a1.111,1.111,0,0,0-1.111,1.111v3.332h-10V54.208ZM47.768,60.872H38.882V58.651h8.886Zm16.661,4.443H22.221V54.208h2.221v7.775a1.111,1.111,0,0,0,1.111,1.111H61.1a1.111,1.111,0,0,0,1.111-1.111V54.208h2.221ZM51.1,51.986H35.55V49.765H51.1Zm-3.332-4.443H38.882V43.1h8.886Z" transform="translate(202.883 -76.768)"/>
      <path id="Path_281" data-name="Path 281" d="M48,20h6.664v2.221H48Z" transform="translate(205.984 -75.882)"/>
      <path id="Path_282" data-name="Path 282" d="M56,20h2.221v2.221H56Z" transform="translate(206.87 -75.882)"/>
      <path id="Path_283" data-name="Path 283" d="M48,24h6.664v2.221H48Z" transform="translate(205.984 -75.44)"/>
      <path id="Path_284" data-name="Path 284" d="M56,24h2.221v2.221H56Z" transform="translate(206.87 -75.44)"/>
      <path id="Path_285" data-name="Path 285" d="M48,28h6.664v2.221H48Z" transform="translate(205.984 -74.997)"/>
      <path id="Path_286" data-name="Path 286" d="M56,28h2.221v2.221H56Z" transform="translate(206.87 -74.997)"/>
      <path id="Path_287" data-name="Path 287" d="M48,32h6.664v2.221H48Z" transform="translate(205.984 -74.554)"/>
      <path id="Path_288" data-name="Path 288" d="M56,32h2.221v2.221H56Z" transform="translate(206.87 -74.554)"/>
      <path id="Path_289" data-name="Path 289" d="M40,16h2.221v2.221H40Z" transform="translate(205.098 -76.325)"/>
      <path id="Path_290" data-name="Path 290" d="M36,16h2.221v2.221H36Z" transform="translate(204.655 -76.325)"/>
      <path id="Path_291" data-name="Path 291" d="M32,16h2.221v2.221H32Z" transform="translate(204.212 -76.325)"/>
    </g>
  </g>
</svg>
