<svg xmlns="http://www.w3.org/2000/svg" width="310.462" height="357.314" viewBox="0 0 310.462 357.314"><g transform="matrix(0.891, 0.454, -0.454, 0.891, 91.16, 0)"><path d="M249.905,25.98a28.921,28.921,0,0,1-8.991,1.308,29.888,29.888,0,0,0-8.656,1.8,13.618,13.618,0,0,0-8.579,8.583c-1.1,3.007-2.154,6.035-3.31,9.021a26.793,26.793,0,0,1-5.479,8.707,17.7,17.7,0,0,1-13.9,5.73,41.408,41.408,0,0,1-9.482-1.446,50.287,50.287,0,0,0-16.865-1.291,12.034,12.034,0,0,0-5.54,1.813,25.737,25.737,0,0,0-8.77,8.817,38.546,38.546,0,0,1-13.881,13.519,24.149,24.149,0,0,1-13.415,3.295,46.838,46.838,0,0,1-11.971-2.184,17.64,17.64,0,0,1-4.037-1.792,31.26,31.26,0,0,0-8.505-3.537c-4.27-1.129-8.442-1.2-12.54,1.006a54.091,54.091,0,0,0-10.145,6.7c-2.137,1.859-4.2,3.8-6.41,5.58a23.706,23.706,0,0,1-8.395,4.515,17.256,17.256,0,0,1-12.573-1.137A33.694,33.694,0,0,1,50.1,89.6c-2.007-1.819-4.112-3.531-6.193-5.266-3.487-2.9-7.513-3.476-11.828-2.63a33.486,33.486,0,0,0-10.013,3.7,29.2,29.2,0,0,1-7.317,2.514,12.844,12.844,0,0,1-8.64-.992,7.754,7.754,0,0,1-3.775-3.4A19.221,19.221,0,0,1,0,74.694c-.065-2.5,1.244-4.493,2.363-6.513a14.907,14.907,0,0,1,3.287-3.965,34.794,34.794,0,0,1,10.539-5.99,3.871,3.871,0,0,1,3.552.172c2.731,1.607,5.81,2.038,8.857,2.415a148.673,148.673,0,0,0,35.376.674c2.442-.278,4.875-.653,7.309-1.025,5.789-.882,10.189-4.133,13.99-8.34.987-1.091,1.792-2.346,2.722-3.491.731-.9,1.339-.935,2.192-.175.366.328.684.708,1.028,1.059a20.584,20.584,0,0,0,9.951,5.366c5.46,1.383,10.99,1.139,16.536,1.067a65.7,65.7,0,0,0,17.787-3.026c5.481-1.613,10.4-4.439,15.386-7.113,1.021-.549,1.2-1.432,1.552-2.354.5-1.314.933-1.619,2.2-1.166a2.087,2.087,0,0,0,2.331-.388c4.14-3.439,7.835-7.174,8.817-12.79a3.867,3.867,0,0,1,.362-1.04,1.259,1.259,0,0,1,1.537-.7,7.346,7.346,0,0,1,1.35.587,36.834,36.834,0,0,0,8.075,2.573,20.747,20.747,0,0,0,12.314-1.259,137.974,137.974,0,0,0,20.648-9.829A176.692,176.692,0,0,0,227.74,7.35a22.373,22.373,0,0,0,4.793-5.1A3.79,3.79,0,0,1,235.28.588c4.171-.608,8.4-.979,12.487.093,6.968,1.83,10.69,5.688,11.771,11.786,1.059,5.957-1.341,10.051-7.387,12.9A10.315,10.315,0,0,1,249.905,25.98Z" transform="translate(7.306 88.702)" fill="#a7d63f"/><path d="M249.03,24.4c-2.723.945-5.572.948-8.4,1.1a28.926,28.926,0,0,0-8.637,1.889,13.765,13.765,0,0,0-8.419,8.753c-1.028,2.906-2.068,5.807-3.173,8.682a26.61,26.61,0,0,1-5.708,8.995,17.711,17.711,0,0,1-13.63,5.511,41.025,41.025,0,0,1-9.486-1.434,50.1,50.1,0,0,0-16.867-1.307,12.136,12.136,0,0,0-5.55,1.785,25.691,25.691,0,0,0-8.791,8.8,38.773,38.773,0,0,1-13.866,13.544,23.965,23.965,0,0,1-13.043,3.321,46.733,46.733,0,0,1-12.695-2.289,15.939,15.939,0,0,1-3.693-1.664,30.661,30.661,0,0,0-8.5-3.546c-4.266-1.127-8.437-1.238-12.544.971a54.825,54.825,0,0,0-10.15,6.7c-2.141,1.859-4.207,3.8-6.41,5.586a23.776,23.776,0,0,1-8.393,4.525A17.254,17.254,0,0,1,58.5,93.2a33.651,33.651,0,0,1-8.364-5.384c-2.011-1.817-4.114-3.529-6.193-5.268-3.485-2.91-7.511-3.491-11.826-2.649A33.367,33.367,0,0,0,22.091,83.59a28.914,28.914,0,0,1-7.313,2.522,12.871,12.871,0,0,1-8.646-.981,7.771,7.771,0,0,1-3.782-3.4A19.527,19.527,0,0,1,0,72.9c-.076-2.106.954-3.8,1.828-5.55,1.224-2.449,1.834-2.548,3.54-.524a7.653,7.653,0,0,0,5.738,2.9,18.176,18.176,0,0,0,6.58-.606c4.946-1.569,10.1-2.24,15.169-3.158a33.111,33.111,0,0,1,23.2,3.9c1.383.807,2.819,1.527,4.258,2.228,5.306,2.575,10.3,1.582,15.049-1.463,1.552-.994,2.933-2.251,4.45-3.3,6.513-4.5,13.615-6.783,21.609-5.667a46,46,0,0,1,7.138,1.885c2.824.872,5.65,1.744,8.459,2.668a29.676,29.676,0,0,0,9.834,1.426c9.912-.179,18.519-3.617,25.47-10.836,2.735-2.838,5.42-5.721,8.143-8.57a27.614,27.614,0,0,1,13.518-7.945,31.091,31.091,0,0,1,11.369-.746c1.223.156,2.468.2,3.664.476,3.529.807,6.85-.04,10.147-1.139a9.074,9.074,0,0,0,4.315-3.359,52.142,52.142,0,0,0,3.548-5.176c4.931-8.471,12.43-13.476,21.655-16.134,4.611-1.329,9.1-3.02,13.706-4.386,4.2-1.245,7.479-3.841,7.511-8.907a.871.871,0,0,1,1.251-.838,13.994,13.994,0,0,1,8.376,15.641c-.91,3.935-3.82,6.207-7.3,7.8A19.529,19.529,0,0,1,249.03,24.4Z" transform="translate(7.298 90.511)" fill="#84af2b" opacity="0.5"/><path d="M6.2,16.236c7.332-.9,14.235-2.7,21.221-4.066a134.31,134.31,0,0,0,20.3-5.475C53.491,4.586,59.525,3.284,65.162.81c.562-.246,1.175-.366,1.756-.566A2.646,2.646,0,0,1,70.41,1.362a13.16,13.16,0,0,0,3.672,3.6,3.438,3.438,0,0,1,1.463,3.534,12.988,12.988,0,0,1-5.032,9.484c-5.9,4.452-11.916,8.713-18.839,11.468a59.446,59.446,0,0,1-8.989,3.276C34.637,34.5,26.5,35.8,18.2,34.908c-3.42-.366-6.845-.685-10.242-1.322-3.677-.689-5.6-3.34-7.5-6.071a3.387,3.387,0,0,1-.1-3.2,16.394,16.394,0,0,0,1.333-4.969,2.526,2.526,0,0,1,2.251-2.519C4.775,16.64,5.6,16.394,6.2,16.236Z" transform="translate(97.099 108.109)" fill="#e383d4"/><g transform="translate(19.766 72.582)"><path d="M30.4,44.464a29.057,29.057,0,0,1-12.783,1.192A24.851,24.851,0,0,1,11.6,43.932C8.08,42.46,4.569,40.921,1.83,38.118A12.363,12.363,0,0,1,.573,36.769c-.99-1.387-.687-2.649.834-3.32,1.687-.741,3.415-1.4,5.13-2.078,7.778-3.081,15.59-6.079,23.329-9.255a182.249,182.249,0,0,0,17.621-8.524A83.488,83.488,0,0,0,58.879,6.767C61.126,5.04,63.32,3.248,65.542,1.49A14.89,14.89,0,0,1,67.317.176a1.173,1.173,0,0,1,1.617.39,1,1,0,0,1,.177.324c.825,3.215,2.078,6.37,2.1,9.716.036,4.658-2.125,8.551-4.963,12.068a52.207,52.207,0,0,1-10.7,9.593,100.72,100.72,0,0,1-19.17,10.3C34.469,43.382,32.4,43.843,30.4,44.464Z" transform="translate(149.226 0)" fill="#d901ab"/><path d="M54.834,23.865a87.077,87.077,0,0,1-29.141,1.512,46.24,46.24,0,0,1-12.552-2.9,21.22,21.22,0,0,1-9.027-6.2,10.082,10.082,0,0,1-2.085-3.854C1.413,10.039.657,7.693.088,5.3c-.344-1.445.337-2.135,1.821-1.9,2.794.436,5.574.973,8.36,1.461,4.639.817,9.318.646,13.994.568C31.77,5.3,39.244,4.672,46.71,3.93c2.445-.244,4.875-.625,7.309-.973,6.688-.962,13.375-1.944,20.065-2.9A6.188,6.188,0,0,1,75.55.033a1.672,1.672,0,0,1,1.634,2.015,13.367,13.367,0,0,1-1.259,4.611c-2.7,5.357-6.134,10.1-11.371,13.287a20.035,20.035,0,0,1-3.194,1.83C59.294,22.559,57.15,23.138,54.834,23.865Z" transform="translate(0 53.464)" fill="#d901ab"/></g><path d="M17.762,20.1a13.549,13.549,0,0,1,9.073.265,37.192,37.192,0,0,1,6.136,2.5c5.466,3.251,11.482,4.283,17.654,4.813a25.531,25.531,0,0,0,6.955-.307c5.2-.971,9.235-3.9,13.19-7.066a34.905,34.905,0,0,0,9.008-10.16A30.078,30.078,0,0,1,83.1,5.726C86.125,2.09,90.232.525,94.769.133a45.778,45.778,0,0,1,16.424,1.9,4.4,4.4,0,0,1,.685.278,1.33,1.33,0,0,1,.537,2.129,10.831,10.831,0,0,1-1.676,1.43c-1.008.706-2.045,1.373-3.093,2.019a117.984,117.984,0,0,0-13.6,10.141,153.484,153.484,0,0,0-15.6,15.153c-3.874,4.295-7.614,8.709-11.415,13.07-.4.463-.842.9-1.245,1.36a2.346,2.346,0,0,1-2.676.72c-1.524-.489-3.034-1.021-4.552-1.531-7.351-2.472-14.567-5.367-22.074-7.347C27.07,36.972,17.586,34.816,7.8,34.4q-2.4-.1-4.79-.318a11.84,11.84,0,0,1-2.167-.405,1.207,1.207,0,0,1-.659-1.788,1.731,1.731,0,0,1,.225-.293c4.178-3.824,8.242-7.808,13.521-10.158C15.164,20.883,16.482,20.538,17.762,20.1Z" transform="translate(89.427 149.024)" fill="#f1cd30"/><g transform="translate(29.72 118.567)"><path d="M127.555,91.994c-7.254.684-14.15,3.12-21.316,4.361A182.553,182.553,0,0,1,78.326,98.9a219.75,219.75,0,0,1-28.044-1.3c-3.55-.391-7.109-.606-10.653-1.141a88,88,0,0,1-23.969-7.212A32.349,32.349,0,0,1,4.448,81.026a19.527,19.527,0,0,1-2.032-21.8c2.357-4.094,2.4-4.247,6.953-5.172,4.161-.85,8.065-.417,11.425,2.569,2.575,2.291,5.191,4.552,7.909,6.671A25.783,25.783,0,0,0,46.57,69.074a9.513,9.513,0,0,0,4.574-1.217,12.834,12.834,0,0,1,9.231-1.541,69.273,69.273,0,0,0,7.736.59c4.317.238,8.551,1.048,12.813,1.691,12.527,1.893,24.266,6.433,36.165,10.448,1.87.628,3.725,1.3,5.593,1.931a3.308,3.308,0,0,0,3.433-.724,47.6,47.6,0,0,0,4.274-4.6c7.02-7.93,13.685-16.206,21.79-23.1,5.342-4.544,10.636-9.166,16.686-12.817,2.527-1.524,4.883-3.329,7.309-5.022a5.637,5.637,0,0,1,3.782-1.209c.362.028.735-.1,1.1-.1,6.046-.086,10.4-3.325,14.123-7.661a31.515,31.515,0,0,0,5.633-10.311c.733-2.095,1.548-4.165,2.169-6.292,1.263-4.31,4.3-6.751,8.33-8.217.461-.168.952-.257,1.417-.421a7.971,7.971,0,0,1,7.321.954,19.127,19.127,0,0,1,9.575,14.186,21.108,21.108,0,0,1-2.392,12.885,66.923,66.923,0,0,1-15.022,19.052A178.765,178.765,0,0,1,195.5,60.367,242.794,242.794,0,0,1,167.948,76.89a142.921,142.921,0,0,1-18.979,8.154c-4.772,1.682-9.595,3.123-14.453,4.483C132.145,90.192,130.085,91.749,127.555,91.994Z" transform="translate(0 0)" fill="#87413c"/></g><g transform="translate(0 0)"><g transform="translate(0 0)"><path d="M103.428,5.689A162.583,162.583,0,0,1,143.54.028,152.634,152.634,0,0,1,170.41,1.922a126.44,126.44,0,0,1,29.456,8.264A109.248,109.248,0,0,1,233.9,32.647a144.953,144.953,0,0,1,9.922,11.425c2.659,3.18,2.586,6.843,1.916,10.52a24.873,24.873,0,0,1-4.89,10.638c-5.553,7.324-12.763,12.577-20.591,17.143-5.873,3.42-12.2,5.847-18.351,8.669-7.275,3.34-14.809,6.027-22.227,9.012-6.275,2.525-12.594,4.931-18.983,7.146-5.114,1.775-10.362,3.192-15.43,5.037-5.347,1.948-10.805,3.373-16.262,4.877a56.568,56.568,0,0,1-8.322,1.628c-2.677.322-5.279,1.226-7.938,1.731-4.83.918-9.68,1.708-14.515,2.588q-4.176.763-8.374,1.385c-12.659,1.851-25.312,3.7-38.067,4.818a127.636,127.636,0,0,1-19.916.3,57.693,57.693,0,0,1-17.586-3.98,28.746,28.746,0,0,1-9.581-6.14,21.084,21.084,0,0,1-4.2-6.464,7.39,7.39,0,0,1-.417-3.992,95.471,95.471,0,0,1,8.2-29.408,113.817,113.817,0,0,1,23.687-34.1,148.318,148.318,0,0,1,41.01-28.621c5.222-2.484,10.558-4.688,15.99-6.709C93.722,8.387,98.569,7.048,103.428,5.689Z" fill="#c9816b"/><path d="M147.333,105.822c-2.923.608-6.033,1.933-9.419,1.977a3.687,3.687,0,0,0-1.411.409c-5.1,2.291-10.564,3.445-15.972,4.527a149.042,149.042,0,0,1-21.931,2.94c-6.521.32-13.03.91-19.551,1.055a164.139,164.139,0,0,1-29.8-2.357,128.07,128.07,0,0,1-16.919-3.854,33.933,33.933,0,0,1-8.459-3.645c-1.662-1.057-3.411-1.981-5.1-3a17.448,17.448,0,0,1-2.754-1.857c-5.23-4.75-10.1-9.848-12.9-16.449A33.642,33.642,0,0,1,0,72.335C.015,68.056,1.461,64.118,2.971,60.2a1.072,1.072,0,0,1,1.558-.5,4.474,4.474,0,0,1,.914.623A54.476,54.476,0,0,0,19.395,67.8a95.4,95.4,0,0,0,26.959,5.951c7.736.646,15.456,1.455,23.232,1.535a213.583,213.583,0,0,0,22.52-.7c3.058-.291,6.1-.745,9.158-1.1,4.782-.56,9.4-2.036,14.121-2.767a113.935,113.935,0,0,0,16.507-3.963c6.33-1.979,12.706-3.841,18.941-6.161,14.295-5.319,27.443-12.775,40.187-21.021,3.62-2.343,7.195-4.763,10.684-7.294,8.421-6.111,16.1-13,22.221-21.5A44.34,44.34,0,0,0,228.9,2.162a11.059,11.059,0,0,1,.609-1.343,1.464,1.464,0,0,1,2.224-.484c4.121,3.727,8.25,7.45,10.029,13a40.832,40.832,0,0,1,1.316,20.412A50.934,50.934,0,0,1,235.4,52.413c-2.453,3.742-5.685,6.808-8.836,9.92a138.812,138.812,0,0,1-18.077,14.618,122.633,122.633,0,0,1-14.986,9.48c-8.139,4.1-16.3,8.168-24.569,11.99-3.221,1.485-6.637,2.613-9.991,3.835C155.221,103.612,151.451,104.7,147.333,105.822Z" transform="translate(30.742 144.371)" fill="#c9816b"/></g></g><g transform="translate(48.594 18.957)"><path d="M.293,4.231C-.579,1.168.535-.3,3.089.05A26.8,26.8,0,0,1,19.033,7.835a7.216,7.216,0,0,1,2.5,5.178,6.289,6.289,0,0,1-8.1,6.134,11.079,11.079,0,0,1-4.2-2.255C4.936,13.358,2.554,8.483.293,4.231Z" transform="translate(110.765 0)" fill="#87413c"/><path d="M14.824,3.388a41.059,41.059,0,0,1-.446,11.091,18.065,18.065,0,0,1-3.062,7.431,6.153,6.153,0,0,1-9.61.556,7.745,7.745,0,0,1-1.531-6.61,17.371,17.371,0,0,1,1.4-4.18A32.041,32.041,0,0,1,9.143,1.784c.274-.244.552-.49.848-.71C12.52-.817,13.929-.31,14.824,3.388Z" transform="translate(0 26.449)" fill="#87413c"/><path d="M14.541,12.345c.076.291.164.649.265,1,1.55,5.475-3.121,10.086-8.648,8.911A7.323,7.323,0,0,1,.426,16.184C-.618,11.253.368,6.42,2.178,1.783,2.909-.093,4.444-.506,6.022.627,8.963,2.737,13.576,7.559,14.541,12.345Z" transform="translate(56.962 8.81)" fill="#87413c"/><path d="M7.357,22.968A5.733,5.733,0,0,1,.469,19.652a6.738,6.738,0,0,1-.362-3.634,16.066,16.066,0,0,1,2.9-7.09A38.307,38.307,0,0,1,9.117,2.535,19.9,19.9,0,0,1,12.16.455c1.756-.956,3.156-.377,3.8,1.455a7.607,7.607,0,0,1,.415,3.272A32.559,32.559,0,0,1,11.589,19.4,8.368,8.368,0,0,1,7.357,22.968Z" transform="translate(25.239 11.952)" fill="#87413c"/><path d="M22.185,10.238a5.634,5.634,0,0,1-5.7,7.031,10.431,10.431,0,0,1-5.524-1.847,43.212,43.212,0,0,1-9.368-8.8,6.993,6.993,0,0,1-1.552-3.3C-.224,1.557.915-.107,2.606.005,8.824.417,14.791,1.647,19.6,6.069A9.346,9.346,0,0,1,22.185,10.238Z" transform="translate(80.324 0.433)" fill="#87413c"/></g><g transform="translate(0.001 4.863)" opacity="0.5"><path d="M132.17,111.434c-3.733.886-7.713,2.215-11.941,2.491a34.965,34.965,0,0,0-4.673,1.087c-8.3,1.737-16.633,3.316-25.051,4.441-7.313.975-14.586,2.266-21.9,3.211-5.61.728-11.274,1.038-16.892,1.706A105.538,105.538,0,0,1,31.8,124.7a57.844,57.844,0,0,1-17.58-4,28.51,28.51,0,0,1-9.568-6.163A20.248,20.248,0,0,1,.5,108.055a6.063,6.063,0,0,1-.5-2.512c.086-3.348.871-3.62,3.512-2.563,4.519,1.811,9.3,2.354,14.058,3a253.217,253.217,0,0,0,34.982,2.493,197.367,197.367,0,0,0,21.739-1.181c6.963-.8,13.921-1.653,20.855-2.67,4.255-.625,8.478-1.5,12.676-2.439,6.132-1.373,12.192-3.034,18.24-4.744,5.927-1.676,11.709-3.733,17.46-5.91,5.176-1.96,10.394-3.812,15.529-5.873,10.756-4.317,21.274-9.128,30.855-15.751a58.143,58.143,0,0,0,18.24-20.017,27.345,27.345,0,0,0,3.02-18.564,21.552,21.552,0,0,0-2.607-6.084,51.938,51.938,0,0,0-14.018-16.5A99.517,99.517,0,0,0,184.01,1.25c-.287-.174-.7-.592-.653-.794.171-.687.788-.42,1.226-.322,1.082.242,2.156.522,3.215.84A109.177,109.177,0,0,1,233.7,27.6c3.811,3.554,6.883,7.7,10.177,11.685,2.548,3.082,2.518,6.633,1.916,10.181a24.487,24.487,0,0,1-4.78,10.689c-5.6,7.446-12.9,12.777-20.842,17.4-5.767,3.358-11.973,5.75-18.012,8.517-7.275,3.335-14.793,6.058-22.219,9.019-6.511,2.6-13.051,5.113-19.678,7.395-5,1.72-10.1,3.163-15.085,4.9C140.988,108.849,136.783,110.2,132.17,111.434Z" transform="translate(0 0)" fill="#a05d57"/><path d="M144.452,105.8c-2.857.548-5.946,1.95-9.339,1.973a3.57,3.57,0,0,0-1.421.366c-4.965,2.3-10.316,3.4-15.593,4.479a149.6,149.6,0,0,1-25.23,3.2c-4.673.147-9.332.671-14,.85a165.283,165.283,0,0,1-32.377-2.238A127.8,127.8,0,0,1,29.215,110.5a32.223,32.223,0,0,1-8.128-3.472c-1.661-1.061-3.405-1.988-5.1-3a16.607,16.607,0,0,1-2.476-1.607C8.179,97.783,3.414,92.671.368,86.178a5.94,5.94,0,0,1-.354-1.032c-.11-.43.5-.96.945-.819a8.446,8.446,0,0,1,1.381.506c2.628,1.345,5.262,2.678,7.86,4.083a56.667,56.667,0,0,0,8.89,3.622A145.335,145.335,0,0,0,47.54,98.861a186.309,186.309,0,0,0,42.392.3c5.62-.575,11.2-1.6,16.789-2.465,4.866-.754,9.568-2.342,14.508-2.643a15.436,15.436,0,0,0,2.873-.682c4.411-1.158,8.827-2.3,13.23-3.485a157.958,157.958,0,0,0,37.566-15.1A141.246,141.246,0,0,0,207.32,49.9a56.37,56.37,0,0,0,13.567-23.021,23.279,23.279,0,0,0,.811-11.3c-.07-.362-.122-.73-.16-1.1-.369-3.695-.363-3.691,1.522-6.959a38.608,38.608,0,0,0,3.2-6.235,1.546,1.546,0,0,1,2.638-.8c4.74,4.209,9.1,8.68,10.59,15.186a42.749,42.749,0,0,1,1.3,9.488,47.453,47.453,0,0,1-5.843,23.009c-2.984,5.519-7.126,10.011-11.535,14.329a142.934,142.934,0,0,1-17.793,14.367,117.978,117.978,0,0,1-14.653,9.3c-8.351,4.218-16.717,8.412-25.209,12.333-3.213,1.484-6.629,2.617-9.989,3.824C152.165,103.615,148.521,104.682,144.452,105.8Z" transform="translate(33.763 139.495)" fill="#a05d57"/><path d="M127.462,92.191c-7.267.621-14.157,3.079-21.32,4.315a183.874,183.874,0,0,1-27.9,2.552,223.819,223.819,0,0,1-28.033-1.291c-3.8-.4-7.6-.651-11.381-1.253a88.6,88.6,0,0,1-22.9-6.923,32.44,32.44,0,0,1-11.8-8.633,20,20,0,0,1-4.11-9.747.821.821,0,0,1,1.169-.9c2.1,1.022,4.19,2.074,6.273,3.131a99.478,99.478,0,0,0,22.286,7.738c14.135,3.357,28.479,4.18,42.945,3.7,6.159-.206,12.272-.857,18.376-1.634a153.37,153.37,0,0,0,21.373-4.058,7.883,7.883,0,0,1,5.4.326c1.47.623,3.028,1.036,4.54,1.566a3.313,3.313,0,0,0,3.74-.805c1.448-1.507,2.923-3.005,4.217-4.641a9.282,9.282,0,0,1,4.422-3.144,158.739,158.739,0,0,0,33.112-16.165,105.489,105.489,0,0,0,21.343-17.561c5.706-6.22,10.478-13.053,13.263-21.13A34.53,34.53,0,0,0,204.7,7.2a4.613,4.613,0,0,1,2.575-4.157c.531-.31,1.078-.6,1.634-.864,7.126-3.407,9.038-3.038,15.066,2.668,6.875,6.505,7.3,15.365,3.1,23.855a63.936,63.936,0,0,1-15,19.046,178.037,178.037,0,0,1-16.708,12.784,242.867,242.867,0,0,1-27.875,16.679A143.553,143.553,0,0,1,148.854,85.2c-4.769,1.685-9.6,3.094-14.445,4.49C132.048,90.369,129.931,91.765,127.462,92.191Z" transform="translate(29.842 113.548)" fill="#a05d57"/></g><g transform="translate(19.797 72.595)" opacity="0.5"><path d="M30.437,44.44a29.091,29.091,0,0,1-12.773,1.207,24.834,24.834,0,0,1-6.018-1.71c-3.518-1.468-7.029-3-9.772-5.791A12.908,12.908,0,0,1,.61,36.806c-1.087-1.5-.714-2.773,1.069-3.5,3.416-1.388,6.854-2.718,10.28-4.077a4.5,4.5,0,0,1,3.582.141,37.476,37.476,0,0,0,7.4,2.279,34.815,34.815,0,0,0,15.365-.4,43.841,43.841,0,0,0,8.68-3.076,34.56,34.56,0,0,0,12.219-9.939C61.926,14.783,63.145,10.6,64.173,6.4a18.851,18.851,0,0,0,.392-2.556A4.752,4.752,0,0,1,66.988.323c.864-.573,1.843-.381,2.1.564.878,3.2,2.091,6.359,2.122,9.7.038,4.658-2.123,8.547-4.955,12.062a52.035,52.035,0,0,1-10.684,9.591,101.014,101.014,0,0,1-19.153,10.3C34.5,43.357,32.434,43.818,30.437,44.44Z" transform="translate(149.2 0)" fill="#6e26c7"/><path d="M55.013,23.754a86.09,86.09,0,0,1-29.3,1.632,46.21,46.21,0,0,1-12.893-3.02,20.757,20.757,0,0,1-8.7-6.041,10.246,10.246,0,0,1-2.11-3.841C1.425,10.223.678,8,.133,5.729c-.482-2.007.347-2.7,2.407-2.243a4.021,4.021,0,0,1,2.449,1.5c.9,1.165,1.891,2.266,2.874,3.367,6.378,7.141,14.666,9.726,23.887,9.492a37.77,37.77,0,0,0,18.581-5.38A31.837,31.837,0,0,0,58.5,5.637c.716-.845,1.474-1.655,2.165-2.517A4.571,4.571,0,0,1,63.815,1.4C67.224.968,70.629.494,74.038.054A6.623,6.623,0,0,1,75.5.029a1.668,1.668,0,0,1,1.651,2A13.357,13.357,0,0,1,75.9,6.639c-2.693,5.355-6.2,9.983-11.326,13.331A31.972,31.972,0,0,1,55.013,23.754Z" transform="translate(0 53.455)" fill="#6e26c7"/></g><g transform="translate(0.592 0.036)" opacity="0.5"><path d="M102.588,5.863c2.859-.752,5.689-1.646,8.581-2.231A174.734,174.734,0,0,1,138.219.157a158.532,158.532,0,0,1,38.562,2.975c1.809.366,3.588.886,5.353,1.424a2.358,2.358,0,0,1,1.872,2.759,6.652,6.652,0,0,1-2.049,4.241,14.756,14.756,0,0,1-9,4.556,118.476,118.476,0,0,1-16.591.6c-8.379-.13-16.751-.01-25.11.44-5.643.3-11.265,1.075-16.883,1.742a153.5,153.5,0,0,0-18.134,3.291,130.258,130.258,0,0,0-27.035,9.724A157.813,157.813,0,0,0,41.127,50.24,143.885,143.885,0,0,0,21.8,68.983a83.6,83.6,0,0,0-7.709,10.364,88.917,88.917,0,0,0-5.153,8.509,111.552,111.552,0,0,0-5.008,13.1c-.43,1.284-.842,2.575-1.329,3.839a5.541,5.541,0,0,1-.933,1.558,1.148,1.148,0,0,1-.964.327c-.271-.072-.5-.469-.647-.773a1.382,1.382,0,0,1,0-.728A43.483,43.483,0,0,1,.875,99.7c1.333-4.862,2.4-9.819,4.632-14.394.268-.552.48-1.135.695-1.71,5.429-14.561,14.095-27,25-37.949a146.279,146.279,0,0,1,41.27-28.859q7.836-3.721,15.99-6.7A137.051,137.051,0,0,1,102.588,5.863Z" transform="translate(0 0)" fill="#fff"/><path d="M49.58,20.344c-3.956.265-7.749,1.385-11.642,1.948-6.578.954-13.19,1.537-19.823,1.939a24.7,24.7,0,0,0-6.831,1.552,12.047,12.047,0,0,0-6.03,4.666,1.244,1.244,0,0,1-2.163.238A25.981,25.981,0,0,1,.875,28.215a3.7,3.7,0,0,1-.587-3.828,21.484,21.484,0,0,0,1.489-5.7,1.977,1.977,0,0,1,1.657-1.765A38.992,38.992,0,0,1,9.2,15.68a51.6,51.6,0,0,0,6.165-1.126c8.2-1.674,16.431-3.178,24.468-5.563a76.488,76.488,0,0,0,10.52-3.428A46.755,46.755,0,0,1,55.307,4.1C58.575,3.021,61.82,1.873,65.076.764A20.867,20.867,0,0,1,67.2.121C69.16-.333,70.31.5,70.424,2.478a5.882,5.882,0,0,1-.2,1.821A15.8,15.8,0,0,1,66.093,11.6a24.949,24.949,0,0,1-4.666,3.607C57.706,17.449,53.514,18.563,49.58,20.344Z" transform="translate(96.531 108.135)" fill="#fff"/></g><g transform="translate(56.92 57.482)"><path d="M13.426.952c4.609-1.089,9.221-1.512,13.788.2a13.807,13.807,0,0,1,2.642,1.291c4.253,2.742,4.275,7,1.756,10.509-2.234,3.116-5.433,4.955-8.884,6.361A25.935,25.935,0,0,1,9.324,20.9a13.74,13.74,0,0,1-6.441-2.579C-.061,16.142-.762,13.162.834,9.844A15.208,15.208,0,0,1,6.966,3.626,22.737,22.737,0,0,1,13.426.952Z" transform="translate(0 26.361)" fill="#d901ab"/><path d="M17.685,20.945c-2.681.872-6.223.794-9.779.248a10.309,10.309,0,0,1-5.328-2.348A6.493,6.493,0,0,1,.768,10.559,11.8,11.8,0,0,1,3.809,6.442,25.228,25.228,0,0,1,23.948.191c2.817.32,5.494,1.173,7.475,3.54a6.108,6.108,0,0,1,1.032,6.542,12.224,12.224,0,0,1-3.316,4.814A26.954,26.954,0,0,1,17.685,20.945Z" transform="translate(99.771 0)" fill="#d901ab"/></g></g></svg>