<svg xmlns="http://www.w3.org/2000/svg" width="283.867" height="316.788" viewBox="0 0 283.867 316.788"><g transform="translate(2.498 2.625)"><g transform="translate(0.012 0.001)"><path d="M1067.876,317.615c-5.472-7.324-9.11-14.83-12.374-22.538a155.43,155.43,0,0,1-8.172-26.4c-.468-2.06-.682-4.176-1.148-6.237a4.24,4.24,0,0,1,1.148-3.949c3.255-3.791,6.474-7.611,9.71-11.418,1.617-1.9,3.209-3.83,4.866-5.7.885-1,1.605-1.023,2.367.025a18.492,18.492,0,0,0,5.11,5.007,11.652,11.652,0,0,0,2.283,1.2c2.125.735,3.143.052,3.292-2.146a7.785,7.785,0,0,0-.726-3.926,23.131,23.131,0,0,0-2.508-4.526,23.559,23.559,0,0,1-1.855-2.914,2.132,2.132,0,0,1,.238-2.432c1.038-1.466,2.15-1.394,3.058.224.281.5.474,1.051.725,1.569a16.406,16.406,0,0,0,4.893,5.961,2.743,2.743,0,0,0,2.928.67,2.874,2.874,0,0,0,1.6-2.847,17.537,17.537,0,0,0-1.278-6.469c-.832-2.25-1.763-4.462-2.633-6.7a10.093,10.093,0,0,1-.6-1.908.873.873,0,0,1,.67-1.1.831.831,0,0,1,.924.523,40.158,40.158,0,0,0,3.846,5.737,11.953,11.953,0,0,0,4.6,3.834,5.621,5.621,0,0,0,1.635.511,1.285,1.285,0,0,0,1.409-.766,4.533,4.533,0,0,0,.325-2.811,27.192,27.192,0,0,0-2.737-7.859c-.737-1.561-1.6-3.062-2.4-4.593-.134-.254-.239-.524-.374-.778a2.877,2.877,0,0,1,.459-3.652c2.661-3.031,5.189-6.181,7.743-9.3a16.8,16.8,0,0,1,2.54-2.33,11.528,11.528,0,0,1,5.212-2.324,31.293,31.293,0,0,1,14.544.6,86.26,86.26,0,0,1,9.041,2.949,27.674,27.674,0,0,1,7.656,4.516,10.517,10.517,0,0,1,3.534,6.417,13.855,13.855,0,0,1-1.208,8.7c-1.075,2.254-2.231,4.476-3.2,6.776a56.491,56.491,0,0,0-2.082,5.983,12.266,12.266,0,0,0,.748,8.456,6.864,6.864,0,0,0,6.124,4.155,17.421,17.421,0,0,0,5.726-.419c2.608-.656,5.236-1.237,7.85-1.87a18.929,18.929,0,0,1,5.15-.511,4.369,4.369,0,0,1,3.306,1.51,4.09,4.09,0,0,1,.773,3.8,43.6,43.6,0,0,1-3.5,10.045,65.68,65.68,0,0,1-5.138,8.674,70.3,70.3,0,0,0-4.339,7.138,15.941,15.941,0,0,1-1.03,1.729,1.177,1.177,0,0,1-1.527.426c-.523-.235-1-.558-1.505-.841-10.4-5.855-21.212-6.13-32.3-2.3a48.658,48.658,0,0,0-16.287,9.608,59.614,59.614,0,0,0-13.292,16.528,72.2,72.2,0,0,0-5.782,13.8,62.264,62.264,0,0,0-1.518,7.333c-.161.948-.3,1.9-.5,2.838a.768.768,0,0,1-1.349.346,17.544,17.544,0,0,1-1.719-1.932C1069.679,320.166,1068.577,318.589,1067.876,317.615Z" transform="translate(-882.264 -196.667)" fill="#a05d57"/><path d="M654.746,756.452a.921.921,0,0,1-.52,1.584c-1.234.177-2.478.3-3.723.368a59.807,59.807,0,0,0-11.905,2.078,89.312,89.312,0,0,0-16.227,5.889c-3.025,1.461-5.959,3.074-8.878,4.743a89.261,89.261,0,0,0-7.679,5.073,79.466,79.466,0,0,0-11.664,10.662c-.261.281-.485.6-.731.891a2.832,2.832,0,0,1-3.571.912c-2.954-1.146-5.934-2.235-8.94-3.24a137.474,137.474,0,0,0-23.761-5.78c-.761-.11-1.523-.224-2.273-.394-1.312-.3-1.513-.9-.69-2.048.333-.466.737-.885,1.108-1.325Q575,752.536,594.707,729.2q12.633-14.978,25.228-29.985a34.966,34.966,0,0,1,2.538-2.738.959.959,0,0,1,1.6.489q.556,2.087.979,4.207a113.273,113.273,0,0,0,10.875,30.867,82.884,82.884,0,0,0,7.038,11.531,97.511,97.511,0,0,0,9.559,10.726C653.28,755.035,654.042,755.766,654.746,756.452Z" transform="translate(-496.702 -587.839)" fill="#a05d57"/><path d="M361.619,1304.813c-1.694,1.221-3.888,2.951-6.229,4.453a29.916,29.916,0,0,1-19.474,4.8,8.365,8.365,0,0,1-1.97-.407,18.247,18.247,0,0,1-11.019-9.553,36.36,36.36,0,0,1-2.526-24.172c.3-1.3.866-2.541,1.291-3.814a15.108,15.108,0,0,0,.47-1.657,1.04,1.04,0,0,0-.439-1.007.879.879,0,0,0-1.073-.054,12.012,12.012,0,0,0-1.594,1.221c-5.451,5.2-11.927,6.706-19.147,5.138a9.762,9.762,0,0,1-6.638-4.683,23.556,23.556,0,0,1-2.1-5.038,4.175,4.175,0,0,1,1.063-4.23c3.462-3.988,6.848-8.041,10.255-12.076q7.061-8.364,14.111-16.737c1.813-2.147,1.922-2.147,4.029-.258a93.146,93.146,0,0,0,16.149,11.528,137.489,137.489,0,0,0,21.024,10.068,4.7,4.7,0,0,1,3.334,3.225,15.6,15.6,0,0,0,2.626,4.774c1.816,2.48,3.549,5.025,5.452,7.437a94.018,94.018,0,0,0,10.119,10.606c.7.653,1.413,1.3,2.071,2a1.212,1.212,0,0,1-.045,1.99c-1.238,1.2-2.471,2.416-3.782,3.537C372.553,1296.2,367.881,1300.935,361.619,1304.813Z" transform="translate(-290.975 -1010.029)" fill="#a05d57"/></g><g transform="translate(12.886 0.021)"><path d="M1269.531,197.287a6.462,6.462,0,0,1,1.28-.432,8.266,8.266,0,0,1,2.008-.061c.808.089,1.9-.171,2.224.848.261.83-.632,1.313-1.111,1.881-2.843,3.377-5.474,6.913-8.049,10.5a99.888,99.888,0,0,0-9.948,17.468c-.079.175-.138.359-.224.53-.211.42-.373.989-.9,1.008-.63.022-.65-.621-.735-1.056a16.352,16.352,0,0,0-1-3.594,3.606,3.606,0,0,1,.289-3.294,106.956,106.956,0,0,1,15.159-22.649C1268.845,198.08,1269.155,197.716,1269.531,197.287Z" transform="translate(-1057.023 -196.758)" fill="#c9816b"/><path d="M623.82,852.226c-4.843,4.021-11.376,6.764-18.2,8.858a39.8,39.8,0,0,1-19.908,1.146,51.429,51.429,0,0,1-9.048-2.848c-1.1-.446-1.229-1.043-.507-2a13.69,13.69,0,0,1,1.14-1.3c.865-.89,1.154-1.008,2.258-.413,6.885,3.711,14.071,3.294,21.3,1.467a55.969,55.969,0,0,0,14.56-6.065,63.827,63.827,0,0,0,7.662-5.079c8.346-6.648,15.428-14.384,19.957-24.185a36.84,36.84,0,0,0,3.738-14.978,3.981,3.981,0,0,1,.144-.843c.018-.077.119-.19.18-.19.168,0,.42,0,.487.107a7.677,7.677,0,0,1,.682,1.259,21.026,21.026,0,0,0,1.293,3.2,6.94,6.94,0,0,1,.606,5.539,40.535,40.535,0,0,1-2.939,8.714,72.271,72.271,0,0,1-15.259,21.106A81.516,81.516,0,0,1,623.82,852.226Z" transform="translate(-526.814 -673.678)" fill="#c9816b"/><path d="M1335.46,296.148a36.007,36.007,0,0,1-5.085-15.2c-1.218-12.6,2.254-23.895,9.287-34.251a75.492,75.492,0,0,1,9.014-10.815,27.745,27.745,0,0,1,4.485-3.592c1.2-.787,1.713-.713,2.827.229a9.141,9.141,0,0,1,.823.8,1.18,1.18,0,0,1,.036,1.786,7.319,7.319,0,0,1-1.221,1.2A54.2,54.2,0,0,0,1341.6,252.9a49.322,49.322,0,0,0-5,13.135,39.305,39.305,0,0,0-.517,16.25,29.533,29.533,0,0,0,3.216,9.19,21.417,21.417,0,0,0,3.849,5.679.764.764,0,0,1-.3,1.2,19.831,19.831,0,0,1-4.526.762,1.423,1.423,0,0,1-1.206-.674C1336.651,297.827,1336.215,297.2,1335.46,296.148Z" transform="translate(-1117.584 -224.159)" fill="#c9816b"/><path d="M664.205,806.537a31.655,31.655,0,0,1-24.94,5.095,8.907,8.907,0,0,1-1.384-.38c-1.163-.425-1.347-.956-.669-1.917.331-.469.719-.9,1.063-1.362a2.88,2.88,0,0,1,3.188-1.167c4.491.735,9.019.785,13.341-.916a24.589,24.589,0,0,0,13.637-12.551,40.885,40.885,0,0,0,4.081-15.487,85.527,85.527,0,0,0,.1-8.629c-.037-.854-.21-1.794.44-2.483.837-.885,1.36-2.587,2.608-2.44,1.484.174,1.193,1.968,1.411,3.107a43.819,43.819,0,0,1-2.024,24.9A32.535,32.535,0,0,1,664.205,806.537Z" transform="translate(-574.669 -641.175)" fill="#c9816b"/><path d="M491.407,1376.5c-9.175-13.959-10.486-28.489-3.056-43.614a41.326,41.326,0,0,1,7.523-10.475c1.435-1.485,1.87-1.551,3.755-.6a8.371,8.371,0,0,1,.984.589.713.713,0,0,1,.212,1.011,18.9,18.9,0,0,1-1.59,2.037,38.556,38.556,0,0,0-8.807,16.618,41.063,41.063,0,0,0-.829,14.862,43.751,43.751,0,0,0,5.106,15.779,44.777,44.777,0,0,0,2.762,4.035c.489.71.982,1.418,1.446,2.144a.7.7,0,0,1-.2,1.01,5.119,5.119,0,0,1-3.026.738c-.762-.034-1.09-.711-1.606-1.118A14.408,14.408,0,0,1,491.407,1376.5Z" transform="translate(-454.644 -1077.259)" fill="#c9816b"/><path d="M1220.2,409.639a6.771,6.771,0,0,1-.527.558,1.2,1.2,0,0,1-1.932-.383c-.775-1.432-1.536-2.875-2.209-4.356a56.972,56.972,0,0,1-5.029-23.194,67.365,67.365,0,0,1,2.657-19.6c.641-2.21,1.363-4.4,2.091-6.581.613-1.84.693-1.859,2.4-1.3.091.03.174.088.266.11.911.214,1.821.423,2.731.634a8.03,8.03,0,0,1-.821,3.3,79.249,79.249,0,0,0-3.159,13.138,59.994,59.994,0,0,0,1.632,25.374,40.819,40.819,0,0,0,3.242,7.989c1.063,1.974,1,2.115-.625,3.677C1220.636,409.264,1220.343,409.512,1220.2,409.639Z" transform="translate(-1023.899 -320.248)" fill="#c9816b"/><path d="M1094.005,419.2c.607-.493,1.2-.348,1.427.362.7,2.192,1.45,4.378,2.006,6.608a90.074,90.074,0,0,1,2.107,27.168,136.845,136.845,0,0,1-2.141,17.414c-.441,2.354-1.064,4.673-1.627,7a.612.612,0,0,1-.389.371.561.561,0,0,1-.485-.187,27.6,27.6,0,0,1-2.759-5.986,3.592,3.592,0,0,1,.223-1.687,101.856,101.856,0,0,0,2.334-22.3,83.63,83.63,0,0,0-2.912-21.633c-1.135-4.287-.988-3.306,1.677-6.617A5.125,5.125,0,0,1,1094.005,419.2Z" transform="translate(-930.416 -370.717)" fill="#c9816b"/><path d="M368.256,1258.5c1.63-1.169,2.4-1.179,3.879-.205,2.581,1.706,2.641,2.11.434,4.216a66.979,66.979,0,0,0-9.935,11.865,44.292,44.292,0,0,0-6.077,15.414c-.45,2.153-.937,4.3-1.366,6.461a1.581,1.581,0,0,1-1.57,1.395c-3.491.318-3.411.133-3.23-2.863a51.97,51.97,0,0,1,4.139-16.664,59.619,59.619,0,0,1,8.106-13.849A75,75,0,0,1,368.256,1258.5Z" transform="translate(-350.321 -1027.465)" fill="#c9816b"/><path d="M590.409,1423.611a28.1,28.1,0,0,1-3.45-15.8,29.906,29.906,0,0,1,7.5-18.286c.19-.217.379-.435.58-.641.874-.894,1.405-1.063,1.948-.633a2.267,2.267,0,0,1,.967,2.753,11.026,11.026,0,0,1-.956,1.434,27.686,27.686,0,0,0-5.05,21,44.236,44.236,0,0,0,1.2,5.036c.271,1.019.666,2,.965,3.018.551,1.871.384,2.289-1.237,3.338-1.012.654-1.554.548-2.115-.431C590.621,1424.146,590.525,1423.873,590.409,1423.611Z" transform="translate(-535.566 -1129.603)" fill="#c9816b"/><path d="M1441.781,425.468c-2.278-3.769-4.075-7.456-3.864-11.77a23.6,23.6,0,0,1,.413-3.123.54.54,0,0,1,.861-.394c.932.664,1.806,1.414,2.723,2.1a1.972,1.972,0,0,1,.7,1.509,19.155,19.155,0,0,0,3.421,8.447,25.6,25.6,0,0,0,6.421,6.5,17.91,17.91,0,0,0,4.693,2.74,8.281,8.281,0,0,1,1.77.934.761.761,0,0,1,.246,1.014,3.187,3.187,0,0,1-.258.512c-1.577,2.245-1.5,2.909-4.544,1.384-4.318-2.165-8.307-4.755-11.33-8.629A11.087,11.087,0,0,0,1441.781,425.468Z" transform="translate(-1201.97 -363.795)" fill="#c9816b"/><path d="M946.954,934.492c1.4,1.848,1.44,2.143.3,3.778s-2.363,3.249-3.527,4.884a4.694,4.694,0,0,1-3.06,1.948c-1.406.275-2.8.607-4.2.893a.643.643,0,0,1-.526-.125.579.579,0,0,1-.039-.511,5.673,5.673,0,0,1,.555-1q3.507-5.072,7.031-10.131a10.617,10.617,0,0,1,.866-1.14.834.834,0,0,1,1.267-.059C946.173,933.554,946.649,934.155,946.954,934.492Z" transform="translate(-808.838 -773.105)" fill="#c9816b"/></g><g transform="translate(0 46.323)" opacity="0.5"><path d="M362.13,1387.035c-2.261,1.627-4.455,3.36-6.8,4.862a30.039,30.039,0,0,1-19.481,4.8,10.59,10.59,0,0,1-3.585-1.032,18.843,18.843,0,0,1-9.753-9.743,36.915,36.915,0,0,1-2.206-23.109c.339-1.489.972-2.91,1.437-4.372a7.823,7.823,0,0,0,.353-1.67c.044-.512-.781-1.032-1.256-.851a5.719,5.719,0,0,0-1.856,1.338c-5.446,5.217-11.936,6.685-19.154,5.119a9.716,9.716,0,0,1-6.621-4.707,21.5,21.5,0,0,1-2.143-5.325,3.624,3.624,0,0,1,.783-3.493c2-2.332,3.972-4.693,5.988-7.011.994-1.142,1.506-1.094,2.524.109.248.294.459.618.694.921a9.394,9.394,0,0,0,10.739,3.539c3.606-1.011,7.143-2.252,10.891-2.707a19.316,19.316,0,0,1,7.152.317,9.237,9.237,0,0,1,6.524,5.148,24.552,24.552,0,0,1,2.129,6.543c.557,3.412,1.011,6.84,1.841,10.208a22.7,22.7,0,0,0,2.426,5.827,8.816,8.816,0,0,0,10.66,3.3,7.3,7.3,0,0,0,2.981-3.032,14.531,14.531,0,0,0,2.165-7.948,40.216,40.216,0,0,0-1.388-9.088,44.41,44.41,0,0,1-1.621-9.057,11.147,11.147,0,0,1,.56-4.253c.163-.475.538-.906,1.064-.782,1.4.331,2.9.641,3.455,2.237,1.758,5.012,5.3,8.891,8.372,13.041A80.773,80.773,0,0,0,379.3,1367c.7.652,1.412,1.3,2.071,2a1.214,1.214,0,0,1-.056,1.992q-1.857,1.8-3.779,3.542c-2.484,2.256-4.917,4.574-7.5,6.711-2.514,2.081-5.189,3.966-7.793,5.938C362.2,1387.134,362.166,1387.084,362.13,1387.035Z" transform="translate(-290.918 -1138.973)" fill="#a05d57"/><path d="M1120.351,483.724a64.543,64.543,0,0,1-5.281-8.28,6.336,6.336,0,0,1-.83-4.681c1.119-4.961,2.224-9.9,4.417-14.563a55.691,55.691,0,0,1,9.445-14.373,46.424,46.424,0,0,1,30.427-15.261,134.052,134.052,0,0,1,15.545-.327,35.905,35.905,0,0,0,12.471-1.853,23.567,23.567,0,0,0,5.405-2.658,12.164,12.164,0,0,0,5.391-7.535,2.525,2.525,0,0,1,2.219-2.227c1.788-.345,3.546-.847,5.316-1.284a18.51,18.51,0,0,1,4.865-.474,4.136,4.136,0,0,1,4.164,5.248,44.448,44.448,0,0,1-3.49,10.042,64.717,64.717,0,0,1-5.123,8.671,60.391,60.391,0,0,0-4.461,7.392c-1.42,2.795-1.972,2.324-3.915,1.2a35.445,35.445,0,0,0-12.118-4.4,40.59,40.59,0,0,0-19.869,1.89,49.2,49.2,0,0,0-16.792,9.843,63.531,63.531,0,0,0-18.581,28.971,61.815,61.815,0,0,0-1.959,9c-.135.851-.285,1.7-.475,2.544a.732.732,0,0,1-1.16.354,16.261,16.261,0,0,1-1.754-1.893C1123,487.448,1121.841,485.794,1120.351,483.724Z" transform="translate(-935.519 -410.2)" fill="#a05d57"/><path d="M710.37,923.028a44.239,44.239,0,0,1,9.978-5.549c3.034-1.2,6.056-2.445,9.116-3.576a52.29,52.29,0,0,0,14.1-8.272,21.653,21.653,0,0,0,5.318-6.739c2.065-3.7,1.872-3.705,4.4-.14a95.314,95.314,0,0,0,10.97,12.536c.771.76,2.348,1.333,1.951,2.6-.4,1.289-1.957.823-3.047.9A84.189,84.189,0,0,0,733.87,922.8c-3.132,1.454-6.137,3.142-9.135,4.868-2.677,1.539-5.178,3.291-7.673,5.073a79.122,79.122,0,0,0-11.653,10.665c-.327.35-.6.748-.93,1.1a2.53,2.53,0,0,1-3.105.743c-1.5-.634-3.062-1.136-4.572-1.757a1.383,1.383,0,0,1-.923-1.85,17.184,17.184,0,0,1,1.73-4.259,43.988,43.988,0,0,1,7.068-9.417A39.553,39.553,0,0,1,710.37,923.028Z" transform="translate(-607.973 -790.691)" fill="#a05d57"/></g><g transform="translate(19.089 6.919)"><path d="M503.948,462.725a21.255,21.255,0,0,1,7.656-3.913,11.589,11.589,0,0,1,3.711-.383,5.48,5.48,0,0,1,4.244,2.124,9.725,9.725,0,0,1,2.065,4.332c.9,5.2,1.948,10.379,3.2,15.5a135.754,135.754,0,0,0,6.794,20.5c2.946,7,6.154,13.868,10.656,20.047a19.561,19.561,0,0,1,.983,1.754,8.339,8.339,0,0,0,1.2,1.948c2.658,2.519,4.444,5.789,7.214,8.215a42.033,42.033,0,0,0,7.232,5.684c.682.373,1.4,1.078,2.309.431-.126-.921-1.008-1.1-1.587-1.54-1.921-1.446-3.766-2.977-5.589-4.542a3.151,3.151,0,0,1-1.206-3.019,63.667,63.667,0,0,1,6.623-22.56,58.77,58.77,0,0,1,13.231-17.3,64.351,64.351,0,0,1,5.373-4.326,43.575,43.575,0,0,1,22.423-8.3,32.621,32.621,0,0,1,26.605,10.007c7.066,7.2,10.419,16.032,11.236,25.88a57.944,57.944,0,0,1-6.994,32.514,53.062,53.062,0,0,1-8.657,12.18,6.1,6.1,0,0,0-1.779,4.367c-.166,4.9-.345,9.789-.689,14.681a198.21,198.21,0,0,1-2.8,21.714,171.837,171.837,0,0,1-5.9,23.16,155.392,155.392,0,0,1-9.023,21.826,142.192,142.192,0,0,1-13.112,21.344,124.429,124.429,0,0,1-12.51,14.3,83.054,83.054,0,0,1-10.236,8.83c-1.408.983-2.464,2.407-3.931,3.364-10.17,6.621-20.706,12.428-32.407,16.028a122.658,122.658,0,0,1-31.434,5.439,126.464,126.464,0,0,1-18.709-.649c-3.828-.419-7.619-1.007-11.405-1.644a15.812,15.812,0,0,1-8.675-4.21,8.117,8.117,0,0,1-1.439-10.261,12.01,12.01,0,0,1,5.586-5.214,33.154,33.154,0,0,0,3.1-1.513,4.313,4.313,0,0,0,1.138-.837.667.667,0,0,0-.053-1.019,4.274,4.274,0,0,0-1.273-.636,24.723,24.723,0,0,1-6.877-3.582,100.733,100.733,0,0,1-18.64-16.662c-2.159-2.461-4.2-4.99-6.137-7.621a32.186,32.186,0,0,1-4.207-7.2,5.822,5.822,0,0,0-3.432-3.261c-2.475-1.057-4.966-2.076-7.432-3.151a123.8,123.8,0,0,1-24.868-14.437,71.936,71.936,0,0,1-10.7-10.033,26.13,26.13,0,0,1-5.35-9.477,10.765,10.765,0,0,1,3.908-12.3,27.848,27.848,0,0,1,11.7-4.586,38.189,38.189,0,0,1,6.3-.7,88.048,88.048,0,0,1,14.665.5,160.347,160.347,0,0,1,25.6,5.59,168.476,168.476,0,0,1,18.795,7.319,146.726,146.726,0,0,1,16.177,8.831,4.251,4.251,0,0,0,2.042.986.674.674,0,0,0,.461-.285.693.693,0,0,0,.1-.526c-.18-.6-.719-.883-1.2-1.179-2.951-1.8-5.853-3.693-8.885-5.346-3.118-1.7-6.366-3.163-9.558-4.727a13.168,13.168,0,0,1-1.3-.622,1.356,1.356,0,0,1-.45-1.993,6.5,6.5,0,0,1,.872-1.141,55.65,55.65,0,0,1,7.13-6.7c1.41-1.005,2.463-2.4,3.9-3.4a111.284,111.284,0,0,1,20.31-11.36,82.48,82.48,0,0,1,21.037-5.846,61.54,61.54,0,0,1,8.626-.564,7.324,7.324,0,0,1,4.308,1.334,62.84,62.84,0,0,0,15.623,7.942,57.321,57.321,0,0,0,21.52,3.314,2.732,2.732,0,0,0,1.665-.3.67.67,0,0,0,.221-.5c-.007-.154-.156-.4-.279-.429a8.873,8.873,0,0,0-1.693-.224A64.88,64.88,0,0,1,551.019,584a61.776,61.776,0,0,1-23.813-9.024,73.172,73.172,0,0,1-13.4-11.292,95.484,95.484,0,0,1-11.483-15.49,85,85,0,0,1-7.846-16.97,118.47,118.47,0,0,1-5.684-22.019c-.883-6.182-1.625-12.379-1.921-18.629a17.089,17.089,0,0,1,1.625-8.1A51.606,51.606,0,0,1,500.135,465.8C501.332,464.694,502.674,463.745,503.948,462.725Z" transform="translate(-378.912 -408.546)" fill="#a27dfa"/><path d="M1131.356,237.216a4.511,4.511,0,0,0-1.488,3.276c-.049.662.077,1.337.094,2.008.042,1.74-.689,2.3-2.271,1.547a4.318,4.318,0,0,0-4.367.33,3.747,3.747,0,0,0-2.009,4.1c.155.946.434,1.87.6,2.814a3.134,3.134,0,0,1-1.677,3.341.946.946,0,0,1-1.071-.181c-.5-.447-.931-.979-1.46-1.384-1.451-1.109-2.53-1.053-4.127.138a3.761,3.761,0,0,1-.689.493.716.716,0,0,1-.983-.312,4.048,4.048,0,0,1-.405-1.366c-.628-7.235,1-13.675,6.359-18.95a15.988,15.988,0,0,1,5-3.274c5.179-2.232,10.141-1.255,14.909,1.377a3.853,3.853,0,0,1,.662.551,1.075,1.075,0,0,1,.193,1.546c-.753.994-1.582,1.929-2.394,2.877a1.412,1.412,0,0,1-1.589.344A3.558,3.558,0,0,0,1131.356,237.216Z" transform="translate(-952.484 -228.559)" fill="#a27dfa"/></g><path d="M1281.94,658.851a33.59,33.59,0,0,1-19.854,6.706,32.872,32.872,0,0,1-10.238-1.463,40.374,40.374,0,0,1-18.682-11.439,24.54,24.54,0,0,1-4.464-6.682,43.164,43.164,0,0,1-3.065-8.059c-2.544-11.531-.189-21.954,7.34-31.053a22.93,22.93,0,0,1,10.745-7.419,15.75,15.75,0,0,1,13.041,1.578,16.236,16.236,0,0,1,6.561,7.083,23.878,23.878,0,0,1,2.8,8.411c.086.936.559,1.166,1.354.634a22,22,0,0,1,9.153-3.252,17.532,17.532,0,0,1,9.082.719,15.312,15.312,0,0,1,9.54,9.728,24.755,24.755,0,0,1,.933,11.106,32.951,32.951,0,0,1-3.335,10.977,34.082,34.082,0,0,1-9.041,11.072C1283.211,657.98,1282.565,658.4,1281.94,658.851Z" transform="translate(-1022.095 -511.469)" fill="#fff"/><g transform="translate(203.731 88.675)"><path d="M1251.286,610.945c2.314,2.838,3.9,6.148,5.807,9.238a17.4,17.4,0,0,1,2.521,6.985c.641,5.132-2.044,9.045-7.033,10.3a12.966,12.966,0,0,1-5.423.083,24.993,24.993,0,0,1-9.007-3.656,48.934,48.934,0,0,1-7.239-5.656,2.327,2.327,0,0,1-.728-2.568,31.325,31.325,0,0,1,9.388-15.815,23,23,0,0,1,5.593-3.925c1.651-.774,1.948-.732,3.092.818C1249.282,608.134,1250.276,609.545,1251.286,610.945Z" transform="translate(-1230.068 -605.434)" fill="#cbb7fc"/><path d="M1416.684,736.734c-4.048-5.573-2.23-12.293,3.757-14.9a25.979,25.979,0,0,1,7.514-1.926c4.868-.545,9.75-.942,14.63-1.369,1.253-.11,1.565.12,1.824,1.3a24.919,24.919,0,0,1,.677,5.717,32.511,32.511,0,0,1-5.943,18.655,2.6,2.6,0,0,1-2.949,1.169c-3.3-.622-6.656-.994-9.839-2.17a24.466,24.466,0,0,1-8.759-5.414A11.768,11.768,0,0,1,1416.684,736.734Z" transform="translate(-1374.502 -693.986)" fill="#cbb7fc"/></g><path d="M879.17,1266.437a8.377,8.377,0,0,1,11.557.762,7.327,7.327,0,0,1,1.432,2.129,15.191,15.191,0,0,1,.537,10.967c-.31,1.108-.754,2.176-1.118,3.267a.617.617,0,0,0,.434.888c.652.157,1.317.264,1.981.368a18.256,18.256,0,0,1,10.126,5.08,7.188,7.188,0,0,1,2.239,7.047,6,6,0,0,1-2.225,3.575c-2.47,1.984-5.387,2.452-8.4,2.48a54.325,54.325,0,0,1-13.382-1.821,73.473,73.473,0,0,1-11.154-3.834,37.028,37.028,0,0,1-3.589-1.821,2.49,2.49,0,0,1-1.265-2.679,27.639,27.639,0,0,1,1.247-5.318c2.02-6.437,4.488-12.671,8.612-18.112A11.283,11.283,0,0,1,879.17,1266.437Z" transform="translate(-741.498 -1032.838)" fill="#e383d4"/><path d="M1024.888,1242.945c1.844-1.176,3.788-2.15,5.94-1.048s2.543,3.262,2.5,5.433a37.226,37.226,0,0,1-.557,4.278c-.155,1.1.028,1.384,1.189,1.356a13.97,13.97,0,0,1,3.717.363,7.424,7.424,0,0,1,4.661,3.141,5.235,5.235,0,0,1-2.07,7.795,13.273,13.273,0,0,1-4.079,1.341,28.4,28.4,0,0,1-14.457-1.4c-.54-.193-1.034-.517-1.576-.707-2.291-.8-3.022-2.495-2.744-4.743a27.374,27.374,0,0,1,6.415-14.847A11.048,11.048,0,0,1,1024.888,1242.945Z" transform="translate(-859.768 -1014.776)" fill="#d901aa"/><g transform="translate(19.084 6.94)" opacity="0.5"><path d="M846.47,1046.935c-9.93,6.665-20.308,12.369-31.773,16.021a121.554,121.554,0,0,1-32.247,5.744,129.162,129.162,0,0,1-18.706-.629c-3.925-.417-7.813-1.011-11.688-1.687a16.165,16.165,0,0,1-8.436-4.072,8.455,8.455,0,0,1-.119-12.34,2.583,2.583,0,0,1,1.789-.817,11.17,11.17,0,0,1,4.551.475,29.925,29.925,0,0,1,5.727,2.709c5.859,3.7,12.317,4.7,19.074,4.377a65.054,65.054,0,0,0,17.54-3.126,32.128,32.128,0,0,0,14.666-9.779c3.3-3.882,6.137-8.13,9.645-11.835,2.97-3.139,5.878-6.374,9.583-8.666a68.967,68.967,0,0,1,10.793-5.423,97.6,97.6,0,0,0,10.264-4.556,44.537,44.537,0,0,0,6.972-4.021A37.389,37.389,0,0,0,865.691,994.5a46.573,46.573,0,0,0,3.243-11.031,93.608,93.608,0,0,0,.728-10.049c.208-5.086.252-10.18.461-15.267a73.784,73.784,0,0,1,4.553-23.08A39.714,39.714,0,0,1,884.4,920.61a36.925,36.925,0,0,1,10.324-6.676c3.383-1.619,6.911-1.381,10.463-1.078.511.043.879.725.546,1.069-1.331,1.384-1.34,3.09-1.381,4.838-.181,7.3-.523,14.6-1.393,21.844a184.049,184.049,0,0,1-3.564,20.727c-1.289,5.426-2.649,10.823-4.4,16.115a156.577,156.577,0,0,1-9,21.831,143.029,143.029,0,0,1-13.092,21.351,124.778,124.778,0,0,1-12.489,14.315,76.65,76.65,0,0,1-10.236,8.825C848.819,1044.692,847.971,1046.2,846.47,1046.935Z" transform="translate(-662.358 -764.26)" fill="#6e26c7"/><path d="M435.424,1154.778a29.482,29.482,0,0,1-4.076-6.944,6.285,6.285,0,0,0-3.833-3.614c-3.91-1.6-7.766-3.314-11.605-5.082-3.154-1.452-6.123-3.2-9.122-4.911a85.9,85.9,0,0,1-17.8-13.12,52.243,52.243,0,0,1-5.742-6.424,27.637,27.637,0,0,1-3.672-7.141,10.706,10.706,0,0,1,3.777-12.566,23.19,23.19,0,0,1,7.194-3.532c.98-.279,1.525.089,1.6,1.045.052.668.013,1.342.005,2.015a22.233,22.233,0,0,0,6.461,15.775,37.785,37.785,0,0,0,12.612,8.4,132.367,132.367,0,0,0,12.677,3.816,32.916,32.916,0,0,1,11.429,5.267,23.551,23.551,0,0,1,7.681,9.862c.949,2.308,1.887,4.621,2.916,6.893,2.018,4.458,4.8,8.3,9.127,10.809,2.157,1.253,4.316,2.507,6.5,3.705a47.278,47.278,0,0,1,8.724,6.059,11.447,11.447,0,0,1,3.334,5.274,11.662,11.662,0,0,1-2.692,12.278,2.144,2.144,0,0,1-2.562.532c-5.528-1.773-10.024-5.224-14.42-8.8a99.4,99.4,0,0,1-12.576-12.216C439.543,1160.051,437.75,1157.936,435.424,1154.778Z" transform="translate(-378.893 -904.206)" fill="#6e26c7"/><path d="M754.964,1006.011a121.813,121.813,0,0,1,18.889-10.35,83.833,83.833,0,0,1,21.033-5.839,61.9,61.9,0,0,1,8.622-.564,7.365,7.365,0,0,1,4.31,1.325,58.407,58.407,0,0,0,13.73,7.221c1.818.629,1.635,1.8.974,2.9a13.935,13.935,0,0,1-4.211,4.274,26.025,26.025,0,0,1-14.4,4.393c-3.073.068-6.147.125-9.221.134a17.964,17.964,0,0,0-5.365.964,9.483,9.483,0,0,0-4.271,2.817,26.814,26.814,0,0,0-4.38,7.072,60.87,60.87,0,0,1-3,5.907,15.069,15.069,0,0,1-11.369,7.457,18.077,18.077,0,0,1-2.3.1c-.581.009-.931-.328-.858-.886.143-1.1-.62-1.532-1.346-2a108.765,108.765,0,0,0-13.5-7.7c-1.92-.884-3.839-1.767-5.733-2.7-1.379-.682-1.626-1.605-.6-2.746a48.4,48.4,0,0,1,5.229-5.343C749.811,1010.325,752.091,1007.811,754.964,1006.011Z" transform="translate(-662.722 -824.258)" fill="#6e26c7"/><path d="M1140.261,231.813a1.093,1.093,0,0,1,.2,1.461c-.621.85-1.34,1.628-1.973,2.47a2.142,2.142,0,0,1-2.251.823c-2.646-.309-4.317,1.166-4.562,3.916-.076.85.114,1.72.094,2.58-.025,1.145-.974,1.825-1.954,1.249-1.856-1.09-3.466-.68-5.1.407a3.42,3.42,0,0,0-1.638,3.436,15.393,15.393,0,0,0,.578,2.814,3.052,3.052,0,0,1-1.281,3.518,1.063,1.063,0,0,1-1.54-.059c-.355-.322-.647-.716-1.013-1.022-1.68-1.4-2.679-1.391-4.553,0a2.6,2.6,0,0,1-.735.414.828.828,0,0,1-.535-.108.591.591,0,0,1-.293-.732,5.635,5.635,0,0,1,1.665-2.3,32.921,32.921,0,0,0,4.473-5.982,21.046,21.046,0,0,0,3.352-12.02c-.091-2.14.159-2.378,2.193-3.109,4.97-1.789,9.633-.8,14.115,1.638A4.614,4.614,0,0,1,1140.261,231.813Z" transform="translate(-954.281 -228.655)" fill="#6e26c7"/></g><g transform="translate(31.68 56.755)" opacity="0.5"><path d="M939.676,522.187a51.25,51.25,0,0,1-7.991-16.093c-1.243-3.834-2.217-7.755-3.317-11.635a55.785,55.785,0,0,0-4.148-10.111c-1.249-2.446-3.341-4.18-5.334-5.981a15.113,15.113,0,0,0-10.021-3.809c-.383-.012-.769.009-1.151-.022-.751-.062-1-.539-.588-1.192a39,39,0,0,1,4.261-5.436,44.471,44.471,0,0,1,8.47-6.9,17.035,17.035,0,0,1,8.1-2.7c3.669-.315,6.407,3,7,5.664,1,4.492,1.644,9.051,2.687,13.542a147.828,147.828,0,0,0,7.8,24.091,94.673,94.673,0,0,0,10.146,19.011,22.322,22.322,0,0,1,1.145,1.991,7.143,7.143,0,0,0,1.029,1.72c2.529,2.376,4.252,5.437,6.8,7.813a42.185,42.185,0,0,0,8.323,6.6c.492.267,1.12.545.958,1.259-.178.8-.894.933-1.578.98a18.838,18.838,0,0,1-6.278-.692,47.141,47.141,0,0,1-16.767-8.061,43.424,43.424,0,0,1-5.461-5.1A30.4,30.4,0,0,1,939.676,522.187Z" transform="translate(-804.976 -458.291)" fill="#fff"/><path d="M437.476,1086.776c-.124-.192-.175-.273-.228-.354-.533-.814-.336-1.476.561-1.806a20.656,20.656,0,0,1,5.357-1.073,86.2,86.2,0,0,1,20.955.607,159.088,159.088,0,0,1,23.012,5.217,163.035,163.035,0,0,1,17.215,6.586,138.421,138.421,0,0,1,17.723,9.572,5.406,5.406,0,0,1,1.105.888.446.446,0,0,1-.183.713,2.408,2.408,0,0,1-1.106.217,17.658,17.658,0,0,1-2.832-.5c-6.458-1.865-12.9-3.79-19.355-5.651a147.844,147.844,0,0,0-25.387-5.105,114.225,114.225,0,0,0-12.377-.37,59.069,59.069,0,0,1-10.631-.515,20.042,20.042,0,0,1-12.1-6.69C438.649,1087.865,438,1087.295,437.476,1086.776Z" transform="translate(-436.955 -947.622)" fill="#fff"/></g><g transform="translate(8.254 0)" opacity="0.7"><path d="M618.12,729.834c-4.25,2.96-8.513,5.9-12.746,8.883-6.489,4.571-12.273,9.822-16.5,16.665-2.069,3.344-4.447,6.5-6.714,9.721a45.44,45.44,0,0,1-12,11.9,40.3,40.3,0,0,1-5.3,2.909,4.692,4.692,0,0,1-2.79.536c-2.466-.41-4.937-.784-7.4-1.238-1.013-.185-1.252-.831-.688-1.675a18.026,18.026,0,0,1,1.247-1.58q19.712-23.34,39.427-46.681,12.638-14.979,25.235-30c.742-.882,1.476-1.778,2.292-2.587a1.079,1.079,0,0,1,1.959.526,29.29,29.29,0,0,1,.727,3.083,92.684,92.684,0,0,0,3.7,14.214,4.758,4.758,0,0,1-.534,4.58A39.371,39.371,0,0,1,618.12,729.834Z" transform="translate(-504.939 -587.867)" fill="#bd7a6b"/><path d="M1241.952,219.191c-1.562,1.271-3.117,2.547-4.688,3.808a.96.96,0,0,1-1.636-.349c-1.346-2.648-2.646-5.318-3.992-7.964a2.747,2.747,0,0,1,.463-3.395c2.691-3.123,5.247-6.363,7.925-9.5a13.012,13.012,0,0,1,7.49-4.522,31.348,31.348,0,0,1,14.526.529,82.069,82.069,0,0,1,9.3,3.037,27.385,27.385,0,0,1,7.627,4.534,10.537,10.537,0,0,1,3.433,6.148,13.747,13.747,0,0,1-1.066,8.7c-1,2.178-2.058,4.332-3.113,6.485-.564,1.152-1.256,1.27-2.242.3a16.191,16.191,0,0,1-3.193-4.41,34.756,34.756,0,0,0-4.565-6.962c-2.091-2.5-5.034-3.395-8.2-3.57a21.549,21.549,0,0,0-12.816,3.576c-1.785,1.118-3.439,2.447-5.153,3.68Z" transform="translate(-1035.515 -196.663)" fill="#bd7a6b"/><path d="M1061.882,389.806a62.159,62.159,0,0,1-9.292,4.924,18.808,18.808,0,0,1-2.465.8c-1.139.291-1.657.013-1.99-1.038a17.948,17.948,0,0,1-.465-1.962c-.5-2.545-.924-5.106-1.5-7.633a4.23,4.23,0,0,1,1.163-3.943c3.252-3.791,6.472-7.609,9.706-11.415,1.617-1.9,3.209-3.828,4.866-5.695.876-.989,1.6-1.01,2.365.041a19.351,19.351,0,0,0,5.1,5.016,8.925,8.925,0,0,0,2.563,1.283c1.9.493,2.749-.065,2.988-1.963a7.02,7.02,0,0,0-.489-3.677,20.186,20.186,0,0,0-2.391-4.586,24.723,24.723,0,0,1-1.908-2.882,2.437,2.437,0,0,1,.554-3.565,1.229,1.229,0,0,1,1.985.141,7.158,7.158,0,0,1,.867,1.487,16.709,16.709,0,0,0,4.332,6.03c1.442,1.322,1.467,1.543.76,3.24-1.292,3.1-2.649,6.179-3.91,9.295a38.793,38.793,0,0,1-6.566,10.448A35.03,35.03,0,0,1,1061.882,389.806Z" transform="translate(-890.499 -319.146)" fill="#bd7a6b"/><path d="M346.612,1256.245c-2.06,1.834-4.968,3.084-7.941,4.22a15.339,15.339,0,0,1-4.215.9,5.9,5.9,0,0,1-4.773-1.585,1.728,1.728,0,0,1-.266-2.56c.566-.773,1.2-1.5,1.835-2.22,3.472-3.978,6.983-7.922,10.416-11.935,1.556-1.819,2.919-3.8,4.444-5.649,1.982-2.4,2.181-2.667,4.655-.3,1.794,1.721,3.86,3.159,5.812,4.715,1.648,1.314,1.726,1.431.59,3.3a33.242,33.242,0,0,1-9,9.987C347.776,1255.4,347.386,1255.687,346.612,1256.245Z" transform="translate(-328.968 -1010.126)" fill="#bd7a6b"/><path d="M1200.926,313.2c.833,1.158,1.624,2.352,2.517,3.464a1.479,1.479,0,0,1,.037,2.054c-.056.076-.095.165-.153.241-.569.744-.934,2.034-1.831,2.03-1.124,0-.99-1.42-1.332-2.25-.941-2.285-1.834-4.592-2.753-6.886a4.4,4.4,0,0,1-.53-1.905.954.954,0,0,1,.552-.91.721.721,0,0,1,.964.373A19.569,19.569,0,0,0,1200.926,313.2Z" transform="translate(-1008.601 -284.609)" fill="#bd7a6b"/></g></g><g transform="translate(0 0)"><path d="M486.48,478.81c-2,1.44-3.82,2.875-5.757,4.121a112.65,112.65,0,0,1-18.4,9.491,122.979,122.979,0,0,1-44.394,8.907,134.807,134.807,0,0,1-28.071-2.609,20.6,20.6,0,0,1-5.976-2.072c-3.918-2.127-6.7-5.245-6.989-9.887-.251-4.1,1.523-7.434,4.583-10.133,1.043-.921,2.615-1.265,3.1-2.8-.931-1.146-2.355-1.586-3.5-2.429-1.625-1.2-3.274-2.355-4.926-3.513-1.25-.875-1.268-.872-2.394.142-3.991,3.592-7.9,7.276-11.988,10.76-2.554,2.177-5.335,4.1-8.067,6.056a58.513,58.513,0,0,1-11.364,6.749,28.825,28.825,0,0,1-18.052,1.766,19.981,19.981,0,0,1-8.218-4.617,20.579,20.579,0,0,1-5.749-8.828,45.027,45.027,0,0,1-2.442-19.574c.1-1.3.907-2.483.53-3.833-1.09.6-2.141,1.283-3.277,1.773a22.689,22.689,0,0,1-15.482,1.066,12.835,12.835,0,0,1-8.952-8.21,26.985,26.985,0,0,1-.976-3.016,6.645,6.645,0,0,1,.936-6.029c.7-.915,1.276-1.928,2.019-2.8q11.282-13.289,22.6-26.546c.187-.22.379-.433.55-.665.873-1.186.858-1.562-.1-2.783a5.049,5.049,0,0,0-.561-.656c-2.956-2.655-4.428-6.232-5.9-9.762a13.689,13.689,0,0,1-.991-5.937,13.319,13.319,0,0,1,4.642-9.593,23.976,23.976,0,0,1,10.834-5.12,65.276,65.276,0,0,1,16.906-1.356,23.524,23.524,0,0,1,2.875.138,2.936,2.936,0,0,0,2.942-1.322c6.23-7.438,12.517-14.829,18.779-22.241q25.2-29.828,50.425-59.639a5.753,5.753,0,0,0,1.625-5.177,43.755,43.755,0,0,1,.945-18.3,41.582,41.582,0,0,1,11.166-20.147,36.058,36.058,0,0,1,10.026-7.156,19.546,19.546,0,0,1,5.808-1.617,9.585,9.585,0,0,1,8.625,3.01c.4.416.75.875,1.148,1.291a.8.8,0,0,0,1.256,0c.341-.334.63-.722.94-1.087q5.871-6.923,11.742-13.848c.31-.365.6-.751.915-1.114a1.646,1.646,0,0,0,.252-1.865c-.542-1.333-1.062-2.677-1.523-4.039a28.025,28.025,0,0,1-.208-17.031,20.746,20.746,0,0,1,10.972-13.451c5.544-2.737,11.169-2.257,16.7.294,1.022.471,1.972,1.654,3.1,1.191.884-.364,1.463-1.461,2.18-2.232,1.176-1.264,2.45-2.45,3.5-3.808A8.374,8.374,0,0,1,499.171,186a27.861,27.861,0,0,1,11.375-1.307,54.859,54.859,0,0,1,21.55,6.847c7.413,4.189,9.376,12.066,6.682,19.107a26.713,26.713,0,0,1-1.562,3.4,59.752,59.752,0,0,0-3.451,8.234,18.515,18.515,0,0,0-.876,4.226,7.736,7.736,0,0,0,.327,3.136,5.248,5.248,0,0,0,5.548,4.1,35.493,35.493,0,0,0,6.819-1.1c2.34-.535,4.678-1.1,7.039-1.509a13.3,13.3,0,0,1,5.723.143c3.386.891,4.972,3.136,4.586,6.6a37.8,37.8,0,0,1-3.909,12.3c-2.192,4.513-5.07,8.6-7.725,12.827-.766,1.218-1.47,2.478-2.141,3.754-.686,1.31-.6,1.714.449,2.8q1.7,1.755,3.427,3.487a24.444,24.444,0,0,1,3.694,5.111,43.913,43.913,0,0,1,4.636,10.823,55.534,55.534,0,0,1,1.651,19.706,63.568,63.568,0,0,1-4.752,18.614,59.912,59.912,0,0,1-11.185,17.688,5.9,5.9,0,0,0-1.681,4.387,171.813,171.813,0,0,1-1.559,23.843c-.368,2.854-.63,5.726-1.146,8.56-2.836,15.558-7.134,30.656-13.906,45.014a147.649,147.649,0,0,1-14.324,24.286,126.649,126.649,0,0,1-14.974,17.094A99.173,99.173,0,0,1,486.48,478.81Zm-2.4-2.853c2.183-1.573,4.507-2.985,6.521-4.749a153.145,153.145,0,0,0,11.237-10.726,133.049,133.049,0,0,0,19.715-27.59,156.392,156.392,0,0,0,10.19-23.191,178.584,178.584,0,0,0,6.068-21.92,190.762,190.762,0,0,0,3.885-32.584c.083-2.591.217-5.183.294-7.775a6.471,6.471,0,0,1,1.832-4.406c1.114-1.188,2.147-2.458,3.16-3.735A59.163,59.163,0,0,0,558.2,315.81a52.606,52.606,0,0,0,.145-23.711,38.474,38.474,0,0,0-9.991-18.557,30.753,30.753,0,0,0-20.683-9.583,39.489,39.489,0,0,0-23.623,6.019,56.529,56.529,0,0,0-17.32,16.238,63.09,63.09,0,0,0-10.765,28.862,2.876,2.876,0,0,0,.869,2.611c.414.4.826.8,1.274,1.161q2.138,1.706,4.309,3.375a5.783,5.783,0,0,1,1.629,1.605,1.369,1.369,0,0,1,.153,1.357,1.387,1.387,0,0,1-1.436.751,2.892,2.892,0,0,1-1.1-.282,21.4,21.4,0,0,1-2.257-1.27,50.963,50.963,0,0,1-10.894-10.2,92.058,92.058,0,0,1-11.436-17.931,148.317,148.317,0,0,1-13.366-40.344,31.3,31.3,0,0,0-2.2-8.035,4.743,4.743,0,0,0-4.556-2.9,9.4,9.4,0,0,0-2.56.3,20.639,20.639,0,0,0-9.9,5.59c-.46.487-.986.913-1.492,1.354a29.4,29.4,0,0,0-5.914,7.026,44.754,44.754,0,0,0-6.21,26.8,106.219,106.219,0,0,0,2.71,17.064c3.463,14.556,9.153,28.087,18.315,40.038a73.743,73.743,0,0,0,7.915,8.735,63.688,63.688,0,0,0,20.751,13.279,53.82,53.82,0,0,0,14.2,3.608,69.449,69.449,0,0,0,8.91.514,4.794,4.794,0,0,1,1.142.133c.956.2,1.4.714,1.393,1.55a1.435,1.435,0,0,1-1.356,1.58,25.7,25.7,0,0,1-4.017.282,63.906,63.906,0,0,1-28.99-7.651,45.547,45.547,0,0,1-5.64-3.475,7.741,7.741,0,0,0-4.817-1.562,67.855,67.855,0,0,0-15.686,1.965,89.491,89.491,0,0,0-28.611,12.526,77.271,77.271,0,0,0-14.632,12.073c-2.3,2.516-2.46,2.2.791,3.689a138.2,138.2,0,0,1,17.671,9.693,7.027,7.027,0,0,1,1.155.849,1.82,1.82,0,0,1,.12,2.379,1.6,1.6,0,0,1-2.051.518,17.448,17.448,0,0,1-2.266-1.258A139.829,139.829,0,0,0,372.4,389.839a144.515,144.515,0,0,0-31.414-8.319,85.959,85.959,0,0,0-18.676-.835,36.19,36.19,0,0,0-14.667,3.82,10.245,10.245,0,0,0-5.463,10.528,15.937,15.937,0,0,0,2.266,6.17,49.7,49.7,0,0,0,8.459,10.139,95.513,95.513,0,0,0,18.525,13.138A152.622,152.622,0,0,0,350.2,433.3a7.573,7.573,0,0,1,4.231,4.063,41.33,41.33,0,0,0,4.939,8.421c.832,1.048,1.873,1.935,2.671,3.007a71.522,71.522,0,0,0,10.045,10.686c5.526,4.9,10.971,9.979,18.208,12.4a2.021,2.021,0,0,1,1.544,1.88,2.065,2.065,0,0,1-1.365,2.017c-.787.356-1.615.624-2.4.984a13.728,13.728,0,0,0-6.761,6.013,6.55,6.55,0,0,0,.254,6.849,9.675,9.675,0,0,0,2.945,3.116,16.993,16.993,0,0,0,6.646,2.63q8.1,1.4,16.291,1.988a118.94,118.94,0,0,0,35.215-2.643A109.479,109.479,0,0,0,484.077,475.957Zm-15.79-168.2c.842,1.17,1.679,2.343,2.529,3.508a2.862,2.862,0,0,0,1.282,1.124c.3.108.6.04.687-.269a18.436,18.436,0,0,0,.4-1.972,60.193,60.193,0,0,1,9.042-23.8c5.045-7.833,11.248-14.517,19.415-19.274a50.837,50.837,0,0,1,9.881-4.635c10.6-3.433,20.986-3.246,31,2.119.425.226.846.459,1.28.664,1.324.624,1.589.57,2.325-.664,2.064-3.466,4.3-6.826,6.418-10.255a48.675,48.675,0,0,0,6.169-13.289,24.2,24.2,0,0,0,.6-2.52c.368-2.606-.656-3.862-3.261-3.912a18.425,18.425,0,0,0-3.724.31c-2.168.408-4.31.965-6.466,1.445a33.268,33.268,0,0,1-7.686,1.028,8.685,8.685,0,0,1-8.322-6.329,13.117,13.117,0,0,1-.036-8.22,57.138,57.138,0,0,1,3.7-9.369c1.221-2.38,2.447-4.789,2.664-7.56a10.784,10.784,0,0,0-4.309-10.108,23.543,23.543,0,0,0-6.014-3.362c-3.059-1.152-6.16-2.173-9.293-3.1a29.336,29.336,0,0,0-15.655-.144,8.174,8.174,0,0,0-4.4,2.593c-3.04,3.592-6.02,7.235-9.024,10.857-.061.074-.1.163-.162.239a1.566,1.566,0,0,0-.135,1.871c.735,1.348,1.446,2.709,2.151,4.072a42.8,42.8,0,0,1,3.34,8.576,6.487,6.487,0,0,1,.006,3.971,2.642,2.642,0,0,1-2.649,1.828,4.707,4.707,0,0,1-2.2-.619,11.269,11.269,0,0,1-3.781-3.058c-.63-.85-1.242-1.712-1.862-2.569-.451-.622-.9-1.247-1.357-1.865a4.526,4.526,0,0,0-.394-.417,1.5,1.5,0,0,0-.009.518c.224.633.5,1.247.726,1.88.78,2.17,1.617,4.32,2.3,6.521a10.237,10.237,0,0,1,.273,5.689,3.109,3.109,0,0,1-4.434,2.269,7.137,7.137,0,0,1-2.644-1.714c-1.5-1.6-3.181-3.067-3.915-5.257a13.887,13.887,0,0,0-1.022-2.061c-.2-.37-.6-.272-.9.144a1.387,1.387,0,0,0-.2,1.6,21.755,21.755,0,0,0,2.256,4.007,15.238,15.238,0,0,1,2.288,4.311,7.361,7.361,0,0,1,.269,4.532c-.441,1.847-1.46,2.514-3.381,2.227a9.376,9.376,0,0,1-4.14-1.933,20.946,20.946,0,0,1-4.425-4.1c-.649-.852-1.172-.829-1.874-.021-1.323,1.522-2.6,3.084-3.906,4.624-3.166,3.739-6.292,7.513-9.525,11.192a4.629,4.629,0,0,0-1.243,4.716c.327,1.1.518,2.244.735,3.375a142.766,142.766,0,0,0,9.694,31.014A112.525,112.525,0,0,0,468.286,307.762ZM340.5,377.449a1.69,1.69,0,0,0,.484.282c1.229.227,2.458.453,3.694.637a124.063,124.063,0,0,1,12.382,2.667,146.633,146.633,0,0,1,17.789,5.812c1.529.606,1.891,1.037,3.415-.808a58.149,58.149,0,0,1,12.311-11.213c1.115-.753,2.205-1.544,3.276-2.36a68.876,68.876,0,0,1,11.623-6.89,88.535,88.535,0,0,1,27.111-8.474c1.619-.217,3.249-.331,4.869-.532.358-.044.858-.155,1-.4.21-.359-.221-.665-.488-.936-2.161-2.18-4.509-4.206-6.44-6.573a97.3,97.3,0,0,1-11.165-16.412,116.291,116.291,0,0,1-9.655-25.24c-.756-2.977-1.347-6-2.038-8.99-.166-.719-.755-.873-1.282-.351-.476.471-.907.989-1.34,1.5q-14.695,17.39-29.385,34.781-17.484,20.689-34.966,41.379a19.564,19.564,0,0,0-1.209,1.6C340.4,377.039,340.487,377.271,340.5,377.449ZM352.862,480.8c1.4-1.011,2.877-1.939,4.2-3.049q4.514-3.793,8.9-7.741c1.64-1.47,3.213-3.022,4.739-4.612.932-.97.885-1.277-.038-2.133a136.407,136.407,0,0,1-10.623-10.938c-3.594-4.167-6.918-8.476-9.071-13.577a3.843,3.843,0,0,0-2.409-2.278c-3.435-1.244-6.776-2.71-10.084-4.266a114.738,114.738,0,0,1-24.058-14.655c-1.263-1.032-2.485-2.114-3.753-3.141a1.335,1.335,0,0,0-2.212.212c-.736.887-1.415,1.821-2.159,2.7-7.256,8.585-14.477,17.2-21.82,25.708a4.6,4.6,0,0,0-.956,5.242c.145.355.212.747.383,1.086,1.508,2.982,3.3,5.7,6.825,6.553a19.667,19.667,0,0,0,10.811-.227,22.557,22.557,0,0,0,7.883-4.659c.508-.438.958-.954,1.5-1.342a2.2,2.2,0,0,1,2.447-.07,2.055,2.055,0,0,1,.751,2.067,17.311,17.311,0,0,1-.888,2.732,26.342,26.342,0,0,0-1.765,7.844,39.158,39.158,0,0,0,2.083,15.612,18.472,18.472,0,0,0,5.16,8.154c2.265,1.969,4.719,3.743,7.777,4.145a25.971,25.971,0,0,0,14.107-1.917A69.534,69.534,0,0,0,352.862,480.8ZM468.056,198.415a15.635,15.635,0,0,0-4.418,5.343,22.1,22.1,0,0,0-2.706,13.056c.061.8.375,1.016,1.148.578a3.914,3.914,0,0,1,4.1-.042c.5.281.939.668,1.412.995.382.263.768.7,1.268.327a1.436,1.436,0,0,0,.486-1.3c-.039-.573-.153-1.14-.238-1.709-.141-.95-.336-1.895-.42-2.85-.325-3.653,3.385-5.918,6.354-5.046a14.27,14.27,0,0,1,1.55.736c.494.214.725-.123.787-.524a5.668,5.668,0,0,0-.018-1.145,6.422,6.422,0,0,1,1.852-4.984,4.224,4.224,0,0,1,4.02-.974,1.662,1.662,0,0,0,1.532-.63c.383-.431.741-.884,1.084-1.347.459-.619.383-.959-.309-1.381A15.324,15.324,0,0,0,468.056,198.415Z" transform="translate(-279.403 -184.563)" fill="#181f49"/><path d="M1314.122,785.475a7.587,7.587,0,0,1-6.891,1.372c-3.047-.774-5.355-2.495-6.264-5.725-.33-1.173-.454-1.21-1.609-.8a8.786,8.786,0,0,1-7.262-.346,8.015,8.015,0,0,1-4.666-6.789c-.074-.938-.131-1.982.9-2.533.615-.33,1.4.31,2,1.677a11.406,11.406,0,0,0,1.161,2.3,5.186,5.186,0,0,0,6.172,1.7,1.383,1.383,0,0,0,.9-1.852c-.258-1.023-.638-2.015-.9-3.035a7.41,7.41,0,0,1,.226-4.807,2.615,2.615,0,0,1,2.376-1.8,8.607,8.607,0,0,1,1.438-.018,17.127,17.127,0,0,1,9.976,4.7,3.539,3.539,0,0,1,.5,4.275,5.015,5.015,0,0,1-2.429,2.364c-1.426.552-2.812,1.212-4.235,1.788a1,1,0,0,0-.663,1.363,5.377,5.377,0,0,0,7.17,3.828,16.049,16.049,0,0,1,1.925-.557,1.092,1.092,0,0,1,1.212.572,1.225,1.225,0,0,1-.133,1.353A8.351,8.351,0,0,1,1314.122,785.475Z" transform="translate(-1068.729 -638.925)" fill="#181f49"/><path d="M1295.471,689.3a4.747,4.747,0,0,1-1.357,6.342c-1.788,1.132-5.189.523-6.2-1.227a4.794,4.794,0,0,1,1.149-6.44C1290.755,686.619,1294.2,687.4,1295.471,689.3Z" transform="translate(-1068.543 -578.236)" fill="#181f49"/><path d="M1451.442,764.716a4.869,4.869,0,0,1,6.451.872,5.251,5.251,0,0,1-.832,6.3,4.6,4.6,0,0,1-6.412-.71A4.8,4.8,0,0,1,1451.442,764.716Z" transform="translate(-1195.863 -638.199)" fill="#181f49"/><g transform="translate(192.417 117.288)"><path d="M1168.359,736.233a10.034,10.034,0,0,1-1.662-3.367,5.558,5.558,0,0,1,4.627-7.434,14.637,14.637,0,0,1,6.538.374,23.488,23.488,0,0,1,10.184,6.212,10.161,10.161,0,0,1,2.709,5.906,5.168,5.168,0,0,1-3.535,5.341,8.736,8.736,0,0,1-3.083.6C1177.727,743.725,1172.574,740.914,1168.359,736.233Z" transform="translate(-1166.398 -725.234)" fill="#d901ab"/><path d="M1428.655,856.781a12.045,12.045,0,0,1-1.574-3.092c-1.476-3.846,1.081-7.285,4.826-7.772a16.366,16.366,0,0,1,8.7,1.295,22.756,22.756,0,0,1,7.936,5.572,10.049,10.049,0,0,1,2.516,5.694,5.189,5.189,0,0,1-3.54,5.34,8.725,8.725,0,0,1-3.083.6C1438.022,864.273,1432.87,861.462,1428.655,856.781Z" transform="translate(-1370.198 -819.632)" fill="#d901ab"/></g></g></svg>