<svg xmlns="http://www.w3.org/2000/svg" width="360.29" height="440.677" viewBox="0 0 360.29 440.677"><g transform="matrix(0.899, -0.438, 0.438, 0.899, 0, 93.024)"><g transform="translate(2.634 2.648)"><path d="M128.593,112.176q-2.251,15.668-4.5,31.335c-.113.782-.252,1.56-.318,2.345-.191,2.261.41,3.119,2.582,3.536a12.593,12.593,0,0,0,10.755-2.938,36.489,36.489,0,0,0,10.007-13.729,148.962,148.962,0,0,0,7.272-20.909c1.287-4.647,2.793-9.233,4.226-13.839a45.018,45.018,0,0,1,3.705-8.369,21.168,21.168,0,0,1,4.656-5.684c3.621-3.18,9.914-3.606,14.375-.777a19.208,19.208,0,0,1,7.641,9.874,34.6,34.6,0,0,1,2.043,18.293c-.216,1.263-.389,2.535-.549,3.807a79.646,79.646,0,0,1-7.5,24.165,84.161,84.161,0,0,1-10.726,17.3,54.992,54.992,0,0,1-19.841,15.534,28.914,28.914,0,0,1-12.007,2.758c-2.165.018-4.33.117-6.493.215A32.919,32.919,0,0,0,127.8,176.1c-5.508,1.3-8.553,4.984-9.816,10.293a42.586,42.586,0,0,0-.754,5.268c-.487,4.5-.859,9.014-1.414,13.505-.712,5.774-1.555,11.53-2.345,17.3-.107.783-.268,1.56-.317,2.346-.065,1.076-.009,2.16-.076,3.239-.07,1.137-1.333,1.685-1.443,2.849-.111,1.2-.992,1.584-2.057,1.743a99.639,99.639,0,0,1-15.588,1.35,169.617,169.617,0,0,1-28.175-3.023,92.585,92.585,0,0,1-25.284-7.925,11.907,11.907,0,0,1-1.558-.838c-.3-.213-.7-.591-.7-.893.019-1.859-.933-3.559-.578-5.518.772-4.266,1.092-8.62,1.964-12.865q.951-4.625,1.783-9.272c1.4-7.951,2.838-15.9,4.2-23.86.678-3.969,1.784-7.906,2.037-11.92.56-8.875,2.272-17.587,3.375-26.384a10.629,10.629,0,0,0-2.645-8.753,19.439,19.439,0,0,0-5.243-4.274,45.455,45.455,0,0,0-9.305-3.743A32.57,32.57,0,0,1,23,109.51a43.266,43.266,0,0,1-5.825-5.445A59.925,59.925,0,0,1,4.881,82.722,97.114,97.114,0,0,1,.021,54.575c-.165-5.148.667-10.211,1.332-15.3A37.143,37.143,0,0,1,4.14,29.352a28.2,28.2,0,0,1,9.624-12.479,13.684,13.684,0,0,1,12.1-2.075,11.091,11.091,0,0,1,7.262,6.062,29.118,29.118,0,0,1,2.711,9.326A136.774,136.774,0,0,1,36.434,47c-.11,9.559-.03,19.106,1.771,28.559a34.531,34.531,0,0,0,5.054,12.21,14.152,14.152,0,0,0,7.679,5.71,6.537,6.537,0,0,0,2.325.3c2.025-.076,2.545-.57,2.964-2.584a11.39,11.39,0,0,0,.182-1.17c.721-6.969,2.448-13.767,3.533-20.673,1.009-6.422,2.267-12.8,3.506-19.175.879-4.525,1.456-9.128,2.784-13.584.727-2.436,1.165-4.978,1.78-7.462,1.9-7.692,4.483-15.12,8.688-21.881A22.588,22.588,0,0,1,82.628.721,6.723,6.723,0,0,1,83.915.03a.581.581,0,0,1,.54.09c.16.218.36.577.28.771a19.053,19.053,0,0,1-.963,1.818,19.229,19.229,0,0,0-2.48,6.6,9.009,9.009,0,0,0,.39,4.083A5.705,5.705,0,0,0,86.3,17.477c3.4.654,6.441-.373,9.362-1.918a26.507,26.507,0,0,0,8.981-7.965c.452-.617.788-1.555,1.7-1.456,1.106.12,1.124,1.254,1.4,2.046A24.08,24.08,0,0,0,117.884,21.21a9.269,9.269,0,0,0,5.044,1.449,5.536,5.536,0,0,0,5.177-2.844,9.48,9.48,0,0,0,1.546-5.875,29.14,29.14,0,0,0-.938-5.518,6.708,6.708,0,0,1-.264-1.435.759.759,0,0,1,1.114-.559,6.931,6.931,0,0,1,1.25,1.223,23.636,23.636,0,0,1,3.384,6.87,51.252,51.252,0,0,1,2.363,13.057,151.057,151.057,0,0,1-.338,20.355c-.3,3.832-.867,7.642-1.042,11.463-.233,5.137-1.312,10.17-1.619,15.271C132.8,87.294,130.181,99.666,128.593,112.176ZM80.531,54.922A5.247,5.247,0,0,0,82.116,44.55a5.32,5.32,0,0,0-6.006,4.3C75.607,52.116,77.292,54.43,80.531,54.922Zm36.892,5.3c2.849.771,5.779-2.2,6.05-4.365a5.429,5.429,0,0,0-4.776-6.042,5.306,5.306,0,0,0-5.669,4.482A5.033,5.033,0,0,0,117.423,60.221ZM95.86,79.27a9.789,9.789,0,0,0,8.543-2.38c3.061-2.6,4.586-6.094,5.412-9.937a2.2,2.2,0,0,0-.122-1.721.756.756,0,0,0-.443-.338c-.152-.02-.443.113-.474.231-.227.85-.39,1.716-.6,2.57-.836,3.433-2.283,6.47-5.254,8.634a9.156,9.156,0,0,1-13.242-2.238,12.865,12.865,0,0,1-2.269-9.253,19.282,19.282,0,0,0,.2-2.349.854.854,0,0,0-.458-.661c-.427-.128-.709.174-.837.589-.029.094-.062.187-.083.283a15.273,15.273,0,0,0,.753,9.283C88.566,75.861,91.2,78.614,95.86,79.27Z" transform="translate(0 42.368)" fill="#a7d63f"/><g transform="translate(0.085 42.399)" opacity="0.5"><path d="M36.786,150.92c-2.758-.4-5.025-.609-7.244-1.064-6.458-1.316-12.946-2.563-19.116-4.979-2.659-1.042-5.252-2.249-7.884-3.358C1.269,140.983.257,140.3.515,138.686c-1.214-3.257.051-6.411.436-9.6.105-.871.733-1.085,1.537-.643.863.475,1.71.981,2.549,1.5a50.141,50.141,0,0,0,11.678,4.918,49.039,49.039,0,0,0,9.565,1.819A30.868,30.868,0,0,0,42.2,134.56a39.2,39.2,0,0,0,6.28-3.257,29.96,29.96,0,0,0,9.322-10.909A113.027,113.027,0,0,0,64.724,104.4,40.681,40.681,0,0,1,77.166,86.363a37.871,37.871,0,0,1,17.713-8.4c1.554-.265,3.121-.458,4.676-.712,2.43-.395,4.854-.821,7.283-1.217a27.6,27.6,0,0,0,14.544-7.427,47.5,47.5,0,0,0,14.51-25.86c.582-2.893,1.246-5.765,1.755-8.677a88.819,88.819,0,0,0,.384-28.533,35.756,35.756,0,0,1-.4-3.82c-.056-1.394.719-2,2.084-1.6a15.519,15.519,0,0,1,7.843,5.005,25.912,25.912,0,0,1,5.093,10.564,33.1,33.1,0,0,1,.777,14.065c-.233,1.26-.395,2.534-.55,3.806a80.192,80.192,0,0,1-7.7,24.72A83.627,83.627,0,0,1,134.564,75.3a54.979,54.979,0,0,1-19.6,15.376,29.3,29.3,0,0,1-12.578,2.838,50.458,50.458,0,0,0-12.027,1.164C84.6,96.072,81.372,99.818,80.3,105.42a87.942,87.942,0,0,0-1.623,12.31c-.319,6.719-1.493,13.313-2.351,19.953-.241,1.858-.573,3.705-.774,5.567-.125,1.17-.029,2.358-.132,3.532-.1,1.112-1.344,1.673-1.444,2.849-.09,1.051-.873,1.481-1.832,1.612A103.513,103.513,0,0,1,60.4,152.55c-4.136.095-8.256-.146-12.388-.381C44.055,151.947,40.184,151.279,36.786,150.92Z" transform="translate(37.553 81.325)" fill="#84af2b"/><path d="M22.294.023a.915.915,0,0,1,.791,1.143,5.715,5.715,0,0,1-.35.812A75.4,75.4,0,0,0,16.73,18.291a92.929,92.929,0,0,0-2.825,16.884A72.976,72.976,0,0,0,15.688,60.1a34.694,34.694,0,0,0,3.5,8.443c2.5,4.338,6.371,7.207,10.637,9.574,1.888,1.048,3.92,1.842,5.9,2.726,4.053,1.813,8.112,3.632,11.6,6.436,4.941,3.966,7.9,8.992,7.968,15.478a14.441,14.441,0,0,1-3.42,9.537c-.5.606-1.028.553-1.333-.163a16.567,16.567,0,0,0-7.6-7.964,36.815,36.815,0,0,0-8.746-3.548c-7.669-1.994-13.545-6.47-18.558-12.47A56.345,56.345,0,0,1,6.6,73.344,83.236,83.236,0,0,1,1,52.854a93.761,93.761,0,0,1-.99-11.475,67.9,67.9,0,0,1,.55-11.195c.318-2.046.554-4.106.894-6.148A34.549,34.549,0,0,1,10.82,4.982,15.833,15.833,0,0,1,20.954.023C21.345-.012,21.74,0,22.133,0A.436.436,0,0,1,22.294.023Z" transform="translate(0 14.195)" fill="#84af2b"/><path d="M17.069,17.677c2.262.273,5.128-.7,7.862-2.162a26.514,26.514,0,0,0,8.961-7.987c.058-.079.107-.166.169-.242.432-.518.749-1.283,1.558-1.194.83.09.987.893,1.182,1.534a26.863,26.863,0,0,0,4.4,8.317,22.363,22.363,0,0,0,6.734,5.683,7.889,7.889,0,0,0,4.859.981,5.5,5.5,0,0,0,4.578-2.847,9.68,9.68,0,0,0,1.522-5.883,27.636,27.636,0,0,0-.952-5.514,3.986,3.986,0,0,1-.248-1.147,1.055,1.055,0,0,1,.326-.751.8.8,0,0,1,1.071.09,7.949,7.949,0,0,1,.989,1.088A19.888,19.888,0,0,1,62.63,12.3a49.529,49.529,0,0,1,3.212,16.756A2.322,2.322,0,0,1,64.5,31.425a16.3,16.3,0,0,1-8.774,2.142,25.654,25.654,0,0,1-17.938-8.43,52,52,0,0,1-3.59-4.312,1.016,1.016,0,0,0-1.541-.279c-1.04.748-2.055,1.533-3.106,2.266a26,26,0,0,1-15.869,4.7A18.521,18.521,0,0,1,2.653,23.951,14.023,14.023,0,0,1,1.087,22.6a3.148,3.148,0,0,1-.795-3.731A65.334,65.334,0,0,1,6.122,6.939,22.106,22.106,0,0,1,11.9.663,4.407,4.407,0,0,1,12.9.058a1,1,0,0,1,.82.061.889.889,0,0,1,.241.78,4.883,4.883,0,0,1-.657,1.309A21.064,21.064,0,0,0,11.14,6.731a9.861,9.861,0,0,0-.453,5.809C11.383,15.519,13.086,17.087,17.069,17.677Z" transform="translate(70.676 0)" fill="#84af2b"/><path d="M21.081,19.972A26.212,26.212,0,0,1,3.617,9.9,19.4,19.4,0,0,1,.205,3.063a4.351,4.351,0,0,1-.18-1.735,1.383,1.383,0,0,1,2.392-.9A17.984,17.984,0,0,1,4.431,2.58a26.839,26.839,0,0,0,13.325,8.869c7.453,2.287,14.39,1.05,20.982-2.814a19.918,19.918,0,0,0,2.3-1.842c.612-.5,1.2-1.021,1.85-1.464a1.564,1.564,0,0,1,1.936-.023,1.923,1.923,0,0,1,.7,2.121,8.4,8.4,0,0,1-1.1,2.075,24.288,24.288,0,0,1-7.773,7.162A22.677,22.677,0,0,1,21.081,19.972Z" transform="translate(71.118 86.533)" fill="#84af2b"/></g><path d="M63.993,56.28a130.45,130.45,0,0,1-20.368-4.464A120.909,120.909,0,0,1,12.508,37.674,128.25,128.25,0,0,1,1.389,29.344,3.63,3.63,0,0,1,0,26.254c-.016-3.839.061-7.661.354-11.5.27-3.535.518-7.066.99-10.583.091-.677-.017-1.374.012-2.06A5.832,5.832,0,0,1,1.567.664a1.226,1.226,0,0,1,.584-.6.648.648,0,0,1,.784.219,1.223,1.223,0,0,1,.191.222C6.311,6.049,11.346,9.76,16.3,13.474A100.884,100.884,0,0,0,42.024,27.25a100.007,100.007,0,0,0,12.114,3.784c5.488,1.271,11.037,2.023,16.595,2.825A100.915,100.915,0,0,0,98.422,33.6a93.275,93.275,0,0,0,22.339-5.524,74.2,74.2,0,0,0,12.516-6.009c1.022-.646,1.714-1.63,2.75-2.2a1.423,1.423,0,0,1,.823-.116c.351.046.408.4.449.683a2.571,2.571,0,0,1-.014.884c-.679,3.275-.77,6.661-1.875,9.861a10.809,10.809,0,0,0-.37,1.73A105.946,105.946,0,0,1,131.9,45.5a2.757,2.757,0,0,1-1.626,1.95c-1.728.722-3.42,1.536-5.168,2.206a112.853,112.853,0,0,1-27.156,6.859,139.2,139.2,0,0,1-16.5.99c-3.044,0-6.1-.259-9.145-.381C69.133,57,66.034,56.512,63.993,56.28Z" transform="translate(7.253 243.599)" fill="#d901ab"/><path d="M16.823,22.3a15.3,15.3,0,0,1,7.968,2.607,2.188,2.188,0,0,0,.811.329.629.629,0,0,0,.533-.141c.155-.216.346-.565.269-.758a7.14,7.14,0,0,0-.861-1.53,30.621,30.621,0,0,1-3.381-6.227A19.026,19.026,0,0,1,21,4.719c.708-3.1,2.707-4.752,5.883-4.719a8.433,8.433,0,0,1,3.434.776,19.116,19.116,0,0,1,6.2,4.472A28.233,28.233,0,0,1,42.5,14.684c.134.371.242.753.4,1.115.652,1.528,1.458,1.64,2.615.352.328-.366.577-.8.9-1.175A30.015,30.015,0,0,1,57.878,6.361a18.5,18.5,0,0,1,4.881-1.108,5.313,5.313,0,0,1,1.179.015c4.021.428,5.924,2.47,5.861,6.7-.05,3.363-1.515,6.293-3.311,9.052A32.843,32.843,0,0,1,60.1,27.963c-.446.381-.9.754-1.311,1.172a.594.594,0,0,0,0,.535c.079.154.3.355.44.339,1.068-.124,2.125-.364,3.2-.441,6.7-.485,12.979.493,18.133,5.329a11.007,11.007,0,0,1,1.9,2.6,5.752,5.752,0,0,1-2.331,7.682,14.555,14.555,0,0,1-9.117,1.872,26.033,26.033,0,0,1-11.023-3.075,3.809,3.809,0,0,0-.532-.257c-.558-.222-1.173-.457-1.662.021-.512.5-.245,1.1.072,1.619a27.473,27.473,0,0,1,2.419,5.381,21.415,21.415,0,0,1,.972,6.993,7.045,7.045,0,0,1-1.7,4.33,3.852,3.852,0,0,1-3.439,1.353,9.2,9.2,0,0,1-4.99-1.632,23.016,23.016,0,0,1-8.335-10.506,21.809,21.809,0,0,1-1.559-5.387c-.05-.39-.166-.773-.235-1.159-.088-.491-.148-1.079-.681-1.211-.617-.152-.745.469-.969.888-.554,1.044-1.07,2.113-1.688,3.119a25.185,25.185,0,0,1-11.442,9.906,10.258,10.258,0,0,1-6.349.82,4.191,4.191,0,0,1-3.687-3.676,9.972,9.972,0,0,1,.453-4.955,21.67,21.67,0,0,1,4.241-7.055c.686-.835,1.479-1.584,2.237-2.358.369-.378.638-.786.353-1.3a1.263,1.263,0,0,0-1.247-.637,11.612,11.612,0,0,0-1.742.273c-4.37,1-8.64.235-12.861-.832A13.278,13.278,0,0,1,2.288,34.6a6.047,6.047,0,0,1,.323-9.711,16.348,16.348,0,0,1,7.658-2.9A17.943,17.943,0,0,1,16.823,22.3Z" transform="translate(66.792 0)" fill="#e48a21"/><path d="M12.33,15.383a16.3,16.3,0,0,1-9.969-4.409,6.259,6.259,0,0,1-1.185-1.3C-.486,6.833-.836,3.78,3.151,1.416A11.338,11.338,0,0,1,8.523.025,19.1,19.1,0,0,1,22.157,4.569a7.276,7.276,0,0,1,2.02,2.859,5.084,5.084,0,0,1-2.313,6.813,12.059,12.059,0,0,1-7.109,1.486C13.974,15.65,13.2,15.508,12.33,15.383Z" transform="translate(96.566 22.141)" fill="#f8e891"/><path d="M68.3,24.076a19.284,19.284,0,0,1-7.552-2.307,18.223,18.223,0,0,0-1.891-.826,1.007,1.007,0,0,0-1.1.227.959.959,0,0,0-.125,1.1c.3.619.683,1.2.993,1.815A22.265,22.265,0,0,1,61.256,34.6a5.718,5.718,0,0,1-.09,1.467c-1.086,3.746-2.546,5.413-6.847,4.542a8.622,8.622,0,0,1-3.215-1.438,22.871,22.871,0,0,1-8.43-10.787,22.736,22.736,0,0,1-1.505-5.4,6.691,6.691,0,0,0-.325-1.438,1.144,1.144,0,0,0-.559-.625c-.3-.123-.547.146-.69.41-.607,1.127-1.15,2.291-1.806,3.39a24.984,24.984,0,0,1-11.6,10.147,10.236,10.236,0,0,1-6.35.8,4.2,4.2,0,0,1-3.657-3.7A10.015,10.015,0,0,1,16.65,27,21.716,21.716,0,0,1,20.9,19.955c.687-.835,1.479-1.585,2.237-2.359.375-.381.61-.8.313-1.3a1.286,1.286,0,0,0-1.263-.613,12.481,12.481,0,0,0-1.741.283c-4.371.989-8.641.224-12.86-.85a13.223,13.223,0,0,1-5.323-3.122C-.913,9.2-.706,4.914,2.629,2.278a11.358,11.358,0,0,1,3.1-1.69C8.258-.361,9.061-.451,8.71,2.54c-.281,2.385,1.073,4.114,3,5.386a8.248,8.248,0,0,0,3.908,1.258,51.071,51.071,0,0,1,7.5,1.617,6.172,6.172,0,0,1,3.435,2.176,4.42,4.42,0,0,1,1.118,3.551c-.057.392-.114.782-.144,1.175-.1,1.32-.064,2.63,1.275,3.362s2.7.427,4.01-.832c.781-.751,1.553-1.516,2.283-2.317a6.427,6.427,0,0,1,4.164-1.99,6.235,6.235,0,0,1,5.986,2.448,19.007,19.007,0,0,1,2.3,3.783,3.491,3.491,0,0,0,2.941,2.18,1.941,1.941,0,0,0,2.409-1.61c.256-.847.4-1.732.707-2.558,1.1-2.959,2.933-4.243,6.088-4.111a48.461,48.461,0,0,1,7.654.545,8.678,8.678,0,0,0,2.939.13,6.441,6.441,0,0,0,5.633-4.56c.858-2.575,1.291-2.671,3.347-1a10.13,10.13,0,0,1,3.224,3.783A5.8,5.8,0,0,1,80.1,22.617a14.838,14.838,0,0,1-8.829,1.875C70.382,24.431,69.507,24.25,68.3,24.076Z" transform="translate(66.791 22.591)" fill="#e48a21" opacity="0.5"/><path d="M1.1.633c-.1.142-.181.39-.294.4C.362,1.093.131.8.019.412-.045.192.058-.006.279,0A.81.81,0,0,1,1.1.633Z" transform="translate(140.598 31.13)" fill="#e48a21" opacity="0.5"/><path d="M54.134,107.171a95.8,95.8,0,0,1-25.327-7.758A43.4,43.4,0,0,1,14.349,88.4,53.728,53.728,0,0,1,1.981,62.942,121.771,121.771,0,0,1,.011,40.015c-.056-7.182.094-14.361.555-21.534.321-5,.491-10.016,1-15.01.079-.777-.039-1.576.05-2.352A1.531,1.531,0,0,1,2.2.159,1.059,1.059,0,0,1,3.535.381q2.7,2.29,5.413,4.577a79.743,79.743,0,0,0,11.8,7.831,126.485,126.485,0,0,0,26.4,11c3.093.948,6.31,1.548,9.452,2.337a103.608,103.608,0,0,0,11.925,2.051c4.092.533,8.226.643,12.355.786a129.9,129.9,0,0,0,14.455-.354,108.839,108.839,0,0,0,30.757-6.85c1.837-.7,3.618-1.551,5.427-2.334.451-.195.893-.414,1.357-.573a.836.836,0,0,1,1.07.7,10.715,10.715,0,0,1-.177,2.051c-.943,4.223-1.979,8.425-2.872,12.655-.59,2.794-1.177,5.579-1.907,8.343-1.685,6.375-3.35,12.749-5.4,19.02A120.19,120.19,0,0,1,116.4,79.411a53.933,53.933,0,0,1-22.382,22.9,42.2,42.2,0,0,1-14.849,4.726,102.2,102.2,0,0,1-16.5.807A84.051,84.051,0,0,1,54.134,107.171Z" transform="translate(4.617 273.611)" fill="#a27dfa"/><path d="M64.063,43.364C51.077,41.837,38.8,37.4,27.093,31.325A102.67,102.67,0,0,1,4.942,16.2c-1.31-1.2-2.54-2.481-3.836-3.69A3.251,3.251,0,0,1,.029,9.583C.157,8.5.261,7.426.391,6.351a16.234,16.234,0,0,0,.3-4.409,2.5,2.5,0,0,1,.062-.877C.859.57,1.045.077,1.622.007a.917.917,0,0,1,.921.606c1.406,3.05,3.928,5.18,6.317,7.35a92.017,92.017,0,0,0,15.017,10.96,116.251,116.251,0,0,0,25.98,11.232A119.021,119.021,0,0,0,69.3,33.778a104.4,104.4,0,0,0,10.587.884,116.417,116.417,0,0,0,13.276-.545,102.32,102.32,0,0,0,24.8-5.281,76.234,76.234,0,0,0,14.466-6.679c1.036-.631,1.8-1.517,2.751-2.2a.948.948,0,0,1,1.08-.192,1.007,1.007,0,0,1,.4,1.03,12.929,12.929,0,0,1-.163,1.469c-.341,2.139-.727,4.275-1.035,6.42a3.456,3.456,0,0,1-1.912,2.758,88.371,88.371,0,0,1-11.491,5.4,121.158,121.158,0,0,1-30.116,7.109,115.171,115.171,0,0,1-15.922.6A109.988,109.988,0,0,1,64.063,43.364Z" transform="translate(7.916 243.613)" fill="#e383d4"/><g transform="translate(4.698 285.295)"><path d="M62.405,39.859a108.384,108.384,0,0,1-24.7-6.393A169.6,169.6,0,0,1,12.737,22.04c-3.869-2.185-7.522-4.7-11.165-7.228A2.787,2.787,0,0,1,.089,12.14c.034-.387-.109-.786-.087-1.176q.256-4.42.549-8.84A8.173,8.173,0,0,1,.7.95C.875.119,1.517-.235,2.222.164a16.78,16.78,0,0,1,2.221,1.46A107.225,107.225,0,0,0,28.017,15.635a173.655,173.655,0,0,0,23.1,8.163A75.594,75.594,0,0,0,66.414,27c4.217.3,8.453.515,12.677.481,5.118-.043,10.246-.229,15.347-.64a117.87,117.87,0,0,0,22.1-3.836,98.039,98.039,0,0,0,10.929-3.647c.455-.186.92-.356,1.389-.506,2.168-.689,2.971-.094,2.31,1.977-1.021,3.2-1.224,6.585-2.374,9.751a3.125,3.125,0,0,1-1.889,2.087c-.646.241-1.3.463-1.953.686a144.159,144.159,0,0,1-32.067,6.618,154.592,154.592,0,0,1-17.4.926A72.278,72.278,0,0,1,62.405,39.859Z" transform="translate(0.177 0)" fill="#855efa"/><path d="M58.173,36.661c-6.532-.53-12.725-2.487-18.9-4.555a139.956,139.956,0,0,1-21.952-9.461A121.951,121.951,0,0,1,5.954,15.767c-1.537-1.06-3.277-1.8-4.635-3.151a3.325,3.325,0,0,1-1.169-2.3Q.028,5.6,0,.873C0,.105.482-.181,1.183.114a14.836,14.836,0,0,1,1.85.917A225.329,225.329,0,0,0,37.355,17.513,139.846,139.846,0,0,0,51.137,21.88a99.686,99.686,0,0,0,15.719,2.59,82.872,82.872,0,0,0,10.906.165,200.254,200.254,0,0,0,33.109-3.979,94.832,94.832,0,0,0,10.087-2.264,18.9,18.9,0,0,1,3.189-.579.773.773,0,0,1,.923.868,2.846,2.846,0,0,1-.126.872c-.914,2.806-1.863,5.6-2.758,8.413a3.168,3.168,0,0,1-2.328,2.026c-5.032,1.752-10.17,3.126-15.344,4.37a145.069,145.069,0,0,1-32.234,3.577A65.667,65.667,0,0,1,58.173,36.661Z" transform="translate(0 25.841)" fill="#855efa"/><path d="M53.75,34.5c-3.22-.463-6.462-.811-9.656-1.414A96.969,96.969,0,0,1,25.72,27.638c-5.388-2.175-10.743-4.449-15.91-7.124-.874-.451-1.715-.966-2.579-1.438a4.9,4.9,0,0,1-2.014-2.109A52.264,52.264,0,0,1,.045,1.622,3.315,3.315,0,0,1,.057.464.594.594,0,0,1,.711,0,3.753,3.753,0,0,1,2.552.872,145.705,145.705,0,0,0,17.7,9.5,141.955,141.955,0,0,0,38.842,17.8a110.324,110.324,0,0,0,24.337,4.6,126.389,126.389,0,0,0,18.288-.03,148.215,148.215,0,0,0,31.047-5.656c.783-.229,1.757-.975,2.422-.073.51.689-.221,1.481-.565,2.148A55.36,55.36,0,0,1,105.5,31.282a6.157,6.157,0,0,1-3.335,1.734,116.376,116.376,0,0,1-12.831,2.057,129.083,129.083,0,0,1-15.9,1.219,88.87,88.87,0,0,1-12.073-.664q-3.806-.553-7.612-1.094C53.747,34.521,53.748,34.508,53.75,34.5Z" transform="translate(1.802 49.177)" fill="#855efa"/></g><g transform="translate(10.662 263.259)" opacity="0.5"><path d="M47.93,88.358C37.515,86.426,27.424,83.546,18.2,78.125a43.168,43.168,0,0,1-8.042-6.466A50.384,50.384,0,0,1,.648,58.2a12.509,12.509,0,0,1-.593-1.353.713.713,0,0,1,0-.561c.19-.271.516-.226.788-.113.638.259,1.262.558,1.9.82A69.381,69.381,0,0,0,18.53,61.832a21.858,21.858,0,0,1,2.268.649,18.047,18.047,0,0,0,4.672.646,20.29,20.29,0,0,1,2.357.034,64.113,64.113,0,0,0,22.582-1.6A66.55,66.55,0,0,0,78.892,47.121c9-7.8,16.832-16.613,22.1-27.445a34.328,34.328,0,0,0,3.481-10.013,2.926,2.926,0,0,1,2.657-2.685,82.523,82.523,0,0,0,9.068-2.69A65.026,65.026,0,0,0,125.541.582,9.1,9.1,0,0,1,126.9.031a.838.838,0,0,1,1.015.783,2.527,2.527,0,0,1,0,.588c-.338,1.944-.622,3.9-1.047,5.82-.785,3.553-1.652,7.085-2.492,10.625-.681,2.873-1.313,5.762-2.073,8.614q-1.522,5.7-3.212,11.363c-2.424,8.133-5.171,16.144-9.219,23.643a53.727,53.727,0,0,1-14.84,17.405A45.993,45.993,0,0,1,78.786,87.09a60.133,60.133,0,0,1-11.972,1.755A91.432,91.432,0,0,1,47.93,88.358Z" transform="translate(0 29.169)" fill="#6e26c7"/><path d="M27.431,5.694c-.969,5.622-2.351,11.152-3.66,16.7a12.589,12.589,0,0,0-.683,1.935c-.142,2.654-1.982,3.553-4.091,4.406A124.905,124.905,0,0,1,5.647,33.447c-1.422.4-2.852.771-4.293,1.082-1.059.229-1.435-.149-1.339-1.277.264-3.135.575-6.262.827-9.4.284-3.525.506-7.06.791-10.586.135-1.7.163-1.731,1.787-2.157a88.881,88.881,0,0,0,15.17-5.75c2.844-1.341,5.692-2.7,7.959-4.982a2.183,2.183,0,0,1,.5-.317A.8.8,0,0,1,28.1.726,27.141,27.141,0,0,1,27.431,5.694Z" transform="translate(105.79 0)" fill="#6e26c7"/></g><g transform="translate(3.753 0.363)" opacity="0.5"><path d="M6.871,66.262A98.979,98.979,0,0,0,8.413,101.77c.238,1.054.44,2.124.588,3.193a2.576,2.576,0,0,1-.194,1.133.91.91,0,0,1-1.47.317,4.749,4.749,0,0,1-.843-1.192,24.751,24.751,0,0,1-.915-2.5c-.83-2.618-1.351-5.317-2.79-7.749a11.993,11.993,0,0,1-1.1-3.961A84.021,84.021,0,0,1,.366,77.509C.234,69.047-.051,60.582.008,52.123q.05-7.218.574-14.447c.328-4.525,1.142-9,1.364-13.5C2.2,18.94,3.18,13.812,3.623,8.613c.15-1.761.162-3.535.268-5.3a8.948,8.948,0,0,1,.264-1.749A2.022,2.022,0,0,1,5.784.032c.8-.168,1.282.341,1.727.893a1.69,1.69,0,0,1,.178.237C10.182,5.59,14.16,8.519,18.116,11.471a16.2,16.2,0,0,1,2.095,1.636,18.708,18.708,0,0,0,6.436,4.056c8.235,3.538,16.445,7.13,24.662,10.707,1.531.667,3.092,1.246,4.607,1.969a8.8,8.8,0,0,0,5.483.673c.486-.094,1.03-.311,1.431.006,1.416,1.118,3.16,1.076,4.779,1.328,5.063.786,10.13,1.682,15.231,2.06a83.34,83.34,0,0,0,17.1-.478,3.8,3.8,0,0,0,1.69-.442c1.216-.884,2.336-1.344,3.718-.293.3.226.964.049,1.438-.055,1.443-.311,2.863-.753,4.316-.993,1-.165,1.452-.948,2.149-1.459a.851.851,0,0,1,1.36.554c.492,5.016-.183,9.6-4.474,13.017a26.644,26.644,0,0,1-11.75,5.268A50.823,50.823,0,0,1,87.5,49.77c-3.342-.082-6.7-.067-10.02-.36a35.994,35.994,0,0,1-9.01-1.527,4.854,4.854,0,0,0-1.144-.289A91.782,91.782,0,0,1,55.492,45.06c-5.575-1.347-11.23-2.069-16.873-2.925a57.316,57.316,0,0,0-14.139-.149,14.576,14.576,0,0,0-9.336,4.58,26.107,26.107,0,0,0-7.69,15.6C7.3,63.532,7.068,64.895,6.871,66.262Z" transform="translate(0 243.095)" fill="#fff"/><path d="M26.187,84.008a15.42,15.42,0,0,1-8.706-5.354C13.042,73.4,10.535,67.253,9,60.648A77.268,77.268,0,0,1,7.187,41.294a31.588,31.588,0,0,1,.436-3.518,59.45,59.45,0,0,0,.466-12.069,20.225,20.225,0,0,0-3.129-9.426,60.986,60.986,0,0,0-3.493-5.119C-1.279,7.6.2,3.3,2.889.463A1.9,1.9,0,0,1,4.833.105a11.312,11.312,0,0,1,8.006,5.977,27.065,27.065,0,0,1,2.79,8.989,123.285,123.285,0,0,1,.686,17.094c-.124,9.65-.06,19.284,1.738,28.83A34.561,34.561,0,0,0,22.9,72.965a14.133,14.133,0,0,0,6.96,5.7c2.026.817,3.979,1.048,5.9-.232a.55.55,0,0,1,.506-.036.666.666,0,0,1,.168.527,5.482,5.482,0,0,1-3.4,4.172A11.476,11.476,0,0,1,26.187,84.008Z" transform="translate(16.382 56.471)" fill="#fff"/><path d="M5.586,71.484a14.262,14.262,0,0,1-2.619-.407C1.414,70.54.163,69.621,0,67.78c-.035-.41.42-.861.722-.663,1.648,1.086,3.53,1.114,5.39,1.287a6.306,6.306,0,0,0,2.861-.521c4.235-1.578,7.257-4.633,9.979-8.057A47.865,47.865,0,0,0,25.49,47.62a157.962,157.962,0,0,0,5.573-16.808c1.4-5.022,2.966-10,4.558-14.964a41.706,41.706,0,0,1,3.557-7.784,17.994,17.994,0,0,1,5.7-6.3A9.673,9.673,0,0,1,51.011.023a1.522,1.522,0,0,1,1.5,1.152,9.621,9.621,0,0,1-.626,7.181,29.355,29.355,0,0,1-3.718,5.672c-1.406,1.9-2.8,3.806-4.225,5.694a31.8,31.8,0,0,0-4.914,10.357C37.336,35.84,35.616,41.59,33.5,47.212c-2.057,5.456-4.411,10.756-8.241,15.255a28.463,28.463,0,0,1-8.293,7C13.384,71.361,9.642,72.347,5.586,71.484Z" transform="translate(119.502 123.344)" fill="#fff"/><path d="M7.4.232c2.335.079,4.23,1.388,6.057,2.714,3.861,2.8,6.323,6.7,8.185,11.014.311.721.547,1.478.893,2.182a.959.959,0,0,0,1.511.283,20.813,20.813,0,0,0,1.577-1.744,28.768,28.768,0,0,1,10.66-8.241,13.519,13.519,0,0,1,8.678-.819A4.647,4.647,0,0,1,48.942,9.8,9.253,9.253,0,0,1,48.9,13.04c-.084.471-.158,1.194-.454,1.329-.718.328-.884-.529-1.219-.926a4.96,4.96,0,0,0-5.044-1.707,15.337,15.337,0,0,0-6.432,2.849q-3.33,2.459-6.626,4.967a13.813,13.813,0,0,1-3.375,1.817,5.97,5.97,0,0,1-5.394-.516,10.1,10.1,0,0,1-3.069-2.742c-1.06-1.423-2.107-2.857-3.126-4.309A24.815,24.815,0,0,0,8.023,7.464c-2.23-1.546-4.407-2.176-6.8-.412A1.084,1.084,0,0,1,.41,7.22c-.482-.131-.428-.6-.381-.976A18.384,18.384,0,0,1,.42,3.912C1.141,1.128,2.968-.168,5.865.017,6.356.048,6.843.152,7.4.232Z" transform="translate(83.766 0)" fill="#fff"/></g></g><g transform="translate(0 0)"><path d="M8.7,247.4c.366-2.547.686-4.6.951-6.649,1-7.761,5.542-12.33,12.862-14.515a69.089,69.089,0,0,1,15.746-2.416c1.472-.089,2.953-.078,4.429-.09a1.241,1.241,0,0,0,1.3-.97,1.292,1.292,0,0,0,.077-.285c.233-3.263,1.431-6.335,1.888-9.556,1.22-8.594,2.5-17.181,3.683-25.781.5-3.606.462-7.264,1-10.878a11.37,11.37,0,0,0-.294-3.814,8.032,8.032,0,0,0-3.507-5.266,34.371,34.371,0,0,0-9.355-4.318c-1.789-.55-3.577-1.1-5.346-1.712-5.167-1.784-9.308-5.095-13.056-8.942-7.829-8.032-12.784-17.654-15.638-28.436A99.065,99.065,0,0,1,.035,102.2c-.106-2.753.054-5.511.116-8.265a65.27,65.27,0,0,1,1-10.284C2.6,75.731,5.682,68.563,11.371,62.706a18.724,18.724,0,0,1,7.545-5.055c1.467-.482,1.568-.727,1.39-2.4-.27-2.546-.386-5.109-.5-7.668a9.805,9.805,0,0,1,.21-2.633,1.637,1.637,0,0,1,1.444-1.309,1.6,1.6,0,0,1,1.513.754,9.141,9.141,0,0,1,.916,1.836,32.327,32.327,0,0,1,1.375,6.049c.158.873.351,1.743.446,2.623s.364,1.513,1.331,1.673c1.015.166,1.946.221,2.593-.835Q32.1,51.71,34.64,47.717A16.168,16.168,0,0,1,36.031,45.8a1.911,1.911,0,0,1,2.353-.7,1.959,1.959,0,0,1,.9,2.541,36.559,36.559,0,0,1-1.689,4.1c-1.069,2.221-2.214,4.4-3.348,6.594-.3.57-.459,1.1.076,1.6.632.591,1.173,1.42,2.241,1.057a10.156,10.156,0,0,0,1.341-.617c2.365-1.222,4.721-2.459,7.089-3.673.963-.494,1.93-.989,2.932-1.392a1.371,1.371,0,0,1,1.831.483,1.562,1.562,0,0,1-.088,1.93,10.875,10.875,0,0,1-1.7,1.618c-2.191,1.682-4.416,3.32-6.623,4.979-.552.416-1.1.839-1.626,1.283a1.412,1.412,0,0,0-.455,1.6c.056.19.109.381.174.567,2,5.669,2.273,11.573,2.367,17.5.107,6.695-.248,13.389.087,20.084a113.335,113.335,0,0,0,1.674,15.271,29.188,29.188,0,0,0,4.6,10.807,9.871,9.871,0,0,0,5.816,4.292c1.341.349,1.96.035,2.119-1.274.463-3.821,1.755-7.472,2.179-11.308a90.11,90.11,0,0,1,1.7-10.81c1.249-5.287,1.745-10.7,2.929-15.978.8-3.564,1.24-7.184,2.073-10.726C67.007,77,68.806,68.3,72.221,60.086c2.278-5.479,5.051-10.7,9.484-14.841a2.852,2.852,0,0,0,.417-.728,2.46,2.46,0,0,0-.731-.39,22.562,22.562,0,0,1-5.721-1.417,20.618,20.618,0,0,1-5.084-2.986,12.563,12.563,0,0,1-2.044-2.12c-2.9-3.8-2.5-8.153,1.024-11.408a15.369,15.369,0,0,1,6.977-3.709A24.7,24.7,0,0,1,87.1,22.052q.871.172,1.754.277c.789.094,1.041-.251.784-1.069-.5-1.6-1.253-3.1-1.643-4.742a30.778,30.778,0,0,1-.808-5.551A12.329,12.329,0,0,1,88.641,4.4,8.57,8.57,0,0,1,97.029.077c4.821.7,8.421,3.243,11.449,6.736a30.148,30.148,0,0,1,4.842,7.055c.75,1.633,1.214,1.119,2.121.16A29.742,29.742,0,0,1,125.718,6.7a15,15,0,0,1,9.8-1.036,7.938,7.938,0,0,1,5.91,5.637,11.261,11.261,0,0,1-.207,7.528,31.671,31.671,0,0,1-5.112,8.94c-.646.8-.471,1.229.517,1.4,1.265.214,2.546.329,3.8.581a22.346,22.346,0,0,1,11.163,5.72,12.3,12.3,0,0,1,3.344,5.478A6.9,6.9,0,0,1,153.6,47.6a10.8,10.8,0,0,1-5.211,3.742,19.935,19.935,0,0,1-9.608,1c-.484-.079-.978-.126-1.469-.157s-.768.334-.535.743a35.378,35.378,0,0,1,2.72,6.222,56.657,56.657,0,0,1,2.543,14.824,136.045,136.045,0,0,1-.085,13.875c-.294,6.5-.975,12.952-1.55,19.422-.48,5.4-1.391,10.753-1.763,16.148-.97,14.094-3.7,27.947-5.5,41.925-.553,4.3-1.284,8.584-1.958,12.871a48.049,48.049,0,0,1-1.505,7.826,23.1,23.1,0,0,0-.705,4.671c-.093.839.354,1.3,1.216,1.3a11.461,11.461,0,0,0,6.975-2,27.356,27.356,0,0,0,8.044-9.32,92.493,92.493,0,0,0,7.193-17.783c1.656-5.569,3.21-11.168,4.9-16.723a64,64,0,0,1,5.61-13.331,19.547,19.547,0,0,1,6.638-7.018c5.13-3.189,10.313-2.927,15.428-.122a17.368,17.368,0,0,1,7.471,7.773c.128.267.28.521.432.774,1.088,1.8.82,1.889,2.956,1.344q4.584-1.172,9.2-2.223a22.651,22.651,0,0,1,3.5-.524,1.464,1.464,0,0,1,1.586,1.083,1.315,1.315,0,0,1-.709,1.489,18.941,18.941,0,0,1-2.558,1.466c-2.871,1.307-5.77,2.554-8.652,3.832a19.6,19.6,0,0,0-1.857.908.962.962,0,0,0-.533.984c.192.964.424,1.924.707,2.866a.849.849,0,0,0,.942.558c.785-.067,1.569-.145,2.349-.244q4.545-.578,9.086-1.178a5.3,5.3,0,0,1,2.342.012,1.229,1.229,0,0,1,.575,2.087A7.157,7.157,0,0,1,209,148.28c-3.07,1.092-6.224,1.888-9.374,2.7-.667.171-1.338.347-1.985.577a.919.919,0,0,0-.673.873c-.058,2.828-.707,3.1,2.65,3.731,2.8.532,5.588,1.164,8.363,1.834a13.377,13.377,0,0,1,2.73,1.088,1.364,1.364,0,0,1,.768,1.476,1.614,1.614,0,0,1-1.106,1.277,7.015,7.015,0,0,1-3.21.231q-4.71-.368-9.425-.67c-1.632-.1-1.828.061-2.159,1.693a97.505,97.505,0,0,1-11.441,29.961,67.041,67.041,0,0,1-12.085,15.634,56.362,56.362,0,0,1-18.511,11.969,34.017,34.017,0,0,1-11.89,1.979,51.531,51.531,0,0,0-7.956.472c-1.569.252-3.058.743-4.591,1.094-3.716.852-6.466,5.729-6.4,9.707.017.954.666,1.325,1.495,1.566a78.312,78.312,0,0,1,8.925,3.108,54.252,54.252,0,0,1,11.145,6.048,18.364,18.364,0,0,1,5.407,6.174,15.937,15.937,0,0,1,1.415,9.22,60.215,60.215,0,0,1-1.466,9.943c-1.094,4.1-1.231,8.395-2.711,12.4a13.014,13.014,0,0,0-.314,1.743q-1.565,7.062-3.145,14.117c-.044.192-.093.381-.132.576-.847,4.147-1.647,8.306-2.557,12.441-.593,2.688-1.333,5.342-2.029,8.008-1,3.809-1.952,7.63-3.03,11.415-2.867,10.062-6.079,20-11.428,29.082a53.558,53.558,0,0,1-14,15.854,58.607,58.607,0,0,1-9.718,6.171,51.992,51.992,0,0,1-18.238,4.622,112.182,112.182,0,0,1-12.4.378,55.633,55.633,0,0,1-9.412-.692c-9.787-1.926-19.374-4.592-28.2-9.4a46.825,46.825,0,0,1-11.56-9.123,56.262,56.262,0,0,1-11.905-19.9A65.121,65.121,0,0,1,5.51,331.77c-.629-6.478-.811-12.966-.825-19.477-.013-6.009.271-12,.467-18,.139-4.226.7-8.434,1.007-12.658.24-3.334.371-6.676.55-10.016.031-.591.044-1.182.091-1.77.322-4.022.877-8.045.913-12.07C7.749,254.1,8.592,250.54,8.7,247.4Zm36.113-3.96q-1.429,9.96-2.86,19.916c-.07.488-.116.981-.187,1.469a1.687,1.687,0,0,0,1.062,1.907c1.338.628,2.7,1.2,4.039,1.828a75.847,75.847,0,0,0,18.6,5.683c6.3,1.173,12.674,1.938,19.012,2.9a96.076,96.076,0,0,0,11.488.8,82.064,82.064,0,0,0,14.139-1.005c3.5-.5,3.23-.32,3.725-3.76q2.361-16.4,4.708-32.808a16.511,16.511,0,0,0,.256-2.941,21.658,21.658,0,0,1,1.6-8.951,13.269,13.269,0,0,1,6.375-7.11,20.182,20.182,0,0,1,4.77-1.556,48.1,48.1,0,0,1,10.279-.935,29.244,29.244,0,0,0,11.017-1.853A50.87,50.87,0,0,0,168.415,207c8.014-7.581,13.625-16.807,17.976-26.852a75.516,75.516,0,0,0,3.309-9.166c.6-2.09.978-4.222,1.554-6.306a45.567,45.567,0,0,0,1.289-19.6,27.227,27.227,0,0,0-5.645-13.159c-3.966-4.885-13.293-7.353-18.941.16a34.05,34.05,0,0,0-4.014,6.883,105.517,105.517,0,0,0-4.3,12.577c-1.548,5.293-2.886,10.647-4.721,15.853a129.241,129.241,0,0,1-5.207,12.876,37.259,37.259,0,0,1-9.108,11.884,15.066,15.066,0,0,1-11.832,3.433,4.217,4.217,0,0,1-3.554-4.711,22.644,22.644,0,0,1,.294-2.348c.971-6.627,1.749-13.287,3.318-19.814,1.773-14.181,4.43-28.238,5.715-42.494.6-6.663,1.249-13.336,2.113-19.979a33.039,33.039,0,0,0,.6-4.988c-.1-4.054.625-8.041.823-12.071a159.069,159.069,0,0,0-.07-18.6A43.1,43.1,0,0,0,135.344,58.5c-.407-1.1-.643-2.389-1.8-3.088.026,1.072.047,2.145.081,3.216.014.393.069.786.087,1.179a9.464,9.464,0,0,1-1.863,5.816,6.973,6.973,0,0,1-5.407,3.163,10.712,10.712,0,0,1-6.96-1.978,28.458,28.458,0,0,1-9.615-10.243c-1.217-2.237-1.205-2.145-3.085-.594a63.56,63.56,0,0,1-6.137,4.626,18.373,18.373,0,0,1-9.426,3.178c-5.629.132-8.87-3.081-8.7-8.431a11.984,11.984,0,0,1,.924-4.618c.325-.718.592-1.461.874-2.2.089-.233.008-.385-.19-.385a.408.408,0,0,0-.259.117c-.207.209-.395.437-.6.652-3.45,3.654-5.582,8.109-7.511,12.65-2.746,6.461-4.28,13.3-5.883,20.1-.9,3.83-1.724,7.691-2.315,11.579-.712,4.677-2.16,9.213-2.585,13.938-.026.294-.132.579-.169.871-.424,3.326-1.351,6.556-1.918,9.85-.971,5.636-1.738,11.306-2.6,16.963a15.137,15.137,0,0,1-.372,2.034c-.664,2.237-1.834,3.046-4.158,2.886a12.917,12.917,0,0,1-9.657-5.045,32.272,32.272,0,0,1-6.186-13.605c-1.891-9.038-1.949-18.2-1.895-27.368.031-5.22.141-10.443-.264-15.652A31.63,31.63,0,0,0,34.912,66.4a10.725,10.725,0,0,0-5.474-5.15,11.93,11.93,0,0,0-9.748,0,17.429,17.429,0,0,0-6.771,5.127A37.274,37.274,0,0,0,5.2,82.485,70.081,70.081,0,0,0,3.72,97.463,90.77,90.77,0,0,0,6.4,120.309c2.529,10.168,6.55,19.608,13.641,27.52,3.862,4.309,8.162,8.012,13.755,9.918,1.491.509,2.989,1.005,4.5,1.458a32.54,32.54,0,0,1,10.839,5.287c3.506,2.727,5.8,6.161,5.77,10.794a22.152,22.152,0,0,1-.253,2.941c-.9,6.349-1.884,12.685-2.707,19.045q-1.179,9.1-2.594,18.158c-.427,2.732-1.2,5.384-1.635,8.1C46.65,230.148,45.768,236.8,44.812,243.438ZM61.533,382.581c1.564.356,3.162.058,4.715.235a81.409,81.409,0,0,0,14.164.055c7.046-.432,13.863-1.77,20.207-5.077a56.605,56.605,0,0,0,7.378-4.9,48.937,48.937,0,0,0,12.889-14.474,91.452,91.452,0,0,0,7.644-16.948c1.825-5.2,3.458-10.467,4.813-15.817,1.135-4.482,2.526-8.9,3.5-13.416,1.082-5,2.122-10.006,3.364-14.97a1.162,1.162,0,0,0-.216-.753c-.038-.064-.372,0-.546.07-2.831,1.146-5.626,2.389-8.492,3.437a107.151,107.151,0,0,1-19.764,4.9,121.709,121.709,0,0,1-28.87,1.143,133.872,133.872,0,0,1-35.21-7.283A116.282,116.282,0,0,1,19.7,285.071a98.964,98.964,0,0,1-8.85-6.914c-.512-.448-.806-.293-.979.4-.44,1.752-.176,3.535-.289,5.3-.311,4.812-.548,9.626-.9,14.431-.393,5.308-.416,10.625-.375,15.936a150.79,150.79,0,0,0,1.23,20.629c1.629,11.186,5.613,21.284,13.32,29.734a42.093,42.093,0,0,0,12.072,9.382A92.2,92.2,0,0,0,45,378.191,133,133,0,0,0,61.533,382.581Zm11.579-81.395A107.135,107.135,0,0,0,86.62,302.6c3.842.073,7.678.14,11.513-.036a117.67,117.67,0,0,0,26.79-4.309,105.3,105.3,0,0,0,14.143-5.2,2.557,2.557,0,0,0,1.56-1.615,112.775,112.775,0,0,0,4.469-18.63,16.679,16.679,0,0,1,.856-3.434c.2-.524.405-1.484.169-1.664-.629-.473-.853.473-1.307.738-1.446.841-2.858,1.743-4.325,2.544-8.038,4.385-16.685,7.008-25.607,8.836a125.722,125.722,0,0,1-20.848,2.176c-5.825.2-11.567-.92-17.364-1.185-2.688-.122-5.156-1.3-7.8-1.591A65.178,65.178,0,0,1,54.578,275.6a113.728,113.728,0,0,1-23.166-11.043,76.977,76.977,0,0,1-18.029-15.141,1.665,1.665,0,0,0-.427-.4.394.394,0,0,0-.638.277c-.109.482-.146.978-.255,1.456-.638,2.813-.344,5.692-.655,8.532a104.713,104.713,0,0,0-.527,12.377,4.147,4.147,0,0,0,1.644,3.593c1.421,1.06,2.754,2.237,4.167,3.309a112.933,112.933,0,0,0,28.412,15.6A129.692,129.692,0,0,0,65.8,300.114C68.21,300.592,70.672,300.836,73.113,301.187ZM138.049,48.57a31.386,31.386,0,0,0,3.239.215c1.374-.044,2.744-.238,4.112-.4a7.842,7.842,0,0,0,3.8-1.546c2.112-1.588,3.087-3.582,1.786-6.15a10.052,10.052,0,0,0-3.737-4.088,21.627,21.627,0,0,0-16.7-3.088,10.584,10.584,0,0,1-1.723.392,1.658,1.658,0,0,1-1.65-1.035,1.6,1.6,0,0,1,.337-1.907c.487-.484,1.066-.873,1.592-1.318a27.626,27.626,0,0,0,8.672-12.1,8.773,8.773,0,0,0,.256-4.939,4.062,4.062,0,0,0-3.364-3.3,12.422,12.422,0,0,0-8.325,1.217A27.123,27.123,0,0,0,116.929,18a19.737,19.737,0,0,1-1.717,2.027,2.137,2.137,0,0,1-3.486-.526,13.423,13.423,0,0,1-.666-1.641,27.412,27.412,0,0,0-8.226-11.375A11.219,11.219,0,0,0,96.091,3.8a4.127,4.127,0,0,0-4.276,2.527,10.572,10.572,0,0,0-.884,5.185,26.266,26.266,0,0,0,4.746,13.2c.436.656.918,1.284,1.311,1.965a1.439,1.439,0,0,1-.35,1.872,1.6,1.6,0,0,1-1.878.451,13.782,13.782,0,0,1-1.284-.725,21.647,21.647,0,0,0-14.852-2.419A14.644,14.644,0,0,0,73.4,27.838a6.1,6.1,0,0,0-2.867,3.626c-.611,2.214.493,3.847,2.03,5.2a14.669,14.669,0,0,0,4.325,2.512c4.274,1.709,8.653,1.69,13.094.964a20.055,20.055,0,0,1,2.028-.379,1.872,1.872,0,0,1,2.023,2.282,2.707,2.707,0,0,1-.8,1.542c-.826.846-1.681,1.67-2.438,2.576-2.25,2.7-3.949,5.628-4.154,9.276-.185,3.285,1.55,5.069,4.82,4.656a15.419,15.419,0,0,0,6.125-2.072,25,25,0,0,0,10-10.98,7.732,7.732,0,0,1,1.056-1.761,1.434,1.434,0,0,1,2.54.594c.288,1.041.4,2.13.623,3.19a23.716,23.716,0,0,0,8.628,14.069,10.065,10.065,0,0,0,3.7,1.8c2.269.606,4.554-.105,5.153-2.982a12.52,12.52,0,0,0,.206-4.987,27.725,27.725,0,0,0-2.59-7.523c-.317-.612-.68-1.2-.978-1.824a1.812,1.812,0,0,1,.567-2.131,1.625,1.625,0,0,1,1.888-.465c.913.37,1.789.827,2.678,1.252A23.209,23.209,0,0,0,138.049,48.57Z" fill="#181f49"/><path d="M.131,3.244c.084-.335.279-1.3.577-2.231A1.434,1.434,0,0,1,2.034,0,1.464,1.464,0,0,1,3.521,1.2a21.566,21.566,0,0,1,.264,3.515A12.51,12.51,0,0,0,5.118,10.4a7.974,7.974,0,0,0,2.653,3.1,8.173,8.173,0,0,0,11.165-1.2,12.7,12.7,0,0,0,3.057-5.654,14.356,14.356,0,0,1,.532-1.991,1.94,1.94,0,0,1,1.991-1.443,1.838,1.838,0,0,1,1.35,2.029,15.367,15.367,0,0,1-.425,3.215c-1.263,4.787-3.768,8.636-8.465,10.721a11.648,11.648,0,0,1-12.82-2.514C.719,13.085-.416,8.741.131,3.244Z" transform="translate(87.557 105.447)" fill="#181f49"/><path d="M7.068.167c4.225.405,5.977,3.963,5.619,7.266-.332,3.061-4.12,5.643-7.2,5.183A6.563,6.563,0,0,1,.063,5.363C.541,2.109,4.178-.726,7.068.167Z" transform="translate(114.453 93.81)" fill="#181f49"/><path d="M12.437,7.3c.1,3.076-4.345,5.82-7.022,5.258a6.894,6.894,0,0,1-5.371-7.4c.3-2.561,3.8-5.829,7.535-5.034A5.92,5.92,0,0,1,12.437,7.3Z" transform="translate(77.489 88.583)" fill="#181f49"/><path d="M.717,10.271A47.466,47.466,0,0,1,2.434,2.526,4.737,4.737,0,0,1,3.328.7a1.675,1.675,0,0,1,3,.6,5.429,5.429,0,0,1,.286,2.311c-.594,3.783-.309,7.64-1.052,11.41a12.012,12.012,0,0,1-1.11,3.334A2.22,2.22,0,0,1,2.345,19.7a2.381,2.381,0,0,1-2.05-1.846A7.317,7.317,0,0,1,.088,14.64C.3,13.184.507,11.728.717,10.271Z" transform="translate(85.973 177.146)" fill="#181f49"/><path d="M11.288,15.391a1.916,1.916,0,0,1-3.045,1.365,6.873,6.873,0,0,1-2.2-2.359A78.675,78.675,0,0,1,.207,2.476,2.081,2.081,0,0,1,.077,1.04a1.63,1.63,0,0,1,2.182-.9A3.886,3.886,0,0,1,3.829,1.446a86.9,86.9,0,0,1,6.757,10.722A5.824,5.824,0,0,1,11.288,15.391Z" transform="translate(68.677 188.388)" fill="#181f49"/><path d="M1.728,14.4A2.064,2.064,0,0,1,.082,11.828,4.872,4.872,0,0,1,1.357,9.535c3.2-2.9,6.11-6.122,9.734-8.53A7.953,7.953,0,0,1,12.911.071,1.359,1.359,0,0,1,14.472.62a1.333,1.333,0,0,1,.236,1.386,7.94,7.94,0,0,1-1.074,1.743,91.061,91.061,0,0,1-8.443,9.028,8.248,8.248,0,0,1-2.533,1.461A3.657,3.657,0,0,1,1.728,14.4Z" transform="translate(93.857 193.655)" fill="#181f49"/><g transform="translate(52.255 104.459)"><path d="M11.871,16.084a17.185,17.185,0,0,1-8.426-3.245,10.051,10.051,0,0,1-2.432-2.544,4.917,4.917,0,0,1,.241-6.269,8.7,8.7,0,0,1,3.23-2.5A17.167,17.167,0,0,1,12.221,0,20.49,20.49,0,0,1,22.366,2.683,10.626,10.626,0,0,1,25.3,5.124c2.272,2.771,2.4,5.762-.532,8.3a11.063,11.063,0,0,1-4.72,2.319A18.3,18.3,0,0,1,11.871,16.084Z" transform="translate(67.454 9.822)" fill="#d901ab"/><path d="M12.5,16.272a17.642,17.642,0,0,1-8.7-3.4A10.964,10.964,0,0,1,.728,9.316a4.814,4.814,0,0,1,.949-6.2A8.586,8.586,0,0,1,5.176.967,19.855,19.855,0,0,1,23.632,4.233a7.508,7.508,0,0,1,2.45,2.907c1.376,3.032.52,5.96-2.391,7.563A16.406,16.406,0,0,1,14.842,16.6C14.057,16.562,13.279,16.385,12.5,16.272Z" transform="translate(0 0)" fill="#d901ab"/></g></g></g></svg>